<svg xmlns="http://www.w3.org/2000/svg" width="500" height="500" viewBox="0 0 375 375"><clipPath id="a"><path transform="scale(.24)" d="M0 0h1562.5v1593.75H0z" fill-rule="evenodd"/></clipPath><g clip-path="url(#a)"><path d="M0 0h375v382.5H0z" fill="#fff"/><path d="M0 0h375v375H0z" fill="#f8f8f8"/></g><clipPath id="b"><path transform="scale(.24)" d="M0 0h1562.5v1562.5H0z" fill-rule="evenodd"/></clipPath><g clip-path="url(#b)"><path d="M0 0h375v375H0z" fill="#fff"/></g><clipPath id="c"><path transform="scale(.24)" d="M0 0h1562.5v1562.5H0z" fill-rule="evenodd"/></clipPath><g clip-path="url(#c)"><path d="M0 0h375v375H0z" fill="#f8f8f8"/></g><clipPath id="d"><path transform="scale(.24)" d="M0 0h1562.5v1562.5H0z" fill-rule="evenodd"/></clipPath><g clip-path="url(#d)"><path d="M0 308.819 115.842 108.18 231.683 308.82H0z" fill="#bed6e8"/><path d="m193.288 308.819 90.856-157.363L375 308.819H193.288z" fill="#bed6e8"/><g opacity=".498"><clipPath id="e"><path transform="matrix(.24 0 0 .24 174 114.48)" d="M0 0h263v264H0z" fill-rule="evenodd"/></clipPath><g clip-path="url(#e)"><path d="M205.53 114.653c-17.396 0-31.5 14.103-31.5 31.5s14.104 31.5 31.5 31.5c17.398 0 31.5-14.103 31.5-31.5s-14.102-31.5-31.5-31.5" fill="#f6cd6f"/></g></g><path d="M-10.89 308.82h386.25v191.248H-10.89V308.82" fill="#bed6e8"/></g></svg>