<?xml version="1.0" standalone="no"?>
<svg xmlns="http://www.w3.org/2000/svg" width="32.874" height="32.874" viewBox="0 0 32.874 32.874">
  <path d="M33.066,2H3.808A1.808,1.808,0,0,0,2,3.808V33.066a1.808,1.808,0,0,0,1.808,1.808H19.555V22.135H15.281V17.2h4.274v-3.7a5.983,5.983,0,0,1,6.377-6.575,33.3,33.3,0,0,1,3.83.2v4.438H27.148c-2.071,0-2.466.986-2.466,2.416v3.172h4.931l-.641,4.931h-4.29V34.874h8.383a1.808,1.808,0,0,0,1.808-1.808V3.808A1.808,1.808,0,0,0,33.066,2Z" transform="translate(-2 -2)" />
</svg>