<svg xmlns="http://www.w3.org/2000/svg" width="33.84" height="33.84" viewBox="0 0 33.84 33.84">
  <path id="Контур_18" data-name="Контур 18" d="M18.92,14.724a4.2,4.2,0,1,0,4.2,4.2A4.2,4.2,0,0,0,18.92,14.724Zm16.8-4.145a11.049,11.049,0,0,0-.711-3.824,6.768,6.768,0,0,0-3.925-3.925,11.049,11.049,0,0,0-3.824-.711C25.079,2,24.436,2,18.92,2s-6.159,0-8.342.118a11.049,11.049,0,0,0-3.824.711A6.768,6.768,0,0,0,2.829,6.755a11.049,11.049,0,0,0-.711,3.824C2,12.761,2,13.4,2,18.92s0,6.159.118,8.342A11.607,11.607,0,0,0,2.829,31.1a6.667,6.667,0,0,0,1.54,2.369,6.582,6.582,0,0,0,2.386,1.54,11.049,11.049,0,0,0,3.824.711c2.183.118,2.826.118,8.342.118s6.159,0,8.342-.118a11.049,11.049,0,0,0,3.824-.711,6.582,6.582,0,0,0,2.386-1.54,6.667,6.667,0,0,0,1.54-2.369,11.167,11.167,0,0,0,.711-3.841c.118-2.183.118-2.826.118-8.342s0-6.159-.118-8.342Zm-4.3,13.536a9.7,9.7,0,0,1-.66,3.046,6.531,6.531,0,0,1-3.6,3.6,9.7,9.7,0,0,1-3.063.592H13.743a9.7,9.7,0,0,1-3.063-.592,6.3,6.3,0,0,1-3.6-3.6A9.289,9.289,0,0,1,6.5,24.1c0-1.337,0-1.692,0-5.178V13.743a9.289,9.289,0,0,1,.575-3.063A5.939,5.939,0,0,1,8.531,8.463,6.074,6.074,0,0,1,10.68,7.076a9.7,9.7,0,0,1,3.063-.592H24.1a9.7,9.7,0,0,1,3.063.592,6.3,6.3,0,0,1,3.6,3.6,9.7,9.7,0,0,1,.592,3.063c0,1.337,0,1.692,0,5.178s.118,3.841.068,5.178ZM28.717,11.526A4.027,4.027,0,0,0,26.331,9.14,6.768,6.768,0,0,0,24,8.768H13.844a6.768,6.768,0,0,0-2.335.44,4.027,4.027,0,0,0-2.386,2.3,7.225,7.225,0,0,0-.355,2.335V24a7.225,7.225,0,0,0,.44,2.335,4.027,4.027,0,0,0,2.386,2.386,7.225,7.225,0,0,0,2.25.44H24a6.768,6.768,0,0,0,2.335-.44,4.027,4.027,0,0,0,2.386-2.386A6.768,6.768,0,0,0,29.157,24V13.844a6.4,6.4,0,0,0-.44-2.335Zm-9.8,13.858a6.447,6.447,0,0,1-6.447-6.463h0a6.463,6.463,0,1,1,6.447,6.463Zm6.768-11.658a1.523,1.523,0,0,1,0-3.029h0a1.523,1.523,0,0,1,0,3.029Z" transform="translate(-2 -2)" fill="#03131e"/>
</svg>