<svg xmlns="http://www.w3.org/2000/svg" xmlns:xlink="http://www.w3.org/1999/xlink" width="655.852" height="116.282" viewBox="0 0 655.852 116.282">
  <defs>
    <clipPath id="clip-path">
      <path id="Path_13" data-name="Path 13" d="M0,0H655.852V116.282H0Z" transform="translate(127.761 387.876)" clip-rule="evenodd"/>
    </clipPath>
    <clipPath id="clip-path-2">
      <rect id="Rectangle_1" data-name="Rectangle 1" width="56705" height="56705" transform="translate(0 0)" fill="none"/>
    </clipPath>
  </defs>
  <g id="WARART-name" transform="translate(-127.761 -387.876)">
    <g id="Group_10" data-name="Group 10" clip-path="url(#clip-path)">
      <g id="Group_4" data-name="Group 4" transform="translate(127.761 -56209.082)" clip-path="url(#clip-path-2)">
        <path id="Path_7" data-name="Path 7" d="M0-30.909a22.682,22.682,0,0,1,10.887-8.77A34.779,34.779,0,0,1,23.438-42.25,32.208,32.208,0,0,1,39.92-37.26a35.081,35.081,0,0,1,9.224,8.317A42.793,42.793,0,0,1,56.4-14.881Q59.447-6.42,62,2.206a201.872,201.872,0,0,1,6.351,23.287,133.828,133.828,0,0,1,1.966,15.575,71.07,71.07,0,0,1,7.561-17.087A41.925,41.925,0,0,0,83.621.543,69.407,69.407,0,0,0,77.875-24.1c-1.966-4.385-4.536-6.653-7.863-7.107A8.77,8.77,0,0,0,61.7-28.036l-2.722-2.873a23.691,23.691,0,0,1,11.039-8.77,36.364,36.364,0,0,1,12.4-2.571,32.511,32.511,0,0,1,16.633,4.99,35.081,35.081,0,0,1,9.224,8.317,42.793,42.793,0,0,1,7.258,14.063l8.619,26.765a134.277,134.277,0,0,1,5.292,29.033,75.757,75.757,0,0,1,7.409-16.936,40.827,40.827,0,0,0,5.595-17.238,51.413,51.413,0,0,0-1.361-18.75,52.925,52.925,0,0,0-7.409-17.087,39.316,39.316,0,0,0-12.7-12.4h45.818a66.987,66.987,0,0,1-2.419,17.238,182.213,182.213,0,0,1-22.531,47.783,81.958,81.958,0,0,0-11.643,37.5h-3.932a30.243,30.243,0,0,0-1.966-12.1,14.365,14.365,0,0,0-5.292-6.5,22.077,22.077,0,0,0-6.956-3.327l-7.561-2.268a22.531,22.531,0,0,1-6.653-3.175A12.1,12.1,0,0,1,93.6,27.308L91.182,20.2q-1.013-3.469-1.966-6.956-2.933,5.287-6.351,10.282a64.115,64.115,0,0,0-6.956,13.912A95.268,95.268,0,0,0,72.129,50.9,62.755,62.755,0,0,0,71.07,61.028H67.29a30.243,30.243,0,0,0-1.966-12.1,14.365,14.365,0,0,0-5.292-6.5A22.077,22.077,0,0,0,53.076,39.1l-7.561-2.268a22.531,22.531,0,0,1-6.653-3.175,12.1,12.1,0,0,1-4.234-6.351c-3.175-9.678-6.049-18.9-8.166-27.672A149.25,149.25,0,0,0,18.75-24.1c-1.815-4.385-4.385-6.653-7.712-7.107a9.073,9.073,0,0,0-8.468,3.175Z" transform="translate(0 56643.973)" fill="#6c86b2"/>
      </g>
      <g id="Group_5" data-name="Group 5" transform="translate(299.972 -56208.023)" clip-path="url(#clip-path-2)">
        <path id="Path_8" data-name="Path 8" d="M44.759,60.6H0A62.942,62.942,0,0,1,2.419,43.508,131.858,131.858,0,0,1,16.785,9.334a245.566,245.566,0,0,1,13.76-21.321l5.9-7.561a74.851,74.851,0,0,0-5.595-14.365,8.775,8.775,0,0,0-7.863-4.839v-3.932A62.506,62.506,0,0,1,43.1-39.659,49.3,49.3,0,0,1,74.7-7.9q4.591,13.66,8.014,27.672a149.249,149.249,0,0,0,7.712,23.741q2.949,6.578,7.712,7.258a9.829,9.829,0,0,0,8.619-3.175l2.571,2.722a24.5,24.5,0,0,1-11.19,8.922,35.233,35.233,0,0,1-12.248,2.419,28.731,28.731,0,0,1-15.121-4.083A39.013,39.013,0,0,1,59.427,46.986a56.554,56.554,0,0,1-7.258-14.063H29.638a87.4,87.4,0,0,0,6.5,15.424A66.988,66.988,0,0,0,44.759,60.6m6.2-31.3c-2.268-6.956-4.536-14.365-6.653-22.228Q41.287-4.19,37.8-15.314,35.231-11.355,32.36-7.6A33.872,33.872,0,0,0,26.765,9.939a66.534,66.534,0,0,0,1.966,19.355Z" transform="translate(0 56643.348)" fill="#6c86b2"/>
      </g>
      <g id="Group_6" data-name="Group 6" transform="translate(402.48 -56208.277)" clip-path="url(#clip-path-2)">
        <path id="Path_9" data-name="Path 9" d="M35.247,11.462V7.984a21.17,21.17,0,0,0,12.7-3.478,11.8,11.8,0,0,0,4.99-10.131c0-4.385-2.419-9.375-7.107-15.121a32.057,32.057,0,0,0-12.1-9.829,31.15,31.15,0,0,0-12.853-3.175c-3.478,0-5.9.6-7.409,1.663A6.5,6.5,0,0,0,10.75-28a9.9,9.9,0,0,0,.454,4.234,9.829,9.829,0,0,0,3.629,4.536q2.768,1.786,5.595,3.478a38.862,38.862,0,0,1,6.049,3.932,16.785,16.785,0,0,1,4.688,6.049A19.96,19.96,0,0,1,33.13,3.75V60.909H.014V-9.859a34.779,34.779,0,0,1,3.327-16.18,27.259,27.259,0,0,1,8.922-9.98A36.291,36.291,0,0,1,23.906-41.16,49.9,49.9,0,0,1,35.7-42.672a91.485,91.485,0,0,1,25.253,3.024,40.071,40.071,0,0,1,17.39,9.073,19.658,19.658,0,0,1,6.5,15.121A19.2,19.2,0,0,1,77.586-.03a44.154,44.154,0,0,1-19.2,8.77A28.731,28.731,0,0,1,75.016,23.559a40.071,40.071,0,0,1,3.175,7.863q.97,3.579,2.117,7.107a12.853,12.853,0,0,0,3.024,4.99c2.571,2.722,5.141,3.78,7.712,3.024a15.121,15.121,0,0,0,7.409-4.536l2.419,2.873A46.271,46.271,0,0,1,78.947,60.153a29.033,29.033,0,0,1-13.458.756,24.8,24.8,0,0,1-12.7-7.258,17.692,17.692,0,0,1-4.99-8.619,32.511,32.511,0,0,1-.454-9.375l1.21-9.073a22.289,22.289,0,0,0,.151-7.712,7.409,7.409,0,0,0-3.478-5.595Q42.278,11.462,35.247,11.462Z" transform="translate(-0.014 56643.336)" fill="#6c86b2"/>
      </g>
      <g id="Group_7" data-name="Group 7" transform="translate(492.736 -56208.023)" clip-path="url(#clip-path-2)">
        <path id="Path_10" data-name="Path 10" d="M44.759,60.6H0A62.942,62.942,0,0,1,2.419,43.508,131.858,131.858,0,0,1,16.785,9.334a245.566,245.566,0,0,1,13.76-21.321l5.9-7.561a74.851,74.851,0,0,0-5.595-14.365,8.775,8.775,0,0,0-7.863-4.839v-3.932A62.506,62.506,0,0,1,43.1-39.659,49.3,49.3,0,0,1,74.7-7.9q4.591,13.66,8.014,27.672a149.249,149.249,0,0,0,7.712,23.741q2.949,6.578,7.712,7.258a9.829,9.829,0,0,0,8.619-3.175l2.571,2.722a24.5,24.5,0,0,1-11.19,8.922,35.233,35.233,0,0,1-12.248,2.419,28.731,28.731,0,0,1-15.121-4.083A39.013,39.013,0,0,1,59.427,46.986a56.554,56.554,0,0,1-7.258-14.063H29.638a87.4,87.4,0,0,0,6.5,15.424A66.988,66.988,0,0,0,44.759,60.6m6.2-31.3c-2.268-6.956-4.536-14.365-6.653-22.228Q41.287-4.19,37.8-15.314,35.231-11.355,32.36-7.6A33.872,33.872,0,0,0,26.765,9.939a66.534,66.534,0,0,0,1.966,19.355Z" transform="translate(0 56643.348)" fill="#e6c673"/>
      </g>
      <g id="Group_8" data-name="Group 8" transform="translate(595.247 -56208.277)" clip-path="url(#clip-path-2)">
        <path id="Path_11" data-name="Path 11" d="M35.247,11.462V7.984a21.17,21.17,0,0,0,12.7-3.478,11.8,11.8,0,0,0,4.99-10.131c0-4.385-2.419-9.375-7.107-15.121a32.057,32.057,0,0,0-12.1-9.829,31.15,31.15,0,0,0-12.853-3.175c-3.478,0-5.9.6-7.409,1.663A6.5,6.5,0,0,0,10.75-28a9.9,9.9,0,0,0,.454,4.234,9.829,9.829,0,0,0,3.629,4.536q2.768,1.786,5.595,3.478a38.862,38.862,0,0,1,6.049,3.932,16.785,16.785,0,0,1,4.688,6.049A19.96,19.96,0,0,1,33.13,3.75V60.909H.014V-9.859a34.779,34.779,0,0,1,3.327-16.18,27.259,27.259,0,0,1,8.922-9.98A36.291,36.291,0,0,1,23.906-41.16,49.9,49.9,0,0,1,35.7-42.672a91.485,91.485,0,0,1,25.253,3.024,40.071,40.071,0,0,1,17.39,9.073,19.658,19.658,0,0,1,6.5,15.121A19.2,19.2,0,0,1,77.586-.03a44.154,44.154,0,0,1-19.2,8.77A28.731,28.731,0,0,1,75.016,23.559a40.071,40.071,0,0,1,3.175,7.863q.97,3.579,2.117,7.107a12.853,12.853,0,0,0,3.024,4.99c2.571,2.722,5.141,3.78,7.712,3.024a15.121,15.121,0,0,0,7.409-4.536l2.419,2.873A46.271,46.271,0,0,1,78.947,60.153a29.033,29.033,0,0,1-13.458.756,24.8,24.8,0,0,1-12.7-7.258,17.692,17.692,0,0,1-4.99-8.619,32.511,32.511,0,0,1-.454-9.375l1.21-9.073a22.289,22.289,0,0,0,.151-7.712,7.409,7.409,0,0,0-3.478-5.595Q42.278,11.462,35.247,11.462Z" transform="translate(-0.014 56643.336)" fill="#e6c673"/>
      </g>
      <g id="Group_9" data-name="Group 9" transform="translate(685.508 -56209.082)" clip-path="url(#clip-path-2)">
        <path id="Path_12" data-name="Path 12" d="M9.983-.262A36.594,36.594,0,0,1,2.876-7.973,17.389,17.389,0,0,1,0-17.953,26.945,26.945,0,0,1,1.061-25.06a23.74,23.74,0,0,1,3.932-8.014,22.833,22.833,0,0,1,8.317-6.5A30.243,30.243,0,0,1,27.07-42.3a46.725,46.725,0,0,1,15.424,2.419,85.588,85.588,0,0,1,13,5.595q5.268,2.843,10.585,5.595a19.96,19.96,0,0,0,8.77,2.419,15.121,15.121,0,0,0,8.619-2.268,13.978,13.978,0,0,0,5.141-5.595,16.331,16.331,0,0,0,1.663-7.107h3.78a40.828,40.828,0,0,1-3.478,17.692A36.291,36.291,0,0,1,57.917-3.135,54.437,54.437,0,0,1,35.991-7.52a16.18,16.18,0,0,0,12.4,11.039L55.8,5.333A11.039,11.039,0,0,1,61.4,8.206c1.512,1.512,2.268,3.78,2.268,7.107V61.131H30.548V-9.788l-7.863-3.478a15.575,15.575,0,0,0-6.049-1.512c-2.419,0-4.083.756-5.141,2.419a8.166,8.166,0,0,0-1.21,5.292A6.5,6.5,0,0,0,12.7-2.832Z" transform="translate(-0.003 56643.867)" fill="#e6c673"/>
      </g>
    </g>
  </g>
</svg>
