<svg xmlns="http://www.w3.org/2000/svg" width="36.606" height="32.874" viewBox="0 0 36.606 32.874">
  <path id="Контур_17" data-name="Контур 17" d="M38.606,7.788a14.415,14.415,0,0,1-4.32,1.292A8.244,8.244,0,0,0,37.6,4.5a14.208,14.208,0,0,1-4.777,2.019,7.009,7.009,0,0,0-9.053-1.69,8.607,8.607,0,0,0-3.759,9.241A20.712,20.712,0,0,1,4.544,5.405a9.078,9.078,0,0,0-1.007,4.18A8.517,8.517,0,0,0,6.869,16.47a6.891,6.891,0,0,1-3.4-1.03v.1A8.113,8.113,0,0,0,9.5,23.618a6.577,6.577,0,0,1-2.013.343,8.155,8.155,0,0,1-1.409-.141,7.651,7.651,0,0,0,7.01,5.734A14.181,14.181,0,0,1,3.83,33.107,13.174,13.174,0,0,1,2,32.986a19.766,19.766,0,0,0,11.513,3.735,20.237,20.237,0,0,0,15.2-6.832,24.693,24.693,0,0,0,6.232-16.751v-1.07A16.459,16.459,0,0,0,38.606,7.788Z" transform="translate(-2 -3.849)" fill="#03131e"/>
</svg>