<svg xmlns="http://www.w3.org/2000/svg" width="335.6" height="336.6" viewBox="0 0 335.6 336.6">
  <g id="Alex_K_Yaroslav" transform="translate(-10 -9.5)">
    <ellipse id="Эллипс_1" data-name="Эллипс 1" cx="167.5" cy="168" rx="167.5" ry="168" transform="translate(10.3 9.8)" fill="#ffd500" stroke="#e0bb47" stroke-miterlimit="10" stroke-width="0.6"/>
    <circle id="Эллипс_2" data-name="Эллипс 2" cx="158.396" cy="158.396" r="158.396" transform="translate(19.436 19.436)" fill="#005bbb" stroke="#e0bb47" stroke-miterlimit="10" stroke-width="0.6"/>
    <path id="Контур_20" data-name="Контур 20" d="M194.467,41.276a5.4,5.4,0,1,1-5.4-5.4A5.4,5.4,0,0,1,194.467,41.276Zm-5.4,290.179a5.4,5.4,0,1,0,5.4,5.4A5.4,5.4,0,0,0,189.066,331.455ZM204.094,36.614a5.4,5.4,0,1,0,4.844,5.9A5.4,5.4,0,0,0,204.094,36.614Zm-29,294.154a5.4,5.4,0,1,0,4.845,5.9A5.4,5.4,0,0,0,175.1,330.769ZM218.978,38.824a5.4,5.4,0,1,0,4.242,6.351A5.4,5.4,0,0,0,218.978,38.824ZM161.263,328.714a5.4,5.4,0,1,0,4.242,6.351A5.4,5.4,0,0,0,161.263,328.714Zm72.31-286.232a5.4,5.4,0,1,0,3.6,6.737A5.4,5.4,0,0,0,233.573,42.483ZM147.7,325.313a5.4,5.4,0,1,0,3.6,6.737A5.4,5.4,0,0,0,147.7,325.313ZM247.739,47.556a5.4,5.4,0,1,0,2.92,7.058A5.4,5.4,0,0,0,247.739,47.556ZM134.53,320.6a5.4,5.4,0,1,0,2.92,7.058A5.4,5.4,0,0,0,134.53,320.6Zm126.809-266.6a5.4,5.4,0,1,0,2.214,7.309A5.4,5.4,0,0,0,261.339,53.995ZM121.889,314.613a5.4,5.4,0,1,0,2.214,7.31A5.4,5.4,0,0,0,121.889,314.613ZM274.241,61.737a5.4,5.4,0,1,0,1.486,7.491A5.4,5.4,0,0,0,274.241,61.737ZM109.9,307.417a5.4,5.4,0,1,0,1.486,7.492A5.4,5.4,0,0,0,109.9,307.417ZM286.322,70.707a5.4,5.4,0,1,0,.744,7.6A5.4,5.4,0,0,0,286.322,70.707ZM98.668,299.079a5.4,5.4,0,1,0,.744,7.6A5.4,5.4,0,0,0,98.668,299.079Zm198.8-218.26a5.4,5.4,0,1,0-.006,7.638A5.4,5.4,0,0,0,297.464,80.819ZM88.311,289.68a5.4,5.4,0,1,0-.006,7.639A5.4,5.4,0,0,0,88.311,289.68ZM307.56,91.976a5.4,5.4,0,1,0-.755,7.6A5.4,5.4,0,0,0,307.56,91.976ZM78.927,279.31a5.4,5.4,0,1,0-.755,7.6A5.4,5.4,0,0,0,78.927,279.31ZM316.514,104.069a5.4,5.4,0,1,0-1.5,7.489A5.4,5.4,0,0,0,316.514,104.069ZM70.6,268.07a5.4,5.4,0,1,0-1.5,7.49A5.4,5.4,0,0,0,70.6,268.07ZM324.237,116.982a5.4,5.4,0,1,0-2.223,7.305A5.4,5.4,0,0,0,324.237,116.982ZM63.426,256.067a5.4,5.4,0,1,0-2.225,7.307A5.4,5.4,0,0,0,63.426,256.067ZM330.657,130.591a5.4,5.4,0,1,0-2.93,7.053A5.4,5.4,0,0,0,330.657,130.591ZM57.458,243.419a5.4,5.4,0,1,0-2.93,7.054A5.4,5.4,0,0,0,57.458,243.419Zm278.252-98.655a5.4,5.4,0,1,0-3.607,6.731A5.4,5.4,0,0,0,335.711,144.763ZM52.761,230.245a5.4,5.4,0,1,0-3.608,6.732A5.4,5.4,0,0,0,52.761,230.245ZM339.35,159.364a5.4,5.4,0,1,0-4.25,6.344A5.4,5.4,0,0,0,339.35,159.364ZM49.378,216.675a5.4,5.4,0,1,0-4.251,6.345A5.4,5.4,0,0,0,49.378,216.675Zm292.16-42.424a5.4,5.4,0,1,0-4.852,5.9A5.4,5.4,0,0,0,341.538,174.251ZM47.344,202.837a5.4,5.4,0,1,0-4.853,5.9A5.4,5.4,0,0,0,47.344,202.837ZM342.256,189.28a5.4,5.4,0,1,0-5.406,5.393A5.4,5.4,0,0,0,342.256,189.28Zm-295.58-.413a5.4,5.4,0,1,0-5.408,5.393A5.4,5.4,0,0,0,46.676,188.868Zm294.82,15.44a5.4,5.4,0,1,0-5.91,4.836A5.4,5.4,0,0,0,341.5,204.308ZM47.382,174.9a5.4,5.4,0,1,0-5.91,4.838A5.4,5.4,0,0,0,47.382,174.9Zm291.883,44.289a5.4,5.4,0,1,0-6.356,4.232A5.4,5.4,0,0,0,339.265,219.188Zm-289.81-58.12A5.4,5.4,0,1,0,43.1,165.3,5.4,5.4,0,0,0,49.455,161.068Zm286.13,72.71a5.4,5.4,0,1,0-6.74,3.589A5.4,5.4,0,0,0,335.585,233.778ZM52.876,147.507a5.4,5.4,0,1,0-6.742,3.59A5.4,5.4,0,0,0,52.876,147.507Zm277.617,100.43a5.4,5.4,0,1,0-7.059,2.91A5.4,5.4,0,0,0,330.492,247.937ZM57.61,134.346a5.4,5.4,0,1,0-7.061,2.911A5.4,5.4,0,0,0,57.61,134.346Zm266.425,127.18a5.4,5.4,0,1,0-7.311,2.2A5.4,5.4,0,0,0,324.035,261.527ZM63.612,121.714a5.4,5.4,0,1,0-7.313,2.2A5.4,5.4,0,0,0,63.612,121.714Zm252.663,152.7a5.4,5.4,0,1,0-7.492,1.476A5.4,5.4,0,0,0,316.275,274.419ZM70.824,109.732a5.4,5.4,0,1,0-7.494,1.476A5.4,5.4,0,0,0,70.824,109.732ZM307.288,286.486a5.4,5.4,0,1,0-7.6.733A5.4,5.4,0,0,0,307.288,286.486ZM79.178,98.515a5.4,5.4,0,1,0-7.6.734A5.4,5.4,0,0,0,79.178,98.515Zm217.982,199.1a5.4,5.4,0,1,0-7.636-.015A5.4,5.4,0,0,0,297.16,297.615ZM88.592,88.171a5.4,5.4,0,1,0-7.638-.016A5.4,5.4,0,0,0,88.592,88.171ZM285.99,307.7a5.4,5.4,0,1,0-7.6-.764A5.4,5.4,0,0,0,285.99,307.7ZM98.975,78.8a5.4,5.4,0,1,0-7.6-.765A5.4,5.4,0,0,0,98.975,78.8Zm174.91,237.831a5.4,5.4,0,1,0-7.486-1.506A5.4,5.4,0,0,0,273.884,316.632ZM110.226,70.5a5.4,5.4,0,1,0-7.487-1.507A5.4,5.4,0,0,0,110.226,70.5ZM260.961,324.337a5.4,5.4,0,1,0-7.3-2.233A5.4,5.4,0,0,0,260.961,324.337Zm-138.722-261a5.4,5.4,0,1,0-7.3-2.235A5.4,5.4,0,0,0,122.239,63.332Zm125.1,267.405A5.4,5.4,0,1,0,240.3,327.8,5.4,5.4,0,0,0,247.343,330.738ZM134.9,57.383a5.4,5.4,0,1,0-7.049-2.941A5.4,5.4,0,0,0,134.9,57.383Zm98.267,278.389a5.4,5.4,0,1,0-6.726-3.616A5.4,5.4,0,0,0,233.163,335.771ZM148.077,52.7a5.4,5.4,0,1,0-6.726-3.617A5.4,5.4,0,0,0,148.077,52.7ZM218.558,339.39a5.4,5.4,0,1,0-6.338-4.259A5.4,5.4,0,0,0,218.558,339.39ZM161.651,49.341a5.4,5.4,0,1,0-6.339-4.26A5.4,5.4,0,0,0,161.651,49.341Zm42.017,292.218a5.4,5.4,0,1,0-5.89-4.86A5.4,5.4,0,0,0,203.669,341.558ZM175.492,47.325a5.4,5.4,0,1,0-5.89-4.861A5.4,5.4,0,0,0,175.492,47.325Z" transform="translate(-11.234 -11.234)" fill="#ffd500" stroke="#e0bb47" stroke-miterlimit="10" stroke-width="0.6"/>
    <path id="Контур_21" data-name="Контур 21" d="M319.985,116.8c-23.923,8.1-36.142,31.243-36.658,69.816v34.2H265.963l-6.432-83.725a27.558,27.558,0,1,0-32.277-.526l-6.311,84.251H203.451v-34.2c-.515-38.572-12.734-61.716-36.658-69.816-1.284-.385-4.37-1.415-9.259-2.957V277.256H209.5l33.314,65.957,34.6-65.957h51.961V113.838C324.358,115.381,321.271,116.41,319.985,116.8Z" transform="translate(-64.98 -33.786)" fill="#ffd500" stroke="#e0bb47" stroke-miterlimit="10" stroke-width="0.6"/>
    <path id="Контур_22" data-name="Контур 22" d="M250.325,172.554a25.437,25.437,0,0,0,7.717-1.029l6.69,88.331h33.7V217.169q.579-48.987,29.2-61.073v143.23H278.363l-28.683,55.93-28.04-55.93H172.506V156.1c19.036,8.1,28.683,28.415,29.2,61.073v42.687h33.57l6.817-88.459a28.326,28.326,0,0,0,8.232,1.157Z" transform="translate(-71.594 -64.344)" fill="#005bbb" stroke="#e0bb47" stroke-miterlimit="10" stroke-width="0.6"/>
    <circle id="Эллипс_3" data-name="Эллипс 3" cx="19.119" cy="19.119" r="19.119" transform="translate(159.662 61.582)" fill="#005bbb" stroke="#e0bb47" stroke-miterlimit="10" stroke-width="0.6"/>
    <circle id="Эллипс_4" data-name="Эллипс 4" cx="8.304" cy="8.304" r="8.304" transform="translate(170.478 72.398)" fill="#ffd500" stroke="#e0bb47" stroke-miterlimit="10" stroke-width="0.6"/>
    <circle id="Эллипс_5" data-name="Эллипс 5" cx="7.341" cy="7.341" r="7.341" transform="translate(107.105 140.068)" fill="#ffd500" stroke="#e0bb47" stroke-width="0.6"/>
    <circle id="Эллипс_6" data-name="Эллипс 6" cx="8.262" cy="8.262" r="8.262" transform="translate(107.105 206.274)" fill="#ffd500" stroke="#e0bb47" stroke-width="0.6"/>
    <circle id="Эллипс_7" data-name="Эллипс 7" cx="7.341" cy="7.341" r="7.341" transform="translate(235.72 140.068)" fill="#ffd500" stroke="#e0bb47" stroke-width="0.6"/>
    <circle id="Эллипс_8" data-name="Эллипс 8" cx="8.262" cy="8.262" r="8.262" transform="translate(233.878 206.274)" fill="#ffd500" stroke="#e0bb47" stroke-width="0.6"/>
    <circle id="Эллипс_9" data-name="Эллипс 9" cx="8.262" cy="8.262" r="8.262" transform="translate(170.547 230.317)" fill="#ffd500" stroke="#e0bb47" stroke-width="0.6"/>
  </g>
</svg>