<svg xmlns="http://www.w3.org/2000/svg" width="1301.562" height="1276.041" viewBox="0 0 976.171 957.031"><clipPath id="a"><path transform="translate(-639.08 -291.155)" d="M869.619 943.067h596.811v458.963H869.619z"/></clipPath><g clip-path="url(#a)"><path d="M827.097 1001.119c-73.335-48.777-129.968-128.943-136.505-218.294-1.427-36.503 2.532-75.916 22.837-107.199 6.38-9.468 15.051-16.902 24.282-23.464-9.08 14.07-15.358 29.91-16.986 46.715-2.912 49.841-.823 100.992 12.909 149.243 18.303 57.324 51.484 110.114 93.467 153l-.004-.001zM230.789 1110.624c3.298-26.705 8.166-53.352 10.992-80.09-.031.252-.06.507-.09.76l-.023.193c4.546-48.73 1.308-97.853 3.533-146.668 35.785 72.368 14.43 155.022-14.412 225.805zM389.73 841.734c-22.817 1.441-43.285-9.366-61.829-21.314 31.174 4.277 62.303 9.104 93.902 5.951 20.936-.644 41.268-6.462 60.566-14.079-26.63 20.134-59.607 28.752-92.64 29.442z"/></g><clipPath id="b"><path transform="translate(-639.08 -291.155)" d="M686.481 266.135h742.709V1287.15H686.481z"/></clipPath><g clip-path="url(#b)"><path d="M511.915 536.69c-8.452-.09-16.927-.057-25.34-.976-8.324-.968-16.729-2.239-25.043-2.672 10.86-.97 21.71.36 32.562.781 14.435.378 29.058 1.14 43.305-1.531 10.504-2.172 20.335-6.848 29.5-12.274 4.763-2.992 9.372-6.229 14.039-9.363-5.606 4.386-11.355 9.015-17.477 12.816-17.057 10.679-31.655 13.583-51.546 13.22zM264.96 557.596c-15.906-.115-31.563-4.21-46.227-10.164-3.582-1.508-8.092-3.87-7.371-8.45.146.297.072.781.168 1.142.339 5.69 13.19 7.345 17.746 8.902 7.146 1.944 14.32 3.816 21.64 4.965 6.982 1.005 14.12 1.548 21.133.746 6.259-.782 12.32-2.596 18.406-4.18 5.353-1.28 10.707-2.679 16.227-2.973 5.542-.299 11.271-.429 16.73-.449-8.423.81-17.01.893-25.218 3.11-11 2.78-21.72 7.418-33.235 7.351zM563.337 748.544c-9.136-11.181-17.644-22.879-27.332-33.582-11.65-11.902-24.521-22.46-35.97-34.558-2.117-2.2-4.261-4.371-6.398-6.547 2.359 1.755 4.752 3.806 7.082 5.707 12.416 10.422 24.729 21.105 35.883 32.879 9.844 11.261 18.151 23.971 26.735 36.101zM463.041 527.742c8.704-13.1 18.832-26.725 34.036-32.48 14.759-6.283 31.52-6.118 47.172-4.031 10.66 1.93 20.238 7.058 29.68 12.136 1.322.732 2.773 1.46 4.003 2.212-6.268-1.858-12.528-3.75-18.834-5.47-6.56-1.468-13.21-2.714-19.961-2.42-13.035.784-26.32 1.78-38.362 7.26-13.735 5.495-25.32 15.044-37.734 22.793zM321.414 537.94c-7.257-4.386-15.7-5.927-23.73-8.331-11.687-3.588-23.38-7.174-35.596-8.459-12.924-1.79-26.254-1.683-38.235 4.085-4.607 2.144-9.087 5.013-13.41 7.542 11.835-12.567 28.08-21.196 45.663-20.356 15.11-.278 30.55 1.758 43.875 9.305 7.938 4.033 16.346 8.73 21.433 16.214z"/><path d="M521.248 532.61c-16.022.866-34.868-12.577-24.145-29.434 1.7-2.576 4.58-4.6 7.68-4.593-1.855.933-3.394 2.503-4.126 4.412-6.24 15.315 12.609 23.48 25.04 22.532 8.71-2.086 11.235-12.069 12.454-19.798.426-4.09.578-8.327.894-12.361 1.031 6.539 2.14 13.029 1.507 19.667-.64 10.134-8.227 20.743-19.304 19.575zM259.245 554.076a25.593 25.593 0 0 1-14.078-5.317c-6.614-5.509-9.243-16.124-4.968-23.793 1.724-3.022 4.554-4.798 7.851-5.691-.502.535-1.21 1.078-1.746 1.66-5.533 5.638-2.691 14.738 1.636 20.229 4.665 5.697 12.487 6.758 19.423 6.939 6.419.049 11.926-4.991 14.242-10.706 1.523-4.015 1.963-8.455 2.863-12.568.07 4.75.627 9.615-.492 14.281-3.287 11.883-13.066 16.358-24.73 14.966zM506.561 776.275l.597-.06c-.004-.011-.012-.023-.016-.035a5.37 5.37 0 0 0 .815-.141l2.326 1.126a500.39 500.39 0 0 1-3.722-.89zM332.19 799.614c.098.266.2.525.304.78-.668.056-1.335.113-2.003.172.569-.324 1.134-.641 1.698-.952zM401.65 798.324c1.546-.285 3.085-.609 4.632-.89l1.023-.187c-.35.346-.622.731-.825 1.142-1.611-.024-3.221-.046-4.83-.065zM464.976 784.34c2.412-.59 4.821-1.162 7.233-1.68a573.802 573.802 0 0 1-6.464 3.143c-.23-.49-.487-.98-.769-1.464zM701.064 602.183c2.914-11.35 5.803-22.663 7.666-34.184 1.31-11.767 1.046-23.845 3.931-35.39 2.714-10.829 8.524-20.472 13.379-30.43 3.555-7.156 7.367-14.152 12.524-20.3 7.866-9.965 20.376-14.046 29.539-22.524 5.516-5.036-5.235 7.097-6.707 8.703-3.241 3.39-7.121 6.09-10.449 9.393-5.637 5.796-9.45 13.004-12.491 20.434-4.972 14.596-12.159 27.656-14.31 42.808-.743 23.596-8.123 43.262-23.082 61.49zM698.737 618.035c15.147-8.349 30.602-15.92 45.649-24.219-13.213 11.115-27.56 23.615-45.649 24.219zM135.565 539.044c-15.27-3.708-21.162-16.07-27.592-28.886-2.145-4.517-7.315-5.119-11.557-6.195 7.353-.513 12.557 1.22 16.317 7.905 6.336 10.069 13.765 19.537 22.832 27.176z"/><path d="M112.13 564.654c-2.575-8.245-4.553-16.821-7.895-24.765-4.015-9.337-10.457-17.501-13.82-27.125-4.154-11.826-.337-32.654 15.594-31.387 10.476.766 18.978 8.59 23.363 17.742 2.347 4.728 4.27 9.814 4.25 15.164.008 1.507.063 3.149.015 4.586-.633-6.54-2.508-12.446-6.084-17.953-4.714-7.848-12.134-14.575-21.497-15.518-10.608-1.317-13.742 11.028-13.684 19.353.146 7.001 3.418 13.314 6.508 19.415 3.553 6.966 7.146 14.002 9.043 21.633a573.481 573.481 0 0 1 4.207 18.855zM190.232 532.68c3.82-7.807 11.651-12.342 18.921-16.523 15.699-8.482 38.535-14.027 56.028-9.07 3.884 1.156 7.925 2.297 11.699 3.55-2.777-.581-5.559-1.16-8.34-1.73-7.24-1.932-14.675-2.086-22.05-1.03-11.705 1.282-22.905 5.11-33.514 10.053-8.075 4.03-17.12 7.43-22.744 14.75zM330.42 532.317c-2.377-3.223-5.947-5.195-9.356-7.094-3.834-2.052-7.759-3.933-11.664-5.85-13.677-7.583-29.204-10.018-44.218-13.61-.016-.004-.012-.028.003-.024 15.444 2.002 31.38 3.44 45.313 10.957 7.232 3.846 16.067 8.1 19.922 15.621zM310.043 791.614c2.542-.656 5.052-1.465 7.567-2.256 1.59-.5 3.176-1.004 4.762-1.508 1.109-.27 2.222-.531 3.335-.785h.002c-5.894 2.505-11.95 4.592-18.209 6.074.85-.506 1.697-1.015 2.543-1.525zM461.95 772.394c2.637-.464 5.166-1.147 7.746-1.896a3.5 3.5 0 0 0 1.319-.723c11.192 2.957 22.274 6.21 33.142 10.27-13.993-2.962-28.123-5.178-42.206-7.65zM424.594 713.09c.725-14.048 15.603-19.127 27.719-16.841 2.577.293 5.294.542 7.789.937-2.2.07-4.399.137-6.602.196-5.392.04-10.909.161-15.966 2.27-5.531 2.836-10.91 7.474-12.94 13.437zM377.001 711.716c-14.287-6.09-20.71-10.835-36.644-6.004 13.654-6.877 25.546-4.034 36.644 6.004zM331.065 697.952c-2.137-5.407-4.74-10.767-5.496-16.582.038-5.675 1.186-12.395 6.301-15.707 1.311-.948 2.914-1.613 4.426-1.933-1.094.71-2.115 1.409-2.997 2.34-4.066 3.944-5.137 9.893-5.648 15.261.285 5.642 2.353 11.173 3.414 16.621zM453.384 695.353c5.398-10.93 14.144-23.062 7.786-35.428-.875-1.952-2.012-3.876-3.117-5.62a33.41 33.41 0 0 1 2.593 2.298c12.514 12.198 1.008 27.951-7.262 38.75zM364.624 615.887c.366-14.51 1.586-29.116-1.331-43.457-3.943-21.715-12.481-43.239-25.649-60.978-1.488-1.804-3.179-3.432-5.118-4.744a21.469 21.469 0 0 1 5.833 2.957c20.17 15.398 28.493 41.687 30.109 66.168 1.253 13.456-1.664 26.914-3.844 40.054zM439.985 493.532c14.136-22.262 39.771-32.547 62.512-43.737-21.061 14.054-42.926 27.611-62.512 43.737zM455.49 483.89c21.84-16.98 49.15-24.597 74.868-33.71-24.339 12.28-49.165 24.49-74.867 33.71zM471.417 482.634c9.343-6.659 21.163-9.134 31.996-12.492 23.371-6.041 47.3-10.02 71.153-13.351-23.105 6.686-46.515 13.168-69.903 19.097-11.049 3.017-22.6 3.153-33.246 6.746z"/><path d="M489.015 472.157c24.338-21.154 58.128-24.582 89.086-26.332.015 0 .015.023.004.027-30.522 5.538-60.635 14.087-89.09 26.305z"/><path d="M498.656 465.033c27.613-15.602 60.062-18.366 91.176-17.57-30.804 3.134-60.95 11.28-91.176 17.57zM478.156 475.807c15.199-15.393 34.197-26.193 54.859-32.438-9.413 4.882-19.039 9.877-27.907 15.848-8.82 5.705-17.316 12.405-26.952 16.59z"/><path d="M493.115 468.486c17.25-13.552 39.826-16.47 60.906-19.558a1035.467 1035.467 0 0 0-60.906 19.558z"/><path d="M509.029 467.532c17.264-17.06 43.687-18.761 66.652-20.67 2.966-.191 6.06-.462 8.961-.567-25.492 5.49-52.08 9.777-75.613 21.237z"/><path d="M535.613 454.46c-.998 0-2.104.062-3.027.02 19.066-5.667 39.582-4.5 59.18-4.07-18.655 1.98-37.42 4.885-56.211 4.054l.058-.004z"/><path d="M535.768 457.347c20.014-8.23 42.31-5.725 63.41-4.769a2714.425 2714.425 0 0 1-63.41 4.77zM659.315 368.681c-15.703-14.996-33.96-31.86-34.308-55.172 0-.011.02-.02.023-.004 5.864 22.177 19.998 38.153 34.285 55.176z"/><path d="M659.36 364.806c-15.48-20.724-32.935-43.553-32.663-70.633-.037-1.412-.037-2.81-.082-4.211.438 1.392.722 3.035 1.074 4.523 4.888 25.604 18.414 48.351 31.671 70.32zM669.548 358.29c-7.714-11.688-14.986-23.53-21.785-35.743-6.716-12.547-13.07-25.558-15.73-39.64-.2-1.203-.506-2.506-.578-3.657.749 2.103 1.634 4.155 2.442 6.234 11.274 24.538 23.375 48.824 35.651 72.805z"/><path d="M654.611 357.732c-12.37-22.727-25.472-46.334-27.753-72.57-.067-1.06-.242-2.241-.22-3.235.512 1.818 1.106 3.678 1.603 5.43 7.43 23.926 16.56 47.407 26.37 70.375z"/><path d="M669.03 367.574c-10.506-12.6-20.718-25.604-28.703-39.973-4.973-8.72-8.51-18.117-11.762-27.59-.09-.33-.3-.68-.324-.96 1.61 2.468 3.082 5.015 4.527 7.582 5.163 8.891 9.716 18.112 14.875 27 6.586 11.616 14.15 22.803 21.387 33.941zM676.897 398.555c-22.32-21.93-48.29-48.573-54.566-80.227.784 1.708 1.602 3.599 2.402 5.375 4.977 10.407 11.618 19.857 17.47 29.764 10.558 15.747 22.614 30.613 34.694 45.088z"/><path d="M682.26 426.336c-11.447-12.191-22.824-24.777-32.395-38.457-8.332-11.34-15.384-23.915-18.48-37.75a91.61 91.61 0 0 1-1.024-5.575c.957 2.358 1.932 4.923 3.012 7.302 12.796 26.994 31.056 50.81 48.886 74.48z"/><path d="M692.395 431.15c-21.73-22.393-50.639-51.826-57.754-82.85.894 1.949 1.84 4.04 2.895 5.98 15.71 27.328 35.151 52.434 54.859 76.87z"/><path d="M691.629 471.17c-8.31-19.073-15.957-38.45-24.801-57.28-6.184-12.85-12.406-25.806-21.061-37.201-1.011-1.256-2.13-2.575-3.076-3.78 14.332 10.969 22.934 27.29 29.89 43.562 7.17 17.91 13.385 36.328 19.048 54.7z"/><path d="M685.24 555.249c-3.99-33.525-8.622-66.951-13.276-100.375-2.445-20.242-4.315-40.565-8.621-60.524-.42-2.321-.895-4.754-1.383-6.984 4.536 11.946 8.432 24.202 10.785 36.777 2.317 11.74 3.308 23.7 4.793 35.563 4 31.695 6.479 63.695 7.703 95.543z"/><path d="M692.548 563.186c-3.154-32.123-4.926-64.395-9.743-96.33-3.533-21.826-8.434-43.378-14.16-64.729-.85-3.46-1.77-7.049-2.402-10.48 5.94 15.229 12.444 30.32 16.09 46.316 9.81 40.921 9.54 83.482 10.215 125.223z"/><path d="M692.98 522.247c-3.79-20.673-.46-41.741 4.101-62.03 3.903-16.927 8.336-33.517 13.153-50.157.248-.774.436-1.659.707-2.336-4.512 25.07-9.842 50.013-13.656 75.2-1.975 13.025-4.003 26.192-4.305 39.323z"/><path d="M695.122 507.26c.637-15.481-.228-30.913.66-46.376 1.718-34.048 5.944-67.896 11.2-101.562.003-.016.027-.016.023 0-1.493 23.666-3.395 47.304-4.597 70.988-1.596 25.664-2.184 51.806-7.286 76.95zM683.748 487.016c-7.325-40.093-12.076-81.133-6.25-121.715.262-1.738.544-3.617 1.054-5.227-.093 1.25-.078 2.503-.124 3.756.274 11.394.937 22.784 1.038 34.182.238 8.936-.103 17.876.34 26.808.515 20.75 2.351 41.583 3.942 62.196z"/><path d="M694.176 456.495c-10.699-23.042-20.819-46.27-29.762-70.016-7.366-20.773-14.378-42.142-15.327-64.32-.02-1.637-.047-3.27.003-4.903.45 2.458.797 5.119 1.383 7.618 11.63 44.745 28.278 88.156 43.703 131.62z"/><path d="M703.938 454.803c-13.6-23.978-26.511-48.674-37.23-74.05-7.626-18.605-14.32-37.743-17.715-57.61-.135-1.41-.415-2.943-.41-4.285.655 2.798 1.58 5.456 2.539 8.152 5.182 14.445 11.14 28.612 16.578 42.965 8.112 21.72 17.447 42.985 26.887 64.121a.617.617 0 0 1-.02-.04c3.043 6.92 6.317 13.918 9.371 20.747zM705.77 414.843c-21.732-30.642-43.95-63.358-49.073-101.41-.207-1.916-.543-3.962-.621-5.813.656 2.266 1.316 4.533 2.082 6.762 6.004 18.188 13.438 35.848 21.597 53.168 8.133 16.024 17.058 31.795 26.016 47.293z"/><path d="M710.76 410.936c-25.863-30.599-53.372-62.35-64.492-101.602-.333-1.1-.6-2.216-.921-3.312.846 1.476 1.594 3.24 2.402 4.82 17.811 35.36 40.054 68.013 63.011 100.094zM718.793 383.169c-14.031-14.257-27.298-29.27-39.836-44.848.065.074.132.16.191.23-11.926-16.162-23.5-32.985-30.21-52.074-1.659-4.745-3.079-9.777-3.567-14.718.824 2.711 1.858 5.335 2.992 7.914 4.404 9.854 10.106 19.042 15.82 28.176 15.665 26.8 35.334 51.167 54.61 75.32z"/><path d="M715.54 380.375a614.243 614.243 0 0 1-10.245-12.232c-28.154-34.269-54.886-70.917-69.247-113.307-.47-1.676-1.008-3.326-1.406-5.015 1.168 2.433 2.294 5.098 3.687 7.496 11.403 20.965 23.255 41.69 35.626 62.097 13.148 20.758 27.43 40.96 41.586 60.961zM693.082 363.89c-24.177-24.737-64.676-66.336-69.144-101.226.691 2.185 1.513 4.543 2.457 6.62 5.095 10.997 11.716 20.631 18.195 30.692 14.697 22.34 31.675 43.262 48.492 63.914z"/><path d="M688.293 362.214a711.864 711.864 0 0 1-24.551-30.976c-10.15-13.499-19.437-27.825-24.817-43.95 2.872 4.564 5.942 9.252 8.809 13.903l-.037-.061-.025-.04c13.51 20.429 27.086 40.826 40.62 61.124zM789.86 539.937c-5.16-16.483-11.393-32.698-15.038-49.61-1.982-9.437-1.562-19.123-1.976-28.702-.636-7.71.284-16.5-4.594-23.02-1.101-1.617-1.81-.845-3.188-.268-4.593 2.101-9.125 4.326-13.727 6.401-6.345 3.065-12.739 6.11-18.57 10.094-6.755 4.772-12.621 10.802-17.588 17.314-9.065 13.211-12.898 29.212-17.463 44.283 1.91-14.77 4.073-30.077 11.23-43.343 4.678-8.469 11.904-15.313 19.407-21.29 11.098-7.75 23.768-12.819 35.953-18.573 3.626-1.94 7.248.722 9.012 3.902 6.862 11.529 2.815 33.451 4.242 47.031.65 8.034 2.381 15.664 4.332 23.426 2.683 10.756 5.452 21.63 7.969 32.355z"/><path d="M742.88 599.1c6.807-5.907 14.253-11.281 19.704-18.543 12.533-18.125 10.853-41.484 6.914-62.11-1.514-7.892-3.182-15.769-5.274-23.527-1.638-6.263-4.017-12.49-4.12-19.023 1.39 6.444 4.684 12.428 7.132 18.578 2.113 5.082 3.652 10.375 5.164 15.66 5.893 22.92 7.724 49.815-6.64 70.032-6.01 7.982-14.902 13.264-22.88 18.933z"/><path d="M725.562 660.566c-7.77-.848-16.17-1.363-22.848-5.829a13.737 13.737 0 0 1-2.156-1.914c1.956 1.494 4.309 2.478 6.637 3.063 6.067 1.416 12.207 1.3 18.373 1.275 2.514-.069 5.512-.509 7.815-1.162 8.985-2.877 16.998-8.112 23.37-14.99 10.347-11.089 15.912-25.528 19.646-40.013 3.658-14.005 6.007-28.437 7.096-42.814 1.506-17.19.995-34.42.266-51.625.787 6.273 1.426 12.784 2.114 19.141 2.264 24.418 1.442 49.32-3.996 73.281-4.12 18.787-11.78 37.727-26.7 50.5-8.27 6.698-18.731 11.902-29.617 11.087zM706.997 602.469c7.963-.653 14.322-6.04 20.418-10.77.016-.011.027.008.02.02-5.524 5.37-11.952 12.371-20.438 10.75z"/><path d="M740.716 590.444c15.604-11.839 16.542-33.682 20.644-51.301.004-.016.028-.012.024.004-2.004 17.913-1.336 42.972-20.668 51.297zM732.14 522.422c5.38-2.914 11.735-1.327 17.442-.402-5.728-.25-11.8-.824-17.441.402zM757.142 509.725c-2.53-9.805-5.29-19.69-5.574-29.872 3.012 9.569 4.172 19.978 5.574 29.872zM420.528 954.466c-12.86-.43-25.472-3.406-38.14-5.453a77.138 77.138 0 0 1-4.426-.879c5.52.618 11.043 1.157 16.566 1.707 8.196.665 16.364 1.91 24.602 1.707 15.488-.605 30.773-3.574 45.976-6.437 26.973-4.691 53.375-13.117 77.094-26.957 18.992-10.434 37.192-22.422 53.543-36.684 10.09-8.793 20.504-17.332 29.379-27.394 14.766-16.211 23.027-36.899 32.192-56.524a304.477 304.477 0 0 0 3.079-7.165 716.655 716.655 0 0 0-.107 3.794c0 .004.008.016.012.016h.004a405.787 405.787 0 0 0 9.64-25.645c2.395-7.113 4.704-14.277 6.477-21.57 1.559-6.402 2.965-12.848 4.102-19.336.972-5.57 1.406-11.277 1.992-16.894.472-4.528.93-9 1.074-13.547.21-6.504.32-13.012.484-19.52.063-2.41-.132-4.844-.218-7.25-.141-3.988-.301-7.98-.473-11.969a561.094 561.094 0 0 0-.253-5.207c1.851-14.952 4.005-29.872 6.089-44.8 2.25-17.903 3.816-35.79 6.469-53.61.507-3.004.949-6.097 1.707-8.972-.774 22.691-.246 45.484-3.86 67.976-2.71 20.895-6.289 41.692-7.965 62.703-2.097 24.844-2.867 49.86-7.746 74.375-3.73 19.688-11.082 38.473-19.515 56.582-6.567 13.703-12.641 27.809-21.602 40.164-9.058 12.664-20.824 22.977-32.523 33.125-23.215 20.754-49.692 37.793-77.82 51.09-21.227 9.918-44.41 15.719-67.481 19.035-12.443 1.91-24.957 3.542-37.56 3.542l-.792-.003z"/><path d="M389.365 954.56c-9.2-.795-18.306-2.432-27.308-4.462-17.95-3.818-35.872-8.2-52.72-15.629-8.673-3.705-16.96-8.261-25.026-13.137-9.828-5.916-19.42-12.296-28.032-19.898-12.513-10.95-22.773-24.13-31.968-37.926-5.185-7.536-10.04-15.31-14.336-23.39-6.379-12.387-12.09-25.097-17.828-37.79-9.064-19.157-16.65-39.12-20.395-60.042-3.673-22.29-5.545-44.879-10.87-66.852-4.47-18.78-11.84-36.795-14.981-55.906-4.03-21.007-3.29-42.475-3.172-63.758 0-8.808.238-17.656-.926-26.403-.218-1.258-.502-2.492-.684-3.671.51 1.403 1.077 2.796 1.461 4.238 6.28 24.082 3.905 49.249 6.114 73.809 1.896 20.426 8.075 40.015 14.175 59.492 6.766 23.53 9.459 47.987 12.77 72.137 2.439 15.791 6.842 31.24 12.757 46.074 10.543 23.595 20.286 47.765 33.83 69.842 12.158 18.974 25.513 37.618 43.506 51.506 13.285 10.058 27.687 18.738 42.75 25.859 13.689 6.225 28.502 10.64 43.036 14.098 8.969 2.159 17.29 4.464 26.222 6.218 13.936 2.86 28.143 3.816 42.317 4.508 8.156.423 16.447.776 24.527 1.254-18.397.434-36.848 1.346-55.219-.172zM442.163 522.931c7.187-16.626 24.676-25.183 40.62-31.573 13.779-5.556 28.54-8.398 43.364-8.942 12.898-1.06 25.37 1.139 37.301 6.004 11.772 4.361 23.223 9.851 34.219 15.742-12.765-5.74-25.702-11.093-39.063-15.305-5.436-1.75-11.024-3.04-16.69-3.769-7.08-.672-14.203-.31-21.278.156-15.907 1.065-31.501 5.483-45.89 12.245-12.42 6.002-25.391 13.303-32.583 25.442zM143.215 647.619c-6.047-3.04-12.713-5.183-18.055-9.418-2.658-2.46-4.387-5.787-5.741-9.106-3.734-8.808-3.827-18.665-1.626-27.875.394-1.634.935-3.39 1.727-4.812-.838 2.738-1.015 5.534-1.176 8.355-.577 10.79.427 22.524 6.942 31.453 1.88 2.235 4.45 3.781 6.953 5.184 3.648 2.038 7.417 4.175 10.976 6.219z"/><path d="M143.046 681.748c-13.3-2.002-22.492-13.297-29.7-23.75-5.896-8.377-7.4-18.734-7.75-28.72-1.314-28.576 1.36-57.195-1.02-85.714 2.013 13.57 2.969 27.555 2.903 41.313.231 12.05.21 24.29.372 36.308.2 7.74.282 15.566 2.083 23.13 1.888 7.97 6.748 14.619 11.895 20.803 7.224 8.825 18.153 16.946 30.12 14.893 3.322-.338 6.375-1.934 9.038-3.724-4.698 4.573-11.53 6.285-17.941 5.46zM734.623 898.612c-8.68-17.701-18.918-34.88-24.765-53.793-7.594-24.765-11.011-50.536-13.475-76.25-1.314-29.877-5.959-86.99 19.209-107.211 5.914-4.223 13.558-2.93 20.281-3.485-6.018 2.21-13.244 2.41-17.747 7.503-14.348 17.786-8.584 67.677-10.034 91.623.94 27.47 2.47 55.019 7.422 82.097 3.701 20.556 12.462 39.887 19.109 59.516zM253.256 995.747c-2.344-27.251-3.564-54.585-7.288-81.703-1.391-10.51-.867-21.877-5.866-31.461 21.611 23.117 14.955 81.186 13.154 113.164zM310.126 791.592c2.514-.652 4.996-1.452 7.484-2.234 1.59-.5 3.176-1.004 4.761-1.508l1.073-.258c-9.024 6.725-21.136 9.156-31.518 12.867 5.961-3.271 12.063-6.122 18.2-8.867zM505.771 782.7a40.46 40.46 0 0 1-24.644-10.81 123.692 123.692 0 0 0 9.969 3.649c13.533 4.665 27.837 5.49 42.027 5.934-8.96 1.184-18.258 2.337-27.352 1.226zM447.04 487.614c.947-10.594 7.792-19.8 12.015-29.355-2.723 10.166-7.146 20.093-12.016 29.355zM451.005 486.622c.822-11.026 9.81-19.218 18.242-25.332-7.225 7.481-13.778 15.948-18.242 25.332zM457.612 484.639c7.71-16.223 23.6-26.305 38.91-34.547-13.767 10.535-26.396 22.608-38.91 34.547z"/><path d="M463.226 481.332c10.897-17.353 32.246-22.981 50.726-28.562-17.456 8.41-35.291 16.9-50.726 28.562z"/><path d="M467.851 480.34c13.567-17.046 35.413-24.086 55.336-30.846-18.673 9.604-37.254 20.18-55.336 30.847z"/><path d="M463.23 481.658c20.034-12.79 44.694-14.966 67.574-19.288-22.267 7.792-44.64 14.508-67.575 19.288z"/><path d="M455.632 487.275c18.74-14.674 54.631-16.662 78.126-20.31-17.79 5.361-35.951 10.21-54.063 14.651-7.995 1.899-16.413 2.705-24.063 5.66z"/><path d="M455.96 489.919c23.903-26.243 62.659-28.791 96.008-29.168 8.44.066 17.036.118 25.39.402-41.033 5.635-84.26 9.19-121.398 28.766z"/><path d="M503.191 473.074c15.939-18.412 51.246-18.63 74.067-20.83 3.298-.188 6.726-.457 9.957-.544-18.417 4.26-37.07 7.464-55.37 12.203-9.637 2.602-20.188 3.782-28.654 9.171z"/><path d="M508.926 464.766c15.268-4.825 30.659-9.807 46.613-11.754 19.147-2.545 38.678-1.705 57.844-.941-17.426 2.291-35.34 3.754-52.649 6.519-17.097 3.28-34.359 6.85-51.808 6.176z"/><path d="M538.316 459.55c26-11.006 54.811-9.075 82.418-8.678-27.27 3.508-54.914 7.494-82.418 8.679z"/><path d="M542.104 468.559c20.782-18.55 51.373-14.98 77.27-15.214 4.183.12 8.514.173 12.617.401-29.839 4.82-61.417 4.136-89.887 14.813zM252.927 530.479a8.84 8.84 0 0 1 2.777-5.973c1.778-1.652 4.012-2.336 6.399-2.336 4.765 0 8.535 4.594 8.308 9.176a8.84 8.84 0 0 1-2.777 5.973c-1.777 1.652-4.012 2.336-6.399 2.336-4.765 0-8.535-4.594-8.308-9.176zM509.017 509.031a8.84 8.84 0 0 1 2.777-5.972c1.777-1.653 4.012-2.336 6.399-2.336 4.765 0 8.535 4.594 8.308 9.176a8.84 8.84 0 0 1-2.777 5.972c-1.778 1.653-4.012 2.336-6.399 2.336-4.765 0-8.535-4.594-8.308-9.176zM311.106 498.673c-8.524-5.51-16.771-11.727-25.438-16.886-8.905-5.093-18.596-8.862-27.964-12.836 20.467 3.695 41.839 11.35 53.406 29.723h-.004zM299.386 495.324c-28.757-5.996-57.748-10.809-87.043-13.169-.016-.003-.02-.027-.004-.027 29.413-2.225 61.485-3.86 87.047 13.196z"/><path d="M234.765 499.758c-25.27-1.024-50.563-3.652-75.797-4.093 21.59-3.655 43.499-4.229 65.348-4.676 16.855-.421 34.329.12 50.83 2.307 7.969.786 15.977 1.747 23.83 1.19-20.273 8.204-42.834 6.076-64.211 5.272z"/><path d="M211.264 496.405c-16.883-1.022-32.586-10.05-48.41-15.282 16.362 2.69 32.265 7.426 47.879 12.913 6.567 2.029 9.967 2.249.53 2.369zM208.72 484.564c-12.515-.275-25.006-1.087-37.48-2.083 21.773-2.074 43.966-4.433 65.91-2.87 4.171.383 8.331.95 12.417 1.871-.153.098-.434.064-.647.118-13.294 2.358-26.7 3.641-40.2 2.964z"/><path d="M214.843 492.306c-6.37-2.251-12.295-5.537-18.55-8.045-7.488-2.912-15.592-3.574-23.407-5.224 12.443-.507 25.076.47 36.543 5.91 9.8 3.373 21.178 8.566 31.356 4.511-6.739 6.508-17.683 5.788-25.942 2.848zM253.612 485.986c-20.422-2.595-39.456-11.618-59.617-15.665-7.168-1.611 20.763 1.352 23.383 2.172 17.976 3.203 35.45 8.782 53.125 13.18-5.525.734-11.279.848-16.89.313z"/><path d="M270.499 481.926c-23.661-5.79-36.32-15.939-61.95-8.26-.015.005-.023-.019-.011-.022 21.662-11.328 43.196-5.66 61.96 8.282zM292.267 486.533c-17.157-3.993-31.565-14.87-47.734-21.485 17.044 3.803 33.613 11.181 47.734 21.485zM282.054 491.14c-15.91-3.086-31.567-7.375-47.547-10.187-11.168-1.83 25.17.373 28.27 1.492 12.5 1.724 24.693 5.136 36.199 10.344-5.598-.16-11.337-.77-16.922-1.648z"/><path d="M268.867 490.28c-19.315-2.393-38.35-6.679-57.531-9.938 15.972-.253 32.137.836 48.062 2.715 12.192 1.538 24.782 3.152 36.223 7.66-8.926-.119-17.845.551-26.754-.437zM235.571 489.807c-20.565.415-40.493-5.234-60.324-9.776 14.287.425 28.494 2.163 42.575 4.55 5.23 1.087 15.429 2.895 17.734 5.227h.015z"/><path d="M239 490.783c-22.36-.74-42.655-11.874-64.57-15.441 18.49.044 36.912 4.344 54.288 10.66 1.97.61 16.638 5.892 10.282 4.781z"/><path d="M212.904 485.685c-16.33-1.309-32.65-1.114-49.011-.665 11.05-2.19 22.347-4.584 33.707-4.86 13.54-.635 27.16 1.064 40.246 4.278-8.278 1.192-16.602 1.543-24.942 1.247z"/><path d="M211.245 491.094c-18.539-.656-37.069-1.193-55.613-.328 16.408-4.02 33.508-5.779 50.457-5.895 12.932-.297 26.06.67 38.457 4.566-11.002.764-22.197 1.893-33.3 1.657z"/><path d="M148.3 501.292c16.324-4.872 32.945-8.602 49.598-12.16 10.728-2.376 21.898-3.69 32.832-3.02-26.442 9.745-54.638 12.5-82.43 15.18z"/><path d="M144.765 507.51c25.863-10.497 54.268-16.743 82.196-15.535-26.477 9.474-55.05 9.307-82.196 15.534zM140.278 503.686c22.02-12.045 47.107-25.586 72.868-19.456-24.926 3.798-49.203 11.193-72.868 19.456z"/><path d="M154.855 497.45c12.662-7.25 27.003-14.678 41.961-13.222-13.966 4.41-28.26 8.235-41.96 13.223zM276.031 485.97c-22-2.38-43.886-6.175-66.086-4.049 7.877-1.841 16.041-3.692 24.192-4.312 13.986-.495 28.321-.092 41.699 4.406 4.147 1.288 8.347 2.91 12.672 3.05-4.058 1.367-8.283 1.234-12.477.904z"/><path d="M283.577 490.083c-13.84-.896-26.472-7.244-39.559-11.278-6.294-2.1-12.79-4.053-18.988-6.21 17.621 2.174 35.15 5.872 51.731 12.326 4.849 1.85 9.742 3.546 14.675 5.146-2.545.14-5.255.157-7.86.016z"/><path d="M271.473 487.164c-20.891-2.938-41.721-6.15-62.738-8.083 8.725-.703 17.69-1.134 26.512-1.148 7.91.008 15.76.679 23.597 1.586 10.11 1.081 19.302 4.728 29.173 6.141.989.127 2.069.131 3.003.242-6.35 2.087-13 1.823-19.547 1.262zM250.51 491.199c-10.897-1.393-21.573-4.05-32.157-6.95a3213.652 3213.652 0 0 0 48.02 3.766c4.873.6 9.889 1.326 14.594 2.496-10.062 1.57-20.346 2.16-30.457.688z"/><path d="M237.293 484.472c-16.367-.743-32.008-6.419-47.57-11.086 10.593 1.12 21.3 2.995 31.902 4.613 10.428 1.642 21.133 2.678 31.293 5.395-5.183.601-10.398 1.23-15.625 1.078z"/><path d="M182.035 484.399c20.434-9.664 43.475-13.914 65.86-10.22-13.855 3.596-28.129 3.896-42.275 5.345-7.898 1.306-15.796 3.332-23.585 4.875z"/><path d="M187.605 492.492c17.215-13.773 40.338-17.695 61.547-12.868-11.77 2.292-23.935 2.716-35.735 4.138-9.203 1.23-17.527 5.09-25.812 8.73zM303.15 492.603c-14.859-6.379-29.427-13.687-44.785-18.676 15.96 2.34 33.313 6.7 44.785 18.676z"/><path d="M295.945 489.95c-18.521-4.027-33.984-16.33-51.797-22.528 4.061.7 8.235 1.802 12.274 2.891 17.78 4.81 33.566 15.06 51.344 19.754-3.851.533-7.924.55-11.821-.116z"/><path d="M270.783 492.167c11.32-1.263 23.073-2.647 34.473-1.656-11.091 3.735-23.007 2.32-34.473 1.656zM538.258 560.871c-23.713-.021-47.904-3.528-69.39-13.984a43.479 43.479 0 0 1-2.172-1.29c1.404.67 2.967 1.49 4.484 2.083 13.366 5.5 27.332 9.508 41.7 11.238h-.02c17.024 2.212 34.392 1.368 51.387.117-8.643.83-17.296 1.852-25.989 1.836zM233.986 575.222c23.088-2.026 47.01-3.242 68.17-13.581 2.332-1.187 4.648-2.41 6.862-3.805-.543.48-1.323.95-1.961 1.41-21.74 13.207-48.365 14.604-73.07 15.976zM356.993 206.17c-52.623-16.415-69.113-40.504-88.036-89.706 12.21 20.851 21.599 44.894 42.41 58.833 49.858 35.738 116.475 30.088 171.207 9.269 7.506-2.682 14.7-6.035 21.684-9.844-2.361 2.076-5.015 4.106-7.598 6.02-39.921 28.044-92.41 39.511-139.667 25.429z"/><path d="M382.397 193.3c-36.84-2.818-74.447-21.909-89.807-56.964-13.06-31.526-12.603-66.699-17.444-100.082 7.291 30.139 10.614 61.81 21.95 90.84 13.994 33.182 48.734 51.47 83.299 54.953 37.985 2.412 76.365 1.717 112.889-9.015-33.456 17.965-73.306 22.971-110.887 20.268z"/><path d="M392.273 180.224c-33.609-10.25-69.67-26.602-88.25-57.965-11.25-21.506-16.972-45.452-24.96-68.287 18.359 38.47 25.65 75.855 67.37 96.173 41.164 20.864 89.693 34.924 135.88 27.133-28.195 12.22-60.821 10.606-90.04 2.946z"/><path d="M447.961 171.136c-37.83-7.566-75.757-21.151-106.399-45.09-21.487-18.187-40.857-38.823-60.808-58.668 27.557 21.29 52.634 46.665 83.265 63.737 46.222 21.815 96.808 36.9 147.849 41.071-21.066 3.53-42.858 2.59-63.907-1.05z"/><path d="M482.87 163.967c-37.796-4.496-73.496-24.005-97.731-53.343-20.758-24.732-30.055-56.51-42.309-85.766 13.48 23.769 24.453 50.112 41.254 71.637 26.652 33.34 66.84 52.712 107.293 63.781 7.048 1.727 14.185 3.086 21.336 4.313-9.859.673-19.976.662-29.843-.622z"/><path d="M424.035 151.098c-54.615-1.966-87.344-50.818-88.75-102.043-.245-3.058-.557-6.235-.637-9.234.691 3.609 1.421 7.226 2.289 10.796 4.022 16.453 7.73 32.938 16.75 47.397 16.395 25.117 42.104 43.94 70.348 53.084zM528.752 158.699c-41.557-10.409-88.862-25.141-111.137-64.875-8.23-15.064-11.333-31.964-16.734-48.008-9.514-33.196-9.164-30.46 3.293-.418 8.045 17.89 13.305 37.402 25.805 52.908 26.583 29.142 65.439 41.408 98.773 60.393z"/><path d="M543.111 149.408c-50.009-8.526-66.534-54.009-72.001-98.83-1.12-7.954-2.27-16.035-2.934-23.97 1.455 6.045 2.964 12.07 4.584 18.073 10.683 45.28 25.83 83.677 70.351 104.727zM333.763 234.855c-42.116-7.872-91.654-33.743-97.929-80.364-.787-14.519 3.397-28.624 8.043-42.207 5.526-18.423 11.254-36.79 17.844-54.863-5.437 21.284-9.742 43.044-14.793 64.492-8.153 25.366-1.64 51.759 18.855 69.185 41.145 38.061 99.544 36.248 151.57 42.62-27.807 1.057-55.9 5.74-83.59 1.137z"/><path d="M359.858 216.135c-53-13.224-79.347-67.62-86.443-117.733-2.913-13.88-5.767-27.918-8.223-41.809 3.457 10.898 6.887 21.805 10.345 32.703 9.105 29.625 16.948 60.621 37.611 84.542 14.063 16.79 30.431 32.783 50.736 41.667a75.761 75.761 0 0 0 5.308 1.74c-3.086-.031-6.26-.461-9.334-1.11z"/><path d="M352.864 211.153c-86.037-11.046-87.881-71.391-92.591-142.606 9.196 42.046 8.353 96.705 51.942 119.482 42.334 21.607 92.332 10.503 138.034 12.773-31.833 6.356-64.766 12.2-97.385 10.35zM535.387 176.928c30.1-1.56 61.791-7.938 86.287-26.59 12.737-10.58 20.87-25.484 30.702-38.5 14.894-21.012 14.79-21.27 2.314 1.566-22.704 50.75-63.576 76.034-119.303 63.524z"/><path d="M575.797 193.075c-5.832-.679-11.749-1.805-17.324-3.472 7.406-.114 14.684-.342 22.015-1.275 37.629-7.428 68.81-31.871 101.754-49.99-12.537 10.343-25.5 20.177-39.008 29.221-19.97 13.517-42.13 28.555-67.437 25.516zM615.296 209.213c-6.19.906-31.62-14.523-16.36-8.188 20.148 7.794 40.868-.329 59.508-8.445 7.93-3.37 15.723-6.74 23.423-10.29-20.196 11.883-42.002 29.03-66.571 26.923zM659.141 238.021c-24.229-2.08-49.816-8.076-66.043-27.62 7.485 4.377 15.342 8.56 23.497 11.73 23.854 9.437 49.444 13.053 74.46 18.13-10.573-.212-21.332-1.083-31.914-2.24zM721.224 324.205c-35.492-11.886-79.25-32.592-79.624-75.723 11.62 37.737 46.441 58.951 79.624 75.723z"/><path d="M732.718 323.726c-30.784-23.253-71.176-47.845-77.27-89.098 17.342 35.66 49.592 61.688 77.27 89.098zM735.015 347.067c-31.86-16.643-69.212-34.732-81.874-70.883 21.946 29.185 52.452 50.131 81.874 70.883zM725.818 356.668c-31.027-7.064-83.563-20.19-73.827-62.011 1.653 37.966 44.833 49.602 73.827 62.011zM704.547 521.978c-29.849-63.008-52.985-130.568-62.949-199.617 27.399 64.451 39.801 133.768 62.949 199.617z"/><path d="M700.208 525.685c-21.053-72.403-44.96-143.84-70.174-214.86 42.601 63.808 56.42 140.718 70.174 214.86z"/><path d="M679.326 470.05c-15.882-51.262-39.698-102.95-42.347-156.922 17.88 51.181 32.347 103.587 42.347 156.922zM144.72 542.607c-14.622-61.756-27.857-124.312-24.231-188.09.353-37.922 4.657-76.172 19.5-111.39 6.095-16.35-.528 7.157-.892 13.003-8.045 47.986-7.408 96.936-8.426 145.456.31 47.337 8.723 94.176 14.049 141.02zM114.868 451.3c-10.645-40.658-23.659-80.997-29.06-122.793-4.707-46.88-3.449-96.89 16.322-140.41 1.568-3.028 3.455-6.03 5.73-8.48-2.45 4.192-3.848 8.848-5.036 13.53-8.649 45.075-9.795 91.763-7.284 137.517 3.892 40.82 13.155 80.314 19.328 120.637z"/><path d="M106.337 381.333c-1.969-47.557-10.855-119.345 9.727-162.203-3.672 14.623-2.3 30.068-3.33 45.031-2.065 39.032-3.85 78.228-6.397 117.172z"/><path d="M104.055 409.517c-4.968-68.283-17.868-157.77 17.95-218.73-1.122 3.686-2.253 7.575-3.166 11.336-14.22 68.25-12.446 138.177-14.784 207.394zM123.466 448.445c-4.968-76.504-12.03-156.996 15.712-230.062-9.04 76.356-13.05 153.31-15.712 230.062z"/><path d="M97.72 394.35C85.782 313.7 47.651 183.477 119.59 122.436c3.608-2.8 7.452-5.348 11.37-7.703-5.903 5.478-11.642 11.386-16.27 17.902-16.735 23.431-21.663 52.294-25.241 80.19-6.8 60.493 5.281 121.178 8.271 181.525z"/><path d="M97.472 323.687c1.831-48.043-5.033-137.804 32.009-171.66-13.971 22.145-14.919 49.572-19.62 74.708-4.251 32.272-8.157 64.75-12.389 96.952zM119.777 387.306c-2.078-56.01-7.547-112.475 5.208-167.438 2.99 55.736-.915 111.858-5.208 167.438z"/><path d="M122.795 428.55c2.328-75.268-2.446-162.3 31.294-231.043-15.787 76.042-20.94 154.171-31.294 231.043zM90.7 398.582c-.89-55.038-10.898-180.438 20.146-222.695-10.257 27.638-8.021 58.048-10.714 87.015-3.119 45.204-5.928 90.57-9.431 135.68zM139.624 519.284c-9.917-29.984-18.953-60.268-26.598-90.914-6.244-25.9-11.375-52.928-7.4-79.515 9.97 57.008 24.197 113.406 33.998 170.43z"/><path d="M122.85 432.683c-13.777-82.231-25.48-167.754-4.507-249.774.959-3.175 3.382-11.284 2.024-3.559-4.292 84.39-3.646 169.085 2.484 253.333z"/><path d="M119.726 441.733c-16.857-79.745-35.043-163.973-9.98-243.945 1.312-4.457 2.648-8.899 4.136-13.301-.691 6.889-1.366 13.963-2.068 20.918-8.203 78.88-1.185 157.935 7.912 236.328z"/><path d="M118.635 479.35C96.421 399.418 69.99 315.654 85.508 232.164c4.102 83.149 18.51 165.419 33.127 247.188zM94.731 280.639C98.808 231.19 96.735 138.8 138.247 106.4c-15.961 19.887-18.089 47.474-24.854 71.337-6.988 34.129-12.525 68.67-18.662 102.902z"/><path d="M78.484 299.983c4.86-60.121-.412-142.09 55.717-179.835 4.354-2.683 9.173-4.848 14.184-5.633-3.088 1.342-6.211 3.305-8.753 5.397-48.414 45.775-48.494 118.877-61.148 180.071z"/><path d="M107.882 331.309c3.206-62.306-3.209-137.557 32.395-191.442-19.553 61.689-21.817 127.863-32.395 191.442z"/><path d="M115.974 346.695c2.456-63.621-3.793-136.164 32.419-191.613-19.851 61.898-22.798 127.742-32.419 191.613z"/><path d="M119.013 405.604c1.497-77.745.696-161.38 41.552-230.238-22.632 74.837-32.337 152.875-41.552 230.238z"/><path d="M118.998 429.791c1.715-93.036-5.35-252.314 47.631-328.48-1.32 2.954-2.7 6.07-3.843 9.039-32.323 103.025-31.143 213.03-43.788 319.441zM687.849 437.031c-38.164-82.048-90.597-178.293-76.946-271.13 1.054-5.831 2.539-11.601 4.812-17.085-1.36 7.163-1.655 14.555-1.54 21.844 4.57 92.868 42.65 180 73.674 266.371z"/><path d="M691.946 480.464c-46.905-80.173-100.213-167.458-93.097-263.867 3.415-27.57 2.483-20.805 3.896 1.89 8.5 93.282 49.804 178.573 89.2 261.977z"/><path d="M692.265 494.482c-31.175-92.774-72.01-208.368-61.787-306.578.61-4.645 1.211-9.29 2.02-13.907.238 6.764.617 13.697.917 20.52 9.293 101.776 35.193 200.92 58.85 299.965z"/><path d="M693.798 488.988c-21.13-88.56-54.824-204.95-33.483-289.832-2.274 29.115 2.705 58.14 4.944 87.105 7.515 67.828 17.837 135.431 28.54 202.727z"/><path d="M695.29 553.284c-12.698-69.342-23.55-139-32.415-208.926-6.142-48.505-14.521-97.743-7.975-146.581 14.307 118.346 32.692 236.448 40.39 355.507z"/><path d="M687 543.56c-8.157-104.146-21.336-209.168-13.912-313.609 13.298 103.93 14.425 209.037 13.912 313.61z"/><path d="M699.533 543.542c-15.072-105.579-24.432-212.599-18.052-319.191 14.456 105.625 11.769 212.967 18.052 319.191z"/><path d="M705.18 490.34c-6.842-73.422-16.823-147.643-6.94-221.227 4.61 36.945 6.318 75.303 6.773 112.371 0-.143-.003-.286-.004-.43.608 36.4.837 72.955.171 109.286z"/><path d="M702.395 495.493c-3.985-70.87-14.77-143.831 1.438-213.793 2.036 71.135 1.888 142.671-1.438 213.793zM675.585 453.442c-16.473-86.153-39.616-174.893-23.48-262.657 3.735 87.838 14.836 175.273 23.48 262.657z"/><path d="M687.997 432.81c-27.494-75.68-62.692-153.001-59.671-235.032 16.177 79.181 39.519 156.864 59.67 235.032z"/><path d="M682.365 432.836c-32.933-82.434-70.686-168.304-65.23-258.837 14.326 87.875 39.845 173.756 65.23 258.837z"/><path d="M666.908 399.454c-29.665-58.797-71.618-124.328-53.377-192.642 1.052-3.498 2.27-7.108 3.605-10.43-.54 4.535-1.04 9.086-1.294 13.65-1.927 66.729 28.19 128.411 51.066 189.422z"/><path d="M689.324 437.385c-40.986-70.826-81.898-151.178-68.015-235.414.377 5.396.742 10.965 1.314 16.406 8.514 76.616 34.903 149.351 66.701 219.008zM693.53 400.544c-26.214-70.198-68.387-155.048-56.811-230.743 2.325 35.743 12.624 70.382 21.524 104.907 11.53 42.011 23.41 84.006 35.286 125.836z"/><path d="M681.087 414.51c-19.93-75.374-55.24-172.205-33.177-248.899-2.462 22.077.746 44.301 3.246 66.235 7.206 61.281 19.245 121.998 29.93 182.664zM691.037 407.597c-15.055-80.31-34.62-161.183-31.963-243.386 16.639 80.1 24.564 162 31.963 243.386z"/><path d="M692.407 389.32c-11.85-66.826-43.002-180.993-17.924-243.293-5.117 27.968.122 56.233 2.38 84.191 4.293 53.081 10.692 106.135 15.544 159.102z"/><path d="M696.63 503.822c-20.714-115.691-35.406-232.385-45.95-349.403 12.719 38.831 18.725 79.741 23.531 120.278 9.614 76.12 16.98 152.668 22.419 229.125z"/><path d="M689.79 437.38c-8.388-75.8-18.071-152.059-12.53-228.41 13.28 75.158 11.662 152.35 12.53 228.41zM453.281 530.71c9.162-5.932 18.139-12.36 27.094-18.473-7.973 7.407-16.142 16.003-27.094 18.472zM325.774 540.425c-9.894-1.99-17.552-9.058-24.813-15.586 4.493 1.596 8.533 4.592 12.45 7.344 6.024 4.59 12.9 7.634 20.253 9.32-2.567-.188-5.299-.62-7.89-1.078zM447.142 491.224c-2.315-7.161-1.574-14.83-1.137-22.223.702 7.266 1.448 14.909 1.137 22.223zM451.426 487.798c-2.416-8.603 4.05-16.7 9.324-22.825-4.228 6.982-8.618 14.584-9.324 22.825z"/><path d="M450.283 491.22c.824-10.711 9.01-19.02 15.293-27.12-4.93 8.807-10.764 17.403-15.078 26.617.004-.004.004-.008.008-.012-.085.157-.115.42-.223.516zM457.704 484.649c3.444-10.255 11.418-17.988 18.657-25.695-5.988 8.588-12.105 17.539-18.657 25.695zM463.702 482.08c2.399-8.603 9.748-14.564 15.844-20.652-5.013 6.926-10.93 13.682-15.844 20.652z"/><path d="M460.558 483.228c.392-9.902 9.306-17.062 16.415-22.746-6.26 6.854-12.824 14.167-16.415 22.746z"/><path d="M454.565 488.652c-1.118-8.878 10.553-15.981 16.348-21.214-4.837 6.204-14.588 13.846-16.348 21.214zM457.42 486.934c5.404-10.727 17.1-16.56 26.47-23.414-8.306 8.174-17.969 15.504-26.47 23.414zM460.277 487.503c6.913-9.349 17.516-15.09 27.036-21.421-8.54 7.726-17.475 15.125-27.036 21.421z"/><path d="M460.851 486.644c8.217-7.56 17.9-13.48 27.274-19.359-8.458 7.205-16.91 15.127-27.274 19.36zM457.996 484.646c6.251-6.568 14.044-11.598 21.547-16.477-6.74 5.969-13.42 12.547-21.547 16.477zM299.629 491.305c-5.699-5.5-11.81-10.655-16.598-16.863 6.795 4.161 11.846 10.677 16.598 16.863zM304.631 495.264c-9.507-2.886-18.557-7.436-27.68-11.148 9.644 2.357 19.715 5.062 27.68 11.148z"/><path d="M303.823 492.022c-7.583-2.045-12.495-9.229-17.043-15.164 5.44 5.144 10.944 10.79 17.043 15.164z"/><path d="M311.384 494.183c-10.597-2.099-16.54-12.024-20.859-21.047 5.587 8.114 12.287 15.954 20.86 21.047z"/><path d="M305.414 493.16c-7.048-3.166-12.72-8.886-17.535-14.715 4.911 4.128 9.868 8.27 15.477 11.426 3.093 1.706 6.073 3.776 9.109 5.394-2.465-.355-4.758-1.152-7.05-2.105z"/><path d="M303.818 492.292c-8.12-3.366-13.11-11.359-15.246-19.602 3.306 7.696 9.184 14.035 15.246 19.602z"/><path d="M305.44 491.481c-6.012-2.626-10.055-7.956-13.789-13.137 4.391 4.494 9.311 8.77 13.789 13.137zM290.607 490.76c-3.417-1.746-6.813-3.995-9.805-6.297 7.918 4.28 16.312 7.59 25.37 8.188.464.07 1.045.07 1.435.183-5.714 1.47-11.813.745-17-2.074z"/><path d="M308.008 496.606c-10.582-1.246-21.03-4.013-31.46-5.754 10.567.275 21.982.767 31.46 5.754z"/><path d="M289.665 493.456c-6.91-.524-13.735-1.99-20.5-3.468 3.154.093 6.51.392 9.727.6 6.618.687 13.566.563 19.906 2.716-2.98-.083-6.099.298-9.133.152z"/><path d="M287.7 493.936c-3.762-.178-7.678-.382-11.349-.79 7.323-.357 14.991-1.538 22.133.626-3.506.22-7.208.395-10.785.164z"/><path d="M292.223 494.47c-2.95-.22-6.051-.439-8.914-.845 7.052-.157 14.425-1.242 21.27.926-4.08.214-8.247.275-12.356-.082z"/><path d="M291.718 493.26c-3.789-.283-7.723-.561-11.422-1.043 5.98-.153 12.349-1.065 18.035 1.243-2.125-.116-4.43-.072-6.613-.2zM276.889 497.038c9.47-1.65 18.987-3.29 28.543-2.949-9.05 3.084-19.161 2.691-28.543 2.949z"/><path d="M280.365 496.321c8.963-1.127 18.292-1.473 27.297-2.257-8.286 4.075-18.31 2.445-27.297 2.257z"/><path d="M291.814 496.712c-4.817-.356-9.719-1.347-14.285-2.703 9.325 1.258 18.802.74 28.153 1.047.8.025 1.655-.078 2.363-.222-4.895 2.522-10.876 2.187-16.23 1.878z"/><path d="M291.708 498.452c-8.188-.775-16.203-2.844-24.125-4.996 4.19.36 8.572.889 12.769 1.371a639.113 639.113 0 0 0 25.45 2.246c-4.553 1.414-9.36 1.705-14.094 1.38z"/><path d="M284.583 496.479c-6.223-.188-12.441-.969-18.582-1.961 11.64-.127 23.324-.353 34.98-.48.662-.03 1.417-.148 2.024-.137-5.785 2.617-12.187 2.765-18.422 2.578zM272.353 490.32c-3.437-.329-6.851-.786-10.277-1.204-1.558-.191-1.23-2.55.29-2.536 8.374.195 17.392-.18 25.148 3.38-3.304-.54-6.896-.084-10.304-.14 1.901.437 3.802.882 5.702 1.331-3.443-.155-7.063-.521-10.559-.832zM495.052 804.484a559.489 559.489 0 0 1 7.899-5.23 413.384 413.384 0 0 1-5.91 5.245 47.941 47.941 0 0 0-1.989-.015zM315.014 805.213c1.65-1.842 3.804-3.075 5.922-4.305 3.167-1.766 6.218-3.79 9.55-5.238 8.548-3.746 18.181-3.93 27.333-4.05 13.515-.018 26.983-.462 40.476.285 10.035.31 20.208 1.1 30.121-.872 5.175-1.007 10.071-3.045 15.219-4.164 7.014-1.573 14.237-1.916 21.387-2.41a422.19 422.19 0 0 1 19.015-.547c-3.722.309-7.441.649-11.16.98-9.345.936-18.773 1.773-27.922 3.942-7.824 2.094-15.313 5.593-23.504 6.086-10.899.914-21.822-.148-32.722-.402-10.222-.028-20.57-.015-30.76.097l.07-.003h.037c-8.48.236-17.131.09-25.347 2.476-4.18 1.245-8.152 3.329-12.137 4.996-1.965.84-3.98 1.827-5.578 3.13zM393.44 718.598c-5.832-.009-11.85-1.155-16.077-5.484-.448-.468-1.05-.958-1.391-1.43 3.48 2.383 7.24 4.465 11.436 5.213 5.425.9 11.085 1.213 16.474 1.842-3.481.086-6.964-.008-10.441-.141zM178.115 911.335c-1.44-4.042-3.27-8.117-4.36-12.191 2.138 3.743 3.38 8.09 4.36 12.191z"/><path d="M389.51 838.483c-19.134-.117-37.684-6.645-53.887-16.57-7.22-4.418-14.377-9.122-20.336-15.184-.895-.89-1.75-1.82-2.618-2.738 1.627 1.202 3.272 2.667 4.97 3.883 4.728 3.527 9.887 6.396 15.027 9.27 8.708 4.841 17.515 9.562 26.893 12.99 15.534 5.796 32.255 5.801 48.599 5.134 17.986.163 35.746-4.335 51.842-12.113 10.359-5.368 20.58-11.2 30.439-17.422 5.701-3.897 11.16-8.134 16.656-12.308-3.077 2.84-6.483 5.637-9.722 8.41-6.375 5.535-13.476 10.115-20.633 14.558-11.324 7.39-23.296 13.804-36.36 17.446-16.443 5.07-33.844 4.605-50.87 4.644zM281.873 224.698c-63.012-6.528-124.753-78.432-92.953-140.87 14.803-28.385 45.033-43.148 69.842-61.492-35.357 37.47-81.06 72.803-44.617 127.608 27.235 41.191 79.217 51.63 125.502 51.424 16.312.093 34.056 2.859 49.317-3.952-20.999 21.47-77.744 30.406-107.091 27.282z"/><path d="M313.119 199.984c-49.517-2.25-86.18-47.996-87.66-95.81-2.255-25.63 13.66-46.92 31.198-63.747 8.505-8.988 17.158-17.987 25.949-26.61-4.633 7.403-9.293 14.786-13.918 22.192-9.948 16.843-24.317 32.815-25.656 53.141-.819 36.938 23.015 70.453 53.181 89.916 13.39 9.672 29.193 13.95 44.948 17.912-9.235 1.417-18.61 3.495-28.042 3.006z"/><path d="M316.857 172.338c-27.596-13.629-43.664-42.12-47.913-71.862-6.22-27.517 4.142-54.904 24.073-74.211 3.07-3.37 6.349-6.766 9.715-9.73-5.124 7.663-9.723 15.748-13.837 23.992-13.586 23.138-8.72 50.349-.14 74.34 6.611 20.32 15.494 40.293 28.102 57.471z"/><path d="M387.262 168.229c-42.862-5.9-89.01-32.959-98.927-77.736-2.724-23.807 14.406-43.969 23.824-64.495-3.908 20.1-15.735 40.726-11.119 61.496 7.836 19.621 25.188 34.146 43.76 43.338 40.344 17.707 87.45 23.101 130.615 14.159-24.252 19.46-57.553 26.84-88.153 23.238z"/><path d="M388.01 126.158c-64.444-21.042-73.847-40.583-87.418-103.978 20.521 39.814 24.525 64.165 72.183 78.051 38.625 12.174 76.42 18.48 115.816 24.42-32.348 10.769-67.943 11.995-100.58 1.507z"/><path d="M411.472 110.122c-36.43-6.092-80.796-16.468-101.024-50.318-8.726-20.077-4.894-43.111-5.799-64.473 7.707 26.788 5.723 61.172 36.107 73.18C393.69 93.058 453.998 86.372 509.72 99.358c-32.158 7.179-65.137 15.018-98.248 10.764z"/><path d="M483.145 117.128c-22.925-8.445-43.618-21.968-63.452-36.03-22.755-15.266-40.922-35.496-54.884-58.986-2.684-4.106-5.258-8.281-7.781-12.489 4.76 4.777 9.627 9.68 14.489 14.445 17.572 19.485 39.478 33.55 62.39 45.918 40.364 21.528 82.786 41.94 127.89 49.426-25.808 7.217-53.421 7.195-78.652-2.284z"/><path d="M440.51 103.811c-41.991-4.47-81.187-30.108-98.642-69.054-2.09-3.936-4.106-8.092-5.797-12.145 9.767 12.38 20.039 24.472 31.802 35.01 26.056 20.676 59.52 28.552 89.503 41.913 24.552 6.696-8.226 4.679-16.866 4.276z"/><path d="M403.926 162.527c-40.654-1.636-86.248-22.405-99.34-63.652-6.688-24.348-4.894-50.148-6.28-75.184 11.087 38.044 11.797 84.387 53.754 102.33 43.38 19.84 93.147 13.807 139.421 12.522-26.814 14.398-56.845 24.485-87.555 23.984z"/><path d="M406.268 151.8c-55.56-7.601-88.137-40.513-103.97-93.061 15.265 23.131 31.286 48.117 57.303 60.23 31.7 14.705 66.51 20.699 100.693 26.625-17.443 5.073-35.813 8.262-54.026 6.206zM285.391 230.1c-55.855-3.45-140.303-35.722-142.097-101.1 2.15-17.127 9.222-33.524 14.351-49.874-1.216 17.907-5.95 36.053-3.494 53.952 8.877 30.22 40.982 46.454 68.495 56.807 37.815 13.015 79.986 13.946 119.145 16.44 17.939.531 34.907 3.843 52.196.217-28.32 18.074-75.207 24.312-108.596 23.557zM522.514 168.3c-6.807.033-13.383-1.8-19.547-4.583 6.376-.282 13.821-1.496 19.66-3.569 8.85-2.172 12.819-11.942 21.972-14.386 28.726-11.316 60.304-9.068 89.4-.423 5.448 1.368 11.003 2.836 16.315 4.472-10.64-.427-21.286-.72-31.93-1.097-22.859-2.116-45.589 2.59-67.299 9.508-10.24 2.602-17.191 12.21-28.571 10.077z"/><path d="M689.026 338.624c-36.605-64.063-64.745-136.581-122.93-184.616-11.56-10.067-23.733-19.486-36.65-27.496 105.199 10.934 134.692 126.748 159.58 212.112z"/><path d="M638.948 310.643c-21.616-35.599-37.936-73.99-57.376-110.67-14.003-22.304-43.716-19.367-66.673-19.263.98-1.73 10.202-5.326 14.363-6.905 40.619-16.428 67.748 1.296 79.115 41.881 11.133 31.953 21.324 62.76 30.571 94.957zM537.908 163.472c-.621-43.08 41.96-68.36 72.208-91.778-24.613 30.01-53.968 57.22-72.208 91.778zM707.78 201.269c-18.271-17.999-36.653-35.887-55.246-53.553-20.335-19.996-49.973-39.605-78.415-23.755-.566.245-1.11.63-1.632.831 7.903-11.791 22.21-18.976 36.315-19.143 43.727 2.499 76.519 62.693 98.978 95.62z"/><path d="M680.222 185.415c-12.302-16.655-24.615-33.349-38.117-49.054-14.302-17.843-32.05-21.21-50.045-6.061-3.573 2.994-5.944 7.044-7.218 11.486-.496-2.708-.702-5.708-.172-8.484 3.98-16.35 22.046-29.042 38.823-25.673 30.213 9.702 44.315 51.294 56.729 77.786z"/><path d="M690.609 179.652c-12.882-15.057-25.896-30.015-38.86-44.99-15.404-15.624-33.74-45.684-59.238-33.961 40.188-39.992 82.295 50.403 98.098 78.95zM240.98 183.044c-56.937-20.892-51.673-110.636-1.888-136.997 24.08-15.537 34.606-25.81 6.697 2.567-36.006 28.652-37.928 88.569-3.822 119.403 9.594 8.502 21.25 14.671 33.473 18.1-11.548 2.152-23.494 1.163-34.46-3.073z"/><path d="M278.475 191.634c-36.844-11.158-48.887-59.188-43.638-93.446 3.756-22.808 22.546-38.386 43.003-46.648 10.976-5.399 22.1-10.74 33.277-15.556-5.945 4.531-11.914 9.024-17.831 13.587-18.183 13.905-41.954 27.31-42.567 53.108.034 25.394 7.409 72.467 27.756 88.955z"/><path d="M299.857 186.078c-50.346-32.649-51.655-124.044 2.555-153.751 25.442-15.814 34.119-24.436 6.182 3.11-27.805 21.657-33.49 58.877-26.537 91.718 3.176 20.235 6.09 41.643 17.8 58.923z"/><path d="M351.566 179.875c-34.994-2.246-58.136-37.663-59.223-70.492-.301-14.526 4.29-28.568 7.562-42.566 6.484-25.546 4.495-16.366 4.084 3.172-5.37 42.867 6.566 76.363 42.293 102.081 4.63 3.228 10.019 5.212 15.31 6.837-3.327.531-6.65.984-10.026.968z"/><path d="M394.727 208.587c-36.248-6.323-70.932-28.964-88.624-61.603-17.07-29.27-12.778-63.736-8.123-95.718 4.694-30.04 4.141-45.262 6.653-3.317 2.227 26.98.337 55.513 13.183 80.245 8.036 16.448 20.912 29.72 33.739 42.513 14.186 13.689 27.219 27.148 43.172 37.88z"/><path d="M369.444 207.658c-52.194-9.96-70.926-54.095-90.767-97.441 26.581 32.416 46.305 70.394 91.638 77.858 28.86 5.477 58.927 3.063 87.334-3.642-23.982 20.045-57.262 30.79-88.205 23.225z"/><path d="M342.317 239.46c-36.993-2.193-69.47-20.506-101.211-37.978 61.104 19.453 94.822 25.196 158.919 12.065 45.218-8.953 87.592-32.63 122.07-62.682-12.214 29.991-37.193 54.986-64.74 71.441-35.039 17.701-76.485 19.862-115.038 17.154z"/><path d="M293.48 240.404c-47.845-5.617-79.129-44.508-107.384-79.58 6.408 4.902 12.839 10.033 19.275 14.99 28.693 24.91 63.633 46.433 103.185 42.248 63.785-6.571 128.765-17.472 186.141-47.31-23.981 29.96-57.286 52.613-94.507 61.733-34.792 7.732-71.16 11.478-106.71 7.919z"/><path d="M200.986 184.708c-41.777-3.036-61.264-48.934-57.13-86.191 2.317-22.477 16.01-43.155 34.691-55.532 10.773-6.602 22.435-11.907 33.739-17.394-11.092 9.368-23.3 17.558-33.194 28.243-15 17.158-21.696 40.713-16.497 63.05 3.698 19.29 11.47 38.743 26.753 51.74 8.208 7.113 18.61 13.093 29.782 11.549-5.416 3.418-11.726 5.107-18.144 4.535z"/><path d="M189.455 189.192c-19.912-10.034-26.102-35.38-27.119-55.992-.666-35.91 25.73-65.224 57.421-78.638 5.534-2.886 11.195-5.812 16.766-8.476-3.993 3.351-8 6.687-11.992 10.04-20.299 15.252-39.647 34.174-44.467 60.168-3.082 19.442-3.025 57.455 9.391 72.898z"/><path d="M185.595 158.02c-11.669-7.737-13.97-24.249-15.42-37.192-2.133-39.864 25.323-70.094 56.19-91.235 2.181-1.638 4.412-3.382 6.586-4.93-6.848 8.414-13.731 16.8-20.854 24.981-19.26 21.048-27.723 49.183-29.55 77.196-.103 10.215-2.435 22.064 3.048 31.18z"/><path d="M158.38 130.387c-15.947-13.978-11.99-40.087-.17-55.535 15.904-21.282 41.517-31.416 66.331-38.25 37.113-10.876 28.202-8.6.317 6.648-22.168 10.928-44.822 23.645-58.43 45.053-7.902 11.979-14.011 28.16-8.047 42.084z"/><path d="M179.355 83.851c-3.19-12.948 5.91-24.888 15.261-32.82 23.742-19.002 55.544-22.5 84.73-26.379 17.856-1.734 19.646-2.716 1.19 3.42-26.176 9.763-92.936 27.184-101.181 55.78zM115.554 218.255c-23.244-44.682 24.117-86.02 53.998-113.578-7.005 10.145-14.029 20.528-21.04 30.747-16.046 24.743-33.687 52.407-32.958 82.831z"/><path d="M118.942 237.695c-11.59-45.47 18.462-87.989 44.442-122.59 2.978-3.867 6.073-7.809 9.199-11.473-20.728 43.353-41.37 87.564-53.641 134.063z"/><path d="M127.988 251.693c-14.637-59.331 33.574-110.07 70.517-150.417-5.158 8.98-10.476 18.064-15.59 27.133-14.184 24.314-27.872 48.934-38.094 75.222-6.565 15.647-13.74 31.285-16.82 48.071-.005 0-.01-.002-.013-.009z"/><path d="M99.055 230.013c-26.147-69.812 55.981-113.66 105.364-143.73-9.834 9.739-19.996 19.404-30.155 28.89-25.68 22.504-50.179 47.077-64.98 78.325-5.442 11.402-10.514 23.725-10.23 36.515z"/><path d="M108.229 198.315c-17.79-34.502-2.111-78.145 29.491-98.712 13.5-9.147 28.696-15.361 43.457-22.128 34.658-15.286 26.406-12.12 1.235 6.437-18.848 13.51-40.059 25.265-52.98 45.184-12.765 20.646-20.992 44.873-21.203 69.219z"/><path d="M120.528 163.224c-3.381-34.563 36.655-57.234 60.415-75.682 3.61-2.48 7.335-5.041 10.992-7.325-18.015 19.958-37.31 38.726-55.004 58.961-6.47 7.197-13.548 14.63-16.403 24.046z"/><path d="M127.46 140.758c-.079-37.761 50.011-66.758 79.009-83.8 2.519-1.392 5.108-2.884 7.629-4.137-20.839 19.292-42.562 37.684-61.743 58.675-8.183 9.594-20.335 17.28-24.896 29.262zM699.626 427.07c-10.206-41.792-15.017-84.578-23.656-126.678-9.818-39.943-18.595-80.144-28.607-120.02-1.2-4.713-2.794-9.434-4.242-14 15.742 16.18 27.059 36.3 35.606 57.05 26.005 64.517 20.54 135.604 20.899 203.649z"/><path d="M709.962 436.112c-14.981-46.886-25.122-95.036-33.98-143.403-7.83-41.518-16.61-83.817-15.845-126.163 8.635 21.135 19.786 41.279 26.093 63.344 18.788 66.925 17.043 137.544 23.732 206.222z"/><path d="M682.282 459.678c1.157-103.945-11.99-207.301-34.159-308.747-2.64-12.402-7.327-24.327-11.09-36.34 4.192 4.882 8.76 9.332 12.66 14.434 38.514 49.62 48.902 114.445 49.054 175.777 2.227 52.254-5.765 103.962-16.465 154.876z"/><path d="M690.42 487.02c-1.98-112.981-18.094-225.52-51.835-333.497-5.011-16.687-8.633-20.976 5.326-4.023 40.932 48.898 57.855 112.032 59.134 174.878 3.561 54.586-2.683 109.082-12.626 162.641z"/><path d="M693.444 478.358c-4.259-50.464-3.9-101.239-9.601-151.574-5.836-50.85-12.764-101.592-22.024-151.938-1.338-8.082-2.802-16.274-3.575-24.383 14.752 24.488 29.687 49.278 37.7 76.93 22.282 82.039 9.628 168.348-2.5 250.965z"/><path d="M695.922 503.805c1.398-67.942-9.067-135.141-16.223-202.535-4.396-38.551-12.056-76.907-13.03-115.774-.073-12.52.486-25.03 2.761-37.36 1.156 4.29 2.313 8.72 3.519 13.052 12.455 40.136 30.455 79.073 33.661 121.5 5.638 73.688 6.537 148.904-10.688 221.117z"/><path d="M702.578 550.225c-14.417-64.804-26.523-134.173-9.975-199.633 16.12 65.361 8.699 133.062 9.975 199.633z"/><path d="M697.64 505.543c-14.68-40.537-27.197-86.864-9.6-128.398 4.474 42.721 3.712 85.849 9.6 128.398zM652.298 239.474c-13.943-20.759-26.901-42.145-40.488-63.13-7.33-10.297-12.302-23.058-22.719-30.71 33.605 5.387 51.24 63.735 63.207 93.84z"/><path d="M667.76 299.297c-21.145-57.317-43.75-114.456-60.909-173.074-1.273-3.862-2.7-7.77-4.354-11.427 38.443 35.103 47.965 88.819 58.12 137.458l-.01-.054-.035-.182c2.97 15.622 5.332 31.551 7.189 47.28z"/><path d="M662.935 280.848c-20.893-50.76-42.263-101.515-58.366-154.027 40.755 40.175 48.33 100.277 58.366 154.027z"/><path d="M671.404 290.168c-10.873-28.67-21.271-57.52-31.39-86.462-10.522-23.627-16.157-58.374-38.673-73.195 50.742-1.146 63.746 114.851 70.063 159.657z"/><path d="M666.514 271.016c-21.214-44.414-44.569-88.897-55.194-137.223 33.205 38.192 43.68 89.377 55.194 137.223z"/><path d="M677.677 249.642c-24.408-40.545-49.218-81.838-65.167-126.375 36.633 32.362 49.668 81.827 65.167 126.375z"/><path d="M675.753 262.332c-14.2-27.924-27.58-56.159-39.99-84.911-9-16.947-11.233-40.178-28-51.528 40.54 3.773 58.457 102.615 67.99 136.439z"/><path d="M705.596 540.16c-1.266-22.297-3.248-44.5-2.133-66.816 1.32-32.518 6.92-64.762 7.134-97.32-2.085-41.866-6.069-84.393-18.892-124.484-17.602-44.802-37.353-90.203-69.789-126.405-9.882-11.718-21.634-22.128-30.078-34.9 9.84 6.93 21.059 11.575 31.356 17.762 52.962 28.524 88.639 82.167 104.653 139.23 10.968 42.121 11.555 86.619 8.691 129.836.023-.327.046-.656.072-.982-3.749 34.986-15.238 68.556-22.108 102.977-3.866 20.211-6.052 40.794-8.906 61.102zM677.689 431.82c-39.267-63.917-79.533-134.045-77.405-211.32 32.793 67.634 51.601 141.008 77.405 211.32zM639.443 283.926c-25.448-46.345-56.232-92.436-57.83-146.516 26.486 45.55 42.493 96.358 57.83 146.516z"/><path d="M674.23 312.403c-39.851-51.302-93.844-110.575-92.753-179.024 31.062 59.536 63.376 118.654 92.753 179.024z"/><path d="M707.86 380.614c-42.463-68.516-110.915-168.952-104.781-251.32 6.172 20.349 18.946 37.946 26.865 57.642 29.225 63.085 53.39 128.7 77.915 193.678z"/><path d="M690.77 353.935c-23.37-46.496-59.882-105.951-54.457-159.063 22.982 51.192 40.607 104.685 54.457 159.063zM154.145 140.153c-20.508-11.768-25.973-39.247-14.224-59.149 20.774-37.21 66.192-52.69 106.75-53.866 27.131-1.741 53.825 3.54 80.126 9.632-18.836.537-38.019-.746-56.786 1.906-27.372 3.441-55.326 8.951-79 23.835-30.165 18.833-57.697 50.395-23.726 80.982 1.608 1.553 3.39 2.765 5.148 3.96-6.617-.89-12.691-3.742-18.288-7.3z"/><path d="M186.453 143.433C178.905 85.63 233.537 42.186 279.74 18.425c-5.202 4.622-10.486 9.456-15.66 14.215-21.597 19.38-40.592 41.452-54.91 66.77-8.342 14.165-18.672 27.914-22.717 44.023z"/><path d="M240.892 151.707c-15.73-6.337-22.124-24.844-22.742-40.598-1.371-22.923 9.814-44.696 23.664-62.066 7.592-10.464 15.398-20.932 23.52-30.899-3.571 7.684-7.2 15.34-10.817 23.004-6.868 14.76-15.323 28.947-19.61 44.756-3.684 18.424-4.185 39.474 4.386 56.606 2.997 4.96 7.915 8.544 13.33 10.29-3.948.488-7.97.405-11.731-1.093z"/><path d="M278.679 166.163c-12.976-3.794-17.84-19.278-21.366-30.946-8.733-32.362 3.036-64.712 14.66-94.71 6.94-20.689.657 6.102.414 12.566-3.884 23.41-7.882 46.9-4.178 70.614 2.313 13.961.04 31.642 10.47 42.476z"/><path d="M283.617 154.386c-21.606-22.632-21.303-58.528-14.835-87.317 3.932-15.278 8.017-30.68 12.832-45.636-.515 8.5-1.097 17-1.698 25.496-1.674 20.778-4.413 41.732-.665 62.457 2.567 14.727 3.861 30.412 11.435 43.6 2.216 3.627 5.35 6.696 8.706 9.17-6.055-1.02-11.25-3.622-15.775-7.77z"/><path d="M308.075 177.522c-35.496-23.987-47.405-94.957-32.046-133.14 5.687-18.212 3.908-11.905 2.88 2.382-4.048 24.941 2.863 49.51 9.54 73.366 6.577 19.71 9.664 39.376 19.632 57.393h-.006z"/><path d="M290.703 160.147c-13.008-4.465-20.328-17.087-23.837-29.708-13.757-42.283 4.448-99.055 47.638-116.245 9.032-3.294 18.653-5.465 28.164-6.246-8.44 2.956-16.476 6.388-24.048 10.962-32.075 19.008-40.281 60.576-39.306 95.25.735 15.769-.748 34.003 11.39 45.987z"/><path d="M233.23 95.993c-5.412-12.289 2.66-25.768 10.177-35.328 20.289-24.059 53.503-29.985 83.219-33.246 3.036-.27 6.18-.608 9.16-.726-6.18 1.968-12.297 4.129-18.437 6.215-19.907 7.055-40.27 14.398-56.688 28.12-10.525 9.819-25.98 19.525-27.43 34.965z"/><path d="M218.53 85.968c2.508-44.815 55.42-60.045 92.485-66.059 2.784-.453 5.705-.967 8.434-1.25-7.472 2.967-14.836 6.191-22.245 9.308-17.201 7.65-34.813 14.993-49.362 27.241-10.541 9.23-23.292 17.76-29.312 30.76zM358.189 144.109c-24.559-18.535-33.31-51.455-29.508-81.016 2.42-19.58 16.65-34.22 28.16-49.203a450.89 450.89 0 0 1 7.937-9.523c-2.705 5.596-5.678 11.273-8.394 16.937-7.16 14.764-16.677 29.393-15.796 46.49 1.535 25.968 6.776 52.655 17.6 76.315z"/><path d="M374.227 121.393c-27.775-15.27-37.407-51.578-30.054-80.945.966-5.005 2-10.132 3.218-15.012.053 3.764.138 7.704.208 11.336-1.801 30.457 11.068 59.29 26.628 84.621z"/><path d="M317.728 146.557c-9.581-3.457-15.087-13.229-17.305-22.68-7.421-36.386 21.122-66.502 43.766-91.207a800.18 800.18 0 0 1 13.355-14.137c-4.022 7.072-8.324 14.204-12.499 21.262-14.044 22.833-29.916 45.876-32.464 73.337-.963 9.755-1.007 20.753 5.343 28.827 4.233 5.255 13.34 8.023-.196 4.598z"/><path d="M317.432 121.395c-23.822-14.879-20.507-51.21-5.69-71.556 5.878-8.64 13.566-15.875 20.952-23.199 15.726-14.98 17.862-18.748 3.93 2.055-8.956 13.35-19.284 26.386-23.055 42.354-2.843 16.257-5.324 35.78 3.863 50.346z"/><path d="M308.072 107.357c-22.058-28.354 2.628-66.737 28.673-82.872 3.74-2.586 7.583-5.279 11.464-7.508-1.97 1.986-3.9 4.02-5.801 6.024-11.025 11.912-22.304 24.187-28.072 39.639-4.703 14.173-9.697 29.803-6.264 44.717zM351.502 37.853c1.14-7.582 6.625-13.314 11.324-19.012-3.169 6.582-6.921 13.168-11.324 19.012z"/><path d="M419.552 179.577c-31.017-3.408-59.966-19.854-80.719-42.875-17.944-20.369-27.094-46.916-33.871-72.797 11.656 21.287 23.314 42.688 40.798 59.682 18.44 17.849 43.427 29.122 66.737 38.025 13.871 5.206 28.063 11.039 42.794 13.07 2.17.248 4.39.153 6.484.168-6.059 3.226-12.574 4.62-19.371 5.254-7.595.703-15.295.34-22.852-.527z"/><path d="M382.589 188.67c-42.166-16.546-75.352-53.225-94.097-93.854 16.668 21.076 36.147 39.917 58.161 55.378 22.717 14.852 44.108 33.531 71.019 40-11.556 2.43-23.83 2.523-35.083-1.525z"/><path d="M357.678 184.332c-60.545-6.028-89.627-51.275-100.9-106.776-1.078-6.241-8.477-34.19-1.278-15.215 12.806 27.268 24.284 56.53 46.393 77.804 13.98 12.971 31.255 22.518 47.735 31.629 8.763 4.767 17.915 8.987 26.611 13.766-6.2-.226-12.402-.488-18.561-1.208z"/><path d="M303.477 215.24c-49.674-4.277-70.018-55.843-75.095-99.102-3.535-21.085-6.465-42.265-8.84-63.511 8.808 24.17 17.188 48.731 24.91 73.343 8.183 28.015 22.82 55.224 46.87 72.628 10.019 7.311 21.65 12.285 33.466 15.677-7.045 1.255-14.193 1.699-21.311.964z"/><path d="M299.601 184.147c-36.041-15.807-52.606-58.033-52.988-95.332-.358-17.634.744-35.436 3.317-52.809 1.154 12.796 2.87 25.566 4.73 38.172 4.331 38.428 21.233 75.334 48.735 102.697 4.907 4.551 10.39 8.542 16.046 12.006-6.828-.578-13.515-2.082-19.84-4.734z"/><path d="M304.737 170.172C251.85 145.37 269.16 57.662 275.274 10.734c.823 11.106 1.712 22.374 2.506 33.54 3.69 35.225 3.865 99.05 26.957 125.898zM442.505 150.619c-52.517-19.988-72.316-76.585-95.766-122.754 10.555 13.296 21.112 26.593 31.54 39.988 15.945 21.638 32.554 44.054 57.16 56.397 29.32 15.32 62.88 23.386 95.972 20.56-26.488 15.695-60.607 18.234-88.906 5.809z"/><path d="M481.533 179.428c-35.73-8.841-64.586-33.651-89.262-59.88 14.22 9.162 29.695 18.69 44.367 26.818 30.116 16.201 63.758 24.289 97.012 31.222-16.83 4.802-34.969 6.01-52.117 1.84z"/><path d="M415.93 166.852c-19.14-4.477-38.236-9.204-57.12-14.675 35.25.304 70.812 7.206 105.993 2.167 27.554-4.901 55.733-9.541 81.518-20.687-31.155 37.037-85.486 44.003-130.39 33.195zM488.924 126.674c-36.905-.102-69.044-21.613-91.844-49.288-6.13-6.734-11.832-14.019-17.149-21.406 11.005 9.24 22.62 17.977 34.05 26.777 17.628 14.05 39.384 23.132 60.267 30.516 10.889 4.4 22.335 7.995 32.582 13.684-5.965-.246-11.942-.078-17.906-.283z"/><path d="M472.048 153.52c-58.524-11.156-111.305-55.387-130.14-112.236-5.775-17.768-11.403-35.783-16.277-53.668 5.633 10.305 11.254 20.618 16.806 30.964 28.322 62.135 70.327 86.679 127.417 118.797 12.74 7.227 25.833 12.168 39.21 17.141-12.348.996-24.775 1.462-37.016-.998z"/><path d="M462.879 140.367c-46.834-6.478-81.294-59.04-94.514-101.022-5.269-16.183 3.592 4.028 7.16 8.565 15.566 25.16 36.375 45.931 57.573 66.229 9.481 9.157 18.546 19.274 29.78 26.228z"/><path d="M416.69 106.844c-39.028-14.359-49.46-56.756-50.9-94.225-1.736-14.864 4.024 9.64 5.913 13.957 3.304 9.783 6.226 19.736 10.275 29.25 8.633 18.747 21.894 35.067 34.711 51.018zM649.678 162.23c-40.937-44.454-54.147-53.045-115.014-61.975-40.201-6.333-38.532-4.953 1.026-6.948 58.426-1.55 95.965 8.444 113.988 68.923z"/><path d="M538.33 130.968c-46.126-5.547-80.251-42.83-106.956-77.818 19.992 15.886 39.744 32.651 62.518 44.638 33.5 20.705 68.394 16.696 105.607 20.406-19.47 7.051-40.166 13.9-61.169 12.774z"/><path d="M531.545 126.71c-36.534-.52-65.434-36.098-64.805-71.44-.134-7.497-.265-15.133.024-22.547.968 4.356 1.914 8.719 2.927 13.066 4.144 36.093 31.787 63.452 61.854 80.922z"/><path d="M540.096 151.087c-38.984-.869-70.88-30.089-64.138-70.637.564-5.875 1.122-11.889 2.254-17.621.525 7.712 1.438 15.409 2.56 23.056 1.462 16.085 8.643 31.19 22.59 40.014 12.081 8.287 23.935 14.364 37.049 20.09 11.835 4.985 14.853 4.949-.315 5.098z"/><path d="M512.982 141.87c-22.47-10.031-33.062-34.062-40.527-56.04 6.312 9.815 13.068 19.671 20.494 28.76 13.217 15.61 32.634 24.124 50.959 32.175-10.438 1.128-21.288-.503-30.926-4.895z"/><path d="M521.508 172.269c-34.983-.904-64.199-28.885-69.505-63.022-1.876-13.717 2.69-27.15 5.278-40.473.938-3.984 1.885-8.092 2.953-11.972-.043 5.465-.121 10.933-.113 16.402.228 11.705-1.383 23.635 1.965 35.053 9.819 28.63 34.502 48.83 59.422 64.012z"/><path d="M500.091 154.602c-44.454-4.089-46.872-58.144-49.048-92.829-.849-37.164-2.368-39.952 6.543-1.52 6.932 25.52 9.861 53.722 26.669 75.133 12.205 18.086 48.503 18.828 15.836 19.216z"/><path d="M503.83 160.555c-51.003-7.853-65.576-65.258-68.81-109.269-1.214-11.858-2.063-23.91-2.194-35.77 2.43 9.245 5.085 18.423 7.65 27.632 9.272 31.264 17.133 64.337 38.928 89.643 6.215 7.571 13.163 14.555 21.127 20.287 4.411 3.175 9.372 5.701 14.029 8.384-3.594-.164-7.164-.445-10.73-.907z"/><path d="M444.61 126.417c-17.433-20.94-27.838-47.644-31.141-74.578-.216-2.152-.483-4.407-.523-6.516 3.416 10.856 8.029 21.241 13.163 31.372 13.982 26.281 31.867 51.345 53.712 71.617-13.637-2.644-26.084-11.647-35.212-21.895z"/><path d="M445.089 133.221c-19.4-23.842-25.483-55.945-27.785-85.828 5.164 15.227 10.278 30.707 17.199 45.324 10.188 19.86 19.474 41.628 36.82 56.367-10.286-1.964-19.258-8.146-26.234-15.863z"/><path d="M452.276 124.991c-35.092-10.856-39.025-53.225-42.726-84.293-2.413-17.05 4.432 9.48 6.71 14.43 6.417 17.778 11.906 36.492 24.38 51.16 6.655 8.712 15.5 15.123 24.507 21.176-4.25-.62-8.678-1.287-12.871-2.473zM550.562 135.682c-44.236-18.154-73.21-68.127-74.35-115.001-.314-4.304-.686-8.705-.864-12.957 1.547 5.023 3.09 10.043 4.657 15.058 9.462 40.391 38.634 71.422 67.407 99.67 6.984 6.373 14.304 13.052 22.913 16.975-6.723.494-13.547-1.436-19.763-3.745z"/><path d="M468.334 124.073c-27.024-9.16-57.192-34.62-51.66-66.005 5.366-19.986 20.89-35.43 32.192-52.292-3.492 8.296-7.163 16.716-10.742 25.04-5.171 12.065-12.889 24.964-9.172 38.508 8.171 22.434 33.241 36.03 52.528 48.173 7.09 3.943 14.69 6.754 22.535 8.763-11.756 2.764-24.243 1.698-35.68-2.187z"/><path d="M542.835 131.66c-23.505-14.712-44.249-33.471-66.781-49.592-33.056-23.481-70.237-40.267-104.746-61.428 13.555 4.09 27.214 8.566 40.694 13.119 60.244 19.747 99.402 40.755 130.833 97.902z"/><path d="M501.615 119.113c-23.948-20.246-45.558-43.051-67.841-65.065C413.83 35.338 393.309 17.271 372.9-.93c10.12 5.254 20.16 11.069 30.026 16.914C444.77 41.1 483.963 72.15 501.615 119.113z"/><path d="M473.221 93.499c-31.34-10.666-60.646-26.533-90.464-40.759-8.301-4.222-16.508-8.652-24.621-13.226 20.437 5.61 41.116 11.256 61.276 17.99 31.486 9.618 60.925 24.407 87.595 43.666-11.399-1.136-22.834-4.272-33.786-7.671z"/><path d="M492.704 82.918c-47.074-2.564-87.25-32.62-120.664-63.574a614.3 614.3 0 0 1-15.488-15.122c8.28 4.993 16.589 10.32 24.96 15.285 32.343 20.517 67.421 35.877 101.919 52.235 8.074 4.007 16.647 7.132 24.765 10.93-5.16.063-10.329.511-15.492.246z"/><path d="M557.178 125.689c-24.183-8.12-44.087-24.915-63.726-40.625-23.551-18.638-49.008-34.603-73.328-52.188 38.917 15.495 78.739 32.83 109.016 62.71 9.75 9.635 18.314 20.52 28.038 30.103z"/><path d="M547.615 132.253c-26.61-36.008-56.742-69.932-92.79-96.758-7.552-6.025-15.2-12.135-22.578-18.269 49.646 23.036 107.393 55.415 115.368 115.027z"/><path d="M552.394 131.061c-33.754-30.424-58.651-71.167-98.678-94.376-11.75-6.292-24.177-9.947-36.357-15.108-.011-.004-.003-.024.008-.023 24.539 2.965 47.712 6.992 68.042 22.156 33.365 20.926 54.073 50.685 66.985 87.351z"/><path d="M572.109 139.427c-26.364-17.52-46.853-42.186-70.138-63.331-16.752-14.8-34.697-28.094-52.428-41.681-3.076-2.43-6.304-4.874-9.278-7.324 59.397 26.325 102.196 52.332 131.844 112.336z"/><path d="M540.107 127.168c-16.672-15.702-26.06-37.095-36.379-57.129C491.913 45.347 477.2 22.295 462.65-.848c4.962 4.735 9.864 9.78 14.684 14.738 27.774 28.096 48.92 62.502 63.98 98.676 3.983 8.48 7.528 18.162 15.266 23.875-6.473-1.082-11.758-4.886-16.473-9.273zM597.203 140.024c-28.855-7.89-40.624-57.685-49.155-83.22 10.859 18.097 20.732 36.962 31.168 55.364 5.744 9.342 9.371 20.734 17.987 27.856z"/><path d="M592.422 141.816c-39.327-22.963-34.92-76.765-31.807-116.11.234-2.12.432-4.363.752-6.406 5.985 41.503 8.936 85.986 31.055 122.516z"/><path d="M619.907 176.468c-9.974-4.916-17.135-14.028-24.875-21.75-16.438-17.293-30.456-36.63-45.36-55.212-18.904-22.945-39.187-44.695-58.566-67.233 38.382 27.144 76.097 57.241 102.859 96.488 10.513 14.823 16.006 32.706 25.942 47.707z"/><path d="M617.512 180.647C567.664 149.66 541.815 93.49 516.408 42.78c35.199 44.713 72.653 88.4 101.104 137.868zM610.346 202.155c-45.584-24.729-79.529-65.09-105.321-109.378 14.595 14.687 29.513 29.322 44.186 44.016 22.265 19.92 45.577 39.484 61.138 65.364 0 0-.002 0-.003-.002z"/><path d="M626.477 102.983c-48.612-20.01-95.706-44.152-139.242-73.601 24.322 8.77 48.451 18.093 72.378 27.89 25.277 10.075 49.97 23.934 66.864 45.71z"/><path d="M601.143 125.16c-35.68-13.57-57.901-47.419-78.207-77.945-4.739-7.5-8.675-15.724-12.355-23.704 3.518 4.351 7.31 8.93 10.777 13.172 21.622 23.93 44.233 47.034 68.762 68 10.473 9.14 21.16 18.114 32.785 25.762-7.33-.567-14.866-2.724-21.762-5.285z"/><path d="M610.35 109.556c-47.19-4.789-71.855-53.59-87.637-92.973-2.216-5.69-4.48-11.498-6.434-17.215 26.444 40.289 53.867 82.498 94.07 110.188z"/><path d="M591.662 104.278c-29.057-23.004-41.671-61.147-46.097-96.719 6.688 17.137 14.104 33.878 23.649 49.546 14.739 23.263 33.269 44.414 55.484 60.794-11.885-2.005-23.249-6.403-33.036-13.62z"/><path d="M639.622 150.779c-47.048-13.389-57.436-72.009-53.128-114.434.177-1.479.285-3.07.547-4.47.367 3.192.843 6.364 1.268 9.392 5.948 39.984 21.854 81.149 51.313 109.512z"/><path d="M614.525 147.79c-28.48-20.054-25.587-62.294-27.444-93.43-.033-4.288-.063-8.71.101-12.93 6.261 26.542 11.707 53.264 18.203 79.75 2.186 9.088 4.348 18.62 9.14 26.61zM662.23 216.653c-35.13-30.095-27.712-99.738-26.037-142.086 0-.016.02-.016.023-.004 5.486 30.533 9.25 62.171 15.317 92.382 3.289 16.761 3.415 34.193 10.697 49.708zM690.78 224.102c-33.11-28.321-31.74-93.628-32.17-134.258 7.719 34.81 16.175 69.655 24.031 104.496 2.095 10.044 3.694 20.488 8.14 29.762z"/><path d="M735.785 298.122c-17.363-41.344-33.256-83.274-50.5-124.66-14.688-30.837-26.671-62.842-39.191-94.597 28.481 26.15 49.663 59.992 61.133 96.937 13.294 39.735 21.778 81.09 28.558 122.32z"/><path d="M733.924 352.322c-32.599-93.918-50.209-192.657-86.59-285.247 10.676 8.495 18.822 20.085 26.721 31.153 20.484 28.49 33.131 61.616 38.642 96.176 9.498 52.253 16.117 105.125 21.227 157.918z"/><path d="M723.49 357.295c-10.128-49.758-16.285-100.345-26.164-149.926-6.28-30.675-13.411-61.207-19.84-91.871-1.97-8.587-3.449-17.321-6.546-25.473 63.707 72.827 53.621 177.106 52.55 267.27z"/><path d="M727.722 391.784c-8.534-50.502-14.148-101.414-21.435-152.05-5.976-34.201-12.523-68.342-18.378-102.543-1.76-11.108-4.087-22.302-4.555-33.512 13.476 23.782 27.535 47.548 35.346 73.957 19.021 69.55 12.186 143.04 9.022 214.148zM658.185 143.8c-13.96-26.202-27.06-52.837-41.446-78.802-9.808-16.118-21.717-35.638-42.135-38.251-3.371-.443-6.56-.293-9.81-.03 59.929-30.917 82.042 77.593 93.39 117.082z"/><path d="M705.715 190.76C677.007 155.432 614.97 45.378 578.52 35.035c-2.113-.603-4.2-.726-6.275-.872 12.77-5.625 26.886-.41 38.365 5.93 45.207 25.449 74.171 104.067 95.105 150.667z"/><path d="M680.303 179.245c-26.368-29.925-52.03-60.808-73.938-94.172-9.451-14.193-16.202-29.052-27.283-41.602 41.806 16.426 78.502 96.488 101.221 135.774z"/><path d="M675.882 157.536c-40.855-40.283-81.608-81.967-109.21-132.685 48.649 31.96 77.565 85.434 109.21 132.685z"/><path d="M677.853 150.079c-22.31-26.111-43.787-52.971-64.539-80.32-8.095-11.353-15.082-23.756-24.937-33.713 40.945 14.662 69.682 77.187 89.476 114.033z"/><path d="M709.613 171.81C678.189 131.75 640.816 54.854 592.133 39c-4.045-.915-8.502-1.474-12.432.152 3.656-4.304 10.025-5.648 15.435-6.142 63.597-1.32 92.958 90.65 114.477 138.8z"/><path d="M713.485 178.154c-17.272-24.82-33.977-50.296-49.617-76.136-14.67-23.18-38.849-66.439-64.564-76.601-2.85-.798-5.876-.606-8.448.682 1.461-1.77 3.051-2.984 5.168-3.844 9.803-3.313 20.49 1.01 29.133 5.664 35.012 19.522 48.913 59.672 65.013 94.038a50.53 50.53 0 0 1-.115-.258l-.02-.045c8.268 18.611 16.149 37.557 23.45 56.5z"/><path d="M703.93 182.075c-18.256-28.762-36.101-57.788-53.611-87.009-13.92-19.463-26.929-50.323-50.699-58.46-.84-.235-1.767-.358-2.55-.582 21.548-5.201 40.683 12.292 53.064 27.953 24.229 35.95 39.403 77.502 53.796 118.098zM553.1 42.656c-17.603-6.002-34.94-12.753-52.558-18.723 15.653 1.198 31.366 4.032 46.535 8.286 13.174 3.42 25.853 8.856 37.582 15.62-10.695-.198-21.386-1.831-31.558-5.183zM588.386 33.563c-38.208 1.972-62.31-18.32-77.176-52.077-.004-.011.012-.027.02-.016 27.377 35.003 40.062 34.44 77.156 52.093z"/><path d="M574.9 74.21c-26.568-12.476-42.557-39.19-56.086-64.04-.814-1.627-1.767-3.319-2.47-4.922 10.976 12.589 21.977 25.219 33.944 36.886 17.2 16.46 37.032 27.92 57.963 38.579-11.333.247-22.935-1.854-33.352-6.504z"/><path d="M547.052 35.271C523.537 31.46 501.855 20.543 482.61 6.8c13.58 5.04 27.411 10.232 41.537 13.79 18.961 4.395 38.681 7.15 56.17 16.08-11.111.32-22.255.455-33.265-1.398zM506.107 141.903c-34.712-7.71-53.12-25.546-60.954-60.304-7.58-27.315 11.042 28.405 32.857 36.438 26.714 12.359 56.01 15.087 84.232 21.778-18.133 5.238-37.703 6.457-56.135 2.088z"/><path d="M528.907 149.479c-22.442-1.1-44.339-13.872-56.197-32.973-12.19-23.543-14.902-50.968-20.245-76.672 10.026 21.484 17.662 44.426 28.958 65.331 12.68 19.88 36.7 29.268 58.537 35.36 7.064 1.74 14.371 2.896 21.432 4.38-10.62 2.915-21.45 5.088-32.485 4.574zM638.56 130.487c-45.925-12.381-88.935-40.256-118.335-77.638 36.677 30.583 83.821 44.394 118.335 77.638z"/><path d="M604.75 103.956c-30.324-24.346-54.819-55.318-81.6-83.41 12.679 5.77 48.503 34.752 66.25 51.753 13.092 12.081 23.122 26.994 34.923 40.19 12.34 10.024-16.67-5.18-19.572-8.533z"/><path d="M632.62 101.651c-26.158-13.114-49.002-31.622-72.802-48.422-17.893-11.953-35.92-23.98-53.37-36.46 47.541 18.597 97.624 40.32 126.173 84.882z"/><path d="M578.425 61.273c-40.293-3.756-78.915-16.876-118.64-24.02-15.662-3.355-31.489-6.443-47.036-10.055 23.191-.123 46.465-.382 69.598 1.438 35.67 3.057 71.566 8.948 104.542 23.427 7.85 3.048 15.741 6.25 23.689 8.885-10.656 1.543-21.46 1.312-32.153.325z"/><path d="M622.3 51.203C559.716 44.72 510.23 6.98 444.236 17.954c-25.533 1.396-29.867 3.133-1.704-4.86 14.025-3.404 27.829-8.437 42.352-9.13 38.888-.783 78.45 9.59 112.164 28.947 11.176 6.469 22.403 12.796 33.89 18.684-2.819-.12-5.765-.293-8.636-.392zM550.51 62.367c-42.643-3.074-83.714-16.876-125.343-25.88 22.006-.211 44.2 1.027 66.137 3.484 31.9 3.727 64.343 8.45 93.836 21.801-11.485.456-23.092 1.028-34.63.595z"/><path d="M555.768 46.466c-36.516.97-69.975-14.527-104.5-24.172 34.59 2.248 75.717 7.8 104.492 24.17l.008.002z"/><path d="M552.252 54.112c-25.51-2.276-48.86-14.247-71.152-26.09-8.324-4.484-16.602-9.074-24.356-14.508 11.648 4.37 23.808 7.9 35.653 11.915 26.222 8.568 52.376 17.22 77.48 28.71-5.819.63-11.742.375-17.625-.027z"/><path d="M537.292 44.52c-29.665-5.764-57.196-19.336-84.652-31.537 19.616 3.68 38.43 8.104 57.363 13.164 20.785 4.96 41.349 11.086 61.567 17.84-11.32 1.963-22.9 2.06-34.278.532z"/><path d="M532.806 44.969c-31.881-2.138-62.79-11.932-92.375-23.567-.012-.008-.004-.028.008-.024 19.887 3.296 188.36 21.794 92.367 23.59zM229.244 170.008c-18.936-7.804-26.986-29.81-26.793-49.043.34-10.73 4.742-20.816 8.433-30.73 6.087-14.5 8.987-27.432 4.626-2.055-5.614 27.256-6.426 45.834 11.057 69.354 5.396 6.767 12.587 11.909 20.005 16.13-6-.269-11.758-1.37-17.328-3.656z"/><path d="M257.803 173.105c-28.85-13.554-35.38-50.18-36.187-79.043.678-20.544.37-14.477 3.586 1.008 3.3 15.255 8.374 30.297 14.639 44.481 5.125 11.578 9.944 23.68 17.962 33.554z"/><path d="M262.86 169.732c-41.134-17.364-47.232-68.034-45.055-107.426 1.463 6.195 2.836 12.611 4.222 18.891 5.99 32.122 20.794 63.008 40.833 88.535z"/><path d="M247.696 164.115c-39.962-4.74-50.564-53.209-46.203-86.88.457-6.264.954-12.667 1.695-18.835.676 4.785 1.316 9.574 1.985 14.36 3.003 33.601 13.579 71.31 42.523 91.355z"/><path d="M229.811 149.467c-20.12-20.792-18.24-55.008-20.135-82.074-.037-1.985-.143-4.067-.113-5.992a948.988 948.988 0 0 1 6.78 26.031c4.93 17.245 11.037 53.31 23.232 65.307 1.117.905 2.363 1.41 3.632 1.826-5.024.958-9.706-1.768-13.396-5.098z"/><path d="M240.388 154.002c-22.584-18.731-20.402-56.688-20.683-83.563 6.839 27.691 11.336 56.611 20.683 83.563zM203.392 177.02c-19.945-9.934-32.005-31.865-36.555-52.99-2.25-14.247-1.856-28.754-2.02-43.14 5.377 19.373 7.261 40.43 18.395 57.742 12.162 20.116 31.294 37.237 55.5 39.503-11.386 3.924-24.335 4.488-35.32-1.116z"/><path d="M207.81 183.216c-30.437-7.67-32.314-45.252-32.953-71.165-.05-11.11.147-22.346 1.002-33.363 6.757 28.97 9.502 85.812 31.95 104.528zM436.843 66.018c-20.011-2.683-39.211-7.564-59.13-10.384-23.165-2.7-46.44-4.256-69.609-6.953 21.312-2.694 42.926-5.382 64.5-5.56 31.506-1.083 61.722 7.701 90.402 19.96 3.09.98 6.282 1.578 9.423 1.913-11.342 4.317-23.927 2.575-35.586 1.024z"/><path d="M456.81 75.544c-22.624-9.676-42.812-24.534-65.65-33.996-32.613-14.67-68.321-19.86-102.393-30.095-.012-.004-.012-.023.003-.022 68.631 2.442 124.64 3.2 168.04 64.113z"/><path d="M460.502 42.433c-47.772-6.924-95.015-17.019-143.328-19.946-10.265-.97-20.666-1.942-30.847-3.09a1009.637 1009.637 0 0 1 37.554-4.266c34.212-3.347 69.156-3.532 102.864 3.867 22.195 4.894 42.988 14.958 62.195 26.79-9.512-.833-18.973-2.153-28.438-3.355z"/><path d="M427.288 28.063c-43.909-2.92-87.538-9.336-131.412-13.01-4.215-.46-8.567-.845-12.7-1.36 21.74-2.852 43.617-5.003 65.528-5.86 22.462-.459 45.18-.305 67.336 3.786 17.541 3.057 34.147 9.625 51.133 14.695-13.03 2.538-26.626 2.21-39.885 1.75z"/><path d="M194.984 51.64c35.879-20.218 62.372-34.289 104.613-35.98 45.996-3.98 93.191-4.307 138.468 5.604-2.267 1.261-10.81 2.227-15.394 3.525-52.042 14.78-106.097 7.49-159.306 9.81-23.438 2.505-45.664 11.391-68.38 17.04z"/><path d="M193.656 48.13c19.432-9.71 38.576-20.825 59.43-27.152 34.31-8.43 70.594-2.372 103.533 8.958 3.939 1.073 7.933 2.164 11.862 3.058-7.12 1.867-14.332 2.43-21.66 2.741-28.617 1.515-57.03-4.946-85.592-3.52-23.02 2.54-45.058 11.037-67.572 15.915zM581.255 159.294c-39.168-1.97-77.53-11.998-116.28-17.162 36.676-3.363 91.684-3.103 116.267 17.159l.013.003z"/><path d="M531.634 174.143c-27.072-12.734-53.117-27.489-79.023-42.422 21.504 6.157 42.85 13.495 63.761 21.618 27.138 9.86 53.138 22.202 78.23 36.44-21.727-.11-43.364-6.48-62.968-15.636z"/><path d="M596.073 182.624c-57.407-3.01-106.445-37.221-148.632-73.596 48.252 26.96 101.407 44.88 148.632 73.596zM642.55 129.67c-81.193-14.731-153.7-55.17-225.664-93.674 77.334 23.79 160.28 43.903 225.664 93.673z"/><path d="M571.571 87.547c-51.404-7.037-95.194-39.629-141.883-60.226-5.277-2.933 24.976 5.493 29.923 7.04 38.229 11.157 75.545 25.73 110.527 44.761 15.505 7.898 28.255 10.752 1.433 8.425z"/><path d="M633.786 57.115C555.91 15.02 465.915 4.183 378.612 10.907c-45.888 2.186-59.851 6.073-4.446-8.093C447.885-15.02 537.03-24.77 602.357 21.481c15.691 11.306 27.85 26.491 42.086 39.395-3.599-.978-7.143-2.38-10.657-3.76z"/><path d="M552.645 54.071C509.617 52.743 468.29 37.871 425 42.132c-6.868.023-13.88.127-20.672.047 11.408-2.35 22.82-4.673 34.243-6.956-16.308-2.114-16.91-25.387-1.473-29.35 11.89-1.895 21.242 1.754 32.559 3.084 20.452-.276 40.935.63 61.312 2.748 15.952 2.835 34.328 1.426 48.461 10.013 22.188 18.872-7.043 35.586-26.785 32.353z"/><path d="M179.577 52.843c48.608-27.03 87.719-47.189 144.457-51.007 47.636-4.604 99.456-12.03 144.324 8.74 3.417 1.898 6.29 4.552 8.832 7.41-9.576-4.698-20.436-3.368-30.737-3.037-55.181 7.815-110.732 9.772-166.32 12.59-34.545 3.442-67.159 16.81-100.556 25.304zM381.38 141.383c-7.725-.838-17.348-7.515-13.062-16.13-15.123-7.315-32.562-12.097-45.207-23.412-7.164-7.386 1.036-18.676 10.234-17.83 35.256 9.393 70.063 21.64 106.824 24.084 22.706 1.327-29.995 4.292-37.174 4.195 8.098 1.55 18.711 4.788 16.763 15.206-2.34 12.125-15.352 8.885-24.248 7.78 6.22 3.246 12.784 6.122 19.131 8.944-11.181.137-22.301-.269-33.261-2.837z"/><path d="M393.96 102.7c-18.823-2.606-52.324 4.18-61.957-15.442-14.27-37.799 37.72-33.025 60.622-33.843a27.918 27.918 0 0 1 1.678-1.817c-21.052-8.247-42.557-15.82-65.007-19.142 22.76-3.383 46.118-1.527 68.852 1.714 16.429 2.223 32.126 7.988 48.793 4.992 21.478-.498 43.47-2.047 64.672 1.87 8.069 5.131 16.849 3.411 25.832 5.03 5.05 1.034 8.793 5.495 8.53 10.737-.554 9.995-10.908 10.215-18.58 9.965-7.755 21.877-35.536 20.043-54.594 22.495-12.59 17.735-57.805 11.826-78.84 13.44z"/><path d="M618.755 164.382c-28.874-4.409-58.984-4.357-87.918-10.183-5.93-1.23-11.866-3.288-16.63-7.087-5.188-1.15-10.406-2.265-15.334-4.292-18.606-5.587-19.265-32.132-2.356-40.358 18.996-8.02 57.803 3.657 78.968 6.552-8.462-14.385-18.142-29.26-21.246-45.85-.679-19.536 21.966-23.322 34.797-12.653 7.675 5.244 14.486 11.97 20.114 19.364 4.797 2.798 20.317 9.726 11.271 15.655 7.209 8.746 17.146 28.12.39 32.223.94 2.758 1.448 5.625 1.303 8.575 20.987 5.877 17.561 37.262-4.637 36.989.401.36.958.713 1.278 1.065z"/><path d="M418.823 170.685c-4.656-17.206 18.95-18.91 30.15-23.488 32.828-10.587 66.557-19.194 100.94-22.648 5.3-.492 10.805-.497 16.071-.637-15.677 7.236-30.818 15.51-46.356 23.042 1.996 9.67-11.541 10.633-18.03 13.111-9.64 2.821-19.313 5.527-28.973 8.275-13.652 1.897-46.683 19.762-53.802 2.345zM655.81 92.484c-9.335-5.736-18.912-11.057-28.462-16.423-10.348 2.355-38.073-3.721-31.61-18.72-16.114-6.113-32.236-12.54-48.238-18.787 22.132-1.999 45.03-.06 66.012 7.52 10.647 3.609 33.299 12.88 20.66 26.536 7.42 6.355 14.843 12.942 21.637 19.874zM296.535 125.65c-3.147-1.263-5.948-3.356-8.15-5.946-1.87 5.903-1.387 2.439-.932-1.174a21.756 21.756 0 0 1-2.47-4.268c-1.889-4.355-1.65-9.475-.3-14.074-15.174-.002-25.383-17.467-18.477-30.883 7.536-12.02 19.905-21.085 33.287-26.025 12.887-22 60.323-17.926 83.186-18.56 10.113.76 20.907.83 29.816 6.261 13.225 7.616 13.648 27.37 2.087 36.694-25.209 15.93-53.183 16.578-81.237 22.232.95 9.546-25.24 12.58-32.69 18.573 17.294 20.404 81.924-5.375 106.099-9.542.011-.004.019.02.004.026-34.39 12.15-72.807 38.517-110.223 26.685z"/><path d="M388.259 181.513c33.29-14.817 64.486-34.384 99.355-45.537 9.729-3.94 26.725-11.903 28.06 4.993 10.342-3.157 20.822-6.368 31.152-9.32-17.718 8.188-68.18 42.75-84.251 37.065-23.892 8.2-49.043 13.408-74.316 12.8z"/><path d="M419.917 187.55c23.226-12.64 49.654-17.693 74.688-25.59 23.742-7.955 46.657-18.403 69.538-28.344-43.71 34.56-87.298 56.788-144.226 53.935z"/><path d="M432.505 182.515c49.496-34.603 114.136-29.83 171.72-28.458-41.476 8.212-83.548 14.259-125.055 22.662-15.407 2.868-31.45 2.383-46.665 5.796z"/><path d="M536.192 160.33c-12.505-.398-25.05-2.043-37.363-3.84 10.937-3.866 22.336-6.1 33.859-7.285 30.61-1.807 61.363 1.362 91.77 4.77-29.177 3.617-58.778 6.391-88.266 6.356zM309.003 796.556c20.007-13.198 40.522-27.809 64.345-32.84 11.83-1.38 21.362 7.755 30.85 13.47a671.771 671.771 0 0 1-11.304-3.702c-15.13-7.04-22.638-3.724-37.374 1.806-15.907 6.141-31.223 13.936-46.517 21.266z"/><path d="M402.338 779.347c7.208-9.68 12.9-17.471 26.156-16.978 19.265 1.319 37.535 8.85 56.516 12.145-6.723-.396-13.659-1.037-20.422-1.805-15.754-1.59-31.905-8.008-47.66-3.582-5.224 2.832-9.73 6.948-14.59 10.22zM507.595 526.855c-4.246-3.887-6.796-9.465-6.964-15.22-.332-11.445 9.14-22.128 20.863-22.128 5.617 0 10.98 1.812 15.164 5.644 4.246 3.887 6.797 9.465 6.965 15.22.332 11.444-9.14 22.128-20.863 22.128-5.618 0-10.98-1.813-15.165-5.644zM247.648 549.06c-4.247-3.886-6.797-9.464-6.965-15.218-.332-11.446 9.14-22.13 20.863-22.13 5.617 0 10.98 1.813 15.164 5.645 4.246 3.887 6.797 9.465 6.965 15.22.332 11.444-9.14 22.128-20.863 22.128-5.618 0-10.98-1.813-15.164-5.644z"/><path d="M513.268 511.575c-.031-1.066.852-2.058 1.941-2.058 1.09 0 2.028.828 2.059 1.941.031 1.066-.852 2.059-1.941 2.059-1.09 0-2.028-.829-2.059-1.942zM255.864 529.672c-.031-1.066.852-2.058 1.941-2.058 1.09 0 2.028.828 2.059 1.941.031 1.067-.852 2.059-1.941 2.059-1.09 0-2.028-.828-2.059-1.942z" fill="#fff"/><path d="M285.005 801.448c9.823-5.135 20.404-8.257 30.442-12.828 13.448-5.713 26.174-13.11 39.86-18.246 1.779-.56 3.63-.872 5.5-.812-.39.153-.954.19-1.4.323-6.177 1.923-11.223 6.278-16.921 9.212-4.015 2.237-8.142 4.246-12.328 6.144a218.53 218.53 0 0 1-24.367 9.43c-6.9 2.252-14.127 4.063-20.786 6.777zM478.46 479.738c5.146-19.468 32.816-29.928 49.896-36.445.015-.008.023.015.007.023-12.987 6.6-26.303 12.879-37.465 22.41-4.863 4.033-9.793 8.302-12.437 14.012z"/><path d="M474.883 472.007c13.759-11.138 32.053-14.235 48.746-18.722 2.494-.577 5.117-1.263 7.554-1.739-18.728 6.769-38.298 12.083-56.3 20.461z"/><path d="M473.105 486.51c-2.689-10.603 10.708-20.315 18.57-25.214 12.191-7.485 26.007-11.648 39.914-14.59 4.722-1.054 9.588-2.172 14.266-3.063-4.824 1.508-9.652 3.008-14.48 4.508-11.205 3.362-22.343 7.19-32.586 12.874-8.296 4.96-26.676 14.658-25.684 25.486z"/><path d="M494.404 468.312c8.507-18.614 41.85-22.324 60.098-23.851-2.004.42-4.216.764-6.285 1.207-15.464 3.176-44.303 9.622-53.813 22.644z"/><path d="M501.531 467.728c15.783-15.923 42.688-21.485 64.297-24.109 1.08-.093 2.299-.288 3.305-.297-2.879.559-5.746 1.188-8.55 1.813-12.229 2.716-24.154 6.563-35.822 11.117-7.99 3.362-16.102 6.705-23.23 11.476z"/><path d="M502.471 468.917c12.12-17.4 37.048-20.11 56.489-23.105.016 0 .02.023.004.027-19.57 5.049-41.02 9.326-56.493 23.078z"/><path d="M500.001 464.478c15.479-17.173 51.464-17.81 73.442-19.73 3.082-.188 6.164-.36 9.246-.5-4.31.699-8.832 1.311-13.211 1.995-19.173 3.247-54.438 6.997-69.477 18.235z"/><path d="M520.706 464.901c10.583-12.705 35.65-13.88 51.27-15.953.016-.003.02.02.004.024-9.06 1.924-18.07 3.98-27.071 6.136-8.388 2.482-17.219 4.534-24.203 9.793zM476.558 471.87c10.731-9.487 24.931-13.563 37.996-18.796.016-.004.024.016.008.023-12.544 6.458-25.536 12.326-38.004 18.773z"/><path d="M464.552 485.09c2.467-15.142 26.895-26.413 39.227-33.722 1.246-.653 2.545-1.434 3.746-1.98-7.813 5.284-15.565 10.67-23.287 16.085-7.236 5.646-15.92 10.996-19.686 19.617z"/><path d="M464.692 486.77c-.467-8.758 8.344-15.156 14.414-20.202a367.55 367.55 0 0 1 19.43-14.32c.012-.009.023.011.016.019-6.738 5.9-13.527 11.742-20.294 17.605-5.017 4.84-12.341 9.707-13.566 16.899zM471.408 481.15c9.48-10.789 22.747-17.218 34.922-24.448-10.145 7.33-20.57 14.775-31.06 21.7-1.267.912-2.633 1.923-3.862 2.749z"/><path d="M470.057 474.937c8.257-14.145 29.097-21.854 43.587-28.254.072.03-.192.113-.203.141a808.74 808.74 0 0 0-23.079 13.066c-6.987 4.615-14.634 8.924-20.305 15.047z"/></g></svg>