<svg xmlns="http://www.w3.org/2000/svg" width="2800" height="2800" viewBox="0 0 2100 2100"><clipPath id="a"><path d="M107.033 154.611H1513.84V1423H107.033z"/></clipPath><g clip-path="url(#a)"><path d="M703.26 618.198c83.332-45.474 160.812-80.536 203.506-171.572 18.658-35.433 35.324-73.077 64.09-101.713 48.283-52.963 138.382-49.148 178.015 11.885-15.267-11.02-33.29-18.226-52.13-20.119-128.182-17.21-132.985 166.179-254.835 227.635-43.047 25.06-91.831 38.025-138.646 53.884zM1414.29 1063.907c-19.259-60.425-41.077-120.334-54.737-182.344-10-49.002-9.547-99.22-7.486-148.957.315-89.623 35.618-190.683-8.412-274.145-22.126-36.16-69.895-58.632-110.318-40.036-16.111 7.201-28.52 20.679-37.359 35.693 3.243-14.271 9.638-28.042 19.332-39.15 66.874-71.186 181.525-3.143 192.357 82.513 16.776 79.5-8.733 159.626-16.47 238.787-5.698 49.096-10.911 98.647-5.74 148.033 7.133 60.19 19.634 119.768 28.832 179.606zM998.994 914.519c-10.34-3.169-20.187-7.255-29.538-12.641-17.212-6.23-35.302-5.176-53.228-5.96-12.296-.772-24.72-2.678-36.465-6.285 28.168-6.298 58.66-9.05 85.913 2.39 7.093 2.607 12.474 7.843 18.155 12.577 5.033 3.3 10.242 6.579 15.163 9.919z"/><path d="M1016.068 938.08c-8.824-14.456-9.375-16.761-25.46-22.906-4.477-2.214-8.274-5.293-10.974-9.527.168.031.325.172.5.25 6.77 3.902 14.801 3.606 22.25 5.11 13.121 1.628 22.274 23.976 29.2 42.992.785 2.687 1.476 5.468 2.527 8.05a461.572 461.572 0 0 0 3.531 8.485l.012.03c-.389.107-.777.217-1.164.33-7.429-10.537-13.986-21.645-20.422-32.813zM978.491 987.224c-41.606 1.108-77.24-25.124-95.875-61.19-3.522-6.304-6.475-13.241-7.055-20.465 7.71 11.874 20.096 19.613 31.027 28.24-1.085-2.709-1.191-5.732.465-8.358 7.632-10.132 21.496 2.495 29.504 6.45 13.238 8.046 26.668 16.01 39.86 24.02-12.74-4.028-25.476-8.103-38.01-12.739 14.488 9.603 31.134 15.033 46.982 21.793 10.317 6.353 5.277 22.94-6.898 22.25z"/><path d="M946.6 943.376c-22.307-5.329-41.207-20.337-58.64-34.634 2.818 1.227 5.76 2.676 8.619 3.978-1.036-1.037-2.202-2.088-3.154-3.135 9.475 2.838 18.639 6.604 28.035 9.683 10.417 4.07 21.867 6.8 31.203 13.032 5.16 4.404-.022 12.097-6.063 11.076z"/><path d="M978.713 968.097c-28.41-9.744-59.565-17.298-82.312-37.965-7.07-6.907-14.067-15.2-16.395-24.996.77.744 1.535 1.668 2.273 2.359 29.85 23.66 64.375 40.364 96.434 60.602z"/><path d="M1005.314 964.903c-30.332-2.445-64.275-10.488-83.746-35.66 16.317 6.568 32.32 13.718 47.926 21.883 11.554 5.456 24.003 9.124 35.82 13.777z"/><path d="M1002.847 980.884c-18.413-6.347-35.024-16.63-50.707-28.02-7.494-4.905-13.232-12.16-21.644-15.113 21.503-2.072 40.781 20.713 57.179 32.243 5.072 3.587 10.225 7.254 15.172 10.89z"/><path d="M986.452 973.063c-10.264-1.556-71.014-32.724-49.413-44.633-.52-.797-.131-.412.37-.116 9.637-2.456 18.597 7.411 26.638 11.66 4.83 3.01 9.459 6.439 14.601 8.893 6.125 3.313 14.604 4.858 18.285 11.236 3.473 2.113 7.119 4.221 10.489 6.37-3.213-.995-6.429-1.99-9.642-3 .455 6.064-5.584 10.564-11.327 9.59zM993.21 638.8c-7.582-16.835-20.34-30.399-34.622-41.84-12.697-12.108-28.248-20.804-45.047-25.794-9.21-1.946-18.686-1.886-27.983-3.042-10.65-.873-16.677-6.59-22.794-14.796 3.34 2.806 6.816 5.764 10.557 8.126 13.893 5.498 29.486-.958 43.912 2.182 36.222 7.579 72.752 36.378 75.976 75.165z"/><path d="M886.196 569.317c-13.322-1.597-22.93-11.873-28.86-23.223 2.888 3.327 6.089 6.774 9.321 9.805 9.441 8.912 22.857 9.925 34.922 12.672-5.002.773-10.276 1.508-15.383.746z"/><path d="M895.581 566.323c-15.526-.696-30.489-9.944-38.632-23.106-1.077-1.786-2.253-3.676-3.09-5.515 3.892 5.002 8.388 9.532 13.525 13.28 10.085 6.966 22.175 10.14 34.092 12.298 2.867.422 5.73.84 8.602 1.227-4.637 1.34-9.633 1.929-14.497 1.816z"/><path d="M883.445 562.233c-9.347-4.799-22.045-10.467-23.618-22.11 5.873 9.252 15.168 15.58 23.618 22.11z"/><path d="M882.187 563.808c-8.629-2.125-17.23-6.348-21.64-14.434.57.367 1.179.927 1.78 1.35 9.522 6.984 20.47 11.442 31.5 15.447-3.837-.524-7.809-1.445-11.64-2.363z"/><path d="M892.574 567.188c-11.78-6.525-28.753-12.539-32.008-27.066 8.413 11.202 21.372 18.269 32.008 27.066zM1003.922 825.642c-4.737-13.379-32.945-8.173-44.579-9.3-.011 0-.015-.024 0-.024 12.536-1.83 43.276-10.275 44.579 9.324zM1056.159 850.237c-9.22.559-18.602 2.164-27.786.512 3.485-.766 7.098-1.687 10.668-2.328 3.445-.57 6.93-.737 10.42-.752-.147.1-.293.201-.44.303-.007.008.009.023.016.023l.976-.327c1.87 0 3.74.04 5.607.081 1.644.047 3.406.57 3.453 2.52-.899 4.09-4.004 8.066-5.813 11.812.031-1.668 5.219-12.512 2.899-11.844zM991.93 611.087c-5.384-13.853-9.646-28.669-19.48-40.14-14.414-16.78-35.396-28.843-57.533-31.155-7.048-.254-14.29-1.897-21.154-.15 2.414-1.648 5.516-2.2 8.402-2.742 11.21-1.968 22.955-2.62 33.88 1.105 15.05 5.555 29 15.383 38.71 28.211 10.22 12.828 13.504 29.35 17.176 44.871zM930.68 619.511c-13.622-.977-27.127-14.033-22.607-28.28 1.415-5.84 6.894-16.13 13.625-16.345-4.172 1.208-5.896 6.08-7.535 9.724-2.277 6.302-3.33 13.947.577 19.818 5.234 8.338 16.043 12.52 25.58 10.529 7.533-2.568 13.157-9.378 16.694-16.242 1.122-2.775 1.243-5.883 1.703-8.715.94 8.874-2.635 15.659-8.367 22.156-4.675 5.975-12.301 8.354-19.67 7.356z"/><path d="M989.54 635.804c-3.442-1.182-6.92-2.43-10.516-3.039-5.58-.147-11.186.292-16.785.216-12.116-.332-24.499-.91-36.207-4.263-16.702-5.831-28.41-20.053-37.855-34.386-4.685-7.164-8.5-15.017-11.781-22.825 5.215 8.19 10.6 16.277 16.777 23.786 9.643 11.605 19.543 24.094 34.028 29.727 8.793 3.04 18.437 3.954 27.55 5.198 7.194.778 14.419 1.09 21.649 1.399 4.636.092 9.02 2.42 13.14 4.187zM912.925 568.774c-5.965-2.85-6.131-10.92-6.035-16.683.04-1.286.08-2.72.25-3.922.38 6.025.56 18.007 7.22 20.406.53.074 1.158-.021 1.62.035-.995.3-2.051.573-3.055.164zM921.791 574.86c-7.632-2.42-4.303-14.263-2.496-19.84.008-.015.028-.011.028.004-.916 5.6-3.397 16.401 2.468 19.836zM934.287 578.954c-6.584-3.715-6.073-12.394-6.644-18.965 0-.016.023-.02.027-.004 1.31 6.491 1.685 14.126 6.617 18.969zM943.335 580.243c-4.655-7.15-1.421-15.947 1.148-23.258.004-.012.027-.008.024.008-1.781 7.561-3.618 15.71-1.172 23.25zM954.972 589.295c-5.341-6.186-.188-14.908 3.875-20.383.218-.259.434-.658.649-.82-.347.602-.69 1.222-1.024 1.818-3.16 5.682-6.593 13.152-3.5 19.385zM948.29 583.47c-1.03-4.739 1.287-9.53 2.899-13.805-1.095 4.543-2.594 9.194-2.899 13.805zM900.234 566.452c-3.846-5.39-1.918-12.598-1.336-18.707.153 6.14-.788 12.845 1.336 18.707zM890.076 566.472c-3.536-2.781-3.17-8.604-3.723-12.633 1.328 4.507 1.053 10.638 5.485 13.336.07.034.15.081.223.121.016.004.008.024-.008.024a6.305 6.305 0 0 1-1.977-.848zM880.498 564.128c-5.656-3.315-1.902-12.846-.652-17.848.004-.012.027-.008.023.008-.64 4.933-2.131 9.97-.9 14.885.387 1.477 1.363 2.687 2.748 3.322-.349-.018-.838-.23-1.22-.367z"/><path d="M892.045 571.192c-4.888-7.397-.155-18.105 1.977-25.856.004-.016.028-.012.024.004-.913 4.791-1.875 9.633-2.559 14.45-.258 3.784-.854 7.906.558 11.402zM962.51 592.302c.715-4.915 3.38-9.259 5.63-13.602a215.66 215.66 0 0 1-5.63 13.602zM1084.346 828.762l.157-.16c.036.723.071 1.447.105 2.17l-.262-2.01zM1078.765 783.05c-2.239-17.762-.707-33.844 7.82-49.81 4.871-9.769 10.043-19.675 13.914-29.855 4.867-12.168 8.394-24.82 13.32-36.957 3.93-9.644 11.883-16.804 20.665-19.011a7.086 7.086 0 0 0-.532.914 4.05 4.05 0 0 0-.11.226c-13.136 5.895-16.675 18.61-20.64 32.403-4.57 14.078-9.598 28.078-16.133 41.378-3.808 7.688-7.886 15.258-11.113 23.223-4.855 12.375-4.894 25.828-4.05 38.77.602 10.994 1.347 22.056 1.989 33.067-.212.383-.43.763-.658 1.14l-.19.285c-1.553-11.91-3.065-23.824-4.282-35.774zM1185.519 633.702c12.962-5.863 27.59-4.014 40.973-.684.577.16 1.285.262 1.78.457-8.157-.928-16.416-2.077-24.62-1.653-6.04.43-12.223.899-18.133 1.88zM1250.76 633.62c-12.477-3.397-24.427-7.872-36.465-12.23 6.72.26 13.038 2.85 19.25 5.2 5.754 2.238 11.635 4.563 17.215 7.03z"/><path d="M1244.983 637.297c-14.162-6.038-23.225-10.993-39.07-7.731-1.322.192-2.773.491-4.04.531 1.153-.39 2.29-.832 3.43-1.253 14.841-6.228 27.06 1.091 39.68 8.453z"/><path d="M1235.47 635.252c-8.767-.232-18.033-1.236-25.636-5.925 11.544 3.32 24.003 3.768 35.96 4.757 4.002.284 7.999.585 11.99.891-7.333.378-14.9.48-22.313.277z"/><path d="M1267.317 638.55c-17.39-2.396-34.853-4.35-52.348-5.667 17.523-3.06 35.38 1.556 52.348 5.668zM1255.22 624.848c-6.692-.934-13.277-2.576-19.819-4.12 3.2-.662 11.17.849 15.823 1.83 6.157 1.3 12.45 2.757 18.452 4.368a462.602 462.602 0 0 1-14.457-2.078z"/><path d="M1272.684 641.248c-16.897-8.432-22.223-13.938-42.279-12.93a86.87 86.87 0 0 0-5.6.43c20.877-7.232 31.405 1.515 47.88 12.5z"/><path d="M1278.055 652.145c-4.78-4.51-9.657-8.837-14.726-12.984-6.162-5.116-13.73-8.76-21.86-7.953-1.261.038-2.63.228-3.82.308 5.481-2.068 11.736-2.832 17.196-.3 9.478 4.564 16.459 13.208 23.21 20.93zM1285.758 650.615c-11.262-10.508-21.806-22.955-36.707-28.242-.016-.004-.008-.027.004-.023 8.644.772 16.193 5.617 22.101 11.742 5.12 5.258 10.12 10.81 14.602 16.523zM1269.593 641.793c9.543 3.447 16.543 11.488 23.06 19.009l-.145.22c-7.337-6.766-14.734-13.474-22.915-19.23z"/><path d="M1268.194 641.383c9.935 3.556 17.693 11.143 24.984 18.63l-.265.401-.032.047c-8.038-6.611-16.114-13.16-24.687-19.078zM1273.04 628.718c-.012-.012.004-.028.015-.02 10.013 7.564 15.872 18.933 20.828 30.247l-.443.667c-6.118-10.737-12.683-21.223-20.4-30.894z"/><path d="M1293.17 655.633c-7.88-7.378-16.457-14.354-22.547-23.36 8.156 6.99 15.556 15.244 22.547 23.36zM1287.607 645.55c-4.199-4.722-9.05-8.886-13.789-13.039-.746-.632-1.644-1.285-2.312-1.906 11.413 5.018 19.044 14.137 25.007 24.446-.269.391-.537.783-.803 1.176-2.52-3.701-5.161-7.314-8.103-10.676z"/><path d="M1282.798 636.445c4.778 6.508 8.453 13.834 11.966 21.182-.265.395-.529.79-.791 1.185-4.254-7.185-8.139-14.586-11.175-22.367zM1269.702 638.074c8.06 7.106 15.538 14.927 22.934 22.755-.275.418-.55.837-.824 1.257-8.204-7.257-16.007-14.984-22.11-24.012zM1304.88 678.007c.203-.258.41-.512.613-.77.415.742.82 1.488 1.22 2.236-.16.166-.32.333-.477.5-.447-.659-.899-1.314-1.356-1.966z"/><path d="M1284.493 650.945c3.183 2.678 6.135 5.629 8.87 8.784a536.066 536.066 0 0 0-1.083 1.644c-2.658-3.426-5.288-6.875-7.787-10.428zM1304.864 678.027c.13-.165.258-.325.391-.489.347.8.686 1.598 1.016 2.398l-.196.209a141.1 141.1 0 0 1-1.21-2.118zM1028.927 561.261c.373-20.467-2.68-25.71-15.363-41.234-2.363-3.058-4.89-6.169-7.137-9.22 7.857 8.608 17.297 16.401 22.23 27.18 3.21 7.336 1.988 15.778.27 23.274zM1020.872 550.529c-3.721-4.91-6.534-10.424-9.375-15.872-3.594-6.678-7.358-13.428-10.86-20.082 8.01 11.212 15.504 23.033 20.235 35.953z"/><path d="M1023.107 547.615c-5.516-12.379-11.395-24.628-17.528-36.73-.008-.012.012-.023.02-.012 7.255 11.39 15.345 23.209 17.508 36.742z"/><path d="M1027.135 556.341c-1.158-5.595-1.471-11.545-3.055-16.976-2.499-8.037-6.824-15.213-10.574-22.684-.008-.012.012-.023.02-.012 5.07 7.605 10.638 15.237 13 24.184 1.252 5.045.836 10.412.609 15.488zM1017.96 550.304c-6.346-11.852-16.533-20.61-25.097-30.735-5.944-6.63-10.615-14.252-15.453-21.695-.008-.012.012-.027.02-.012 6.498 8.081 12.801 16.078 20.199 23.301 8.442 8.352 17.414 17.286 20.332 29.14z"/><path d="M1002.975 529.274c-11.137-8.26-16.79-23.212-22.629-35.414-.004-.012.016-.024.023-.008 7.322 11.923 13.986 24.473 22.606 35.422z"/><path d="M1009.915 520.323c-13.697-4.78-23.573-18.058-32.668-28.81-.007-.01.008-.023.02-.015 10.459 10.017 20.72 20.68 32.648 28.825z"/><path d="M1005.879 529.716c-5.287-9.785-11.34-19.277-16.973-28.766 6.668 8.838 14.387 17.808 16.973 28.766zM1012.372 518.755c-5.997-4.032-11.22-9.076-16.324-14.16-6.547-6.47-12.97-13.067-18.996-20.031 12.126 10.868 24.886 21.626 35.32 34.191z"/><path d="M1017.517 523.006c-14.043-12.77-24.52-30.399-42.914-37.5-2.272-1.125-4.724-2.204-6.91-3.34 6.457 2.375 13.177 4.262 19.14 7.777 13.162 7.87 22.35 20.6 30.684 33.063z"/><path d="M995.591 510.699c-9.675-4.188-18.597-17.455-24.77-25.962-.322-.51-.788-1.062-1.023-1.543a634.547 634.547 0 0 0 17.532 19.36c2.595 2.892 5.223 5.858 8.261 8.145zM1022.663 554.105c-5-8.41-7.412-18.015-10.082-27.344 3.633 8.87 7.512 18.088 10.082 27.344zM1027.808 549.632c-4.828-9.525-7.387-20.153-10.68-30.192 4.367 9.73 8.573 19.773 10.68 30.192zM1025.347 552.988c-2.75-6.187-3.75-12.948-5.007-19.554 1.964 6.316 4.075 12.978 5.007 19.554z"/><path d="M986.434 501.238c-5.002-5.45-8.39-12.217-13.125-17.915 5.284 5.087 9.85 11.363 13.125 17.915z"/><path d="M979.131 490.546c-1.467-3.673-4.162-6.637-6.97-9.254a56.453 56.453 0 0 0-16.315-11.02c-1.902-.937-3.797-1.882-5.695-2.82 1.982.614 4.112 1.468 6.13 2.199 9.46 3.37 21.08 10.224 22.85 20.895z"/><path d="M975.707 494.525c-5.12-3.263-8.612-8.396-12.129-13.22-3.043-4.226-5.978-8.532-8.848-12.882 7.42 8.203 13.95 17.572 20.98 26.102h-.003zM979.858 490.013c-8.92-3.607-14.747-11.948-21.039-18.852 6.986 6.153 13.639 13.197 21.04 18.852zM986.539 484.598c-12.28-3.57-21.59-12.982-30.77-21.422-.011-.012.008-.028.02-.02 9.977 7.525 20.112 15.004 30.75 21.442z"/><path d="M989.783 493.617c-3.462-5.138-7.798-9.594-12.036-14.086-8.516-9.235-18.539-17.074-30.027-22.246-2.612-1.296-5.377-2.562-7.91-3.871 2.664.941 5.324 1.898 7.973 2.883 18.003 6.263 34.577 19.53 42 37.32z"/><path d="M959.282 468.712c-6.575-1.43-12.123-6.187-16.844-10.632 5.319 3.927 11.087 7.542 16.844 10.632zM990.323 503.365c-7.073-5.825-11.588-14.011-16.41-21.656 5.566 6.982 11.274 14.345 16.41 21.656zM994.659 506.255c-8.216-6.575-12.265-16.86-17.016-25.969 5.67 8.505 11.008 17.7 17.016 25.97zM1004.942 515.82c-4.687-5.134-8.441-11.214-12.078-17.032 4.315 5.417 9 10.862 12.078 17.031zM971.73 504.98c.086-6.079.796-12.314 1.785-18.239-.299 6.05-.024 12.46-1.786 18.238z"/><path d="M980.573 508.416c-1.846-5.436-.97-11.47-.535-17.004.213 5.654.297 11.427.535 17.004zM985.447 512.024c-.692-3.863-.566-8.004-.328-11.836.308 3.912.694 7.973.328 11.836zM985.988 519.242c-.475-6.128.507-12.421 1.422-18.387-.218 6.115-.2 12.432-1.422 18.387zM978.231 512.752c-3.102-3.428-1.845-13.532-1.976-18.223.4 3.356.606 6.954.894 10.395.322 2.588-.106 5.53 1.082 7.828z"/><path d="M985.807 518.702c-.615-6.005 1.315-11.891 2.606-17.695-.579 5.821-1.606 11.926-2.606 17.695zM992.125 523.575c-.304-4.151.145-8.498.722-12.535.012 4.162.079 8.495-.722 12.535zM996.278 529.357c-1.67-3.105-1.642-6.797-1.399-10.222.254-3.884.72-7.73 1.34-11.57.091 7.138-1.034 14.733.058 21.792zM989.96 514.732c-.329-3.565-.125-7.279.2-10.774.175 3.555.445 7.308-.2 10.774zM997.361 535.125c-.16-6.953 1.028-13.976 2.301-20.719-.527 6.883-.534 14.086-2.3 20.719zM1002.416 534.953c-1.904-4.39-.916-9.592-.707-14.16.342 4.688.147 9.559.707 14.16zM1004.94 534.224c-.502-4.42.395-8.842 1.031-13.203-.093 4.283-.312 8.963-1.031 13.203zM1007.83 536.756c-1.46-3.23-1.192-6.943-1.41-10.41.646 3.319.953 7.045 1.41 10.41zM975.162 502.646c-5.644-4.931-4.952-15.888-5.738-22.91.702 3.39 1.284 7.038 1.953 10.515.854 4.252 1.334 8.831 3.785 12.395zM969.204 491.99c-1.555-2.07-2.078-4.66-2.344-7.187-.386-4.051-.508-8.132-.508-12.199 1.139 6.3 1.002 13.247 2.852 19.387zM963.968 481.881c-1.11-2.242-1.162-5-1.343-7.383.39 1.895.777 3.793 1.054 5.704v-.024c.056.556.242 1.217.29 1.703zM935.79 821.697c-1.792-8.005-4.852-16.008-4.339-24.312 1.11-12.581 7.926-25.864 20.602-29.934 2.403-.859 5.094-1.204 7.574-1.199-2.951.735-5.823 1.748-8.404 3.382-10.069 5.976-15.996 17.089-17.643 28.43-.84 7.968 1.43 15.846 2.21 23.634zM995.18 942.84c-4.027-15.87-10.748-23.722-26.069-29.687-20.04-7.465-41.278-11.231-62.275-14.925-6.02-.551-12.155-.916-18.124-.325 4.148-1.98 8.5-3.293 13-4.188 18.904-3.522 38.407 1.687 56.19 7.856 20.699 7.755 36.259 17.202 37.278 41.27z"/><path d="M1002.964 938.04c-17.698-20.76-42.55-36.553-69.95-39.795-3.758-.348-7.588-.658-11.3-.643 32.426-12.963 65.767 13.412 81.25 40.437z"/><path d="M978.61 939.03c-10.53-2.419-20.285-7.452-29.66-12.691-13.821-7.627-23.522-20.82-38.468-25.842-5.376-1.03-2.42-.883 1.006-1.217 14.225.28 26.188 9.779 37.038 17.731 21.317 14.848 36.504 21.427 62.662 22.687-10.751 1.04-21.892 1.83-32.579-.667z"/><path d="M978.274 929.577c-15.976-3.179-31.171-9.967-44.058-19.947-2.259-1.634-4.65-3.312-6.74-5.065 9.302 2.764 18.433 6.864 26.852 11.507 13.228 7.115 27.526 11.71 41.782 16.278a270.694 270.694 0 0 1-17.836-2.774z"/><path d="M1002.204 930.185c-20.397-2.434-41.086-7.637-58.382-18.961 20.178 3.716 38.773 13.407 58.382 18.961z"/><path d="M991.791 928.441c-19.92-7.221-39.887-14.572-60.387-19.918 21.782-2.913 42.193 9.57 60.387 19.918z"/><path d="M985.254 926.461c-13.295-9.445-28.272-14.982-44.05-18.5-3.684-.928-7.385-2.216-11.008-3.094 20.638-2.677 41.014 6.89 55.058 21.594z"/><path d="M1001.38 941.879c-22.137-14.053-42.286-33.155-67.856-40.621 28.543-2.686 48.701 23.365 67.855 40.621z"/><path d="M1002.964 935.045c-21.045-3.509-43.572-7.702-60.352-21.7 20.377 6.435 40.194 14.828 60.352 21.7z"/><path d="M979.357 933.164c-6.766-1.13-13.61-2.968-19.488-6.5 13.32 1.598 26.235 5.385 39.125 8.985-6.499-.497-13.156-1.373-19.637-2.485z"/><path d="M986.87 937.604c-1.253-1.588-2.98-2.43-4.69-3.367a2.725 2.725 0 0 1-1.184-.223c-2.76-1.174-5.43-2.578-8.082-3.999-3.61 3.843-10.829-3.289-14.441-5.002-7.33-4.222-14.016-10.22-22.43-12.038-6.089-1.465-12.188-2.811-18.305-4.16-2.25-.497-4.058-2.106-4.558-4.403-.895-3.754 2.387-7.095 6.082-7.129 12.389 1.981 24.955 3.962 37.096 7.384 1.97-3.481 6.07-4.365 9.788-3.818 5.103-4.017 11.638-.265 15.283 3.95 1.988 1.545 4.673 2.211 6.853 3.535 5.236 3.242 12.373 5.393 15.155 11.285 1.184 3.649.307 8.231-3.229 10.238 2.614 7.864-7.733 13.786-13.337 7.747z"/><path d="M956.23 931.833c-12.543-5.562-24.452-12.3-36.139-19.451-14.88-8.15-31.051-13.286-47.464-17.302-.015-.004-.011-.028.004-.027 32.598 1.18 61.119 12.987 83.598 36.78z"/><path d="M886.45 896.73c-11.194-.59-18.537-3.047-26.18-7.875a51.64 51.64 0 0 0-3.377-5.025c5.58 1.99 11.102 4.394 16.853 5.85 8.844 2.168 17.988 3.476 26.848 4.496 6.117.61 12.238 1.203 18.347 1.879-7.127.603-14.382 1.108-21.623 1.108-3.633 0-7.261-.127-10.869-.433zM850.648 881.86c.163.042.326.086.488.13.195.236.387.473.578.713-.352-.277-.707-.558-1.066-.844z"/><path d="M874.631 890.273c-5.227-.08-10.365-1.5-15.327-2.985a47.983 47.983 0 0 0-.208-.323c11.26 1.51 22.353.077 33.598-.79 7.77-.75 15.699.079 23.32 1.087-9.923 2.455-20.192 3.3-30.433 3.3-3.66 0-7.314-.108-10.95-.289z"/><path d="M897.778 895.164c-6.94-1.29-13.685-3.699-20.312-5.88 15.14-.724 29.556 5.596 43.89 9.658a264.749 264.749 0 0 1-23.578-3.778z"/><path d="M914.06 901.088c-12.675-2.298-25.308-4.828-37.618-8.646-.884-.235-1.87-.39-2.703-.549 5.946-1.271 12.27-.402 18.262.223 15.812 2.5 31.206 7.878 46.222 13.106-8.086-1.211-16.132-2.618-24.164-4.134z"/><path d="M907.98 902.34c-7.207-1.801-14.134-4.856-20.829-7.843 7.407-.027 14.692 2.36 21.594 4.793 7.488 2.637 15.016 5.145 22.457 7.914-7.736-1.21-15.591-2.832-23.223-4.863z"/><path d="M908.283 903.255c-10.016-1.86-19.455-4.806-28.605-8.892-.902-.342-1.938-.635-2.77-.983 4.058-.253 8.125.395 12.09 1.227 13.307 3.308 26.527 7.631 39.476 11.934-6.754-.891-13.52-1.907-20.191-3.286z"/><path d="M898.602 894.606c-7.965-.27-16.28-.298-23.93-2.528 3.981-.332 7.91-.996 11.907-1.195 12.11-.31 24.325 1.924 36.043 4.515-8.008-.18-16.012-.578-24.02-.792z"/><path d="M907.592 894.575c-11.299-.036-22.657-.588-33.774-2.238 8.03-3.022 21.916-2.778 31.993-1.852 10.074.813 20.12 2.293 30.082 3.97-9.325.289-18.895.28-28.301.12zM1034.814 970.835c-6.614-2.023-12.077-6.246-17.637-10.191-5.94-4.145-11.508-8.796-17.296-13.152-6.383-4.48-13.582-7.597-20.248-11.615-3.612-2.014-7.327-3.897-11.12-5.499-.65-.274-1.423-.469-1.996-.762 13.97.155 27.835 6.26 38.425 15.196 10.084 8.489 18.572 19.292 29.872 26.023zM1019.15 955.988c-4.102-5.043-8.274-10.013-12.746-14.734-4.654-4.591-9.356-9.202-12.938-14.723 11.21 6.996 19.792 17.76 25.684 29.457z"/><path d="M1023.197 955.894c-9.848-6.625-24.013-14.91-27.914-26.598 3.156 4.068 7.543 6.966 11.043 10.721 5.533 5.359 11.343 10.607 16.87 15.877z"/><path d="M1025.853 955.237c-10.472-6.425-21.16-12.524-31.231-19.556-1.767-1.183-3.413-2.56-5.397-3.262 12.346.998 27.39 14.84 36.628 22.818zM1023.694 952.305c-4.743-4.432-9.341-8.818-14.012-13.285-4.485-3.62-7.97-8.772-12.941-11.528 9.928.93 21.168 17.206 26.953 24.813z"/><path d="M1022.238 949.309c-9.293-9.1-17.596-20.132-28.93-26.692 13.7 1.537 21.727 16.457 28.93 26.692z"/><path d="M1025.561 953.712c-7.185-9.903-14.562-19.661-21.636-29.63 10.676 6.506 16.298 18.825 21.636 29.63z"/><path d="M1023.745 953.519c-7.94-10.207-13.794-21.944-20.95-32.559 10.29 5.914 15.514 22.31 20.95 32.559z"/><path d="M1022.745 959.438c-2.733-1.997-5.463-4-8.19-6.01-3.76-.144-6.28-3.414-8.37-6.178-1.678-1.562-7.15-4.187-6.32-6.72-2.013-1.98-3.951-4.042-5.327-6.533-1.088-1.97-1.134-4.371-.3-6.42-5.545-6.008 4.552-16.113 10.648-10.588 5.372 5.211 9.154 11.794 13.46 17.856 1.446 2.67 4.368 4.511 5.264 7.45 9.178 7.195 1.27 17.646-6.06 10.822a2.56 2.56 0 0 1-.432.01 7.25 7.25 0 0 1-.63.162c2.055 2.042 4.3 4.119 6.257 6.15zM988.085 916.734c-10.943-1.23-20.529-7.675-29.75-13.262-3.428-2.393-7.142-4.498-10.203-7.352-1.043-1.027-1.047-2.652-.364-3.855 1.496-2.968 5.154-2.02 7.653-1.078 2.93.261 29.224 15.188 21.178 17.73 3.624 2.86 7.29 5.945 11.486 7.817z"/><path d="M1023.457 959.975c-10.43-4.414-20.134-10.135-29.433-16.567-14.29-8.993-28.65-18.24-44.11-25.074 29.96.682 50.111 26.58 73.543 41.64z"/><path d="M1029.277 966.002c-1.982-1.873-3.937-3.777-5.891-5.68-.507.81-1.756 1.2-2.57.348l-.004.004c-6.276-6.87-12.104-14.476-15.606-23.11 4.773 4.796 9.47 9.68 13.468 15.158 4.33 3.461 7.183 8.966 10.603 13.28z"/><path d="M1033.81 968.113c-8.182-7.315-17.318-15.125-20.077-26.15 6.64 8.732 13.288 17.612 20.078 26.15z"/><path d="M1015.385 940.045c4.308 11.938 13.574 20.89 22.054 30.012.067.16.133.316.204.476l.012.03c-.283.078-.566.157-.848.239-10.303-7.901-22-16.898-21.422-30.757z"/><path d="M1017.861 948.016c5.783 7.885 12.403 15.254 18.483 22.923-.455.134-.909.273-1.362.415-7.327-6.642-14.882-13.663-17.12-23.338zM952.514 943.654a3175.057 3175.057 0 0 1-16.181-8.346c.532 4.493-4.726 8.284-8.787 6.124-1.678-.903-3.262-1.937-4.814-3.022-8.377 4.262-15.98-6.382-22.488-10.473-4.144-2.519-8.208-5.16-12.413-7.58-2.572-1.156-6.226-3.81-4.004-6.88-3.145-5.125 1.531-12.127 7.375-11.701 2.638.076 4.938 1.366 7.042 2.853 3.55.455 6.095 3.484 8.738 5.651 15.357 10.873 29.861 23.051 45.532 33.374z"/><path d="M1004.176 962.23c-37.113-14.14-75.576-26.542-108.027-49.98 38.551 10.139 73.545 30.573 108.027 49.98z"/><path d="M990.654 952.31c-29.559-10.422-58.979-21.326-88.106-32.884-8.15-2.698-15.885-8.115-24.519-8.13 29.746-7.003 85.685 26.738 112.625 41.013z"/><path d="M986.068 963.749a1120.589 1120.589 0 0 1-70.144-39.184c-7.96-4.564-14.975-11.048-23.906-13.267 27.134-1.425 71.512 36.467 94.05 52.45z"/><path d="M1008.574 963.875c-24.11-6.21-49.34-12.2-70.117-26.497 24.5 5.282 47.24 16.673 70.117 26.496z"/><path d="M923.766 1116.506c-94.516-.879-119.922-51.27-177.16-113.113-19.503-20.525-37.806-42.165-55.148-64.55a141.74 141.74 0 0 0-1.313-8.278c-.208-1.086-.417-2.17-.63-3.256 15.732 14.06 31.349 28.266 46.54 42.845 22.543 20.086 42.406 42.746 62.097 65.559 18.32 20.45 36.856 42.453 63.45 52.023 75.43 28.668 102.93.317 166.761-32.773 54.04-23.938 90.297-70.965 126.473-115.688 21.07-24.203 44.414-46.492 63.137-72.66 16.406-23.289 29.695-48.707 43.996-73.21-13.555 31.124-26.125 62.976-45.188 91.253-26.199 36.907-56.566 70.692-83.406 107.172-35.344 45.02-73.11 67.035-123.187 92.008-26.907 14.531-54.418 32.668-86.047 32.668h-.375zM724.029 1307.772c74.645-33.3 159.684-25.553 239.168-20.111-79.725 4.74-159.831 11.646-239.168 20.111zM579.972 608.688c90.63-42.011 179.645-64.343 244.708-146.171 24.336-29.965 48.403-60.304 76.523-86.872 30.474-26.747 32.562-30.812 5.729 4.01-111.389 163.82-142.079 172.08-326.96 229.033zM623.94 503.897c55.025-33.836 111.185-65.01 161.715-105.305 86.983-75.292 191.298-181.188 317.16-159.242 6.174 1.2 12.324 2.894 18.028 5.407-15.93-2.846-33.379-1.019-48.93 1.04-70.234 10.793-133.13 47.191-188.609 90.116-29.511 23.443-55.619 50.883-85.98 73.309-52.975 39.6-113.757 66.954-173.383 94.675z"/><path d="M708.772 370.808c46.856-75.962 116.145-143.324 199.883-176.326 2.442-.176 4.884-.362 7.324-.557 5.66-.453 11.34-.652 17.007-1 4.95-.3 9.918-.597 14.872-.761 3.312-.11 6.617-.239 9.925-.387 2.082-.098 4.172-.281 6.258-.277 2.43 0 4.871-.051 7.309-.102 3.215-.066 6.433-.133 9.648-.074 6.836.124 13.673.107 20.51.034-19.897 1.647-39.641 4.311-59.045 9.259-105.977 31.594-186.894 117.152-240.8 210.773-22.141 42.657-38.95 87.992-58.872 131.63 19.133-58.337 33.469-119.462 65.98-172.212zM430.844 1332.122c66.67-40.76 206.672-87.394 236.068-157.895 14.522-39.76 1.065-111.303-6.693-153.471-14.307-71.513-46.07-141.062-42.311-215.114 2.547-49.21 15.088-103.499 54.953-136.004 3.59-2.918 7.352-5.648 11.149-8.289-4.716 5.306-9.534 10.746-13.563 16.32-12.568 17.051-20.08 37.104-25.057 57.548-15.375 58.512-13.633 119.004 4.216 176.714 17.76 65.477 37.087 131.167 39.745 199.398 7.871 64.54-17.65 105.253-71.75 138.58-58.522 34.847-124.13 56.226-186.757 82.213z"/><path d="M340.044 1318.506c19.95-26.602 38.002-55.073 62.098-78.203 23.493-20.908 50.032-38.1 74.301-58.08 123.958-98.267 98.23-182.359 111.461-320.217 2.628-20.066 5.525-40.337 11.84-59.562-1.033 11.239-1.019 22.504-1.187 33.773 3.458 154.791 15.244 276.688-130.817 371.238-20.002 14.082-41.31 26.316-60.6 41.377-24.77 20.702-44.964 46.383-67.096 69.674z"/><path d="M336.694 1305.57c94.704-53.932 198.303-100.766 270.082-185.52 6.81-7.648 12.55-16.29 18.621-24.437-2.137 4.887-3.967 9.91-6.206 14.751-52.28 110.084-178.455 149.827-282.497 195.206zM206.598 1160.402c47.726-12.168 97.304-19.208 142.738-38.869 98.136-40.182 152.298-140.552 174.351-239.452 11.282-46.55 21.83-93.793 42.09-137.438 2.433-4.554 4.817-9.263 7.433-13.637-11.382 37.477-15.345 76.678-23.629 114.883-20.671 100.087-57.367 209.002-148.808 265.488-57.843 36.859-127.989 40.85-194.175 49.025zM1067.638 1335.44c37.22-9.25 74.64-17.722 112.425-24.324 37.312-7.133 75.446-12.78 110.585-27.85 60.383-24.196 92.556-90.574 90.801-153.338 3.284-112.376-117.76-215.258-86.94-317.476 1.913-5.552 4.655-10.939 8.246-15.504-4.618 10.036-5.596 21.101-5.479 31.95.978 32.64 14.76 63.169 27.85 92.405 21.207 48.169 49.122 93.77 64.022 144.489 23.58 80.033 3.053 180.795-73.893 224.117-39.731 22.001-85.962 26.501-130.301 31.727-39.177 3.818-78.334 8.862-117.316 13.804z"/><path d="M1193.575 1369.609c54.729-34.22 110.57-66.56 166.238-99.208 25.076-15.385 50.264-32.312 67.825-56.368 33.996-43.573 17.682-100.794 5.136-149.294-14.31-49.467-31-98.804-32.868-150.693-2.059-65.193-2.003-131.916 18.047-194.64 1.458-4.8 2.876-9.712 4.352-14.423-.512 8.04-1.215 16.07-1.947 24.094-4.365 58.067-4.148 116.458-3.953 174.67.664 64.527 25.691 124.73 40.288 186.267 19.886 76.269 5.616 133.275-62.47 177.787-63.911 39.251-133.388 68.979-200.648 101.808zM1005.714 1330.925c47.541-32.148 98.44-59.439 143.543-95.02 78-63.77 106.068-138.545 107.555-237.387.935-21.169 3.163-42.526 2.593-63.641 3.172 11.375 4.637 23.133 6.15 34.816 15.286 91.884-6.92 184.716-75.446 250.396-51.722 50.893-121.19 77.573-184.395 110.836z"/><path d="M1100.201 1403.885c-21.303-3.537-42.29-9.956-61.511-19.731 65.882 14.337 136.302 9.184 197.926-18.874 43.633-20.352 85.463-44.646 128.464-66.15-78.92 52.036-163.808 123.624-264.879 104.755zM1447.314 971.087c-1.239-105.546 6.552-211.018 2.857-316.542-2.41-106.245-14.137-204.79-114.114-264.161-15.251-8.364-31.097-13.59-47.767-17.757 12.893.204 26.025 1.445 38.602 4.675 54.237 13.841 94.834 59.988 115.176 110.563 17.541 44.339 21.635 92.456 24.018 139.668 7.468 114.926-5.927 229.574-18.772 343.554z"/><path d="M1258.43 335.03c-10.809 3.386-21.867 6.894-30.727 13.96 3.887-5.586 9.246-9.863 14.781-13.726 29.074-18.704 67.478-29.919 102.54-25.038 2.564 1.132 5.128 2.26 7.691 3.385 2.168.954 4.406 1.817 6.52 2.887 3.097 1.567 6.195 3.133 9.293 4.696 1.363.687 2.738 1.367 4.101 2.058 1.961.996 3.988 2.008 6.102 2.645 1.847.558 3.636.757 5.55.914.176.011.352.02.52.02.995 0 1.878-.242 2.613-.682a91.985 91.985 0 0 1 8.45 6.502c32.128 29.187 45.867 72.644 65.718 110.113-62.98-96.16-75.734-139.883-203.152-107.735zM1446.558 358.603a636.556 636.556 0 0 1 15.34 22.35c5.366 21.405 9.95 43.059 15.841 64.011-11.887-27.613-20.108-57.801-31.18-86.36zM708.362 1100.532c-7.272-62.315-11.116-125.015-20.335-187.089-15.813-95.691-38.316-213.985 37.026-290.638 6.6-6.684 13.404-13.388 20.985-18.863-6.337 7.463-11.939 15.51-17.246 23.707-50.12 75.264-42.743 171.018-29.11 256.222 10.623 71.665 8.704 144.491 8.68 216.66zM900.407 953.803c-15.108-15.322-26.347-34.16-35.154-53.757a38.485 38.485 0 0 0-1.963-5.376 62.142 62.142 0 0 0-1.588-3.245c2.561 2.704 4.95 5.538 7.295 8.425 4.07 5.09 8.277 10.093 12 15.445 8.812 12.7 15.586 26.996 26.476 38.129 7.793 7.472 18.106 11.543 27.29 16.828-12.047-4.027-25.02-7.305-34.356-16.45z"/><path d="M896.411 927.997c-7.292-3.9-13.136-10.182-18.593-16.298-4.037-4.155-8.427-8.384-10.852-13.714-.852-2.534 1.332-5.976 4.195-5.383 3.082.373 5.334 2.652 7.626 4.535 11.13 9.679 23.164 18.456 34.683 27.528-7.692-4.132-15.467-8.145-22.984-12.586 3.654 3.274 7.731 6.186 10.859 9.984 2.415 3.177-1.387 7.7-4.934 5.934z"/><path d="M907.524 920.092c-15.169-6.51-32.02-13.109-42.367-26.5 14.544 8.159 28.423 17.508 42.367 26.5z"/><path d="M906.26 921.984c-12.517-5.741-39.56-19.14-40.823-33.2.47 1.733 1.841 2.895 3.056 4.106 3.917 3.509 8.167 6.616 12.107 10.098 8.235 6.771 17.122 12.796 25.66 18.996z"/><path d="M906.364 922.308c-16.524-8.723-33.635-17.839-45.461-32.723 16.296 9.006 30.658 21.543 45.46 32.723z"/><path d="M930.077 928.316c-23.146-8.612-46.594-18.333-64.933-35.34 23.037 8.612 43.602 23.34 64.933 35.34z"/><path d="M923.319 924.656c-18.148-8.795-36.007-18.496-51.398-31.47 19.225 6.068 35.205 20.075 51.398 31.47z"/><path d="M934.256 930.173c-19.697-8.688-48.18-18.736-60.203-37.214 19.81 12.672 40.64 24.177 60.203 37.214z"/><path d="M937.457 930.559c-20.136-9.617-39.89-20.33-57.273-34.403 21.47 6.367 39.148 21.876 57.273 34.403z"/><path d="M942.372 938.02c-20.753-9.703-42.57-19.689-57.953-37.208 20.537 10.251 39.085 24.294 57.953 37.208z"/><path d="M943.77 937.942c-16.057-8.15-32.796-15.852-46.84-27.192 17.54 5.09 32.374 16.595 46.84 27.192z"/><path d="M949.64 943.326c-20.625-10.494-41.022-22.311-58.85-37.024 22.477 7.017 40.245 23.383 58.85 37.024zM900.67 924.527c-11.722-9.45-26.558-18.635-33.415-32.403 11.862 9.883 23.13 20.9 33.414 32.403z"/><path d="M982.411 993.141c-32.066-3.668-65.21-18.21-83.063-46.16-6.082-9.386-10.46-19.738-15.386-29.75-3.098-6.886-6.844-13.851-7.774-21.379 1.992 4.262 4.996 7.91 7.91 11.559 16.567 18.621 26.168 43.227 46.688 58.168 18.95 14.257 41.198 22.768 64.196 27.81-.305.222-.61.446-.912.672-3.883-.278-7.801-.617-11.659-.92z"/><path d="M966.24 985.36c-12.223-1.292-25.636-6.448-31.773-17.766 1.689 1.476 3.498 2.83 5.493 3.917 19.905 10.834 41.86 11.01 63.874 10.696-12.309 2.018-25.012 4.833-37.594 3.152z"/><path d="M965.442 982.678c-1.72.181-13.593-2.763-7.881-2.398 13.733-.366 27.058-4.151 39.799-9.074 3.942-1.44 8-2.978 11.883-4.363-13.397 7.605-27.768 17.031-43.801 15.835zM971.295 989.081c2.632.176 5.245-.32 7.785-1.066 10.69-3.373 21.082-7.95 31.574-11.706-11.2 5.9-26.29 17.93-39.36 12.772zM957.097 927.544c-20.244-9.23-39.488-21.038-60.73-27.887 23.426-1.765 42.524 15.636 60.73 27.887zM957.524 936.538c-14.694-6.587-29.263-13.504-43.574-20.887-4.685-2.145-8.768-6.085-14-6.177 14.583-3.821 45.018 18.843 57.574 27.064z"/><path d="M933.843 919.022c-11.316-5.193-33.704-12.061-39.656-22.856 3.7 3.18 8.423 4.773 12.7 7.004 9.206 4.835 18.297 10.223 26.956 15.852zM892.79 892.601c-1.521.058-12.858-2.188-7.187-1.972 5.534-.087 11.24 1.3 16.5 2.707a181.47 181.47 0 0 1-9.313-.735zM918.145 921.598c-8.005-4.672-16.623-8.966-22.719-16.137 8.325 4.078 15.661 10.24 22.719 16.137z"/><path d="M934.608 928.56c-14.72-5.019-28.563-13.895-44.188-15.324 15.785-5 31.14 8.036 44.188 15.324z"/><path d="M932.555 924.74c-12.846-6.204-26.419-11.715-38.12-19.802 14.27 2.94 26.464 11.604 38.12 19.802zM1022.886 966.911c-10.364-3.701-20.846-7.176-30.64-12.258-13.332-6.524-26.534-14.244-41.103-17.558 20.948-3.6 38.508 11.327 55.722 20.862 5.364 2.891 10.833 5.882 16.02 8.954z"/><path d="M965.95 994.796c-14.621-.949-32.36-6.62-38.215-21.367.719.77 1.465 1.703 2.285 2.461 14.133 11.277 35.23 11.082 52.536 11.746 18.769.414 33.37-12.789 48.363-22.082-6.77 6.422-12.395 11.856-17.858 16.245a275.478 275.478 0 0 0-14.264 8.93c-6.704 2.91-14.28 4.407-24.164 4.407-2.711 0-5.595-.113-8.683-.34z"/><path d="M986.794 986.783c-2.102-2.907 1.557-5.804 3.694-6.929-.811-.092-1.763-.095-2.503-.216a62.137 62.137 0 0 1 2.222-.603c-6.92-4.528 13.47-11.847 16.759-12.748 4.005-.935 8.31.665 6.578 5.504-2.107 3.886-6.82 5.671-10.185 8.385-1.297 3.574-6.393 4.985-9.23 6.458-2.274.958-5.463 2.732-7.335.149z"/><path d="m1004 977.334-.003.009a58.674 58.674 0 0 1-10.49-6.06c-2.824-.53-6.387-1.706-6.92-4.938-.661-.851-.991-1.987-.773-3.036-2.06-2.142-3.974-4.427-6.05-6.552 2.078.972 4.209 2.312 6.258 3.49 3.551-12.259 20.634-1.293 27.866 1.787 6.472 3.926 2.485 11.562-4.25 11.342.4 2.947-3.014 5.277-5.637 3.958zM951.445 975.567c-10.32-1.45-20.317-4.39-29.328-9.711-27.463-12.822-51.269-39.157-51.504-70.723.15-1.676.644-3.424 1.242-4.918-.108 3.341.681 6.581 1.994 9.633 8.03 16.926 17.51 33.7 31.057 46.84 13.98 11.811 28.895 23.423 46.54 28.879z"/><path d="M931.331 984.8c-23.531-7.91-38.142-29.69-50.45-49.98-7.33-13.484-12.571-29.11-11.366-44.61.99 4.41 2.777 8.7 4.626 12.862 6.007 13.42 14.089 25.68 21.856 38.112 6.256 10.099 13.01 19.947 21.48 28.339 12.079 11.881 28.464 16.7 44.612 20.015-10.26-.51-20.989-1.012-30.758-4.738z"/><path d="M948.208 988.012c-12.699-6.29-24.624-14.674-33.988-25.328-3.35-5.573-8.216-11.055-8.312-17.879 1.019 3.101 3.342 5.616 5.674 7.88 4.273-4.65 7.893 1.005 10.41 4.365 2.95 3.576 6.015 7.082 9.71 9.912 7.119 4.346 14.986 8.217 21.861 12.573 4.564 3.533-.216 11.016-5.355 8.477z"/><path d="M943.12 986.408c-14.544-4.65-27.525-13.435-36.207-26.113-3.457-6.212-17.122-19.768-9.351-26.12 5.228-3.577 9.567 2.105 11.555 6.495 2.891 4.846 6.034 9.538 9.531 13.97 7.242 9.07 16.974 15.655 27.313 20.726 7.317 2.247 4.712 13.108-2.84 11.042z"/><path d="M958.039 985.407c-22.418-3.074-48.512-21.325-51.8-44.902 3.818 7.99 10.795 14.12 16.973 20.342 16.462 16.417 28.944 20.11 50.128 27.103-5.03-.703-10.234-1.644-15.301-2.543z"/><path d="M970.262 985.428c-15.727-1.403-34.202-3.328-43.82-17.473 13.377 8.808 28.62 13.435 43.82 17.473zM982.965 988.914c13.588-4.189 25.692-12.42 38.668-18.043-11.779 7.596-23.637 19.503-38.668 18.043z"/><path d="M1000.826 979.542c6.364.673 12.55-2.913 18.594-4.666-5.76-.421-6.73-.578-4.59-6.464-.239 1.39-.348 3.012-.187 4.48 1.596 1.329 9.09-1.366 6.937 2.962-5.352 3.228-14.811 7.35-20.754 3.688zM969.632 490.107c-12.158-7.956-19.816-21.119-27.637-33.035 9.626 10.5 19.78 21.104 27.637 33.035z"/><path d="M970.568 478.315c-5.98-1.43-10.668-5.747-15.3-9.532-4.145-3.383-8.204-6.87-12.208-10.421 9.956 5.371 19.065 12.567 27.508 19.953z"/><path d="M973.361 477.383c-13.393-1.707-24.905-11.011-32.816-21.54 9.481 9.042 21.662 14.9 32.816 21.54zM992.911 514.627c-12.268-8.678-18.903-22.878-23.285-36.836 6.642 12.874 15.648 24.58 23.285 36.836z"/><path d="M988.57 509.662c-14.116-2.361-20.95-17.198-23.38-29.825 4.765 11.91 12.39 23.11 23.38 29.825zM1009.36 531.385c-4.87-4.869-8.283-10.937-11.916-16.73-4.08-5.9-8.269-11.895-12.159-17.84 10.133 9.93 19.565 20.961 24.075 34.57zM1025.499 544.11c-12.851-11.817-22.108-27.052-30.523-42.12 10.821 13.589 23.268 26.243 30.523 42.12z"/><path d="M1018.357 546.278c-4.141-6.988-10.327-12.265-15.558-18.37-9.288-10.695-18.671-21.491-27.418-32.556 14.08 13.18 39.463 31.7 42.976 50.926zM1005.953 514.627c-13.048-4.186-18.113-18.858-23.957-29.969 7.702 9.994 14.316 21.664 23.957 29.97zM979.292 487.728c-8.694-6.662-14.184-16.61-19.406-26.036 2.674 3.192 5.533 6.754 8.175 9.986 5.54 5.996 10.018 13.116 16.172 18.405-1.73-.015-3.539-1.373-4.941-2.355z"/><path d="M967.545 475.028c-10.679-6.838-18.513-17.31-26.02-27.348 3.715 3.336 7.54 6.997 11.184 10.383 7.856 6.896 15.236 14.486 23.766 20.54-3.086-.47-6.254-1.884-8.93-3.575z"/><path d="M944.795 457.575c-3.789-3.582-7.277-7.437-10.535-11.507 8.959 7.251 17.873 14.985 27.317 21.671-6.592-.974-12.053-5.705-16.782-10.164zM1023.631 545.966c-3.517-10.993-8.175-21.703-12.652-32.25 6.219 9.69 13.779 20.225 12.652 32.25zM1183.558 635.565c14.183-10.152 32.708-7.909 49.211-8.007-16.265 2.84-33.084 4.27-49.21 8.007z"/><path d="M1197.182 626.868c10.478-8.06 25.835-3.753 37.605-.988-12.337-.68-25.556-1.934-37.605.988z"/><path d="M1189.064 630.93c9.781-11.764 26.858-11.979 40.89-10.465-13.99 1.038-28.351 3.768-40.878 10.485-.01 0-.019-.013-.012-.02z"/><path d="M1200.948 633.25c8.372-14.104 34.683-11.231 48.981-11.152.016 0 .02.024.004.027-12.207 2.262-40.072 3.75-48.985 11.125z"/><path d="M1252.798 631.484c-4.574-1.732-24.49-10.886-25.16-2.285-.327-.697-.683-1.768-.332-2.528 6.621-7.88 18.872.757 25.492 4.813z"/><path d="M1217.184 631.216c14.023-7.128 30.553-4.67 45.703-4.046-15.077 1.855-30.54 3.023-45.703 4.047z"/><path d="M1270.2 631.518c-4.302-1.165-27.148-11.652-28.093-5.214-.782-1.568.688-2.852 2.062-3.38 9.299-2.218 18.295 4.339 26.031 8.594z"/><path d="M1266.584 630.707c-6.197-1.326-12.382-2.733-18.503-4.363-3.721-.886-7.361-1.974-10.92-3.39.007.001.014.004.02.006-1.044-.424-2.226-.836-3.176-1.311 5.504.117 10.81 1.074 16.043 2.773 5.582 1.834 11.222 3.929 16.536 6.285z"/><path d="M1265.409 638.85c-4.398-3.846-8.837-7.778-12.473-12.374.002.004.005.009.008.011 3.007.334 9.481 8.509 12.465 12.364z"/><path d="M1278.498 638.921c-12.481-1.322-24.996-1.899-37.535-2.176 11.99-4.865 25.608-1.113 37.535 2.176z"/><path d="M1279.717 645.306c-9.84-4.604-29.244-16.284-39.625-14.36 12.095-7.314 30.065 7.296 39.625 14.36z"/><path d="M1275.383 646.024c-8.683-2.503-16.824-6.394-25.437-8.7 9.04-1.46 17.7 4.856 25.437 8.7zM1279.091 642.205c-9.734-3.762-20.05-6.835-28.851-12.442 10.45 1.733 19.93 7.114 28.851 12.442zM1124.788 696.518l-.16.512-.689.325c.281-.282.564-.56.85-.837zM1129.792 692.493a36.477 36.477 0 0 0-1.646 2.291c-.195.29-.367.582-.523.88-.355.156-.708.315-1.062.475 1.055-1.236 2.116-2.466 3.231-3.646zM1133.082 693.014c1.839-.816 3.705-1.386 5.661-1.815l-.156.035c.91-.164 1.824-.32 2.738-.461-.965.234-1.934.496-2.906.789a91.955 91.955 0 0 0-6.567 2.328c.404-.3.814-.591 1.23-.876zM1218.664 743.772l.296-.062c.015-.004.023.02.008.023l-.266.078-.038-.039zM1119.166 690.398c-.314.418-.618.851-.91 1.3-.297.46-.582.93-.854 1.41a41.293 41.293 0 0 0-4.524 3.852c1.767-2.42 3.904-4.601 6.288-6.563zM1151.01 689.87c.516-.015 1.036-.019 1.551-.019-1.629 1.785-2.804 4.137-3.675 6.262-.083.22-.164.441-.241.663-.72-.139-1.465-.111-2.195.008 1.116-2.641 2.64-5.118 4.56-6.913zM1191.402 715.113c.327-1.155.387-2.366.031-3.5.105-1.39.002-2.79-.174-4.18.176.102.356.204.531.302.422 2.234.621 4.484.157 6.753a16.2 16.2 0 0 1-.239.977 46.762 46.762 0 0 0-.306-.352zM1384.923 326.831a5.159 5.159 0 0 0 2.03-.442c1 1.74 1.972 3.492 2.93 5.245 4.082 7.214 8.273 14.53 12.12 21.796-5.846-8.743-11.228-17.844-17.08-26.599zM1351.593 291.555c-.684-.37-1.37-.739-2.058-1.104l.644-.013c.99.468 1.972.955 2.944 1.464a75.436 75.436 0 0 0-1.53-.347zM1196.76 407.057c11.624-15.552 27.565-27.448 44.142-37.288 24.513-15.37 53.787-24.1 82.82-21.29 9.903 1.277 19.96 2.612 29.742 4.188-9.714-.791-19.437-1.474-29.152-2.254-15.26-.873-30.52 1.677-45.125 5.792-14.592 4.162-27.982 11.243-40.852 19.124-14.498 9.61-29.271 19.476-41.574 31.728z"/><path d="M1203.384 389.387c17.341-27.097 47.81-44.317 78.993-50.246 13.141-2.707 26.563-1.504 39.797-.27 6.087.524 12.343 1.037 18.332 1.723-5.067-.148-10.137-.308-15.207-.41-11.795-.175-23.658-1.19-35.376.671-24.007 3.666-46.498 14.143-65.501 28.933.039-.034.08-.067.123-.102-7.518 6-15.113 12.263-21.16 19.7zM967.724 307.865c3.003-2.782 6.128-5.4 9.362-7.859 3.6-1.11 7.206-2.193 10.812-3.28a127.351 127.351 0 0 0-13.541 9.853c-8.324 6.735-15.676 14.563-22.762 22.567-9.25 10.23-18.535 20.613-27.8 30.734 14.28-17.601 27.566-36.25 43.93-52.015z"/><path d="M750.505 388.129c20.738-15.79 41.156-32.032 60.258-49.782 19.344-18.347 37.75-37.617 56.488-56.566 35.574-37.328 73.918-64.574 127.278-66.246 11.527-.492 23.074.332 34.492 1.87 18.21 2.212 36.21 5.735 53.773 11.044 18.864 5.652 37.229 13.073 54.98 21.548.075.574.18 1.145.31 1.712-20.478-7.015-40.457-15.51-61.329-21.307-16.547-4.965-33.633-7.668-50.738-9.879-47.453-6.36-89.89 5.434-126.73 36.024-27.657 23.425-51.25 51.167-77.551 76.046-18.254 18.04-38.106 34.371-58.387 50.07a2159.691 2159.691 0 0 1-96.078 70.575c27.289-22.281 55.191-43.793 83.234-65.11zM494.125 1156.812c24.635-70.604 58.76-138.236 72.749-212.129 5.814-34.932 8.009-70.268 10.704-105.539 2.265-27.178 6.982-54.216 15.449-80.176 6.477-20.508 14.705-40.621 25.91-59.03 10.518-17.207 23.742-33.421 40.648-44.56-14.114 12.813-25.82 28.144-36.215 44.047-17.188 27.606-27.683 58.662-35.038 90.16-5.52 24.818-7.458 50.223-9.25 75.536-2.383 34.58-5.638 69.237-13.715 103.008-2.275 10.99-6 21.62-8.988 32.433a825.21 825.21 0 0 1-14.34 41.453c-14.72 38.75-30.847 77.105-47.914 114.797zM395.207 1306.616c20.556-10.051 41.216-19.93 61.996-29.485 23.456-10.743 46.851-21.674 69.141-34.707 23.242-13.33 45.091-28.93 65.874-45.82 14.429-12.262 28.646-24.934 40.156-40.058-.057.082-.11.15-.167.234l.247-.343a6.704 6.704 0 0 1-.04.054c10.849-14.255 19.718-29.535 29.707-44.336-1.349 2.93-2.923 5.965-4.371 8.925-7.874 16.906-17.853 32.857-30.203 46.809-15.12 17.295-33.382 31.75-51.379 45.856-8.872 6.224-17.489 12.887-26.719 18.566-12.946 8.522-26.443 16.09-39.988 23.605-37.036 19.108-75.676 35.187-114.254 50.7zM583.919 647.626c30.714-4.602 61.319-10.328 90.969-19.726 18.65-5.738 36.02-14.831 54.293-21.582 3.223-1.182 6.57-2.392 9.777-3.407-3.281 1.665-6.586 3.282-9.852 4.98-15.827 8.341-31.895 16.304-48.898 21.985-31.074 10.427-63.748 15.373-96.289 17.75zM573.05 625.07c24.242-5.36 48.558-10.406 72.769-15.918 23.37-5.239 46.38-12.056 68.393-21.55-.07.033-.144.062-.213.098 13.77-6.221 27.784-11.635 41.558-17.55-12.739 7.86-26.313 14.498-39.95 20.654l.012-.005a.322.322 0 0 0 .028-.014c-45.106 19.694-94.309 27.23-142.598 34.286zM609.19 575.835c27.042-14.488 54.358-28.506 80.765-44.145 22.27-13.138 43.81-27.482 65.926-40.847 2.509-1.56 4.981-3.095 7.528-4.582a592.055 592.055 0 0 1-9.254 7.425c-14.89 11.77-30.95 21.886-47.133 31.758-31.07 19.73-64.252 35.689-97.832 50.39zM565.981 808.622a1793.043 1793.043 0 0 1 9.792-43.833c4.71-20.675 9.989-41.415 19.876-60.312 7.196-13.623 14.294-28.969 28.035-37.124 1.987-1.08 4.206-1.564 6.438-1.758-2.627.607-5.328 1.82-7.406 3.613-10.533 9.365-16.348 22.665-22.906 34.864-9.712 18.044-15.052 37.646-20.38 57.261-4.416 15.756-8.897 31.65-13.449 47.29zM869.89 603.405c2.54-6.803 8.186-12.384 15.257-14.3a60.039 60.039 0 0 1 1.664-.403c-.457.305-1.138.55-1.672.836-6.328 3.099-12.079 7.575-15.25 13.867zM881.746 607.486c3.667-3.073 9.029-9.731 14.262-7.543-5.104-.692-10.239 5.002-14.262 7.543zM891.545 623.441c2.779-5.69 5.964-12.221 12.098-14.754-5.172 3.883-8.734 9.443-12.098 14.754zM885.208 620.002c2.291-7.906 7.282-16.786 16.183-18.066-.255.172-.697.264-1.003.418-7.359 3.45-12.13 10.444-15.18 17.648zM860.714 585.065c5.025-3.922 10.48-8.609 17.13-8.676-6.26 1.692-11.75 5.349-17.13 8.676zM867.62 591.32c4.041-3.846 8.379-8.767 14.261-9.097-5.462 1.776-9.84 5.747-14.262 9.097zM907.297 637.334c1.216-6.928 1.654-16.614 8.903-19.899-5.779 4.661-6.82 12.754-8.777 19.489l.004-.004c-.054.123-.048.367-.13.414zM904.156 631.556c1.085-6.033 1.768-14.219 8.23-16.813-5.343 3.889-6.416 10.967-8.23 16.813zM928.974 639.133c1.304-3.786 2.123-9.543 6.73-10.508-3.883 1.898-4.946 6.943-6.73 10.508zM921.095 642.02c-.224-6.001-1.808-13.014 1.617-18.312-1.899 5.873-1.17 12.316-1.617 18.313zM1188.805 706.92c-13.823-7.276-25.68-10.24-40.742-10.22a6.23 6.23 0 0 0-.962.006c-.865.008-1.74.026-2.628.053-6.867.574-13.715.957-20.606.895.88-.438 1.953-.715 2.942-1.016 14.312-5.192 29.883-9.524 44.906-4.535 16.73 5.765 32.719 16.21 42.363 31.312 2.633 4.598 4.809 9.594 6.977 14.352-8.988-14.457-17.125-22.75-32.25-30.848z"/><path d="M1236 743.8c-13.286-1.052-25.169-11.606-28.313-24.47 3.496 5.125 8.215 9.785 12.754 13.992 5.928 6.332 14.212 8.386 22.403 10.132-.077.278-.152.557-.223.837-2.214-.127-4.44-.294-6.622-.492z"/><path d="M1210.262 719.83c-.31-.523-.754-1.082-1.02-1.562 1.367.89 2.57 2.008 3.77 3.117 13.541 13.096 15.769 15.271 30.41 20.123-.11.35-.218.7-.322 1.052-15-2.435-24.482-7.6-32.838-22.73zM1239.692 709.12c-14.474-12.207-28.735-26.356-47.505-31.394-4.807-1.225-9.785-.892-14.683-.582-10.9.602-21.409 3.715-31.746 7.03-10.731 3.522-21.58 6.92-31.848 11.65 8.1-5.574 17.273-9.845 26.368-13.719 13.809-6.01 28.654-9.682 43.781-9.243 22.659.949 40.674 21.292 55.633 36.258z"/><path d="M1205.814 719.733c4.295-.355 8.819-1.1 12.853-2.8 3.05-1.38 5.822-3.257 8.585-5.126-.609.649-1.482 1.324-2.215 1.942-5.186 4.595-12.257 7.528-19.223 5.984zM1217.786 727.073c-1.113-.004-2.301-.035-3.352-.442-.04-.046.118-.008.145-.007 5.142-.166 10.212-1.762 14.949-3.72 1.759-.728 3.563-1.627 5.254-2.347-5.135 3.235-10.766 6.45-16.996 6.516zM1222.743 729.922c6.184-.64 12.545-1.993 18.594-3.336-5.95 2.04-12.209 4.446-18.594 3.336zM1199.23 710.15c7.175-1.894 13.644-5.735 19.82-9.56-5.734 4.58-12.17 9.652-19.82 9.56zM1189.672 704.846c5.955-1.19 11.27-4.636 16.309-7.762-4.697 3.78-9.898 8.21-16.309 7.762zM1182.145 699.022c4.457-3.172 8.452-7.102 12.605-10.53-3.722 3.922-7.396 8.717-12.605 10.53zM1170.226 695.896c1.21-3.5 4.558-5.844 6.848-8.652-1.906 3.047-4.77 5.79-6.848 8.652zM1189.82 701.378c1.415-3.15 4.362-5.48 6.809-7.71-1.532 1.772-3.051 3.57-4.657 5.272l.024-.023c-.739.781-1.494 1.727-2.176 2.46zM1205.34 713.757c.86-.386 1.688-.836 2.54-1.23.796-.371 1.593-.742 2.398-1.094l-.032.012c1.36-.587 2.823-1.312 4.149-1.793-2.868 1.596-5.822 3.58-9.055 4.105zM1175.58 698.192c1.687-4.713 4.663-8.827 7.235-13.093-1.996 4.452-4.37 9.114-7.235 13.093zM1161.342 697.18c1.981-5.202 5.377-10.186 5.606-15.851 1.45 5.573-3.116 11.185-5.606 15.851zM1276.68 818.307c-16.262-19.672-18.313-37.402-13.657-61.84 3.89-22.32 13.797-43.176 27.254-61.305 2.14-2.37 4.23-4.797 6.317-7.207 3.304-3.824 6.543-7.707 9.664-11.687 3.144-4.016 6.187-8.113 9.214-12.219 1.426-1.933 2.88-3.883 4.399-5.773 1.703-1.891 3.504-3.742 5.082-5.73 1.184-1.49 1.375-3.364 1.02-5.259 11.949-16.496 22.558-34.488 27.484-54.304 4.129-16.57 3.512-33.867 1.472-50.696-3.062-24.054-7.308-43.52-20.46-64.253-13.008-21.52-32.313-41.051-57.133-47.72-10.532-2.648-21.168-1.206-31.73.188-10.958 1.653-21.68 4.86-31.805 9.317 9.597-6.196 20.57-10.864 31.847-13.211 11.86-2.582 24.371-3.496 36.094.246 28.477 9.25 49.168 33.453 62.5 59.383 9.176 16.968 12.66 36.472 15.121 55.328 2.441 19.332 2.75 39.343-3.082 58.12-8.952 29.357-28.687 53.178-47.023 77.328l-.18.161c-2.2 1.985-4.254 4.266-6.117 6.567-1.196 1.476-2.438 2.94-3.547 4.484a83.824 83.824 0 0 0-3.879 5.945c-.68 1.14-1.18 2.223-1.514 3.39-11.063 15.634-20.358 32.275-24.736 51.235-5.137 22.309-7.43 42.262 5.96 62.278 9.72 13.964 20.02 27.718 29.923 41.468-9.793-11.168-19.02-22.883-28.488-34.234z"/><path d="M1337.117 872.946a2248.617 2248.617 0 0 1-20.98-58.555c-4.1-11.968-8.111-24.096-9.563-36.718-3.769-30.08 7.132-61.74 28.847-82.934a144.941 144.941 0 0 1 19.875-16.734c-8.665 8.468-16.918 17.555-24.06 27.273-13.314 17.899-21.084 39.35-20.947 61.61.251 13.878 3.679 27.261 7.565 40.48a4295.566 4295.566 0 0 1 19.263 65.578zM1271.361 842.473c-13.297-11.684-26.23-24.668-33.031-41.32-17.254-41.54 11.074-91.305 38.558-121.93 4.033-4.338 8.151-8.603 12.207-12.922a492.465 492.465 0 0 0-5.035 8.074c-2.106 3.45-4.094 6.959-6.125 10.454-8.87 10.614-17.608 21.928-24.078 34a189.44 189.44 0 0 0-6.457 13.367 66.304 66.304 0 0 0-2 4.117 51.109 51.109 0 0 0-3.191 9.703c-4.774 15.176-6.574 31.144-2.14 46.472 5.421 19.145 19.624 33.813 33.62 47.172 15.121 13.856 30.13 28 44.957 42.032-15.957-12.84-31.648-25.993-47.285-39.22z"/><path d="M1323.932 932.616c3.708-12.495 7.297-25.028 11.06-37.508 2.834-9.177 5.482-18.46 6.748-27.984 1.346-11.904-.112-23.939-2.472-35.563-3.898-18.717-9.85-37.192-10.168-56.465-.273-11.37.884-22.719 2.5-33.96 1.407-8.425 2.847-17.397 8.352-24.235-5.817 10.692-4.729 23.485-5.777 35.293-.184 7.232-.686 14.454-.605 21.689.168 9.26 1.442 18.466 3.374 27.514 4.8 21.904 12.206 44.146 8.57 66.805-1.99 11.731-6.26 22.915-10.332 34.05-3.645 10.137-7.36 20.399-11.25 30.364zM1294.718 1167.637c9.145-28.957 17.675-58.12 27.423-86.883 3.797-11.98 7.68-24.086 9.473-36.555 1.897-17.991-3.987-34.813-13.756-49.68-12.72-19.263-29.05-35.827-43.054-54.144-22.465-29.816-42.017-68.33-31.394-106.363-3.415 30.2 7.366 60.784 22.96 86.242 15.427 25.315 37.525 45.664 54.164 70.098 9.915 14.902 16.322 30.626 15.907 48.792-.121 10.328-3.395 20.282-6.058 30.16-10.544 33.185-22.928 65.99-35.665 98.332zM942.553 1201.138c21.208-14.095 42.6-27.916 64.208-41.39l-.014.008c-.035.022-.07.043-.104.066 33.357-20.892 67.53-40.092 101.25-60.344 52.02-31.175 95.455-65.769 110.043-127.578 5.268-20.287 5.744-40.822 8.125-61.434.375 12.034 1.205 24.238.477 36.317-1.7 22.884-8.556 45.376-19.005 65.761-25.94 50.226-77.05 78.912-124.023 106.618-46.923 27.427-93.405 55.86-140.957 81.976z"/><path d="M1179.943 1273.584a3331.487 3331.487 0 0 1 14.055-8.66 2997.466 2997.466 0 0 1 57.71-34.597c17.778-10.309 35.855-20.286 51.875-33.246 21.753-17.776 38.101-42.723 42.294-70.715 2.316-13.573 2.24-27.311 2.715-41.024 1.09 7.99 1.81 16.234 2.194 24.356 1.81 31.524-13.409 61.791-35.839 83.254-15.263 14.621-33.6 25.537-51.883 35.926-27.374 15.45-55.225 30.375-83.12 44.707zM982.063 980.208c-1.395-2.13 1.16-3.84 3.055-4.18 3.175-1.165 6.331-2.384 9.487-3.6-3.783.12-7.544.549-11.294 1.053-2.96.72-5.924 1.529-8.982 1.649a1.764 1.764 0 0 1-1.777-1.14c-.654-2.716 3.195-3.016 5.05-3.4 2.436-.448 4.881-.877 7.325-1.26 2.268-.37 4.543-.67 6.83-.884 2.855-.782 5.451-1.787 8.33-2.234.504-.066 1.031.008 1.539.031.922.043 1.285 1.406.402 1.817-.391.18-.78.355-1.17.52 1.092.285 1.853 1.134 2.252 2.16 1.064 2.11-1.357 3.371-2.912 4.201 2.594-.273 5.19-.667 7.803-.463.832.05 1.223 1.093.61 1.668-.501.578-1.286.673-2.005.765-1.795.23-3.578.514-5.38.687-5.644 1.29-11.304 2.502-17.018 3.438-.808.133-1.646-.125-2.144-.828z"/><path d="M992.092 970.57c-4.395-4.165-8.797-8.321-13.113-12.439-1.946-1.601-3.954-3.578-6.48-4.06-.176.4-.282.978-.47 1.295.071-.452.142-.904.238-1.35-1.577-.376-3.001-.74-4.516-1.147-.872-.184-1.81-.365-2.452-1.042-1.502-1.426-.543-4.442 1.664-4.313 3.565.007 6.994 1.183 10.314 2.374 3.464-.493 6.944.44 10.194 1.564 1.82.689 4.21 1.274 4.761 3.402.304.765-.144 1.635-.88 1.92 2.592 1.802 11.138 5.542 5.611 8.838-1.43.483-2.877-.19-4.254-.57-3.474-1.224-6.76-2.948-9.924-4.81 3.085 3.424 6.347 6.913 9.307 10.337z"/><path d="M980.004 987.308a2600.86 2600.86 0 0 1 14.092-7.47c-1.196.37-2.683.11-3.13-1.206-.738-2.155 1.817-3.11 3.4-3.72-1.447.061-3.253-.504-3.366-2.202-.082-1.012.535-1.934 1.473-2.293 8.757-2.122 17.712-3.609 26.61-5.084-9.303-3.166-18.528-7.658-26.989-12.643-3.296-2.184-6.671-4.303-10.129-6.187-.684-.381-1.5-.74-2.113-1.117 5.773 1.727 11.05 4.67 16.535 7.09 4.663 1.929 9.464 3.541 14.133 5.417 6.582 2.673 13.513 4.29 20.449 5.715 1.59.443 2.026 2.573 1.016 3.778-.656.812-1.726 1-2.711 1.054-1.465.21-2.93.433-4.4.623-.665 1.485-2.584 1.604-3.93 2.055-3.684 1.07-7.367 2.156-11.044 3.255-10.107 4.114-19.975 8.723-29.896 12.935z"/><path d="M996.858 985.513c-.598-.843-.512-2.105.285-2.804.27-.235.539-.461.824-.672-1.508.605-2.98 1.36-4.57 1.722-2.524.528-3.606-3.125-1.18-4.058 12.508-5.352 24.82-11.309 37.867-15.11-1.77.75-3.632 1.782-5.343 2.829.164.125.308.27.433.425 3.061-1.73 6.126-3.448 9.197-5.158l.028.069c-2.855 1.96-5.926 3.919-8.834 5.879.539 1.78-1.34 2.687-2.328 3.757-.785 1.38-2.344 1.938-3.637 2.73-2.57 1.49-5.153 2.95-7.73 4.423-4.157 2.277-8.137 4.965-12.54 6.734-.231.089-.474.13-.717.13-.678 0-1.353-.329-1.755-.896z"/><path d="M977.017 990.736a1.53 1.53 0 0 1-1.211-1.172c-.124-.556.08-1.068.469-1.432-1.267.032-2.596-.193-3.551-1.075-1.219-.934-.907-2.856.367-3.555 4.959-2.086 10.412-2.912 15.554-4.504 7.762-1.885 15.472-5.036 23.563-4.8-.266.102-.685.082-1.008.155-7.81 1.49-14.845 5.485-22.333 8.026 2.6-.404 5.194-.859 7.786-1.303 1.612-.414 4.17-1.205 4.715 1.043.246 1.065-.479 2.144-1.531 2.383-4.906 1.007-9.567 2.844-14.308 4.45-2.762.757-5.6 2.292-8.512 1.784zM1030.443 972.867c-4.722-6.437-8.761-13.539-11.273-21.14 1.043 1.812 2.117 3.808 3.254 5.57.113-.84.707-1.441 1.363-1.91 1.48-1.106 3.055.25 4.078 1.336-.465-1.184-2.757-3.125-1.406-4.227.461-.328 1.2-.246 1.512.254a160.001 160.001 0 0 0 5.504 7.598c.199.574.41 1.14.636 1.7 1.059 2.608 2.133 5.21 3.239 7.792-.95-.89-1.817-2.05-2.891-2.57.79 1.422 1.145 3.625-.797 4.25.067.066.127.134.181.203a75.178 75.178 0 0 0-3.357 1.207l-.043-.063z"/><path d="M1000.576 984.003a2.118 2.118 0 0 1-.129-.72c-1.523.384-3.043.763-4.57 1.126-2.332.539-3.742-2.66-1.785-4.031 4.144-2.18 8.836-3.325 13.199-5.067-.242-1.496 1.363-2.008 2.453-2.484.418-.79 1.016-1.5 1.856-1.848a2.348 2.348 0 0 1 1.593-1.332c3.246-.797 6.54-1.363 9.825-1.972 4.085-.625 8.066-1.997 12.168-1.918.136-.032.277-.051.418-.063a373.863 373.863 0 0 0 2.05 4.87 76.623 76.623 0 0 0-5.18 1.628 452.1 452.1 0 0 1-.347.1l-.008.027c-.281.101-.563.204-.844.309-4.82 1.8-9.422 4.191-13.91 6.707a279.704 279.704 0 0 0-7.138 4.143c-2.264.724-4.619 1.488-6.811 1.841-.227.059-.461.086-.695.086-.918 0-1.805-.445-2.145-1.402zM998.813 948.977c-5.053-2.439-10.564-3.828-15.754-5.972-14.69-5.94-29.153-12.864-43.204-20.016 11.802 4.392 23.321 8.842 34.91 13.566 8.224 3.536 16.951 7.035 24.048 12.422z"/><path d="M1008.694 953.905c-.904-.007-1.715-.407-2.468-.871a473.18 473.18 0 0 1-9.059-4.961c2.5.96 5.13 2.121 7.66 3.184-8.204-4.869-16.232-10.025-24.277-15.141-.429-.257-.984-.479-1.332-.735 6.877 1.877 13.119 5.567 19.05 9.442a227.73 227.73 0 0 1 8.333 5.707c.766.543 4.242 2.798 2.093 3.375z"/><path d="M1021.93 961.369c-2.953-1.497-5.904-3-8.85-4.512.355 1.685-1.637 3.004-3.08 2.074-3.028-1.724-5.508-4.272-8.519-6.027-4.746-2.944-9.525-5.84-14.203-8.89-1.453-1.238-6.34-2.994-4.54-5.376-1.847-1.089.076-.928.999-.53 2.52.39 4.58 2.41 6.92 3.413 6.66 4.2 13.928 8.367 20.3 12.746 3.473 2.588 7.45 4.692 10.973 7.102zm-39.136-22.79c.08-.079.167-.15.261-.212a2.627 2.627 0 0 0-.757-.26c.14.177.328.306.496.473z"/><path d="M1002.606 967.819c-4.21-2.443-8.862-4.264-13.405-5.885-5.821-.588-11.644-1.167-17.466-1.771 4.335.04 8.886.215 13.293.318-5.41-1.858-10.961-3.283-16.418-4.986-.942-.313-1.543-1.278-1.363-2.262.357-1.934 2.477-1.73 3.942-1.344-2.03-.813-1.609-4.016.553-4.297 2.977-.835 6.106-.474 9.134.102 3.647.59 7.273 1.304 10.883 2.09 7.497 1.918 15.358 3.009 22.472 6.09 1.579.721 1.65 3.06.098 3.859-2.127 1.344-4.817.932-7.218 1.218 1.76.339 3.516.683 5.264 1.067.715.156 1.223.824 1.087 1.566a1.36 1.36 0 0 1-1.567 1.086c-5.74-.946-11.528-1.61-17.3-2.186 2.756 1.582 5.651 3.28 8.011 5.335z"/><path d="M982.191 951.957a774.731 774.731 0 0 0-31.228-15.795c6.716 4.064 13.583 8.279 19.635 13.182-4.23-2.174-8.602-4.123-12.884-6.211-8.062-3.983-16.561-7.617-23.734-13.075-.625-.593-.617-1.71-.066-2.34.818-1.162 2.286-1.22 3.52-.753 2.86.857 5.6 2.076 8.296 3.351 12.672 6.252 24.8 13.812 36.461 21.64z"/><path d="M991.331 957.879c-3.132-2.004-6.263-4.008-9.418-5.975-1.016 1.619-3.16 1.37-4.585.558-3.97-1.619-7.726-3.715-11.497-5.747-7.26-3.928-14.405-7.81-21.668-11.664-3.592-2.073-7.43-3.979-11.636-4.208 1.311-.212 2.803-.05 4.173.116-2.012-1.192-3.765-1.874-5.462-3.326-1.553-1.26-.242-3.568 1.504-3.696 3.52.27 6.728 2.197 9.98 3.465 8.776 4.13 17.26 8.88 25.463 14.06 3.54 1.64 7.064 3.335 10.44 5.3 1.558.962 4.06 2.133 3.652 4.319 3.014 2.229 6.163 4.524 9.054 6.798z"/><path d="M989.994 954.627a3969.002 3969.002 0 0 0-9.675-4.684c-1.796 2.786-6.077-.276-8.395-1.007a975.076 975.076 0 0 1-9.801-4.242c-11.545-5.194-23.141-10.403-34.223-16.524-1.02-.652-1.246-2.23-.285-3.054 1.416-1.456 3.407-.436 5.016.085 2.053.663 4.042 1.525 6.046 2.32 11.087 2.69 21.453 8.315 31.446 13.61a272.568 272.568 0 0 1 6.516 3.672c1.625.981 4.066 2.097 3.94 4.316 3.113 1.82 6.409 3.66 9.415 5.508zM912.198 900.337c-9.324-2.62-19.013-3.016-28.644-2.958-3.867-.13-7.7.564-11.563.653-1.008.035-1.941-.5-2.297-1.473-.487-1.283.363-2.613 1.596-3.045-.483-3.215 3.95-2.767 6.041-2.967 4.86-.304 9.74-.301 14.612-.295 4.633-.4 9.285-.594 13.935-.658 2.191.167 4.931-.7 6.642 1.035 6.043.202 12.241.36 18.21.664-5.853.228-11.708.428-17.562.646.288 1.998-1.686 2.661-3.31 2.77a2.03 2.03 0 0 1-1.05.354c-3.058.135-6.117.285-9.165.567 5.769 1.085 11.121 3.567 16.614 5.538-1.286-.165-2.727-.559-4.059-.831z"/><path d="M930.645 911.53c-9.598-1.211-19.067-2.11-28.687-2.86-3.106-.26-6.208-.552-9.313-.835-1.593-.267-3.916-.2-4.379-2.134-1.787-.236-4.517.3-5.185-1.896-1.115-.19-2.295-.11-3.346-.552-2.088-.839-2.405-4.25.043-4.801 5.803-1.268 11.851-.8 17.757-.9-1.967-.37-4.02-.225-5.956-.76-.793-.2-.691-1.399.074-1.555 3.138-.535 6.364.09 9.516.285 10.12 1.033 20.068 3.257 29.887 5.867 2.594.69 5.187 1.404 7.78 2.102 1.198.45 2.797.717 3.424 1.939 2.066.355 4.24.379 6.182 1.229 1.913.8 1.55 3.785-.46 4.18-4.02.817-8.233.311-12.305.126 4.83.866 9.654 1.743 14.48 2.624-6.422-.592-13.062-1.315-19.512-2.059z"/><path d="M877.239 904.25c-.41-.207-.785-.523-1.14-.828-1.9 1.738-3.669-.664-5.005-1.899-1.711 1.973-3.941.201-6.163-2.55-.459-1.456-1.001-2.892-1.641-4.301-1.368-3.013-3.019-6.026-4.955-8.845 1.052-.446 2.335.103 3.181.946.946.188 1.746.844 2.414 1.512 2.797 1.012 4.704 3.703 6.813 5.711 1.7 1.938 3.808 3.461 5.629 5.285-2.45-5.48-7.402-10.218 2.39-10.488 2.758-.117 5.52-.098 8.278-.027.305.027.625.027.945.027.719-.004 1.445-.004 2.074.344.606.324.586 1.308-.16 1.449-.531.101-1.066.164-1.61.203a.279.279 0 0 1-.26.27c-2.298.257-4.708-.075-6.95.425.027.055.273.133.21.16-.194-.085-.109-.035-.273-.148.375-.39 1.075-.293 1.614-.398a4.501 4.501 0 0 1-.68-.086.49.49 0 0 1-.332-.242c-2.067.214-4.254.187-6.2.98.005 0 .005 0 .005.004 1.214 2.996 7.047 9.445 4.367 12.344-.37.33-.84.477-1.318.477-.426 0-.86-.117-1.233-.325zM1042.363 853.442c4.903-2.534 9.795-5.133 14.968-7.086 7.751-2.742 15.472-6.743 20.391-13.507 6.385-8.26 3.554-19.14 2.954-28.7-.633-6.44-.654-12.92.468-19.308.282 3.555.375 7.33 1.01 10.91 4.212 21.91 8.345 38.133-15.807 49.23-4.559 1.883-9.392 2.958-14.027 4.625-3.333 1.178-6.709 2.646-9.957 3.836zM1042.765 871.05c-.491-.065-1.1-.027-1.52-.13 4.172-.692 8.438-.86 12.509-2.075 12.624-3.679 20.358-13.186 26.148-24.451 1.214-2.09 2.421-4.184 3.636-6.274-1.145 2.813-2.529 5.746-3.8 8.582-6.281 15.831-19.119 27.242-36.973 24.348zM1240.768 740.942c-15.848-.467-26.755-8.125-37.106-19.449-3.672-3.754-7.234-7.578-10.367-11.804-1.713-2.145-3.129-4.685-5.432-6.254-.588-.385-1.36-.505-1.974-.606 3.609-1.324 7.398 1.801 10.125 3.879 18.18 13.15 20.855 27.657 44.754 34.234z"/><path d="M1231.683 738.38c-8.413-4.16-15.93-9.788-23.852-14.778-10.956-7.425-20.198-17.14-29.93-25.926 9.832 2.456 18.732 8.879 26.038 15.839 3.35 3.11 6.772 6.12 10.299 9.029 5.972 5.088 11.42 10.913 17.445 15.836z"/><path d="M1231.45 741.089c-8.697-2.68-16.84-8.18-21.179-16.364 2.642 1.827 5.495 3.575 8.12 5.519 6.968 5.427 14.567 10.152 23.06 12.657-3.308-.225-6.799-.67-10-1.812z"/><path d="M1237.382 740.5c-9.58-2.851-21.188-6.472-25.02-16.676 3.36 3.032 7.402 5.596 10.817 8.394 4.59 3.075 9.62 5.35 14.203 8.282z"/><path d="M1242.816 742.465c-2.04-.477-4.305-.961-5.93-2.36.015-.059.16.035.227.032h-.008c1.976.468 3.992 1.384 5.71 2.328z"/><path d="M1237.641 742.886c-3.587-.374-7.104-2.134-10.125-3.91 5.836 2.086 11.987 2.22 17.957 3.05-2.56.839-5.178 1.133-7.832.86zM888.661 570.65c-16.943-5.265-23.561-24.155-29.226-39.27 6.701 10.078 13.043 21.145 22.7 28.816 9.798 7.163 22.7 5.541 34.109 5.7-8.342 4.331-18.163 7.261-27.583 4.754z"/><path d="M897.125 570.387c-9.16.123-16.09-6.556-22.067-12.594 6.467 3.73 12.797 8.75 20.61 8.555 8.593-.773 17.242-1.274 25.636 1.188-7.837 1.754-16.08 2.961-24.18 2.85z"/><path d="M888.689 569.975c-5.937-1.815-11.008-5.847-15.77-9.707-6.885-5.906-13.878-12.132-17.765-20.504 1.593 1.715 3.236 3.643 5 5.293a123.576 123.576 0 0 0 27.025 17.04c6.092 2.567 12.75 1.393 19.155 1.374 8.953.205 18.043 1.684 26.425 4.883-9.446.895-19.032 2.145-28.562 2.781-5.214.374-10.42.241-15.508-1.16z"/><path d="M911.048 572.606c-11.38-.126-15.877 1.06-25.669-6.117 3.383 1.01 6.818 2.659 10.412 3.11 6.947.09 13.768-1.537 20.74-1.204 5.387.219 10.31 1.98 15.41 3.52-6.954.978-13.895.681-20.894.69zM1187.95 701.83c-8.434-2.415-16.825-5.25-25.54-6.412-12.217-.85-24.465 1.084-36.565 2.611-2.558.434-5.19.948-7.648 1.595 11.817-10.164 28.63-11.833 43.504-9.38 9.363 2.22 18.052 6.785 26.25 11.587zM986.701 635.055c-2.425-.58-4.867-1.784-6.578-3.649.253.018.61.234.875.317 2.683.546 5.483 4.273 7.98 1.828-.495.69-1.288 1.637-2.277 1.504z"/><path d="M948.542 634.208c-19.962-1.046-39.328-9.17-53.723-23.098-12.102-10.556-17.851-25.662-23.707-40.168 1.924 2.628 3.819 5.499 5.746 8.203 12.043 20.376 32.235 34.868 55.087 40.723 13.29 2.85 25.48 5.61 38.186 9.27 4.371 1.199 9.035 2.215 12.992 4.495-11.452.135-23.055 1.774-34.582.575z"/><path d="M891.444 598.835c-15.13-7.653-17.954-22.553-22.477-37.187-3.125-7.029-7.698-13.333-11.351-20.098 4.75 5.08 9.81 10.23 13.875 15.98 4.02 5.875 5.587 12.942 8.388 19.403 3.386 7.506 6.713 15.27 11.565 21.902zM1218.176 743.288l-.05-.071c7.644-.795 15.364-.73 22.944.348-6.586.81-13.176 1.684-19.634 3.204a58.883 58.883 0 0 0-3.26-3.481zM1182.523 633.972c4.654-10.4 16.789-10.985 26.742-10.929-9.873 2.282-18.723 4.316-26.742 10.93z"/><path d="M1185.49 636.948c-.94-10.915 3.711-15.582 12.285-21.218-9.062 9.613-7.899 9.525-12.286 21.218z"/><path d="M1185.492 630.11c6.383-12.672 23.715-11.953 35.836-12.097-12.301 2.932-25.477 4.782-35.836 12.097z"/><path d="M1187.87 628.621c4.746-8.686 16.004-8.637 24.699-9.136-8.316 2.397-17.412 4.185-24.7 9.136zM1197.68 629.238c7.707-2.764 16.168-2.617 24.198-2.867-7.89 1.931-16.029 4.135-24.199 2.867z"/><path d="M1189.959 631.315c16.764-7.676 36.101-5.498 54.055-4.75-17.779 2.832-35.936 5.786-54.055 4.75z"/><path d="M1199.112 630.425c-3.14-.357-6.373-.815-9.455-1.213 9.907-3.528 20.715-4.356 31.149-4 11.355.383 22.64 1.496 33.887 3.062 2.65.395 5.443.747 8.007 1.231-21.472 1.213-42.424 3.376-63.588.92zM1260.465 637.36c-3.965-.481-7.918-1.063-11.844-1.801-3.605-.68-7.117-1.461-10.531-2.832l.03.01c-.893-.366-1.898-.72-2.71-1.147 8.613-.385 17.194 2.742 25.055 5.77zM1028.618 549.513c.45-6.296.887-14.585-5.414-18.04 8.787.624 7.746 12.11 5.414 18.04z"/><path d="M1026.93 554.051c1.207-5.035 2.621-10.383 6.215-14.281-.3 1.264-.776 2.655-1.258 3.918l.031-.078c-1.336 3.548-3.222 7.146-4.988 10.441zM1026.708 557.959c1.901-4.325 3.952-13.285 9.766-13.195-1.157.39-2.022 1.394-2.707 2.34-2.475 3.51-4.71 7.34-7.059 10.855z"/><path d="M1028.14 560.946c1.859-5.63 3.585-13.402 9.996-15.266-4.346 4.285-6.839 10.19-9.996 15.266zM1026.665 554.102c1.12-3.64 3.796-15.096 9.257-12.863-3.894.224-7.066 9.84-9.257 12.863z"/><path d="M1022.099 553.548c1.906-3.403 3.53-7.849 7.55-9.176-.117.192-.413.38-.578.594l.02-.02c-2.493 2.673-4.644 5.884-6.992 8.602zM1017.96 551.302c1.796-4.624 3.545-10.79 8.754-12.438-3.514 3.68-5.982 8.303-8.754 12.438z"/><path d="M1025.034 556.18c-2.71-5.115-4.063-10.903-5-16.517 2.159 5.288 4.953 10.747 5 16.516zM1027.577 547.825c.403-2.77.9-5.55 1.243-8.323.03-1.477.675-3.377-.297-4.595 3.617 2.138.173 9.924-.946 12.918z"/><path d="M1028.493 546.837c.723-4.41 2.93-9.147 1.782-13.59 3.658 3.08-.153 10.195-1.782 13.59z"/><path d="M1029.405 546.808c.83-3.425 1.096-7.736 3.914-10.121-1.244 3.417-2.338 6.921-3.914 10.12zM1024.868 544.3c.219-3.098.469-6.309 1.23-9.328a.713.713 0 0 0-.008.028c.3-1.2.661-2.51 1.099-3.61.61 4.314-.963 8.933-2.32 12.91z"/><path d="M1026.366 542.867c.047-2.543.168-5.086.137-7.625v.078c-.052-1.829.03-3.752-.07-5.53 2.423 3.734 1.056 9.139-.067 13.077zM1028.709 542.027c-.023-2.882-.016-5.928.578-8.707.843 2.815.161 5.998-.578 8.707zM993.872 302.66c10.184-6.581 20.988-12.558 32.246-17.366 6.285-1.922 12.64-3.84 19.063-5.203 11.32-2.168 22.797-2.282 34.27-2.707 7.015-.254 14.023-.375 21.042-.47 4.617.161 9.223.321 13.805.724 2.48.691 4.937 1.474 7.359 2.35-.302 1.486-.308 3.07-.215 4.345.266 3.656 1.61 7.226 3.38 10.406a33.624 33.624 0 0 0 1.922 3.058c-10.061-3.143-20.539-5.187-30.509-6.886-32.601-5.508-65.628 1.312-95.87 13.762-8.04 3.011-16.169 6.117-24.192 9.004a1162.972 1162.972 0 0 1 17.7-11.016zM1054.722 220.133c-21.02-2.242-42.07-4.351-63.23-4.273-17.536.343-34.223 3.96-51.29 7.12-11.453 2.052-23.035 4.153-34.441 6.063 41.48-16.37 80.03-32.375 125.656-29.617 44.19-.386 85.148 6.865 110.37 40.802-2.711 1.107-3.913 3.92-4.116 6.71-.022.305-.034.61-.036.917-24.657-18.143-49.09-23.406-82.913-27.722zM1168.682 344.774c.205-.218.41-.438.616-.654l.149-.074c.387.99.863 2.01 1.43 3.052a38.702 38.702 0 0 1-2.195-2.324zM1363.41 295.173c-.31-.125-.621-.248-.933-.368-.04-.09-.08-.18-.122-.27l2.387.727c-.443-.029-.888-.058-1.332-.089zM1351.593 291.555l-.711-.384c1.663.476 3.324.954 4.98 1.438a73.582 73.582 0 0 0-4.269-1.054zM1181.482 387.975c13.698-39.553 56.695-54.658 92.184-69.183-31.953 21.202-64.888 41.952-92.184 69.183z"/><path d="M1138.026 223.96c.435.37.868.745 1.298 1.124.294.269.586.54.876.813a65.132 65.132 0 0 0-6.665 3.284 51.51 51.51 0 0 1 4.49-5.222zM541.953 879.499c1.216-39.318 2.603-78.644 5.172-117.899 1.939-31.413 8.095-64.176 28.104-89.42 38.838-47.18 146.598-75.99 204.814-98.59 31.032-12.379 64.648-23.176 89.23-46.689 3.009-3.15 5.38-6.813 7.422-10.543-.586 2.899-1.281 5.758-2.37 8.514-24.01 46.926-84.577 74.307-130.915 94.816-198.28 71.213-161.775 62.023-201.457 259.81z"/><path d="M527.803 800.795c34.914-243.779 55.118-236.953 258.69-357.418 54.859-32.793 103.8-74.198 156.331-110.236-36.812 42.875-72.198 87.945-117.925 121.829-46.092 35.106-98.766 60.16-148.56 89.432-28.222 16.688-56.428 35.072-75.735 62.178-39.707 57.684-50.271 129.16-72.8 194.215z"/><path d="M560.66 653.224c15.713-44.986 27.34-92.401 51.893-133.609 36.495-56.606 96.36-95.135 160.766-112.551 8.047-2.273 16.247-4.445 24.226-6.703-13.147 9.729-26.981 18.489-40.654 27.447-129.386 86.274-125.67 91.573-196.23 225.416zM831.769 1233.424c51.264-29.008 102.356-58.51 155.63-83.722 101.57-47.038 268.783-111.097 243.624-250.036-1.377-9.501-3.924-18.824-7.281-27.711 4.269 5.875 8.183 11.918 11.404 18.436 70.545 147.857-103.808 234.645-219.76 271.51-62.047 21.566-122.487 47.733-183.617 71.523zM347.768 1370.155c66.08-28.249 134.102-51.111 202.308-73.576 64.305-23.168 135.885-61.342 154.752-132.311 6.666-26.961 4.11-54.932 2.724-82.353-2.335-33.146-6.129-66.145-9.14-99.23-.734-9.183-1.515-18.48-2.067-27.61 11.303 32.355 22.6 64.764 31.29 97.938 38.876 130.668-14.859 212.674-139.766 256.788-78.808 24.433-160.763 37.851-240.101 60.354zM107.283 1223.239c56.786-14.094 113.8-27.225 170.754-40.609 60.348-14.71 121.962-34.309 171.026-73.737 45.78-37.17 73.137-91.296 94.841-145.013 12.918-32.118 21.01-65.93 34.29-97.887-3.426 24.954-3.743 50.063-7.373 74.978-36.619 258.07-254.245 259.608-463.538 282.268z"/><path d="M864.154 1297.741c52.433-37.87 104.812-76.94 165.233-101.257 68.233-28.144 127.852-53.737 156.876-127.404 1.99-4.275 3.652-8.765 5.871-12.87-1.03 7.908-1.442 15.906-2.528 23.838-14.226 100.69-98.304 120.461-180.218 149.65-50.26 18.46-96.918 45.375-145.234 68.043zM1469.967 855.369c-1.382-127.903 24.171-257.71-4.737-383.992-3.024-12.73-5.535-25.601-9.472-38.09 13.597 18.224 23.877 38.962 33.014 59.78l-.134-.302-.108-.244c25.059 58.133 20.61 122.779 11.978 183.989-8.509 59.863-18.96 119.588-30.541 178.859zM1166.167 751.52c-15.63-4.005-29.375-12.925-40.794-24.167-3.73-3.692-8.337-6.807-10.676-11.64 4.664 3.598 10.676 4.991 15.899 7.703 4.117 2.01 8.181 4.142 12.208 6.33 30.521 17.325 52.308 21.381 86.722 13.615-9.84 4.054-19.933 8.89-30.707 10.02-10.902 1.128-22.005 1.106-32.652-1.86z"/><path d="M1161.505 738.866c-9.301-1.901-18.08-8.874-19.802-18.543-.831-6.631.204-14.167 4.536-19.465 2.888-3.13 7.47-6.075 11.808-5.254-4.544.139-8.428 3.85-10.627 7.57-2.431 5.22-2.652 11.495-1.369 17.055 2.262 7.402 9.014 12.72 16.4 14.463 4.667 1.143 9.742 1.638 14.219-.458 6.802-3.414 12.594-9.76 14.557-17.172 2.2-7.961-2.284-15.464-4.66-22.84 3.529 7.6 8.876 15.756 6.477 24.558-1.6 6.76-6.11 12.572-11.57 16.726-5.617 4.47-13.199 4.995-19.97 3.36z"/><path d="M1158.394 711.536a9.583 9.583 0 0 1 3.016-6.48c1.93-1.797 4.355-2.54 6.949-2.54 5.172 0 9.265 4.99 9.02 9.966a9.583 9.583 0 0 1-3.016 6.48c-1.93 1.797-4.356 2.54-6.95 2.54-5.171 0-9.265-4.989-9.019-9.966zM924.292 591.184a9.583 9.583 0 0 1 3.015-6.48c1.93-1.798 4.356-2.54 6.95-2.54 5.172 0 9.265 4.989 9.02 9.965a9.583 9.583 0 0 1-3.016 6.48c-1.93 1.797-4.356 2.54-6.95 2.54-5.171 0-9.265-4.989-9.02-9.965zM1192.68 748.474c6.577-1.395 13.273-2.231 19.824-3.789 4.627-1.163 9.494-1.67 14.191-1.856-10.5 5.225-22.566 5.81-34.015 5.645zM1484.348 572.625c-18.178-72.43-28.66-152.147-80.14-209.942-14.977-17.072-32.482-33.301-55.061-38.977-41.771-10.283-85.931 6.501-122.726 25.763-14.368 8.207-27.902 20.195-32.526 36.61-1.624 7.775-.946-1.297-.474-4.698 11.5-56.288 110.467-92.57 161.392-75.787 28.465 7.264 50.436 28.448 67.812 51.183 47.782 61.042 52.611 141.848 61.723 215.848z"/><path d="M1483.743 514.133c-5.756-27.896-10.966-55.909-16.762-83.797-5.657-26.12-11.994-53.277-28.74-74.782-26.659-31.282-64.645-53.199-103.466-65.793-30.484-8.997-62.254-1.951-92.106 6.154-40.728 11.943-79.513 34.5-105.825 68.268 16.393-36.178 48.352-64.092 84.36-80.09 33.287-13.254 70.599-21.557 106.364-15.407 42.425 8.589 81.312 33.089 111.525 63.442 44.413 48.825 36.672 120.871 44.65 182.005z"/><path d="M1487.502 479.382c-18.3-63.073-23.377-95.835-69.187-146.71-50.608-63.833-109.637-98.616-192.48-78.248-31.977 7.14-67.008 16.09-89.019 42.129 11.489-23.238 34.707-38.507 57.937-48.572 110.438-49.498 195.01 6.033 253.258 100.924 27.523 37.99 31.563 85.735 39.491 130.477z"/><path d="M1489.742 497.123c-23.052-60.212-37.971-124.129-69.743-180.607-51.783-87.665-118.792-130.193-222.025-110.384-30.468 4.447-62.885 9.767-87.402 29.777 15.158-19.865 38.506-31.82 61.96-39.243 114.617-41.805 214.922 12.386 265.667 118.9 26.755 57.24 36.449 120.693 51.543 181.558z"/><path d="M1132.548 279.594c-5.995-7.456-.225-18.032 3.227-25.473 13.673-25.648 46.347-29.102 72.426-31.093 13.518-.735 27.252-.642 40.715-.383a1905.26 1905.26 0 0 1-20.563 3.363c-31.19 5.555-68.668 8.144-89.257 35.436-3.518 5.184-9.078 11.643-6.548 18.15zM1282.866 713.381c1.36-4.926 3.64-9.375 6.246-13.738 8.073-13.738 16.928-26.963 26.996-39.325 11.335-13.46 21.412-27.956 30.313-43.132-5.221 14.562-12.02 28.95-20.75 41.836-7.199 10.605-14.28 21.308-22.032 31.52-6.167 8.285-14.622 14.635-20.773 22.84z"/><path d="M1324.724 879.936c-33.697-25.868-79.383-51.885-94.019-93.868-6.759-31.43 15.864-57.873 31.079-83.016 13.962-23.42 26.673-47.594 39.793-71.492 9.482-18.693 19.553-38.507 19.14-59.983-1.927-34.143-10.537-71.152-35.225-96.198-13.43-12.939-32.404-18.05-50.715-17.31-13.763.405-28.858 1.603-40.099 10.354 1.74-2.303 3.917-4.402 6.253-6.207 36.03-23.515 85.575-20.282 111.358 16.675 20.098 29.614 29.562 70.821 26.624 106.356-3.175 21.843-13.544 41.801-23.75 61.098-10.48 19.378-21.313 38.58-32.81 57.374-13.619 24.493-38.473 45.203-39.493 74.858 2.91 35.633 57.202 77.092 81.864 101.359zM991.241 954.687c-24.554-13.994-50.534-25.284-75.007-39.395-6.266-3.6-12.348-7.583-19.028-10.384 29.356 2.577 70.806 31.555 94.035 49.78z"/><path d="M995.683 961.388c-5.473-.953-10.417-3.912-15.473-6.114-12.816-6.207-25.349-13.054-37.113-21.096-11.767-6.727-23.655-13.564-34.223-22.087 8.36 3.519 17.165 6.362 25.75 9.477 7.727-9.288 53.728 18.553 62.75 24.593-6.331-2.789-12.74-5.899-19.308-8.288 7.675 3.773 15.782 7.11 22.761 12.077 4.883 3.951.794 12.085-5.144 11.438z"/><path d="M1011.915 968.06a3.072 3.072 0 0 1-1.47-1.276c-6.14-.324-10.649-6.96-7.007-12.422 1.227-1.984 3.101-3.499 5.214-4.441 1.503-1.324 3.505-2.276 5.33-2.673 2.695-.591 5.999.09 7.946 2.166 4.725 1.604 7.42 7.775 4.046 11.87-3.051 3.07-9.487 8.534-14.06 6.777z"/></g></svg>