<svg xmlns="http://www.w3.org/2000/svg" width="1625.803" height="1728.066" viewBox="0 0 1219.352 1296.049"><clipPath id="a"><path transform="translate(-532.613 -348.299)" d="M570.964-18.712H1773.94V1678.06H570.964z"/></clipPath><g clip-path="url(#a)"><path d="M490.432 462.355c7.693-14.18 18.812-27.021 34.476-32.375 26.476-8.098 54.607-1.445 79.976 7.554 38.871 14.413 27.524 10.058-3.695 3.122-23.696-5.331-48.394-8.797-72.319-2.822-15.167 3.876-27.45 13.906-38.438 24.521zM202.861 504.936c11.96-15.876 30.748-31.606 49.7-38.066 12.633-3.508 26.411-2.825 39.156-.203 10.21 2.812 19.711 7.837 28.614 13.492 2.566 1.688 5.207 3.46 7.53 5.372-10.139-3.83-20.572-6.863-31.053-9.61-15.413-3.335-33.52-5.812-48.637-.332-10 3.49-18.908 9.244-27.637 15.125-6.45 3.982-12.38 8.905-17.673 14.222z"/><path d="M553.184 474.543c-11.268-.29-22.18-3.967-33.309-4.73 21.687-4.711 44.443 1.628 65.81-5.565 12.828-3.379 24.38-10.21 35.815-16.545-18.907 16.335-42.69 28.73-68.316 26.84zM234.655 516.252c-7.682-1.63-15.2-4.351-21.71-8.82.649.213 1.36.608 2.038.848 21.06 8.344 44.555 4.683 66.133.32 10.833-2.558 22.031-4.76 31.734-10.465.967-.604 1.931-1.213 2.887-1.84-1.332 1.795-2.965 3.558-4.636 5.126-19.846 16.963-51.622 18.952-76.446 14.831zM477.64 362.725c35.188-25.933 82.465-28.61 124.055-21.12 4.114.989 8.187 2.123 12.239 3.339l3.292 6.195c-7.88-.795-15.775-1.485-23.676-1.523-13 .695-25.984 1.84-38.906 3.422-17.824 2.808-35.113 8.363-52.176 13.984-14.465 5.313-38 12.707-46.64 25.688 1.562-12.824 12.379-22.203 21.812-29.985zM173.532 422.547c12.229-9.43 26.88-16.026 42.122-18.61 36.99-3.594 79.401-4.895 110.847 17.872-3.386-.727-6.565-1.301-9.936-1.627-24.35-.97-48.392-3.32-72.595-5.575-24.262-2.645-47.87-2.487-70.438 7.94z"/><path d="M316.493 417.475c-1.1-4.626-2.057-9.277-2.962-13.943-.033-.409-.373-.629-.737-.738-8.449-1.573-17.188.16-25.739-.126-25.053-.53-50.172-4.81-75.063.118-9.587 1.246-18.565 5.02-27.292 8.998 7.688-6.019 15.908-11.912 25.343-14.977 28.3-10.755 59.555-9.796 89.188-6.312 21.302 4.048 22.984 6.227 17.262 26.98z"/><path d="M183.486 418.646c33.907-24.963 85.193-35.486 123.48-14.784 4.34 1.537-16.007.209-18.101.424-17.57.902-35.677-.648-53.082 1.447-17.746 2.722-35.866 5.515-52.297 12.913z"/><path d="M170.723 429.247c16.063-16.419 40.41-32.895 64.136-24.791-22.65 4.181-44.626 12.686-64.139 24.806l.003-.015z"/><path d="M172.27 421.166c13.448-14.175 30.237-25.743 50.436-24.96-12.18 6.793-25.094 12.308-37.074 19.5-4.886 3.108-9.574 6.595-14.256 10.038.29-1.528.586-3.054.895-4.578zM305.606 421.996c-5.572-16.927-.786-20.631-20.64-24.97-1.77-.46-3.678-.782-5.38-1.28 8.46-2.39 20.712-1.746 24.422 7.69 1.426 5.997 1.3 12.474 1.598 18.56z"/><path d="M306.214 411.41c-1.46-2.681-3.972-5.325-7.086-5.672 2.09-.72 4.022-.384 5.756.977-.313-1.288-.659-3.232.713-3.828-2.53 1.25 5.196 10.682.617 8.523z"/><path d="M289.887 414.92c-12.079-.922-12.128-1.46-.148-3.357 9.044-1.246 18.264-.904 27.363-.561-8.88 1.769-18.08 3.638-27.215 3.918zM375.345 723.382c11.765-4.926 24.668-3.91 37.09-5.008 33.647-10.775 68.555-.213 101.901 7.082l1.507.686c-9.641-.166-19.448-.533-29.127-.963-16.469-1.004-32.969-1.489-49.352.843-9.527.871-18.082 5.805-27.546 6.602-36.766 1.32-39.364 5.617-71.329 21.176 10.746-11.653 21.961-24.149 36.856-30.418zM391.723 818.226c-12.234-2.547-24.289-6.907-34.128-14.793-3.325-2.559-6.485-5.461-9.426-8.364 2.07.844 4.136 1.696 6.129 2.52 35.906 13.047 76.152 6.754 112.113-2.961 26.3-7.746 51.754-18.059 76.719-29.316-.759 1.01-1.5 2.032-2.225 3.066-.22.196-.44.392-.658.59-2.125 1.922-4.14 3.972-6.09 6.074a389.552 389.552 0 0 0-3.615 3.959c-35.307 22.166-76.022 41.596-115.647 41.596-7.785 0-15.523-.75-23.172-2.371z"/><path d="M382.906 728.088c45.526-15.154 100.564-5.777 147.49 4.55 2.603 1.12 5.22 2.2 7.873 3.211a341.191 341.191 0 0 0 11.642 4.2c-4.274-.33-8.561-.625-12.834-.922-.812-.656-1.722-1.121-2.66-1.106-2.23.032-4.511.176-6.726.547-30.094-1.633-64.008-3.734-96.864-1.074a18.996 18.996 0 0 0-4.53-.55c-3.696-.013-7.423.312-11.083.831-4.219.598-8.281 1.586-12.387 2.688a99.34 99.34 0 0 0-5.738 1.761c-18.148 3.805-35.383 9.793-50.77 18.965-.535.258-1.058.535-1.55.891a2.493 2.493 0 0 0-.215.18 123.086 123.086 0 0 0-15.64 11.425c7.503-19.19 34.988-38.605 53.992-45.597zM383.046 802.523c-13.87-2.628-30.656-3.95-40.648-14.879 7.068 3.963 15.516 3.053 23.318 3.203 46.197-1.061 92.436-6.624 137.026-18.984 12.25-3.759 24.383-7.91 36.699-11.45-19.089 10.08-38.112 21.105-58.864 27.676-31.29 10.02-64.442 19.528-97.531 14.434z"/><path d="M415.954 808.178c-12.76-.619-25.855-2.301-37.8-7 23.924-1.529 48.231-4.843 71.75-9.552 21.764-4.648 42.41-13.237 62.109-23.316 4.427-1.66 8.956-3.43 13.39-4.855-8.445 4.96-16.806 9.967-24.093 16.507-6.792 4.362-13.993 8.122-21.122 11.918-19.815 9.975-41.92 16.537-64.234 16.298z"/><path d="M513.613 768.993c13.704-7.651 28.008-14.326 42.54-20.233-1.656 2.007-3.328 4.005-4.962 6.033-30.336 20.167-60.195 42.006-95.89 51.024 17.655-15.008 37.624-26.574 58.312-36.824zM564.235 431.087c12.004-.974 18.517-12.604 25.39-21.082.009-.008.028.004.02.015-4.742 9.782-11.923 25.844-25.41 21.067zM581.994 433.305c8.13-4.181 14.348-11.641 20.399-18.246-4.49 7.729-10.283 18.16-20.399 18.246zM597.213 435.844c8.477-3.607 14.456-11.221 19.887-18.317-3.833 8.19-9.438 18.775-19.887 18.317zM610.528 442.499c6.47-2.917 12.239-7.575 17.965-11.648-4.88 5.114-10.167 12.022-17.965 11.648zM622.577 446.938c5.294-1.829 10.336-5.014 15.41-7.324-4.548 3.27-9.361 8.153-15.41 7.324zM556.62 431.385c2.419-4.885 6.21-9.214 9.832-13.144-2.693 4.753-5.465 9.79-9.832 13.144zM542.987 427.582c1.29-4.07 2.648-8.113 4.23-12.078l-.023.059c.647-1.598 1.29-3.355 1.996-4.848-1.242 5.785-1.864 12.523-6.203 16.867zM546.159 435.508A84.878 84.878 0 0 1 554.76 423c-2.131 4.452-4.49 9.671-8.601 12.508zM213.164 490.606c-9.335-.423-16.219-7.568-22.438-13.766-.011-.011.004-.027.016-.019 4.97 3.188 9.846 6.73 15.269 9.105 4.52 1.74 9.236 2.847 13.852 4.278-2.143.363-4.478.488-6.7.402zM217.051 485.218c-6.322-2.568-11.611-7.58-14.804-13.582 2.096 2.277 4.608 4.623 7.109 6.437 5.235 3.505 10.775 6.285 16.785 8.07-3.035.527-6.105.188-9.09-.925zM223.326 479.555c-5.244-3.038-10.046-13.86-10.417-16.934 3.855 6.377 8.077 12.682 14.122 17.186 1.009.703 2.177 1.298 3.167 1.932-2.54-.188-4.715-.829-6.872-2.184zM239.42 475.46c-7.054-1.232-8.387-9.174-9.714-15.048 2.528 5.331 4.671 11.55 9.715 15.047zM255.661 468.076c-5.323-3.322-6.011-10.254-6.742-15.859 1.184 3.332 2.282 6.735 3.68 9.985-.012-.032-.027-.063-.039-.094.926 2.03 2.132 4.027 3.101 5.968zM271.536 464.382c-3.074-3.597-2.065-8.733-1.848-13.098.695 4.237.722 8.934 1.848 13.098zM246.799 473.61c-2.398-4.672-2.027-10.355-1.777-15.457.943 5.037 1.8 10.352 1.777 15.457zM269.132 500.999c-8.388-6.393-10.71-18.312-3.047-26.234 2.05-2.02 4.657-3.297 7.535-3.461-.275.273-.768.477-1.09.707-5.446 3.434-6.58 10.693-6.114 16.529 1.156 4.592 4.038 8.98 8.164 11.359 5.985 2.83 12.918 2.29 19.278 2.112-7.962 2.187-17.404 4.329-24.726-1.012zM551.199 465.589c-6.295-2.248-13.874-3.63-17.559-9.825-4.652-7.482-2.59-19.432 6.036-23.02a13.266 13.266 0 0 0-2.087 2.912c-3.012 6.034-3.83 13.859-.361 19.855 3.252 4.909 9.264 7.028 13.97 10.078zM576 464.483c7.248-9.58 10.888-13.69 6.307-26.043-.846-1.904-1.833-3.705-3.303-5.054 7.016 2.207 9.645 11.594 7.778 18.07-1.605 5.55-6.599 9.434-10.782 13.027zM322.54 770.822c11.848-16.181 27.089-29.971 44.852-39.328-11.641 16.266-30.51 25.852-44.852 39.328z"/><path d="M324.776 775.353c5.592-16.139 21.863-24.84 34.942-34.129-11.148 11.81-23.402 22.807-34.942 34.129z"/><path d="M332.254 764.634c4.445-6.483 11.385-10.6 17.808-14.89-5.357 5.408-11.069 11.191-17.808 14.89z"/><path d="M322.537 770.611c10.58-10.38 23.082-18.656 35.942-25.812-10.712 8.988-22.41 21.843-35.942 25.812z"/><path d="M327.767 768.622c10.18-13.925 25.862-22.143 40.543-30.5-12.783 10.902-25.486 22.77-40.543 30.5zM324.528 775.849c4.848-6.657 12.027-11.503 18.825-15.864-5.74 5.857-11.588 11.953-18.825 15.864zM541.3 737.786c-18.856-3.883-38.353-5.074-56.438-12.164 10.6-1.055 19.85-1.263 28.322-.692 3.562 1.63 7.133 3.243 10.709 4.844 4.758 2.13 9.508 4.219 14.375 6.074a340.043 340.043 0 0 0 11.138 4.027 163.533 163.533 0 0 0-8.107-2.089zM547.534 759.497a2574.18 2574.18 0 0 0-4.21 5.558 110.101 110.101 0 0 0-2.426 3.333 88.744 88.744 0 0 0-4.897 4.709c-13.238 7.298-27.275 12.831-42.475 14.833 16.906-11.527 35.551-19.812 54.008-28.433z"/><path d="M555.839 747.38c.473.012.947.024 1.422.034a46.32 46.32 0 0 0-.305.368c-2.781 3.394-5.64 6.746-8.3 10.242l-.587.77c-16.808 12.193-34.17 23.441-54.882 26.425 20.238-13.5 40.84-26.941 62.652-37.84z"/><path d="M547.751 759.214c-1.48 1.945-2.957 3.894-4.43 5.843a110.305 110.305 0 0 0-2.414 3.32c-.221.196-.44.393-.66.59-2.125 1.922-4.14 3.973-6.09 6.075l-.878.952c-5.116 2.908-10.53 5.276-16.348 6.849 9.707-8.555 20.113-16.313 30.82-23.63z"/><path d="M550.558 755.584c-.643.807-1.278 1.62-1.903 2.44-1.715 2.253-3.43 4.513-5.138 6.773-7.665 4.482-15.636 8.339-24.213 10.922 9.17-8.549 19.994-14.753 31.254-20.135zM377.813 800.575c-19.925.444-34.933-8.187-49.312-21.206 10.021 3.019 19.855 7.067 29.621 10.983 17.216 6.003 35.939 5.402 53.71 8.412-11.323.81-22.658 1.884-34.019 1.811zM419.698 645.133c10.586-7.33 23.863-7.564 36.502-7.413-.426.29-.851.579-1.276.87-9.794.875-19.55 1.907-28.675 5.746-5.149 2.313-13.809 6.942-10.72 13.665-3.741-4.356.376-10.121 4.169-12.868zM389.824 662.702c-7.2-3.937-15.146-6.26-23.203-7.696-4.737-.932-9.552-1.66-14.332-.62-.616.1-1.26.212-1.875.347 1.005-.428 2.287-.708 3.41-1.004 4.238-1.252 8.676-.78 12.996-.273 8.332.892 16.915 3.288 23.004 9.246z"/><path d="M358.47 665.673c-6.671-2.314-13.814-3.773-19.902-7.458-9.795-6.387-11.89-18.906-5.41-28.468 1.25-1.895 2.785-3.767 4.39-5.282-.747 1.19-1.42 2.404-2.088 3.64-5.352 9.91-5.034 22.066 4.805 28.95 5.651 3.612 12.26 5.714 18.205 8.618zM562.414 431.533c3.794-3.829 7.457-7.88 11.074-11.762-3.164 4.315-6.351 9.132-11.074 11.762zM579.044 435.145c1.838-3.705 4.203-7.302 6.555-10.609-1.949 3.639-3.81 7.57-6.555 10.61zM590.815 435.616c.511-.57 1.008-1.148 1.531-1.703a5.196 5.196 0 0 0-.023.023c2.122-2.32 4.538-4.577 6.836-6.613-2.575 2.919-5.087 6.184-8.344 8.293zM607.51 439.278c2.722-2.644 5.571-5.353 8.382-7.805a98.17 98.17 0 0 1-3.29 3.667c-1.468 1.604-3.201 3.17-5.093 4.138zM569.158 490.961c-.375-3.382-.723-6.777-1.207-10.078-.607-3.454-1.072-7.146-3.52-9.8 5.794 3.831 4.553 13.778 4.727 19.878zM580.411 486.04c-1.602-5.096-2.893-10.452-6.12-14.777 4.46 3.336 5.194 9.684 6.12 14.778zM594.298 480.899c-1.509-5.244-2.391-11.007-5.95-15.293 4.797 3.239 5.162 10.089 5.95 15.293zM607.98 476.876c-1.654-4.476-2.855-13.634-8.668-14.031 6.855-1.065 7.735 9.333 8.668 14.031zM583.113 475.872c-.612-2.26-1.544-4.679-1.316-6.992.42 2.31 1.043 4.716 1.316 6.992z"/><path d="M602.225 471.53c-.962-2.925-2.177-6.012-2.351-9.04 1.025 2.914 1.803 6.071 2.351 9.04zM616.46 463.399c-2.24-3.375-3.796-7.666-7.102-10.047 4.077 1.391 5.404 6.592 7.101 10.047zM218.554 527.793c-.05-5.89.423-12.4 4.48-16.953-2.582 5.355-3.855 11.16-4.48 16.953zM233.451 526.694c.644-4.69.797-11.033 5.586-13.457-3.671 3.338-4.326 8.926-5.586 13.457zM227.716 524.898c.511-3.159.136-9.491 3.41-10.953-1.17.84-1.43 2.328-1.8 3.625-.586 2.407-1.056 4.984-1.61 7.328zM248.636 528.94c.076-4.195-.209-8.767 1.41-12.656-.456 4.211-.81 8.55-1.41 12.656zM265 529.94c-1.094-4.485-4.437-11.732-.784-15.542-1.498 2.57-.732 5.76-.395 8.515.327 2.333.828 4.765 1.18 7.028zM278.512 505.18c6.974-1.861 14.66-2.305 20.918-6.03 5.657-3.457 9.7-10.342 7.358-16.916-.463-1.564-1.285-2.963-2.1-4.363 1.168 1.13 2.28 2.494 3.085 3.984 4.558 8.02-1.884 17.088-9.578 20.04-6.207 2.415-13.201 2.476-19.683 3.285zM585.669 351.43c-.106-.622-.043-1.231.055-1.852.075.076.006.327.03.476v-.008c.005.188.005.371.005.559v-.012c-.015.262.024.645-.09.836zM553.586 443.364c.02-.423.086-.842.192-1.25.896 1.75 2.582 3.504 4.62 3.504.825 0 1.411-.715 1.595-1.45.25-.992-.036-2.09-.434-3-.494-1.136-1.345-2.343-2.428-3.122.925-.428 1.945-.616 3.006-.616 3.406 0 6.098 3.278 5.934 6.551a6.298 6.298 0 0 1-1.98 4.266c-1.27 1.183-2.868 1.668-4.571 1.668-3.406 0-6.098-3.278-5.934-6.551zM282.03 777.506c-6.384-19.584-9.329-37.093.816-56.105 1.124-2.119 2.363-4.336 3.664-6.27-.563 1.34-1.094 2.692-1.637 3.989-9.019 22.766-8.181 35.122-2.843 58.386zM631.397 769.68c-.826-17.24-1.577-34.575-4.652-51.582-.004-.015.02-.02.023-.007 6.294 16.39 5.154 34.447 4.63 51.59z"/><path d="M508.957 366.03c33.752-12.293 69.083-19.24 104.893-21.243l.555 1.043c-26.2 5.541-52.202 11.947-77.386 21.16-29.195 11.028-59.172 20.157-89.074 28.81 18.918-12.676 39.3-22.84 61.012-29.77z"/><path d="M458.488 395.804c16.308-29.558 76.192-38.559 107.126-43.597.012-.004.02.02.004.024-25.081 8.446-50.614 15.577-74.732 26.615-10.938 5.101-23.778 8.157-32.398 16.958z"/><path d="M462.64 389.389c19.29-11.434 40.163-19.74 61.976-24.914 27.4-7.923 55.408-13.06 83.914-14.466-15.478 3.885-31.889 7.108-47.11 11.945-32.392 10.901-65.33 20.62-98.78 27.435zM451.736 390.814c-2.011-5.261-4.11-10.773-3.8-16.488.306.738.537 1.701.785 2.531-.008-.02-.012-.039-.02-.054 1.325 4.563 2.228 9.396 3.035 14.011z"/><path d="M447.182 382.986c10.335-15.22 29.572-20.292 46.153-25.777-15.506 8.091-31.707 15.82-46.153 25.777z"/><path d="M452.836 385.624c9.261-17.896 31.966-24.384 49.254-32.167-16.262 10.756-34.508 19.373-49.254 32.167zM216.147 632.727c-24.848-1.849-39.825-7.554-51.195-20.888-.433-9.222-.616-18.445-.98-27.678a1669.8 1669.8 0 0 0-.391-15.011c5.123 8.243 10.078 16.593 15.707 24.495 8.215 10.36 22.672 11.535 34.969 12.196 33.234-1.157 67.422-2.985 98.664-15.344 19.187-7.02 20.562-29.313 26.875-45.953 7.37-19.864 14.472-40.461 25.261-58.68-3.457 15.2-3.343 31.277-5.968 46.746-2.543 19.387-1.774 39.71-8.715 58.219-18.653 38.39-74.653 42.035-116.7 42.035-6.199 0-12.097-.078-17.527-.137z"/><path d="M461.368 566.823c-12.67-8.996-24.683-19.31-33.812-31.98-9.427-13.61-18.121-27.849-29.735-39.77-15.798-17.667-17.55-18.883-29.685 2.673-5.676 11.537-12.1 23.44-12.533 36.57-2.544-6.052-3.413-12.867-3.064-19.462 1.488-18.48 6.366-47.17 28.869-49.633 15.006-1.103 28.89 22.349 36.98 33.336 8.476 12.927 13.65 27.642 21.628 40.845 6.231 9.773 13.715 18.823 21.352 27.421zM163.419 564.04c-.085-2.537-.175-5.071-.271-7.61 1.857 5.757 3.301 10.14 3.981 12.387a340.52 340.52 0 0 1-3.71-4.776z"/><path d="M326.085 445.92c-23.078-2.23-46.754 2.211-70.012 2.395-30.006 2.487-60.939 2.725-90.49 9.044.875-4.744 1.744-9.489 2.627-14.231 1.03-5.539 1.982-11.095 3.024-16.634 14.296-1.574 29.035-1.516 42.656-2.636 33.097-1.367 66.242.93 99.281 2.645 46.742-.04 47.781 60.09 44.274 94.449-.426 6.113-.84 12.367-1.403 18.398-4.55-31.031-1.43-73.43-29.957-93.43zM483.23 591.08c-35.562-15.312-51.293-54.175-68.773-86.1-10.133-20.126-20.317-40.704-25.012-62.876 3.84 10.09 9.273 19.672 14.848 28.97 11.628 18.444 24.277 36.226 37.156 53.815 16.012 20.887 35.152 47.852 64.558 46.274 33.086-1.274 62.93-16.75 93.895-26.79 36.742-13.679 39.613-17.753 41.281-56.753 2.593-25.37 5.306-50.154 8.892-74.89a6781.545 6781.545 0 0 0 15.595 28.909c1.33 13.964 2.347 27.958 2.83 42.004 3.902 41.735-.211 68.778-43.372 84.614-20.55 8.215-42.144 13.535-63.207 20.261-15.218 4.274-31.527 7.657-47.62 7.657-10.575 0-21.06-1.461-31.071-5.094z"/><path d="M409.246 436.124c13.73-18.047 34.625-28.45 55.227-36.703 50.469-20.79 103.916-36.926 158.915-36.683a8600.3 8600.3 0 0 0 3.972 7.464 31524.52 31524.52 0 0 0 10.498 19.69c-25.318-1.766-50.75 4.727-75.987 6.751-39.793 7-79.457 17.258-117.535 30.762-20.898 9.223-40.07 26.227-47.719 48.156-2.804 10.555 5.563 19.461 11.176 27.39-27.808-20.327-15.808-43.96 1.453-66.827zM641.534 396.776a8987.562 8987.562 0 0 0 16.668 31.06c-1.387 11.67-2.45 23.285-1.815 35.288.176 1.21.41 2.492.535 3.637-10.974-21.471-12.288-46.289-15.388-69.985z"/><path d="M651.671 415.703c1.381 2.572 2.764 5.144 4.148 7.714-1.194 3.731-1.394 8.017 1.1 11.148-6.346-3.947-7.173-11.822-5.248-18.862zM569.063 378.257c-3.582-.25-7.222-.637-10.75-.731 4.715-2.117 9.793-3.422 14.707-5 18.494-7.078 32.277-12.038 47.985-14.273 2.117 3.984 4.234 7.967 6.355 11.949l.815 1.529c-1.209.118-2.418.238-3.627.361-16.332 2.313-32.629 6.372-49.164 6.372-2.102 0-4.207-.067-6.32-.207zM471.078 470.447c10.985-19.432 23.976-39.342 45.839-47.543 8.743-3.51 17.945-6.214 27.402-6.672 21.04-.873 43.028-.718 62.254 8.968a848.62 848.62 0 0 1 10.781 5.114c-6.36-1.962-12.81-4.331-19.315-6.05-8.453-1.924-17.115-2.89-25.786-2.68-17.747.778-35.98 1.255-52.3 9.087-19.895 8.267-34.066 24.986-48.875 39.776zM206.631 490.256c11.13-20.444 18.533-30.331 42.648-34.555 23.517-3.963 49.939-4.287 70.508 9.394 5.848 4.016 11.646 8.914 14.902 15.262-10.117-9.95-24.427-14.48-38.043-17.246-21.563-3.106-44.622-4.496-65.433 3.018-11.037 4.694-17.333 15.302-24.582 24.127zM375.222 449.878c-13.004-.669-33.674-.219-42.718-10.602-1.068-1.15-2.239-2.404-3.047-3.68.467.383.994.756 1.47 1.108 8.242 6.783 19.056 5.759 29.042 5.803 8.384-.355 17.365 1.875 25.252-1.747 13.933-6.695 24.73-17.73 35.748-28.226 6.411-5.265 14.7-7.49 22.383-9.976-9.97 4.483-19.814 9.735-26.059 19.055-9.543 11.564-26.14 28.517-42.07 28.265z"/><path d="M366.328 467.622a2.586 2.586 0 0 1-.07-.145c-.808.464-.733.384-.047-.111-.453-1.148-.117-2.64.965-3.322a46.5 46.5 0 0 1 1.73-1.035c-3.733-.23-6.694-5.044-3.506-7.859a5.23 5.23 0 0 1-1.076-.684c-.677-.558-1.14-1.308-1.426-2.124-2.085.033-4.154-.125-6.129.585 1.602-1.2 3.843-1.59 5.805-2.096-.338-5.35 6.353-5.595 10.211-6.28 5.795-.65 11.82-2.075 17.61-.874 5.204 1.706 2.257 7.247-2.157 7.496a4.576 4.576 0 0 1-1.426 2.405c4.495 5.566-5.687 9.298-9.351 11.627-2.927 1.074-8.875 6.263-11.133 2.417z"/><path d="M378.676 468.19c3.965-9.464 8.53-18.7 14.425-27.1 4.789-5.856 10.12-11.308 15.692-16.427 4.357-3.218 14.837-13.76 20.12-11.98.378-.269.797-.679 1.154-.871-.271.351-.54.705-.806 1.06 2.515 1.495 2.187 5.47-.132 7.018a298.875 298.875 0 0 0-10.148 7.868c-5.162 7.637-10.732 15.02-17.157 21.648-1.598 1.59-3.088 3.368-5.086 4.464-2.54 1.25-6.388.607-7.245-2.438-4.032 5.27-7.358 11.184-10.817 16.759z"/><path d="M397.197 480.123c-1.443-9.27-3.94-24.663 2.313-32.343-1.961 4.48-1.243 9.596-1.871 14.363-.503 5.957-.455 12.074-.442 17.98z"/><path d="M417.477 504.034a528.686 528.686 0 0 1-4.33-5.82c-1.709 3.805-7.227 3.868-9.428.496-1.55-2.2-1.716-5.111-2.272-7.667-10.142.087-8.476-13.426-8.282-20.394-1.435-7.658-2.46-26.028 4.399-30.966.565-1.87 1.52-3.743 3.284-4.563.396-.182.783-.373 1.188-.521 1.18-2.291 2.17-4.798 3.972-6.682 2.55-2.533 6.254-1.869 6.934 1.883.32 3.315-1.977 6.23-3.086 9.242 2.019 12.644-.076 25.67.472 38.448-.782 6.913 5.183 13.023 3.178 19.9 1.284 2.212 2.733 4.486 3.971 6.644z"/><path d="M428.923 510.697c-15.83-17.145-28.76-39.312-22.446-63.387.383-1.338.895-2.771 1.688-3.859-.535 1.813-.472 3.824-.472 5.656.682 13.888 3.348 27.557 8.787 40.203 3.476 7.492 8.407 14.311 12.443 21.387zM363.033 481.847c.379-1.941.778-3.88 1.187-5.816-1.618-.234-2.49-2.323-1.782-3.731-2.416-3.01-.067-6.992 2.118-9.406l.002-.002c.046-1.952 1.434-3.456 3.22-4.08 2.826-1.275 5.022-3.634 7.813-5.036 14.612-8.293 19.247 7.56 2.482 11.392-2.833 4.969-8.704 7.068-12.88 10.69-.734 1.965-1.42 4.099-2.16 5.989z"/><path d="M359.435 493.575c-9.296-.773-8.226-20.41-9.151-27.426-.216-3.302-2.142-6.274-3.137-9.41-.846-2.424-2.496-5.079-1.558-7.683-.22-7.165 14.172-2.2 18.062-1.102 3.804 1.743 14.123 2.234 11.39 8.496 3.851 1.676 7.727 3.303 11.59 4.953-4.198-1.182-8.539-2.59-12.775-3.875-2.777 1.267-5.973.553-8.853.006 1.566 7.459 1.529 15.284 1.635 22.9.144 5.172-.196 13.39-7.203 13.141zm-3.347-37.164a4.48 4.48 0 0 1 .897-1.361 191.705 191.705 0 0 1-1.823-.698c.31.686.62 1.372.926 2.059z"/><path d="M381.284 466.755c.592-.724 1.242-1.569 1.907-2.125-.352.486-.68.98-.99 1.488 2.918-1.998 5.776-4.074 8.717-6.042-5.506.63-12.184 1.037-16.837-2.305 6.746 1.79 13.763-.791 20.43-1.973 1.736-.351 3.48-.722 5.2-1.149 1.41-.597 3.857-2.11 4.75-.09.471 2.717-3.642 3.022-5.495 3.738-5.867 2.801-11.541 5.985-17.389 8.817-.21.11-.455-.152-.293-.36z"/><path d="M382.411 463.602c1.596-4.262 6.166-6.565 9.446-9.461 2.676-1.562 8.558-8.006 11.488-5.758 1.733-1.256 3.532-2.678 5.238-3.844-1.063 1.058-2.129 2.112-3.196 3.165 7.515 1.991-4.825 10.1-7.116 12.273-4.04 2.804-7.955 6.614-12.86 7.681-1.976 0-3.692-2.004-3-4.056zM371.912 456.171c-8.146-1.206-15.646-5.288-22.296-9.992-7.54-5.152-15.352-9.898-23.06-14.796 16.157 6.097 30.503 16.244 45.356 24.788z"/><path d="M352.645 531.902c1.86-15.042 2.066-31.014 10.207-44.302 4.854-7.935 10.044-19.986 19.875-22.28-2.1 1.096-3.855 2.964-5.29 4.9-3.06 4.633-5.041 9.554-7.737 14.35-2.807 5.122-6.02 10.02-8.323 15.404-3.782 10.351-5.678 21.415-8.732 31.928z"/><path d="M378.435 474.832c-1.332-.242-2.363-1.172-2.86-2.41a8.049 8.049 0 0 1-.07-.18c-3.594.592-6.749-2.987-5.597-6.469 1.743-6.039 7.493-9.886 11.8-14.117 3.287-2.698 6.322-5.944 10.27-7.66 4.373-2.064 7.88 2.45 6.217 6.584.649 3.573-2.322 6.302-4.584 8.647 1.384 1.174 1.729 3.005 1.455 4.72.177.148.343.299.496.456 3.46-.061 3.943 4.752.627 5.592-.714 2.134-2.276 4.326-4.672 4.525-2 .161-3.716-1.598-3.962-3.498a25.505 25.505 0 0 1-2.37-.27c-1.998 1.595-3.883 4.523-6.75 4.08z"/><path d="M364.9 462.695c-1.728-.557-1.086-2.036.183-2.703-3.06-.54-6.071-1.34-9.036-2.274-2.584-.665-6.334-2.292-5.508-5.586 1.787-3.71 6.895-3.292 10.399-3.484 3.586.037 7.168.513 10.711 1.066 1.083.177 2.055.565 2.855 1.332 1.442 1.176.965 3.45-.71 4.11-1.218.567-2.562.696-3.891.725 2.665.587 5.334 1.164 8.004 1.732-4.342-.175-8.895-.596-13.29-1a56.328 56.328 0 0 0 5.012 1.933c1.028.34.864 1.887-.222 1.98-1.75.174-3.687-.191-5.07.98l-.05.436c.134.295.47.546.612.753z"/><path d="M345.946 445.039c-8.002-2.524-17.014-4.915-22.734-11.43 2.07 1.346 4.707 2.528 7.129 3.105 9.796 2.39 19.4 3.471 29.065 4.648 13.85 1.755 21.013.627 33.668-5.263 9.126-4.117 17.802-9.33 24.837-16.53 1.92-1.802 3.976-3.652 6.011-5.223-6.596 7.6-12.633 15.778-21.316 21.192-19.886 13.553-33.423 15.585-56.66 9.5z"/><path d="M366.372 448.712c-17.679-4.073-33.44-7.622-46.965-20.695 7.275 4.559 15.133 8.82 23.577 10.969 9.445 1.977 18.852 4.176 28.328 5.984 6.656.825 13.129-.714 19.544-2.25-7.118 4.652-15.838 7.81-24.484 5.992z"/><path d="M372.76 447.624c-10.556-.334-20.512-4.602-30.567-7.461a123.112 123.112 0 0 1-23.996-9.997c10.526 3.738 21.579 6.265 32.567 8.532 5.832 1.138 11.559 2.85 17.449 3.662 5.463.508 10.96.434 16.441.65 5.058.341 10.63 0 15.153 2.629-8.917-1.166-17.993 2.409-27.047 1.985z"/><path d="M379.777 449.16c-4.022-1.041-7.611-3.998-11.687-4.822-6.897-1.257-13.9-1.915-20.649-3.936-17.131-4.716-32.695-9.727-50.691-6.622 2.652-.754 5.548-1.37 8.289-2.066 16.579-3.53 33.223 1.486 49.308 5.242 12.998 3.107 15.336 3.372 25.43 12.203z"/><path d="M360.45 449.316c-3.116.043-6.23-.177-9.348-.263-3.248-.269-7.2.788-9.837-1.574-2.994-.836-6.491-.884-8.978-2.882-1.805-1.418-1.735-4.496.21-5.773 3.135-2.226 7.312-.808 10.776-.16 10.81-.563 21.734.177 32.59-.719 6.742-1.23 13.179-3.641 19.552-6.101 1.8-.704 3.687-.21 5.017.963 5.954-3.134 11.84-6.726 17.671-9.917-5.472 3.839-10.858 7.815-16.457 11.473 1.275 2.293.298 5.276-1.86 6.653-.619 2.93-3.973 3.256-6.483 3.482-1.989.456-3.974.908-5.981 1.264-8.637 3.024-17.785 3.698-26.871 3.554z"/><path d="M354.132 466.497c5.283-4.117 10.569-8.227 15.905-12.274-4.924-5.707 2.508-8.93 6.818-11.214 8.375-4.73 16.796-9.371 25.258-13.95 5.689-3.1 11.193-6.55 16.496-10.245 4.21-2.152 8.222 3.41 4.75 6.684-9.388 8.496-20.492 14.795-31.568 20.808a508.824 508.824 0 0 1-8.979 5.301c-3.325 1.617-6.696 4.79-10.623 3.816-6.004 3.677-12.086 7.501-18.057 11.074zM301.92 431.314a5.315 5.315 0 0 1 1.667-3.582c1.067-.992 2.406-1.403 3.84-1.403 2.86 0 5.121 2.758 4.984 5.508a5.316 5.316 0 0 1-1.668 3.582c-1.066.992-2.406 1.403-3.84 1.403-2.859 0-5.12-2.758-4.984-5.508z"/><path d="M322.88 603.922c4.123-22.344 13.68-43.116 18.577-65.215 1.968-14.319 8.2-27.756 9.23-42.18-.176-22.594-14.061-42.222-28.349-58.583-3.428-3.067-7.793-4.772-12.143-6.08 4.58.171 9.453.93 13.554 3.237 21.111 14.902 39.426 39.36 35.48 66.485-1.14 7.844-4.162 15.247-6.655 22.722-2.347 7.36-4.058 14.891-6.445 22.243-6.96 19.403-16.822 37.801-23.25 57.371z"/><path d="M298.108 624.89c12.113-18.417 23.686-37.36 31.844-57.89 4.196-10.778 6.911-22.034 10.605-32.98 6.208-19.862 10.477-40.379 9.149-61.243-.177-5.287-1.142-10.641-1.441-15.836.687 2.215 1.593 4.348 2.358 6.54 11.231 30.38 4.81 57.129-6.558 86.14-8.916 28.399-26.673 53.064-45.957 75.27z"/><path d="M331.676 611.926c4.092-21.718 7.984-43.507 13.324-64.96 3.617-13.295 8.785-26.1 12.809-39.27 4.12-13.355 7.721-26.883 11.664-40.278-.143 14.366-1.331 28.965-4.637 43.004-3.513 14.49-10.346 27.9-14.613 42.16-6.037 19.803-11.966 39.783-18.547 59.344z"/><path d="M329.58 611.147c1.074-9.937 1.946-19.922 3.653-29.773 2.678-12.358 6.982-24.268 11.062-36.216 7.477-19.976 12.475-40.956 21.887-60.155 4.724-9.274 10.177-18.151 15.7-26.961-1.468 5.285-3.433 10.625-5.185 15.886-8.57 24.464-15.302 49.57-25.879 73.305-4.865 11.723-10.167 23.286-14.183 35.332-2.677 9.415-4.64 19.163-7.055 28.582z"/><path d="M333.252 609.813c1.5-27.459 9.69-53.777 18.87-79.511 5.747-18.028 11.756-38.261 20.336-54.098-3.235 15.76-5.65 31.775-10.293 47.207-5.521 17.202-13.27 33.588-19.058 50.695-4.208 11.64-7.029 23.783-9.855 35.707z"/><path d="M337.787 605.255c1.061-20.469 8.458-39.479 12.762-59.281 5.403-29.825 5.133-48.59 22.695-75.551-3.52 12.255-6.885 24.782-8.957 37.445-2.835 15.892-4.69 32.084-9.937 47.43-5.842 16.546-13.038 32.755-16.563 49.957z"/><path d="M342.618 561.857c6.202-27.729 13.15-55.554 26.105-81.012 3.06-5.329 4.954-12.065 9.614-16.113-2.196 2.867-2.379 6.76-3.446 10.136-1.768 6.752-3.799 13.434-6.26 19.97-9.336 22.058-17.362 44.757-26.013 67.019zM367.441 455.843c6.719-8.404 15.788-14.605 24.028-21.417 17.09-12.836 35.335-24.509 55.43-32.04 40.78-13.681 82.954-23.568 125.351-30.777 9.28-1.445 18.81-2.176 28.114-2.644-5.11.86-10.227 1.73-15.313 2.734-39.248 8.587-77.267 21.92-115.648 33.633-21.257 6.508-41.34 16.259-60.95 26.624-13.827 7.57-28.385 14.51-41.012 23.887z"/><path d="M385.97 447.904c11.044-18.154 30.556-29.14 48.49-39.519 38.405-20.689 81.039-33.63 124.39-38.336 8.622-.843 17.396-1.579 25.973-2.113-4.82.926-9.641 1.856-14.457 2.785-40.362 7.36-79.356 20.962-116.31 38.648-22.868 12.17-49.284 20.23-68.086 38.535z"/><path d="M381.119 455.402c38.11-54.478 112.685-69.398 175.083-74.417 9.414-.559 18.835-1.07 28.257-1.531-11.808 2.06-23.892 3.863-35.774 5.952-57.357 10.825-123.114 31.06-167.566 69.996zM163.806 577.067l-.067-2.485c1.084 2.593 2.018 5.222 1.532 7.883-.001-1.902-.617-3.679-1.465-5.398z"/><path d="M163.849 578.764c-.092-3.671-.195-7.34-.31-11.01 6.958 16.623 14.29 33.215 21.162 49.79-7.03-12.885-14.018-25.792-20.852-38.78z"/><path d="M209.127 610.231c-18.633-2.18-34.428-13.832-45.213-28.74-.112-4.848-.246-9.695-.4-14.543 7.43 9.891 14.817 19.996 24.183 28.154 8.855 7.059 19.332 13.864 30.906 14.586-2.028.478-4.17.74-6.312.74-1.059 0-2.118-.064-3.164-.197z"/><path d="M163.798 576.796c-.13-4.993-.282-9.988-.456-14.98 5.455 8.809 11.308 17.37 17.046 26.005 5.946 8.195 10.164 17.637 15.942 25.84-11.901-11.177-23.11-23.423-32.532-36.865zM171.444 425.386c4.447-.44 8.95-.871 13.317-1.141-3.824.879-7.645 1.77-11.469 2.644-.74.161-1.482.329-2.226.503.125-.669.25-1.338.378-2.006zM169.58 435.583l.319-1.783a50.03 50.03 0 0 1 6.323 2.042 70.219 70.219 0 0 0-6.643-.259zM459.965 602.827c-6.692-9.023-13.62-18.262-17.281-28.923 6.25 9.281 11.652 19.323 17.28 28.923zM462.753 651.93c8.29-3.369 16.696-8.364 21.34-16.243 3.09-6.277 3.78-13.343 5.5-20.05-.146 2.429-.51 5.07-.817 7.558-.414 3.11-.766 6.246-1.527 9.289-2.831 10.918-13.755 18.197-24.496 19.445zM450.832 391.86c-3.65-7.759-3.56-17.007-2.5-25.293-.117 8.48 1.134 17.012 2.5 25.293zM456.654 385.627c-5.656-5.18 3.242-17.625 6.09-22.88.008-.011.031-.003.023.008-1.928 5.158-9.606 18.23-6.113 22.872z"/><path d="M171.839 677.018a4608.153 4608.153 0 0 0-2.953-17.61 3829.877 3829.877 0 0 0-2.176-21.238c-.605-5.738-.84-11.515-1.238-17.269-.852-12.242-1.012-24.484-1.496-36.742-.528-24.336-1.594-48.656-3.086-72.953.02-9.956.056-19.913.122-29.868 1.67-8.302 3.218-16.628 4.752-24.958-.402 31.785-.38 63.573-.437 95.36-.011 22.966-.05 45.942 1.578 68.849 1.282 20.37 3.586 40.652 5.868 60.933-.313-1.5-.625-3-.934-4.504zM216.086 825.249a52.752 52.752 0 0 0-1.073-.606c-4.59-12.144-9.163-24.318-13.31-36.617-2.52-7.48-5.344-14.902-7.633-22.457a3530.654 3530.654 0 0 0-6.152-20.137c-2.328-8.957-4.719-17.886-6.93-26.87 14.883 38.726 32.934 76.413 50.305 113.863 1.628 3.44 3.251 6.886 4.866 10.34-5.817-6.731-12.361-13.034-20.073-17.516zM847.383 1014.54l.13 1.01-.205.804.075-1.814zM410.64 993.151c-.48-1.949-1.238-3.847-2.01-5.636a45.006 45.006 0 0 0-2.157-4.325c46.754 5.555 95.543-8.53 139.297-23.933 60.855-26.61 119.187-59.11 177.453-90.934 27.156-16.512 54.37-36.015 69.988-64.41 3.891-7.524 7.177-15.239 9.946-23.102 1.62 4.11 3.252 8.216 4.894 12.317-6.767 15.669-15.698 30.107-27.192 42.504-11.707 11.976-24.914 22.383-38.925 31.531-33.215 21.5-69.11 38.445-104.004 56.977-64.797 35.914-134.395 67.527-209.727 69.335a134.285 134.285 0 0 1-17.563-.324zM501.101 1295.062c24.273-58.146 64.217-107.607 102.61-156.925-33.378 52.678-65.578 106.682-102.61 156.925zM415.784 1282.162c1.985-12.61 4.173-25.194 6.31-37.775.93 4.074 1.874 8.145 2.84 12.211-2.213 8.858-4.54 17.697-6.777 26.538l-2.373-.974zM429.646 1132.212c-.736-4.15-1.503-8.299-2.243-12.453a989.243 989.243 0 0 0 6.265 4.15c.644 9.016 1.094 17.848 1.445 26.32-1.567-6.053-3.37-12.087-5.467-18.017zM411.665 1046.788c-3.457-11.781-7.758-23.254-13.172-34.2.6.138 1.207.269 1.814.393.589 1.276 1.194 2.537 1.76 3.784.863 1.902 1.75 3.796 2.668 5.675a540.227 540.227 0 0 0 8.343 16.326 153.733 153.733 0 0 0-1.378 8.057l-.035-.035zM839.097 1215.505c.144 1.11.285 2.219.421 3.328 0 .004.004.016.012.016l.004-.004c.387-1.18.762-2.363 1.133-3.547a1382.322 1382.322 0 0 1 38.728-4.445c.002 1.21.006 2.423.01 3.633-99.803 17.092-199.443 39.593-292.101 81.16 67.902-46.278 163.046-68.516 251.793-80.141z"/><path d="M811.621 930.885c-1.803-53.077-4.594-106.383-11.96-159.007 5.88 15.122 11.943 30.173 18.09 45.19.547 1.4 1.096 2.798 1.646 4.197 1.007 5.846 2.06 11.686 3.103 17.526a1832.183 1832.183 0 0 0 5.625 35.004c.867 6.18 1.754 12.36 2.68 18.54 2.894 19.39 5.625 38.804 8.25 58.23-.027 18.832-.363 37.64-.953 56.41-4.309 82.14-19.16 163.395-32.309 244.395 3.34-106.825 12.313-213.602 5.828-320.485zM552.462 259.407a517.3 517.3 0 0 0-4.263-4.567c-.47-.936-.947-1.868-1.43-2.796l.166.21 6.804 8.637-1.277-1.484zM372.378 1266.177a595.712 595.712 0 0 1-6.081-11.662c.586.328 1.171.656 1.761.976a355.391 355.391 0 0 0 7.446 3.946c.998 2.952 2.006 5.9 3.02 8.848-2.048-.705-4.097-1.407-6.146-2.108zM313.578 1226.527a302.516 302.516 0 0 1-1.016-3.187 4152.191 4152.191 0 0 0-5.504-17.582 275.83 275.83 0 0 0 4.484 5.05c3.244 7.073 6.471 14.149 9.652 21.241l-.667-.432c-.711-.46-1.68-.84-2.527-.547-.637.222-.99.762-1.14 1.373-1.105-1.987-2.2-3.96-3.282-5.916zM872.926 1108.46c1.027-3.3 2.035-6.605 3.02-9.917 1.605 9.66 3.3 19.305 5.074 28.933-.309 9.621-.484 19.246-.813 28.875-.437 12.75-.68 25.504-.773 38.266a2214.704 2214.704 0 0 1-2.3 30.303l-5.508 2.662c.402-39.707 1.073-79.414 1.3-119.121z"/><path d="M537.03 1303.827c-1.563-.215-3.125-.426-4.688-.636-1.226-.168-2.48-.22-3.71-.329l-21.04-1.851c-5.097-.45-10.195-.895-15.293-1.344-1.023-.09-2.062-.094-3.085-.14l-9.149-.399-7.531-.328c-4.836-1.293-9.676-2.586-14.516-3.875-2.75-.734-5.496-1.496-8.265-2.168-3.446-.832-6.887-1.664-10.332-2.5.16-1.445.316-2.895.468-4.344.258-2.492.508-4.984.746-7.484 11.012 2.297 21.946 4.18 32.586 5.746 191.352 24.355 283.785-11.04 406.18-71.492.016 3.703.04 7.402.07 11.105-10.066 4.863-20.136 9.735-30.203 14.602-6.14 2.972-12.285 5.926-18.406 8.93-1.77.87-3.535 1.742-5.3 2.613-.602.3-1.227.578-1.806.914a2206.58 2206.58 0 0 0-9.058 5.261c-1.379.469-2.758.937-4.137 1.403-6.578 2.226-13.16 4.433-19.722 6.691-2.27.781-4.54 1.54-6.762 2.434a2291.894 2291.894 0 0 0-36.297 14.957c-.76.32-1.515.646-2.265.98l-7.571 1.239c-2.988.488-5.984.926-8.941 1.562a1613.636 1613.636 0 0 0-18.825 4.149 2662.128 2662.128 0 0 0-17.57 4.046c-3.379.793-6.7 1.86-10.031 2.813l-1.352.387c-.32.02-.644.043-.969.062-2.23.145-4.425.305-6.64.567a2350.42 2350.42 0 0 0-39.785 5.074c-1.188.16-2.375.332-3.563.508h-.11c-7.202.093-14.405.191-21.609.285-2.578.031-5.156.043-7.734.125-12.988.426-25.98.804-38.969 1.375-4.133.18-8.258.445-12.386.75l-12.43-1.688zM429.699 1287.906c-3.012-1.25-6.024-2.496-9.036-3.742a2377.766 2377.766 0 0 0-17.632-7.188 159.466 159.466 0 0 0-6.872-2.57c-10.582-3.711-21.18-7.36-31.8-10.961-1.07-.899-2.14-1.793-3.207-2.696-1.332-1.117-2.754-2.136-4.13-3.199-2.925-2.261-5.85-4.523-8.78-6.785-1.38-1.066-2.743-2.148-4.168-3.148-2.801-1.97-5.606-3.938-8.41-5.907-4.965-3.48-10.044-6.8-15.137-10.093-.711-.461-1.68-.84-2.528-.547-.808.281-1.16 1.078-1.218 1.879-.021.292-.011.588.026.886l-1.012-.754a284.25 284.25 0 0 1-3.237-9.738c-.531-1.707-1.063-3.418-1.598-5.129 16.918 16.594 37.742 29.266 60.309 39.016 10.812 5.746 21.984 10.937 33.094 16.062h.004c.007 0 0-.015-.004-.02a2151.273 2151.273 0 0 0-6.004-5.901c10.316 3.332 20.8 6.18 31.277 8.629 1.055 4.226 2.125 8.449 3.211 12.667l-3.148-.761zM428.205 781.314l.201-.105c.192.598.394 1.192.606 1.778a37.72 37.72 0 0 1-.807-1.673zM468.231 774.112l.175-.022c.08.856.17 1.687.275 2.489a50.382 50.382 0 0 1-.45-2.467zM440.673 743.057c.378-.13.76-.252 1.146-.365-.373.128-.746.26-1.117.392l-.03-.027zM479.59 738.887c2.887-.318 5.317.229 7.378 1.383-2.45-.54-4.91-1.01-7.378-1.383zM527.992 756.29c.09-.142.172-.287.248-.435a70.426 70.426 0 0 1 1.749 5.554 99.506 99.506 0 0 0-1.997-5.119zM501.256 741.75c-.508.25-1.016.522-1.512.818l-.397.006a10.535 10.535 0 0 1 1.909-.824zM549.796 750.872c-.754-1.168-1.517-2.445-2.323-3.718l.38.011c.739 1.39 1.45 2.795 2.232 4.129-.125-.032-.172-.297-.289-.422zM536.613 738.782c-.688-.465-1.434-.774-2.192-.758-.168 0-.336.004-.504.008 3.094-.649 6.426-.086 8.852 2.02 1.19 1.046 2.168 2.268 3.034 3.58-.25.011-.501.023-.751.036-2.21-2.798-4.86-4.953-8.44-4.886zM374.894 787.497l.062.04.088.435-.15-.475zM357.908 785.25c.045.01.09.021.136.03.144.03.289.06.433.087.499.815 1.07 1.58 1.731 2.277a13.507 13.507 0 0 1-2.3-2.394zM383.264 1020.857c.155-.885.32-1.768.497-2.65.18 1.211.375 2.42.582 3.625l-1.08-.975zM845.778 1037.197c-1.047-53.953-2.786-107.875-4.809-161.781a3373.913 3373.913 0 0 0 7.047 17.414c.5 2.933 1.008 5.867 1.527 8.8.93 5.735 1.907 11.461 2.875 17.188-.254-1.512-.511-3.027-.765-4.543 2.696 15.978 5.536 31.914 8.705 47.79.34 8.01.824 16.014 1.47 24.015.545 6.732 1.148 13.464 1.807 20.194-.774 26.733-2.278 53.43-5.13 80.024-4.641 40.79-13.673 81.063-21.442 121.258 4.054-56.726 10.41-113.402 8.715-170.36zM448.124 505.402c1.377-8.974 4.125-17.89 7.774-26.113-2.566 8.718-3.714 17.999-7.774 26.113zM425.345 989.365c-5.725-.062-11.288-.706-16.704-1.827l-.01-.024a44.915 44.915 0 0 0-4.311-7.746c15.626 4.812 32.208 5.53 48.435 7.527 2.754.434 5.606.937 8.246 1.566-6.644-.312-13.218-.062-19.793.188-4.41.172-8.82.34-13.253.34-.868 0-1.739-.008-2.61-.024zM260.616 878.567l-.148-.233c-2.91-4.672-5.71-9.406-8.266-14.281a203.408 203.408 0 0 1-6.62-14.414 210.06 210.06 0 0 1-1.724-4.415c9.111 12.956 18.909 25.395 29.434 37.192-2.824.277-5.64.625-8.441 1.066a398.943 398.943 0 0 1-4.235-4.914zM228.324 834.531a370.47 370.47 0 0 1-8.025-13.389c-6.602-11.11-12.926-22.406-18.86-33.902-2.453-7.215-5.16-14.38-7.367-21.668a3522.597 3522.597 0 0 0-6.152-20.137c-1.278-4.914-2.574-9.82-3.848-14.726 13.75 36.101 31.008 71.242 52.305 103.53.328 3.54.837 7.061 1.504 10.557-2.977-3.569-6.141-7.057-9.557-10.265z"/><path d="M424.544 995.33c.195-.005.394-.008.594-.012-42.593-1.845-93.404-35.056-133.227-72.54l-1.372-1.75.056-.331c.676-3.844 1.523-7.551 2.617-11.297.004-.004-.008-.028-.016-.02-1.869 2.64-3.656 5.451-5.201 8.394-1.164-1.49-2.325-2.984-3.482-4.48-8.387-11.402-16.465-23-24.043-34.96-2.914-4.669-5.711-9.407-8.27-14.282a204.031 204.031 0 0 1-6.617-14.41c-.153-.38-.305-.762-.456-1.143 32.143 38.608 72.048 70.864 113.827 98.463 23.18 15.703 45.453 34.867 73.422 41.09 7.617 1.574 15.422 2.793 22.95 4.504-10.024 1.176-19.997 2.773-30.102 2.773h-.68zM218.392 826.665c-5.852-11.5-10.87-23.419-14.815-35.796-1.48-4.101-2.945-8.207-4.39-12.324 3.484 6.133 6.968 12.477 10.464 18.68 8.04 14.367 17.16 27.98 27.16 40.914.29 2.227.647 4.446 1.068 6.654-5.667-6.794-12.018-13.298-19.487-18.128zM277.842 933.038c.322.52.645 1.04.97 1.557.18.95.359 1.902.534 2.853a813.93 813.93 0 0 0-1.504-4.41zM296.706 962.832l-.34-1.24c1.48 2.044 2.98 4.073 4.472 6.109a558.184 558.184 0 0 1-4.132-4.87z"/><path d="M290.54 921.032c.02-.112.038-.224.056-.336.36-2.032.762-4.024 1.227-6.004 3.88 7.021 7.405 14.234 10.628 21.59-3.941-5.107-7.934-10.172-11.91-15.25zM285.431 914.478a546.904 546.904 0 0 1-2.55-14.614c2.802 4.261 5.446 8.613 7.942 13.043a68.904 68.904 0 0 0-2.828 4.868c-.856-1.098-1.711-2.197-2.564-3.297zM537.034 1303.824c-1.563-.215-3.125-.426-4.688-.637-1.226-.168-2.48-.218-3.71-.328l-21.04-1.851c-5.097-.45-10.195-.895-15.293-1.344-1.023-.09-2.062-.094-3.086-.14l-9.148-.4c-2.508-.109-5.02-.218-7.527-.331-4.84-1.29-9.68-2.582-14.52-3.871-2.75-.735-5.496-1.496-8.265-2.168l-20.063-4.852-9.027-3.738a2383.88 2383.88 0 0 0-17.633-7.188 159.6 159.6 0 0 0-6.871-2.57c-10.582-3.71-21.18-7.36-31.801-10.96-1.07-.9-2.14-1.802-3.211-2.7-1.332-1.117-2.754-2.137-4.129-3.2-2.926-2.261-5.851-4.523-8.781-6.784-1.38-1.067-2.742-2.149-4.168-3.149-2.8-1.969-5.606-3.937-8.41-5.906-4.965-3.48-10.043-6.8-15.137-10.094-.71-.46-1.68-.84-2.527-.547-.809.282-1.16 1.078-1.22 1.88-.019.292-.007.589.028.886-.332-.246-.664-.496-.996-.742a300.18 300.18 0 0 1-3.246-9.754c-.984-3.164-1.973-6.332-2.965-9.5 46.121 42.402 104.836 69.406 167.422 74.742 64.208 6.971 128.748 8.713 193.26 9.215a2393.99 2393.99 0 0 0-36.447 4.676c-1.189.16-2.377.33-3.563.506l-.11.001c-7.202.094-14.405.192-21.609.286-2.578.03-5.156.043-7.734.125-12.988.425-25.98.804-38.973 1.375-4.132.18-8.257.445-12.386.75l-12.426-1.688z"/><path d="m420.664 1284.168-.465-.192c-10-34.566-9.057-71.47-11.879-107.129-1.512-32.824-8.394-65.101-14.738-97.261-10.453-42.883-16.64-92.032-52.07-122.344-13.735-12.399-27.215-25.293-40.305-38.266 9.996 6.594 20.008 13.168 30 19.774 17.297 11.187 35.582 22.023 47.781 39.093 24.063 35.489 36.14 77.618 46.867 118.715 22.247 74.211 3.94 117.939-3.714 188.22l-1.477-.61zM818.6 863.334c-47.617-140.125-93.719-281.39-160.961-413.672-27.663-53.137-56.12-106.888-91.423-155.398a955.33 955.33 0 0 0-16.589-36.52 193.336 193.336 0 0 0-2.868-5.719l.173.22c5.945 7.546 11.883 15.097 17.851 22.62 6.395 8.613 12.86 17.18 19.157 25.86 7.004 9.652 14.324 19.132 21.058 28.976 1.192 1.738 2.39 3.473 3.594 5.207 6.273 11.75 12.504 23.527 18.766 35.285 13.789 25.88 27.586 51.758 41.613 77.512 4.621 9.398 9.558 18.66 14.348 27.965 5.87 11.402 11.703 22.824 17.667 34.176 2.723 5.593 5.192 11.34 7.836 16.96 5.387 11.446 10.848 22.848 16.496 34.168 1.829 6.293 3.715 12.57 5.786 18.77 3.91 11.7 7.656 23.473 11.808 35.086a76899.716 76899.716 0 0 1 25.36 71.035c7.421 20.817 14.675 41.692 22.39 62.402 8.606 23.102 17.754 45.989 27.09 68.801 6.281 16.051 12.691 32.051 19.168 48.024l-1.125-2.774c-.062-.152-.129-.304-.191-.46 4.047 10.35 8.207 20.66 12.406 30.952.5 2.942 1.008 5.887 1.531 8.825.934 5.734 1.91 11.46 2.88 17.187-.255-1.512-.513-3.027-.767-4.543 2.696 15.973 5.536 31.903 8.704 47.778.34 8.011.824 16.02 1.468 24.027.145 1.793.297 3.59.45 5.387-12.954-43.223-28.415-85.672-43.676-128.137zM145.554 576.17a404.308 404.308 0 0 0-.981-17.441 3357.679 3357.679 0 0 0 3.363-15.501c-.967 12.333-1.661 24.707-2.144 37.103a98.954 98.954 0 0 1-.238-4.16zM178.284 392.124c1.836-8.98 3.801-17.887 5.871-26.817.746-3.222 1.371-6.484 2.344-9.644 1.005-3.255 2.004-6.511 3-9.77a669.138 669.138 0 0 0 2.336-3.687 73.896 73.896 0 0 0 4.879 9.379c-6.242 12.406-11.98 25.074-17.012 38.101a439.308 439.308 0 0 0-2.074 5.646c.22-1.069.438-2.139.656-3.208z"/><path d="M429.69 1287.904a6444.237 6444.237 0 0 0-9.027-3.735 2039.038 2039.038 0 0 0-10.488-4.297c-46.644-26.32-78.367-64.235-111.941-110.7-49.621-63.734-80.809-140.601-88.707-221.046-4.516-35.555-6.477-71.735-2.41-107.356 2.937 35.621 7.152 71.125 10.886 106.668 8.016 83.125 41.305 159.453 92.942 224.688 24.566 32.46 49.957 65.078 81.66 90.925 12.14 10.288 26.118 17.967 40.057 25.571l-2.973-.718z"/><path d="M364.366 1263.45c-1.072-.9-2.144-1.8-3.212-2.7-1.332-1.116-2.754-2.136-4.13-3.198a17805.75 17805.75 0 0 0-8.78-6.785c-1.38-1.067-2.743-2.149-4.168-3.149-2.801-1.969-5.606-3.937-8.41-5.906-.403-.281-.805-.563-1.207-.84-10.754-11.93-20.989-24.36-30.793-37.078-56.274-69.176-100.84-151.82-106.586-242.238-.817-11.18-.582-22.532-1.07-33.637 3.222 14.316 5.214 28.875 8.238 43.23 15.625 90.645 49.066 157.305 106.847 228.352 17.351 22.266 35.366 44.153 54.884 64.497l-1.613-.548z"/><path d="M311.144 1192.53c34.667-79.829 31.398-90.042 31.272-174.418.207-6.124.418-12.376.539-18.434.886 4.34 1.574 8.719 2.216 13.101 12.636 75.986 4.006 113.674-34.027 179.75zM326.24 1183.035c20.193-45.744 49.72-88.144 58.55-138.078.533 18.937-1.184 38.415-10.155 55.531-14.226 28.542-31.468 55.632-48.394 82.547zM305.652 1105.988c-22.04-65.68-48.454-130.98-60.093-199.433 26.17 64.49 43.786 131.945 60.093 199.433zM298.534 1271.088c1.275.29 2.547.59 3.817.902 4.91 7.573 9.743 15.186 14.435 22.869-6.015-7.94-12.124-15.85-18.252-23.77zM296.576 1268.558c-2.39-3.089-4.78-6.179-7.169-9.273a354.732 354.732 0 0 1 6.664 3.097c1.478 2.245 2.95 4.493 4.418 6.743a180.013 180.013 0 0 0-3.913-.567zM287.389 1256.664c-33.246-43.164-65.637-87.29-84.867-138.582a734.598 734.598 0 0 1-3.09-8.664 1631.222 1631.222 0 0 0-1.945-33.18c5.82 18.996 12.52 37.696 20.128 55.98 4.81 10.63 10.08 21.01 15.679 31.205a2694.87 2694.87 0 0 1-7.284-8.525c-.012-.007-.02 0-.012.012a810.373 810.373 0 0 0 8.188 12.094c2.007 2.917 3.962 5.88 6.071 8.73 7.263 12.491 14.959 24.741 22.847 36.883l-1.926-.73c-.012-.004-.004.02.004.02.703.335 1.41.675 2.117 1.01 2.711 4.173 5.445 8.329 8.191 12.481-3.046-.804-6.097-1.492-9.175-2.152-.012-.004-.004.02.004.023 3.148.973 6.277 1.965 9.378 3.079l.551.199c4.567 6.898 9.168 13.773 13.754 20.656l-2.11-.105c-.015 0-.003.02.005.023.757.113 1.515.223 2.273.336 2.586 3.875 5.164 7.754 7.73 11.637-2.16-.84-4.328-1.657-6.511-2.43zM151.134 671.988a1366.54 1366.54 0 0 1-1.756-14.253 182.918 182.918 0 0 1 2.584-13.157c-.468 12.6-.172 25.247.483 37.893a1524.12 1524.12 0 0 0-1.311-10.483zM184.155 365.307c.747-3.222 1.372-6.484 2.344-9.644 1.557-5.045 3.1-10.093 4.64-15.144a72.464 72.464 0 0 0 3.993 8.363c-4.469 8.09-8.77 16.273-12.75 24.625l-.183.38c.64-2.859 1.293-5.718 1.956-8.58zM558.548 276.878a931.744 931.744 0 0 0-8.922-19.135c-.473-.984-.955-1.964-1.445-2.94 6.344 9.928 12.584 20.271 18.984 31.08a719.283 719.283 0 0 1-8.617-9.005z"/><path d="M148.775 820.518c.11-26.115-.495-52.29-2.784-78.317-.668-7.602-.71-15.235-1-22.86a2463.2 2463.2 0 0 0-2.504-51.23c-1.177-19.975-1.853-39.976-2.782-59.964l.122-3.696c.32-9.676.66-19.352 1.02-29.028 6.468-28.465 12.328-57.086 18.414-85.62 3.304-15.497 6.047-31.098 8.949-46.677 1.508-8.105 2.848-16.25 4.547-24.32 1.867-8.89 3.71-17.785 5.527-26.683 1.836-8.98 3.801-17.887 5.871-26.817.746-3.222 1.371-6.484 2.344-9.644 1.559-5.043 3.102-10.09 4.64-15.141a68.408 68.408 0 0 0 1.79 4.094c1.855 3.89 4.11 7.781 6.754 11.394-28.868 120.04-43.621 243.66-46.047 367.051 2.172 61.09 12.117 121.758 17.387 182.555-7.168-28.363-15.063-56.653-22.248-85.097z"/><path d="M391.673 982.928c-51.401-8.818-91.356-43.982-124.644-81.995-37.08-39.576-68.01-86.145-79.61-139.78a2476.111 2476.111 0 0 1-13.583-57.43c1.613 3.439 3.139 7.094 4.728 10.61 17.982 40.42 33.332 82.743 62.247 116.977 20.966 25.636 44.785 48.677 68.53 71.705 19.417 19.067 38.173 38.987 60.909 54.22 15.96 10.448 32.306 23.615 52.285 23.679-9.724 3.806-20.652 4.176-30.862 2.014zM177.342 190.34c30.34-42.19 64.84-83.874 110.239-110.367 14.293-8.082 30.113-12.867 45.726-17.375C318.78 70.251 304 77.497 290.8 87.38c-22.34 17.707-43.859 37.14-63.433 58.324a446.01 446.01 0 0 0-9.496 9.75c-5.09 5.363-9.524 11.148-13.54 17.215a393.896 393.896 0 0 0-18.607 25.69c-11.717 11.53-22.423 24-31.994 37.415a289.792 289.792 0 0 0-5.609 8.159c7.577-18.68 17.152-36.636 29.222-53.592zM333.845 130.714c2.802-1.937 5.607-3.87 8.422-5.79a93.22 93.22 0 0 1 2.509.707c6.785 1.363 13.277 3.664 19.675 6.23a80.177 80.177 0 0 0-4.687 1.453c-8.573-1.43-17.214-2.391-25.919-2.6zM175.62 1150.46c-26.034-52.696-37.978-110.22-43.893-168.54a224.292 224.292 0 0 0 2.802-14.892 3275.26 3275.26 0 0 0 4.497 10.94.03.03 0 0 0 .016.008v-.004a2222.84 2222.84 0 0 0-2.718-26.683c1.3-17.15.633-34.398-.26-51.59.736 2.712 1.477 5.423 2.224 8.133 3.684 82.18 11.29 166.734 49.328 240.644 28.684 57.309 73.653 104 112.23 154.469-45.09-47.559-94.616-93.063-124.226-152.485zM182.944 1004.846c-7.339-36.892-15.7-75.334-6.905-112.64 3.264 37.51 4.32 75.173 6.905 112.64z"/><path d="M147.168 546.8c4.097-18.99 8.043-38.009 12.093-56.997 3.305-15.496 6.047-31.098 8.95-46.676 1.507-8.105 2.847-16.25 4.546-24.32 1.868-8.89 3.711-17.785 5.528-26.684 1.836-8.98 3.8-17.886 5.87-26.816.747-3.223 1.372-6.485 2.345-9.645 1.675-5.43 3.336-10.863 4.992-16.3 4.738-15.594 11.254-30.532 17.535-45.54a5070.17 5070.17 0 0 1 21.586-43.574c3.613-7.218 7.68-14.238 11.504-21.347 8.05-14.98 18.172-28.586 28.09-42.34l1.059-1.473c.915-1.05 1.833-2.096 2.8-3.098 2.316-2.398 4.629-4.796 6.945-7.19 1.532-1.583 3-3.259 4.606-4.767 3.906-3.66 7.804-7.324 11.715-10.98 2.363-2.05 4.722-4.106 7.086-6.16 1.832-1.594 3.609-3.305 5.55-4.766 3.114-2.344 6.211-4.707 9.305-7.078 1.594-1.223 3.172-2.441 4.824-3.582 6.617-4.576 13.215-9.18 19.872-13.7 7.862-.566 15.864-.12 23.964 1.552 3.887 1.007 7.613 2.343 11.235 3.933-1.375.133-2.75.285-4.125.461-8.286 1.067-16.13 3.5-23.704 6.988a94.715 94.715 0 0 0-7.386 3.801c-29.024 14.39-51.309 39.258-71.32 64.172-28.868 34.168-46.786 75.23-60.079 117.574-24.289 74.66-42.05 151.371-65.562 226.215l.176-1.664z"/><path d="M537.72 195.842c-23.894-17.926-49.758-34.141-77.168-46.614-4.168-2.285-8.492-4.293-12.934-5.918-4.875-2.996-9.996-5.566-15.437-7.593-5.223-1.95-10.566-3.727-16.07-4.704-5.239-.925-10.551-1.558-15.856-1.957-.078-.007-.16-.011-.242-.02a241.893 241.893 0 0 0-27.785-4.175c-8.473-.926-16.98-2.039-25.496-2.965 1.082-.726 2.164-1.449 3.246-2.172 3.441-2.29 6.871-4.599 10.313-6.889 9.764.415 19.526.927 29.226 2.194 9.39 1.223 18.719 2.883 27.976 4.902l-.046-.011.113.023.046.011a2.58 2.58 0 0 1-.046-.01 2.276 2.276 0 0 1-.067-.013c.083.02.165.036.25.055l-.028-.007.046.01-.018-.003c6.775 1.51 13.52 3.186 20.189 5.117 3.097 1.459 6.19 2.925 9.292 4.356 4.012 2.195 8.031 4.37 12.05 6.547 4.04 2.187 8.247 4.191 12.177 6.57a4474.048 4474.048 0 0 0 25.285 15.238c6.652 4.52 13.324 9.008 20.007 13.485 1.965 1.316 3.934 2.632 5.903 3.945.996.664 2.012 1.371 3.055 2.043 1.988 1.383 3.867 2.988 5.788 4.453 4.477 3.406 8.962 6.805 13.454 10.195 7.32 5.524 14.695 10.942 21.832 16.7 8.984 7.441 17.742 15.128 26.148 23.21a409.262 409.262 0 0 1 18.156 19.22c5.204 6.046 10.25 12.234 15.079 18.585 5.98 8.192 11.57 16.645 17 25.207 13.32 21.453 24.933 43.813 37.101 65.922 8.945 16.25 17.942 32.469 27.121 48.582-53.945-73.133-99.7-154.336-169.66-213.52zM587.07 142.906c-2.31-2.227-4.623-4.45-6.942-6.668.937.918 1.879 1.84 2.824 2.758-9.91-9.645-20.68-18.723-31.75-26.984-25.426-18.97-54.246-32.887-84.578-42.028-12.458-3.752-25.128-6.124-37.916-7.92 21.107-1.64 42.35.139 62.37 7.116 27.37 8.94 55.433 26.664 82.636 48.898.133.18.265.363.394.543 8.387 11.742 16.657 23.562 24.942 35.371a616.067 616.067 0 0 0-11.98-11.086zM951.724 1027.553c.137-12.567.176-25.129.168-37.692 3.414-20.73 6.266-41.554 8.227-62.468.668-7.172 1.266-14.352 1.793-21.535.21 31.378-.395 62.808-.02 94.105.59 62.042-5.022 123.868-11.668 185.524-2.11 1.274-4.222 2.547-6.333 3.82 2.313-53.936 6.333-107.794 7.833-161.754z"/><path d="M960.08 621.75c-18.368-79.272-46.742-156.436-84.185-228.864-.362-.828-.728-1.657-1.096-2.483-12.3-27.633-27.636-54.234-44.941-79.035a604.98 604.98 0 0 0-14.742-20.235 935.09 935.09 0 0 0-51.852-68.75c-30.738-37.156-62.886-74.038-83.699-117.949 29.508 38.235 61.613 74.555 91.922 112.243 97.726 117.832 166.07 259.913 199.832 409.078 26.594 154.375 24.742 312.386 21.078 468.46-13.152-157.28-1.762-316.949-32.316-472.464z"/><path d="M1051.587 823.82c-28.898-136.809-28.927-283.673-95.868-409.465C879.14 285.015 755.717 104.17 613.261 46.998c-55.32-20.714-115.4-26.772-174.077-26.806-3.193.079-6.451.303-9.564.333 48.312-12.146 99.03-7.343 146.888 4.603 130.341 32.344 223.156 145.277 299.526 248.994 32.253 44.525 63.593 89.95 89.94 138.261 65.04 126.492 71.83 272.48 85.613 411.438z"/><path d="M562.344 69.912c-49.968-26.895-109.935-26.31-163.992-11.133-7.123-.365-14.268-.366-21.41-.478 53.554-25.611 121.839-27.28 175.312-3.26 39.582 18.422 66 55.086 95.586 85.684-28.242-23.809-53.043-52.559-85.496-70.813zM363.665 65.324c.597-.348 1.197-.694 1.799-1.036 1.33.344 2.658.69 3.985 1.04-1.927-.05-3.856-.053-5.784-.004zM155.842 188.257c37.668-65.629 97.7-122.344 169.543-148.09 11.977-3.855 24.434-6.539 36.891-7.742-15.898 4.75-31.055 11.367-45.785 18.926-67.266 35.86-130.406 89.16-160.442 160.746-4.305 11.727-7.705 23.686-10.512 35.795-4.136 6.443-8.04 13.024-11.8 19.717l-.521.928c3.513-27.806 9.759-54.974 22.626-80.28zM652.875 1298.486c56.836-10.515 113.72-24.699 164.91-52.297 68.993-38.87 143.329-72.75 200.258-129.011 7.602-7.856 15.262-15.641 23.098-23.266-7.176 13.555-14.211 27.348-22.024 40.613a299.66 299.66 0 0 1-3.39 5.14l-10.598 7.997c-1.805 1.36-3.617 2.703-5.402 4.086l-26.295 20.397a534.786 534.786 0 0 0-9.62 5.412c-3.48 2.007-7.003 3.957-10.445 6.03-4.976 3.009-9.957 6.009-14.937 9.009-8.156 4.918-16.32 9.804-24.356 14.918-3.052 1.942-6.1 3.891-9.144 5.848a793.952 793.952 0 0 0-15.496 6.124c-2.445.996-4.961 1.887-7.34 3.035-10.941 5.286-21.883 10.579-32.824 15.868-6.14 2.972-12.285 5.925-18.406 8.93-1.77.87-3.536 1.741-5.301 2.613-.602.3-1.227.578-1.805.914-3.027 1.75-6.05 3.504-9.07 5.265-1.375.469-2.754.938-4.13 1.402-6.577 2.227-13.16 4.434-19.722 6.692-2.27.781-4.539 1.539-6.762 2.434a2291.343 2291.343 0 0 0-36.296 14.957c-.754.316-1.5.64-2.243.968l-7.59 1.243c-2.988.488-5.984.925-8.94 1.562a1615.679 1615.679 0 0 0-18.825 4.149 2659.19 2659.19 0 0 0-17.57 4.046c-3.38.793-6.7 1.86-10.032 2.813l-1.351.387c-.32.02-.645.039-.965.062-2.23.145-4.426.305-6.64.566a2350.302 2350.302 0 0 0-39.786 5.075c-1.187.16-2.375.328-3.562.504-.04 0-.078.004-.118.004-.992.011-1.988.027-2.984.039a2064.3 2064.3 0 0 0 25.703-4.528zM148.97 777.332c-8.423-33.356-10.587-67.95-10.985-102.238.34-59.602-6.274-120.184 4.637-179.133 15.828-67.047 41.562-131.785 71.722-193.617 21.52-47.004 40.117-96.079 74.899-135.352.351-.453.703-.906 1.058-1.355 2.344-2.196 4.684-4.391 7.032-6.586 2.363-2.051 4.722-4.102 7.085-6.16 1.832-1.594 3.61-3.305 5.551-4.766 3.114-2.344 6.211-4.707 9.305-7.078 1.594-1.223 3.172-2.442 4.824-3.582 8.602-5.95 17.172-11.946 25.883-17.743 3.441-2.29 6.87-4.598 10.312-6.888 1.811.077 3.624.158 5.434.246-34.932 25.25-59.999 48.404-83.586 92.846-18.074 31.332-28.02 66.222-41.68 99.511-27.968 64.336-56.183 129.41-71.878 198.016-9.34 56.371-3.465 114.102-3.645 170.996 1 32.59.676 65.277 3.977 97.746 3.093 34.074 12.316 67.274 18.011 100.875-14.343-31.199-29.793-62.21-37.957-95.738zM90.134 816.862c-14.02-147.564-51.532-339.448 9.047-477.813 2.203-4.126 5.09-8.035 8.578-11.066-5.672 9.065-6.742 20.014-8.098 30.367-12.439 152.46-5.687 305.789-9.527 458.512zM921.78 979.122c-11.308-87.66-15.93-176.212-32.222-263.172-11.238-53.132-24.536-105.806-34.282-159.266-3.67-18.88-7.273-37.913-11.795-56.542 86.623 159.909 83.135 303.968 78.3 478.98zM311.029 1132.77c-6.166-53.899-15.644-109.12-5.089-163.023 12.25 53.433 8.183 108.837 5.089 163.024zM274.927 1266.627c3.599.555 7.183 1.14 10.76 1.827 1.435.275 2.869.553 4.301.838a179.447 179.447 0 0 0 15.622 11.932c-10.793-3.717-21.007-8.686-30.683-14.597zM284.406 1267.173c-3.246-.312-6.486-.521-9.74-.706-25.964-15.923-48.043-38.622-66.986-62.08-76.192-96.363-84.895-227.511-76.84-345.734a3898.67 3898.67 0 0 1 4.265-51.828c1.274 23.774 1.981 47.774 3.36 71.606 6.07 105.113 25.476 212.586 82.32 302.925 15.242 24.54 31.551 49.594 51.457 70.903a93.596 93.596 0 0 0-3.117-.614c-.012-.003 0 .02.008.02a91.97 91.97 0 0 1 3.539 1.055c4.865 5.181 9.947 10.14 15.28 14.812a415.04 415.04 0 0 0-3.546-.36zM428.394 779.665l.766-.095a40.518 40.518 0 0 0 1.026 3.089 20.827 20.827 0 0 1-1.792-2.994zM372.143 787.247l.029.001.009.107-.038-.108zM337.992 762.31c7.945-5.205 15.444-11.285 24.356-14.847 8.94-3.76 18.418-5.889 27.902-7.758 18.481-3.618 37.157-7.115 56.012-7.785 2.214-.02 4.433.024 6.648.063-2.63.382-5.465.657-8.094 1.038-18.648 3.325-36.938 8.438-55.347 12.86a560.98 560.98 0 0 0-25.954 6.862c-8.742 2.498-16.908 6.94-25.523 9.568z"/><path d="M356.96 749.682c15.32-11.567 34.292-15.618 53.07-17.188 28.236-3.304 56.665-2.16 84.949-.13.015.005.015.028 0 .029-28.42 1.631-56.861 3.065-85.082 7-17.892 2.095-36.152 3.39-52.938 10.289z"/><path d="M357.298 744.585c48.14-12.348 98.77-11.183 148.074-8.506-33.387 2.136-66.969 4.58-100.367 7.58-15.866 1.465-31.968.238-47.707.926z"/><path d="M560.555 744.87c-13.004-3.135-26.138-6.528-39.609-6.381-25.623.602-51.312 2.217-76.91.198-6.492-.545-13.098-1.3-19.524-1.797 28.288-4.738 57.075-4.433 85.645-3.323 17.49-.267 34.447 4.623 50.398 11.303zM417.082 798.305c-10.209-.083-20.47-1.893-30.625-1.594 12.03-3.274 24.667-3.256 36.973-4.926 11.642-1.466 23.172-3.695 34.656-6.09 28.673-5.85 56.591-14.76 84.871-22.027-18.044 6.669-35.71 14.983-54.2 20.61-23.425 7.204-46.958 14.854-71.675 14.027z"/><path d="M393.256 797.11c9.491-4.542 20.43-4.85 30.504-7.629 38.406-10.089 77.967-15.09 116.707-23.239-31.718 11.29-64.73 18.1-97.371 26.09-4.957 1.094-9.934 1.942-14.957 2.625-11.62 1.986-23.509.107-34.883 2.152z"/><path d="M395.653 789.912c5.274-2.696 11.329-3.023 17.058-4.125 14.496-2.617 29.036-5.05 43.418-8.254 27.507-6.85 54.91-14.23 82.738-19.754.016-.004.024.02.009.024-31.987 10.304-63.393 23.388-96.466 29.788a185.607 185.607 0 0 1-27.843 2.008c-6.286.142-12.81-.974-18.914.313zM455.64 789.113c22.529-7.779 44.835-17.32 68.062-22.804-15.816 6.123-30.971 13.916-46.98 19.523-6.787 2.495-14.13 2.294-21.083 3.28z"/><path d="M445.643 795.513c17.308-8.978 34.666-17.99 53.101-24.485 7.17-2.448 14.363-4.949 21.774-6.567 4.593-.412 9.439-.111 13.984-.127-12.346.555-23.424 5.454-34.499 10.534-17.608 8.035-35.139 17.39-54.36 20.645zM278.631 483.945c.933 1.12 2.19 1.983 3.62 1.983.824 0 1.41-.715 1.594-1.449.25-.992-.036-2.09-.434-3-.517-1.189-1.424-2.454-2.579-3.227 1.286-1.11 2.879-1.57 4.567-1.57 3.543 0 6.344 3.41 6.172 6.813a6.537 6.537 0 0 1-2.062 4.437c-1.317 1.23-2.98 1.735-4.75 1.735-3.163 0-5.735-2.718-6.128-5.722zM321.172 416.507c-1.537-7.764-1.387-15.909-1.277-23.73 1.136 7.822 2.725 15.9 1.277 23.73z"/><path d="M323.015 418.148c-5.646-4.572-9.542-11.093-15.164-15.64 6.426 3.695 11.573 9.262 15.164 15.64z"/><path d="M320.366 415.287c-13.827-2.495-26.982-7.97-40.484-11.488 13.905 1.467 28.462 4.087 40.484 11.488z"/><path d="M304.453 410.242c-7.013-2.38-13.867-5.08-20.72-7.809 4.45.84 9.033 2.006 13.47 3.188 6.859 1.746 13.443 4.156 19.898 6.988a47.284 47.284 0 0 1-12.648-2.367z"/><path d="M317.501 412.836a224.833 224.833 0 0 1-21.234-4.605c-4.234-1.291-9.25-1.536-12.613-4.555 1.627.938 3.399 1.557 5.267 1.693 9.687 1.305 20.162 2.242 28.58 7.467z"/><path d="M314.58 416.526c-4.694-.24-9.276-1.902-13.157-4.562-1.908-1.705-7.575-4.326-6.171-7.352.965-1.906 4.191-1.543 5.84-1.36 6.24 1.016 12.208 3.915 17.972 6.219-6.804-1.166-13.714-4.058-20.593-3.572 5.44 4.306 11.07 8.044 17.406 10.8-.376-.001-.88-.138-1.304-.173h.007z"/><path d="M317.135 412.537c-4.228-5.682-11.22-11.718-10.453-19.34 2.058 6.989 7.196 12.92 10.453 19.34zM319.16 413.993c-2.954-7.355-8.217-16.048-5.73-24.066.74 8.158 4 16.12 5.73 24.066z"/><path d="M321.569 414.854c-3.452-7.945-7.395-15.93-9.367-24.32 4.976 7.212 7.227 15.994 9.367 24.32z"/><path d="M321.242 416.557c-2.082-6.832-3.607-13.892-6.2-20.492 5.057 5.205 5.279 13.681 6.2 20.492z"/><path d="M319.884 417.686c-3.22-6.667-5.388-14.779-3.39-22.035.891 7.372 1.322 14.962 3.39 22.035z"/><path d="M320.407 416.436c-1.713-6.029-4.042-12.467-2.89-18.742a228.844 228.844 0 0 1 2.89 18.742z"/><path d="M318.735 415.389c-2.005-6.31-5.086-15.552-1.469-20.988-.759 6.96.595 14.177 1.469 20.988z"/><path d="M320.443 414.74c-1.826-5.978-3.875-12.116-4.563-18.278 3.007 5.569 3.717 12.168 4.563 18.277zM321.696 416.468c-1.627-7.244-2.732-15.278-.5-22.453.53 5.264.27 10.534.304 15.809a.218.218 0 0 1-.002-.016c.053 2.199.177 4.528.198 6.66z"/><path d="M322.401 416.545c-2.668-5.98-5.449-13.351-2.453-19.671-.023.981-.116 2.117-.078 3.156v-.063c.083 5.607 1.241 11.21 2.531 16.578z"/><path d="M322.856 418.653c-2.811-7.53-6.409-15.692-4.93-23.82a3741.78 3741.78 0 0 1 4.93 23.82zM325.611 416.052c-1.041-5.617-2.73-11.817-.734-17.332.27 5.733.611 11.641.734 17.332z"/><path d="M325.036 421.301c-.783-7.426-1.975-15.465.66-22.582.166 7.514-.183 15.158-.66 22.582zM320.707 413.806c-.804-4.658-1.551-9.83.285-14.27-.059 4.734-.225 9.598-.285 14.27z"/><path d="M322.822 420.66c-2.438-7.344-3.583-15.622-.805-22.965.142 7.673-.44 15.438.805 22.964z"/><path d="M321.882 414.815c-1.174-5.654-3.114-12.363-.278-17.73-.498 5.875.05 11.924.278 17.73zM323.786 415.071c-.592-5.88-1.658-12.559 1.09-17.988-.412 5.966-.731 12.077-1.09 17.988z"/><path d="M323.947 414.12c-.875-5.048-1.932-10.908.52-15.606a189.04 189.04 0 0 0-.52 15.605zM324.864 418.32c-.198-6.357-1.134-13.25 1.445-19.191-.181 6.388-.617 12.913-1.445 19.191zM311.943 415.225c-3.047-2.169-6.267-4.21-8.932-6.837-1.88-1.075-4.485-2.432-4.037-5.003 1.511-4.31 7.242-2.021 10.294-.82 2.374 1.288 5.926 2.004 7.27 4.465.233.215.448.451.636.715.261.368.41.752.479 1.148.371.289.913.569 1.197.86-.388-.184-.774-.37-1.16-.556a4.641 4.641 0 0 1-.236 1.726c2.584 1.705 2.487 5.663-.91 6.166-1.752.217-3.197-.927-4.6-1.864z"/><path d="M317.071 407.333c-.996-.56-2.01-1.09-3.018-1.633-1.15-.075-2.696-.677-3.251-1.77-.047-1.4 1.706.007 2.258.338-.79-1.008-1.559-2.23-1.754-3.462.684 1.108 1.713 2.015 2.603 2.918.45.453 1.086 1.056.766 1.72.785.603 1.735 1.24 2.396 1.889zM319.825 407.049c-2.473-4.925-5.154-10.664-3.914-16.234.882 5.454 2.403 10.997 3.914 16.234z"/><path d="M318.91 407.102c-1.363-4.421-3.053-9.675-.895-14.05-.27 4.684.311 9.471.895 14.05zM320.83 411.284c-1.166-5.107-3.16-11.017-.84-15.996-.209 5.32.547 10.757.84 15.996z"/><path d="M322.24 413.64c-1.626-5.641-2.684-11.73-1.067-17.433.561 5.779.406 11.721 1.066 17.434z"/><path d="M321.302 412.4c-1.62-4.235-3.384-9.753-1.05-13.953-.407 4.71.249 9.408 1.05 13.953z"/><path d="M320.876 408.495c-1.253-4.22-2.895-8.88-1.543-13.21.267 4.403 1.06 8.896 1.543 13.21zM321.677 410.952c-.197-5.455-1.256-12.072 2.125-16.715-1.27 5.461-1.38 11.238-2.125 16.715zM323.106 413.285c-.197-4.023-1.44-8.922.828-12.468-.623 4.052-.364 8.431-.828 12.468z"/><path d="M323.472 413.273c-.874-5.046-1.706-10.618.07-15.484.171 5.127-.061 10.408-.07 15.484zM324.467 413.275c.053-4.569-.678-9.98 1.969-13.906-.82 4.56-1.137 9.388-1.97 13.906z"/><path d="M322.465 413.506c-.208-4.25-.996-8.893.286-12.957.416 4.289.194 8.745-.286 12.957zM320.728 418.71c-.262-1.1-.56-2.194-.805-3.3l-.01-.047c-1.733 2.656-1.93-4.686-.701-4.972.581-.375 1.143.088 1.28.684.355-.788.684-1.738 1.056-2.438-.243 1.101-.495 2.2-.755 3.297.293.96.473 1.964.657 2.941.051.272.097.547.137.822.13-.24.249-.603.41-.76-.174.991-.166 2.001-.199 3.01.009.202.016.403.02.604.029.668-.942.812-1.09.16z"/><path d="M323.601 419.81c-.243-.71-.479-1.42-.708-2.132-1.91.483-2.385-2.348-2.991-3.641-1.457-3.787-2.036-8.198.031-11.872-.613 4.617.971 9.252 2.414 13.564-.147-.878.152-3.609 1.36-2.243.4 1.21.435 2.962-.439 3.97.092.768.298 1.646.333 2.354z"/><path d="M311.733 415.745c-4.918-1.402-9.76-3.09-14.458-5.118-4.473-.214-9.317.501-13.538-1.175-2.632-1.14-2.513-4.958-.359-6.54 3.276-1.9 7.388-1.483 11.066-1.603 2.087-.46 4.214-.379 6.328-.217 2.66.225 5.372.51 7.442 2.32 2.37 1.183 2.218 5.232-.688 5.47-.169.138-.35.263-.546.374-.139.079-.273.157-.408.231 4.892 2.694 9.348 6.52 14.904 7.308-3.133.838-6.678-.175-9.743-1.05z"/><path d="M318.388 411.2a41.933 41.933 0 0 1-1.996-2.829c-.11-.167-.221-.334-.333-.5-2.817-1.045-5.35-2.475-8.492-2.117-.068-.015-.213.038-.222-.02.92-.358 1.867-.609 2.827-.812-1.541-1.105-.622-3.268 1.208-3.035 1.454.12 2.67.945 4.016 1.374.542.283 1.372.704 1.506 1.35.891.138 1.505.397 2.185.998 1.365 1.321-.744 2.925-2.156 2.475.435 1.037 1.035 2.147 1.457 3.115z"/><path d="M320.326 411.989c-1.427-5.396-2.98-10.952-2.265-16.578 1.422 5.284 1.717 11.157 2.265 16.578zM322.816 410.373c-1.04-4.63-2.965-10.64.105-14.812-1.1 4.834-.337 9.987-.105 14.812zM324.18 415.428c-.495-6.621-1.836-14.197 1.23-20.308-.432 6.732-.683 13.636-1.23 20.308z"/><path d="M323.782 412.076c.012-5.07-1.484-11.178 1.337-15.633-.785 5.097-.5 10.561-1.337 15.633zM325.986 418.821c-.233-5.267-.68-10.675.868-15.793.35 5.171-.21 10.673-.868 15.793zM321.34 422.53c-1.444-4.894-2.541-10.393-.617-15.25.08 5.116-.03 10.26.617 15.25z"/><path d="M321.568 421.885c-.562-5.32-.988-10.89.594-16.074.435 5.246-.212 10.85-.594 16.074z"/><path d="M319.248 420.284c-.191-3.79-.402-7.603-.535-11.39.274-1.846 2.564-1.145 2.493.512.172-.397.32-.94.542-1.243-.166 1.82-.06 3.657 0 5.48.547.835.402 2.17.683 3.172-.22-.414-.364-1.041-.559-1.529-.333 1.611 1.144 6.188-1.232 6.204-.656 0-1.324-.401-1.392-1.206z"/><path d="M323.797 417.873c-.746-.043-1.066-.465-1.418-1.11a4.088 4.088 0 0 1-.216-.483c-1.158-3.065-1.185-6.954.025-10.024.051 2.259.277 4.51.792 6.709 2.366-1.398 3.258 4.909.817 4.908zm-.003-1.724c.17-.782.115-1.587-.198-2.278a8.111 8.111 0 0 1-.051-.007l-.12.16c-.049.09-.096.18-.141.272.158.62.273 1.254.51 1.853zM452.823 391.565c-4.63-9.713 3.94-19.043 10.606-25.277.008-.008.027.004.02.016-5.5 7.355-11.478 15.711-10.626 25.261z"/><path d="M451.54 394.853c-2.638-13.619 9.721-24.028 19.192-31.723.012-.008.028.008.02.016-8.157 9.19-17.1 19.277-19.212 31.707z"/><path d="M455.926 390.283c-.695-13.263 14.833-23.866 24.911-30.078.012-.004.027.011.016.023-7.601 6.419-14.847 13.65-20.59 21.75-1.82 2.557-3.66 5.265-4.337 8.305z"/><path d="M459.583 390.466c-2.413-15.305 18.942-29.469 29.7-37.581.011-.008.027.007.015.019-8.068 8.72-27.855 26.31-29.715 37.562z"/><path d="M459.767 387.543c-4.528-11.561 7.533-20.945 16.212-26.356.011-.008.027.008.015.02-7.557 6.98-16.494 15.322-16.227 26.336z"/><path d="M458.306 383.7c.873-14.068 17.175-22.65 27.52-29.938.012-.007.027.008.015.02-6.628 6.271-13.747 12.118-19.761 18.996-2.906 3.384-6.36 6.683-7.774 10.922zM472.744 372.728c4.957-10.619 15.964-16.525 25.754-22.046-8.794 6.945-17.602 14.366-25.754 22.046z"/><path d="M478.412 371.083c7.249-11.785 19.868-18.787 32.235-24.152-11.343 7.07-21.61 16.09-32.235 24.152z"/><path d="M480.054 373.104c.153-10.82 18.95-21.108 27.301-26.347.012-.008.028.008.016.02-5.047 4.453-10.404 8.552-15.313 13.159-3.979 4.306-9.873 7.73-12.004 13.168z"/><path d="M475.303 373.463c6.267-15.876 23.636-23.184 37.997-30.21.011-.005.023.01.011.023-13.25 9.2-27.067 18.299-38.008 30.187z"/><path d="M471.83 379.859c4.599-12.556 18.362-20.196 28.939-27.207-9.655 8.998-20.156 17.447-28.938 27.207z"/><path d="M461.595 389.362c5.151-16.027 26.934-22.934 41.505-27.648.011-.003.023.016.007.02-10.113 5.033-19.962 10.022-28.953 16.68-4.327 3.382-9.607 6.264-12.559 10.948z"/><path d="M461.229 390.279c2.754-11.258 27.064-20.867 37.25-25.121-.841.598-1.925 1.19-2.842 1.779-8.093 4.943-16.079 9.958-23.973 15.194-3.523 2.554-8.217 4.372-10.435 8.148z"/><path d="M463.058 390.274c7.886-10.226 21.118-13.859 32.75-18.137-10.802 5.993-22.142 11.792-32.75 18.137zM460.134 391.007c3.34-11.307 18.305-18.302 27.816-24.09-9.16 8.025-19.922 14.807-27.816 24.09zM456.114 391.936c-6.082-8.093 3.02-21.64 8.668-27.933.012-.012.031 0 .023.015-4.213 6.994-10.88 19.823-8.691 27.918z"/><path d="M455.017 392.665c-4.718-6.937-2.86-15.888.867-22.746-2.5 7.38-2.658 15.249-.867 22.746z"/><path d="M455.75 391.932c-3.457-5.036-3.777-11.844-2.063-17.578 1.424-4.025 4.027-7.536 6.25-11.156.008-.012.028 0 .02.011-1.768 4.596-4.334 8.98-5.028 13.91-.278 4.97-.305 10.05.82 14.813z"/><path d="M453.918 386.628c-3.533-8.025 3.804-15.001 8.883-20.356-4.01 6.109-9.383 12.597-8.883 20.356z"/><path d="M453.37 386.44c.934-9.024 9.695-15.444 15.52-21.687-4.905 7.368-11.332 13.96-15.52 21.688z"/><path d="M455.197 384.242c3.506-7.175 9.813-12.494 15.368-18.062-4.578 6.311-9.545 12.824-15.368 18.062z"/><path d="M455.929 382.417c3.364-8.11 11.098-13.38 17.36-19.183-5.285 6.68-11.357 13.148-17.36 19.183z"/><path d="M455.378 383.334c2.051-7.029 8.17-11.857 13.192-16.82-4.157 5.65-8.857 11.306-13.192 16.82z"/><path d="M453.918 386.99c-.102-7.743 7.17-13.064 12.27-17.937-4.303 5.715-9.68 11.233-12.27 17.937zM452.485 387.443c-1.915-3.267-2.43-8.08-.187-11.23-.763 3.625-1.087 7.742.187 11.23z"/><path d="M456.273 390.882c-2.514-4.982-5.258-11.023-3.062-16.504-.085 5.64 1.595 11.192 3.062 16.504z"/><path d="M455.809 391.22c-2.997-6.224-5.903-14.77-1.867-21.039-1.211 6.963.013 14.372 1.867 21.039z"/><path d="M456.084 390.581c-2.475-4.51-4.492-10.788-1.594-15.468-.803 5.16-.038 10.599 1.594 15.468z"/><path d="M453.902 392.699c-3.113-6.465-4.1-14.776-.691-21.242-.674 7.03-1.253 14.41.691 21.242z"/><path d="M454.637 392.076c-2.773-3.69-5.916-8.892-3.801-13.492-.232 4.774 1.864 9.35 3.8 13.492z"/><path d="M455.65 393.194c-3.207-3.705-6.79-8.676-4.813-13.696-.102 4.982 2.449 9.554 4.813 13.696zM455.93 391.002a97.746 97.746 0 0 1 3.416-3.707 3.566 3.566 0 0 1-1.06-2.45l-.032.001c-.639.018-1.16-.244-1.697-.53l-.11.064c-.722.948-.543 2.171-.44 3.2-.409-1.095-.71-2.473-.046-3.535.635-.982 1.613.32 2.478-.23.086-.26.21-.512.373-.746.203-.291.404-.568.618-.83-3.492-.537-.577-5.187 1.57-2.612 2.77-1.315 5.474-2.772 8.18-4.21.766-.417 1.664-.832 2.55-.59 1.663-.718 3.48-1.72 5.305-.942 2.118.669 2.7 3.513 1.006 4.952 2.31 4.445-4.146 5.4-6.963 6.81-3.233 1.056-6.607 3.393-10.098 2.503-1.687.896-3.417 1.972-5.05 2.852z"/><path d="M452.793 388.287c-.248-.615-.292-1.304-.245-1.98-2.057.05-2.516-2.213-2.466-3.887.446 1.043.928 2.98 2.47 2.653 1.212-.389 2.027-1.343 2.87-2.22.238-.782 1.145-1.24 1.519-.3.156.545-.332 1.121-.72 1.524-.381.647-.74 1.308-1.108 1.964-.492.649-1.31 3.217-2.32 2.246zm.471-.65.005-.006c.244-.564.48-1.133.72-1.7a3.559 3.559 0 0 1-.839.303c0 .003.001.007-.002 0 .028.3.166.694.133.94-.084-.234-.165-.47-.246-.7.063.39.123.777.226 1.157l.003.006z"/><path d="M450.635 389.595c-.239-1.346.698-2.648 1.191-3.871.238-.488.813-2.27 1.684-2.113.836.008 1.09.766 1.174 1.496.302-2.486.6-5.14 1.451-7.438-.25 2.338 1.712 10.688-1.079 11.253.005.397.112.91.063 1.243-.107-.43-.216-.86-.325-1.29-.507-.175-.81-.492-1.116-.902-.984.591-1.92 3.64-3.043 1.622zm2.424-3.436c.058-.023.117-.043.177-.06.305-.084.575-.097.82-.051-.118-.453-.242-.906-.439-1.332l-.077.151c-.167.428-.328.858-.481 1.292z"/><path d="M456.615 394.31c-.261-.819-.526-1.638-.79-2.46-.688.532-1.697.415-2.276-.32a3.336 3.336 0 0 1-.394-.64c-2.37.954-2.467-5.128-3.075-6.638.774 1.191 1.543 2.559 2.303 3.821.228-1.346-.48-3.372.717-4.328.037-.126.077-.251.12-.376.227-.655 1.102-.815 1.521-.246.346-.463.836-.762 1.562-.805 3.7-.089.847 7.27-.061 9.064.107.958.324 2.026.373 2.929z"/><path d="M455.447 391.625c-.946-.593-1.961-1.132-2.773-1.894-.914-1.094-.61-2.742-.559-4.04.11-2.843.387-5.683 1.805-8.21-.33 2.531-.416 5.265-.783 7.862-.678 3.337-.296 4.23 2.31 6.282z"/><path d="M449.709 389.85c-2.798-.369-2.747-3.649-2.79-5.828-.119-3.312-.07-6.636-.023-9.953h.014c.111-1.3 1.041-2.401 2.424-2.516.943-.077 1.894.403 2.428 1.168.953-1.547 3.085-4.87 5.001-2.746.407.525.68 1.13.543 1.805 5.882-5.585 5.89-1.021 6.782 4.378-.78-1.796-1.122-4.23-2.444-5.775-2.225 1.018-3.578 3.52-5.248 5.268-.74.823-1.483 2.45-2.813 2.026-1.803 3.485 2.438 12.194-3.874 12.173z"/><path d="M450.922 391.51c-1.45-1.636-1.571-4.82-1.023-6.899.183 1.624.523 3.4.91 5.057-.126-.447.017-1.641.582-.732.254.614.667 2.735-.469 2.574zm.131-.926.015-.138a3.492 3.492 0 0 1-.188-.48 36.81 36.81 0 0 0 .093.382c.024.08.05.158.08.236zm.026-.316v-.008.003c.004-.083.005-.166.004-.25v.036a11.023 11.023 0 0 0-.043-.722 7.66 7.66 0 0 1-.02.12l-.015.383c.023.147.05.29.074.438zM381.384 805.314c-2.226-.995-5.047-1.408-6.656-3.379-1.285-2.029.6-4.483 2.84-4.41 5.542-.074 11.043 1.172 16.54 1.789 10.946 1.675 22.14 2.363 33.109 3.066-14.758 1.99-29.66 1.677-44.434.035 3.394 2.058 6.957 4.007 10.41 5.832-4.05-.566-7.96-1.562-11.809-2.933z"/><path d="M399.183 805.346c-20.136.002-37.9-2.767-52.782-17.476 5.978 3.532 12.076 7.666 18.974 9.357-1.625-10.089 13.445-5.393 19.116-5.142a2295.052 2295.052 0 0 0 26.73 3.527c2.328.378 4.9.254 6.817 1.828 2.384 1.805 1.614 5.827-1.172 6.79-5.64 1.826-11.828.942-17.683 1.116zM436.365 1282.78c-13.75-.822-26.933-5.014-39.977-9.172 6.413.794 12.992 1.927 19.446 2.918 14.18 2.474 28.894 1.343 42.804 5.36-7.326.348-14.866 1.426-22.273.894z"/><path d="M477.553 1293.142c-24.227-5.153-47.86-12.589-71.71-19.133 25.142-2.157 48.829 10.644 71.71 19.133z"/></g></svg>