<svg xmlns="http://www.w3.org/2000/svg" width="2001.522" height="1984.228" viewBox="0 0 1501.142 1488.171"><clipPath id="a"><path transform="translate(-591.212 -338.143)" d="M914.539 1302.79H1983.46v842.84H914.539z"/></clipPath><g clip-path="url(#a)"><path d="M356.548 1052.346c9.039-39.712 45.083-71.307 84.672-78.691 3.117-.64 6.238-1.258 9.371-1.805-3.446 1.261-7.114 2.514-10.62 3.817-25.678 8.826-46.781 27.057-62.946 48.496-7.298 8.985-15.134 17.923-20.477 28.183z"/><path d="M374.172 1036.324c-1.374-1.472-1.51-3.472-.694-5.13-8.633-4.08-1.01-13.19 2.21-18.5-4.958-6.564 3.467-13.167 7.008-18.269 4.72-5.499 9.932-10.668 16.181-14.414 1.712-2.101 4.114-3.92 6.982-3.4 8.435-3.238 17.588-2.753 26.427-2.119 4.525-.111 8.701 1.4 12.945 2.307 6.574.334 17.47-.404 20.527 6.681 6.081-.707 12.197-1.555 18.324-1.55 6 .098 8.379 8.413 3.454 11.788-3.409 2.428-7.861 1.991-11.81 2.812-10.911 1.71-22.036 2.775-32.686 5.747-13.9 4.651-27.794 9.932-39.626 18.77-3.55 2.515-7.406 4.63-10.636 7.566-3.193 2.649-6.05 6.486-10.514 6.743-2.206 2.09-5.665 3.635-8.092.968z"/><path d="M393.387 1023.688c8.718-10.737 21.78-17.043 34.828-20.859 17.58-4.639 35.86-6.27 54.004-6.14 2.316-.021 4.584.009 6.867.437 4.379.651 6.581 6.355 3.745 9.733 7.925.493 15.843 1.116 23.76 1.747-11.982.952-24.442-.022-36.16 3.235-14.812 3.264-29.835 5.548-44.864 7.558-5.918.635-22.031 4.496-17.019-6.709-8.974 2.132-17.84 5.435-25.16 10.998z"/><path d="M444.736 1009.176c22.331-10.482 48.82-8.943 72.34-3.448-24.051-1.995-48.415 1.478-72.34 3.448z"/><path d="M537.618 1004.058c-6.385-.561-12.117-3.644-18.337-4.856-8.857 5.85-21.695 1.266-29.203-4.994-7.484.313-14.945 3.637-22.495 4.666-3.654 1.2-8.432 1.235-10.561-2.547-12.99 5.571-16.326-9.721-4.264-14.041 6.488-7.236 16.882-9.835 25.806-12.935 5.397-1.601 12.963-4.452 16.613 1.626 18.696-1.699 36.197 8.482 51.964 17.519 6.226 3.516 5.326 12.448-1.534 14.52-2.68.448-5.283.863-7.989 1.042zM337.721 1053.397c-3.504-4.028 1.614-7.892 4.34-10.57 3.135-3.009 6.251-6.047 9.445-8.993 11.872-10.862 24.198-21.212 36.293-31.82 1.079-.898 2.189-1.95 3.277-2.727-3.754 5.499-7.396 11.066-11.413 16.38 5.69-3.785 11.357-7.76 17.288-11.102 1.484-.665 3.56-.137 2.544 1.789-3.722 4.67-8.513 8.637-12.801 12.68 2.104-2.569 4.16-5.18 6.204-7.799-11.573 9.403-22.76 19.258-33.813 29.26-4.737 3.027-16.301 18.758-21.364 12.902z"/><path d="M369.105 1045.72c-2.547-.21-4.773-1.746-5.71-4.074-.692.457-1.383.922-2.071 1.39.508-.64 1.27-1.316 1.875-1.956-.937-2.97.566-6.223 3.277-7.653 7.086-4.37 14.606-7.914 20.95-13.383 13.949-10.527 28.847-19.828 44.652-27.285 4.598-2.566 10.32 2.156 8.68 7.168 2 .301 3.859 1.559 4.82 3.375.43.817.66 1.7.715 2.586 13.855-2.27 27.996-3.55 41.945-4.363-14.64 2.543-29.273 5.234-43.621 9.137-11.551 6.183-23.484 11.951-35.477 17.552l-.601.084c-.012 0 0 .02.008.024l.284.036c-1.86.868-3.72 1.732-5.581 2.593-1.008.16-2.016.316-3.028.472-1.289.2-2.566.477-3.847.715-2.551.48-4.985 1.36-7.406 2.266-.012.004.003.023.011.023.953-.215 1.907-.422 2.864-.625 2.32-.46 4.68-.699 7.043-.84-3.247 1.496-6.489 2.98-9.723 4.465-3.781 1.723-8.047 3.328-11.875 5.059-2.363 1.406-4.762 3.261-7.598 3.261-.191 0-.387-.007-.586-.027z"/><path d="M401.559 1018.954c32.914-20.253 72.576-11.828 108.285-5.38.016.004.012.027 0 .027-16.463-.037-32.882-1.397-49.336-1.441-19.758.55-39.631 2.948-58.95 6.794z"/><path d="M463.24 1010.648c-8.605-.42-17.305-1.344-25.805-2.196 5.543-1.289 11.156-2.132 16.808-2.78 16.506-1.96 33.15-.558 49.684.304 10.665-.074 22.13 3.838 32.148-1.035-2.26 1.384-4.665 3.061-7.363 3.634-21.625 2.61-43.686 2.348-65.473 2.073z"/><path d="M492.95 1012.395c-6.712-.575-19.377.751-19.304-8.88-1.695-.13-3.521-.165-5.154-.312 1.116-.18 2.232-.352 3.35-.515-4.47-2.579-3.275-7.313 2.083-7.049-7.754-19.712 39.993-7.513 47.779-3.127 3.337 2.08 7.229 1.084 10.847 2.27 5.133 1.343 6.086 8.96 1.585 11.621-4.067 6.966-14.246 4.578-21.027 4.42-6.595 1.489-13.416 1.828-20.16 1.572z"/><path d="M488.383 1005.957c-7.986-.388-15.992-1.263-23.793-2.243 21.869-4.857 44.433-3.503 66.625-2.445 8.928.486 17.995 1.052 26.828 1.844-23.159 1.804-46.42 3.466-69.66 2.844z"/><path d="M512.422 1023.442c-2.036-.786-4.11-1.36-6.282-1.594a52.096 52.096 0 0 0-1.026-.098 67.018 67.018 0 0 0-2.735-.793c-3.739-.992-7.559-1.726-11.41-2.117-3.333-.34-6.668-.43-10.016-.402-5.66.05-11.328.265-16.98.625-2.391.152-4.778.316-7.16.496a11.257 11.257 0 0 1-3.126-1.766c-3.746.027-5.129-5.148-1.586-6.695.91-2.547 3.52-4.414 6.274-4.2 1.261.094 2.511.208 3.761.352-2.707-.973-10.683-9.578-4.687-4.457 11.383 6.844 25.227 6.11 38.04 7.055 10.808.597 21.616 1.12 32.417 1.894 3.348.328 6.996-.187 9.953 1.743 5.145 3.023 2.457 11.453-3.488 11.023-6.188-.379-12.367-.387-18.559-.656-.162.287-.35.555-.56.805a43.53 43.53 0 0 0-2.83-1.215z"/><path d="M630.498 1043.264c-9.758-2.65-19.503-5.34-29.235-8.074.274 21.955-60.257-11.499-70.216-15.952-8.783-1.13-18.004-1.548-26.67.15 7.377-3.54 15.636-4.91 23.71-5.767 3.378-12.788 30.234 1.725 38.386 4.01 21.968 7.102 42.637 17.193 64.025 25.633z"/><path d="M598.417 1043.03c-12.088-2.904-22.305-10.862-33.16-16.648-8.687-6.072-23.849-11.65-29.231-20.41-17.21-8.399-25.796-10.397-.558-4.12 5.703-17.501 41.862 6.927 52.71 10.955 8.263 4.105 16.484 8.279 24.688 12.504 4.643 2.392 11.905 5.297 10.361 11.77 2.94 1.672 6.051 3.34 8.905 5.019a3368.695 3368.695 0 0 1-9.184-3.948c-2.425 8.005-12.69 4.236-18.326 2.245-1.352 1.96-3.82 3.194-6.205 2.633z"/><path d="M532.541 1008.7c-9.492-3.734-10.379-3.582.606-2.414 26.597 3.828 49.586 18.52 73.2 30.324 13.748 7.294 28.49 12.047 43.426 16.157.71.736 1.423 1.47 2.137 2.203-.823.139-1.645.28-2.466.425-43.008-5.574-77.95-28.023-116.903-46.695z"/><path d="M577.93 1017.602c25.538 10.18 49.673 24.107 73.798 37.398-.845.143-1.69.288-2.532.438-.603.104-1.2.261-1.795.426-24.859-9.551-49.36-20.587-69.47-38.262z"/><path d="M579.756 1013.36c21.63 15.629 45.636 28.104 68.208 42.352-.53.138-1.059.292-1.584.432-23.987-10.43-52.186-21.056-66.624-42.784zM421.232 1065.862a145.683 145.683 0 0 1-30.106-3.182c32.738-3.657 65.191-9.71 98.246-9.9 16.44-.558 33.014-1.274 49.387-1.574-11.812 2.094-23.656 4.145-35.535 5.825-27.277 3.22-54.517 7.942-81.992 8.831z"/><path d="M442.94 1089.266c-6.257-.148-21.645 1.427-16.222-9.236-7.314-.205-25.72 2.122-19.715-10.552-2.764.017-5.644.459-8.314.765 25.996-8.725 53.944-7.736 80.868-11.203 17.475-2.263 34.936-4.682 52.426-6.822 10.524-.146 25.421-5.601 34.527.416 2.72 2.786 2.107 7.775-1.159 9.867 6.708-.686 13.3 5.85 7.624 11.716-6.251 5.335-28.777 3.734-38.117 5.036-17.76 1.902-34.788 7.606-52.575 9.186-13.48 1.11-26.21.966-39.343.827z"/><path d="M465.92 1089.997c-4.737-.144-9.603-.236-14.27-.497 15.578-2.672 31-6.098 46.355-9.833 3.105-6.153 21.344-7.41 28.285-9.968 8.927-1.025 38.062-11.389 43.053-3.297 13.643-3.526 27.196-7.415 40.724-11.354-13.015 5.566-26.369 10.957-39.755 15.792-.195 4.948-5.36 6.752-9.577 7.27-7.806 1.808-15.613 3.692-23.504 5.093-23.524 4.638-47.313 6.76-71.312 6.794z"/><path d="M499.108 1099.13c3.14-1.566 6.445-2.8 9.703-4.102.781-.312 1.559-.634 2.334-.961-5.073-3.97-1.205-9.685 3.759-11.235-3.828-6.026 2.7-12.569 8.743-13.245 9.076-2.909 18.231-5.58 27.383-8.255 10.79-1.74 47.343-17.424 50.036-.832 14.035-3.856 28.152-7.425 42.268-10.956-14.817 5.537-29.934 10.922-44.796 16.548-9.79 8.218-23.732 10.538-35.387 15.561-20.925 7.38-42.306 13.619-64.043 17.477z"/><path d="M512.864 1089.502c14.158-6.966 28.544-13.52 43.24-19.277 3.37-5.641 11.442-5.927 17.115-8.122-23.12-.031-46.164 2.269-68.676 7.618-28.635 3.863-57.575 7.48-86.609 7.672 23.076-2.925 46.204-6.818 68.914-12.133-1.382-9.793 11.894-9.049 18.426-10.383 8.585-1.366 17.28-2.013 25.789-3.824a991.16 991.16 0 0 1 53.352-8.837c4.81-1.946 10.554 2.294 8.792 7.524 4.5.344 9.226.478 13.254 2.754 4.755-1.003 9.84-4.58 14.586-1.714 4.782 2.69 4.492 10.208-.812 12.056-12.917 2.506-53.437 20.707-62.028 15.245-15.099 3.768-30.334 7.604-45.343 11.421z"/><path d="M519.59 1059.171c-23.73.176-47.402 1.988-71.058 3.8-9.887.782-19.809 1.442-29.672 2.524-2.809.809-6.04 1.39-8.754.008-12.188 4.645-17.43-7.86-7.477-11.777 12.145-3.055 24.192-6.508 36.395-9.309-19.305 1.43-38.516 5.035-54.739 15.973 22.079-18.574 51.7-21.617 79.301-24.989 9.12-.836 18.27-1.232 27.42-1.519l.938.001c1.104.137 2.455.097 3.933-.014a550.817 550.817 0 0 0 12.718-.254c2.672.687 4.442 2.39 4.194 6.115 4.504-.707 10.375 1.34 10.961 6.445 10.387-.063 20.774.219 31.137.926 4.559.578 12.227-.532 12.918 5.664.695 9.27-19.914 5.992-26.355 7.988-14.922 1.54-29.774 4.512-44.407 7.426 7.418-3.238 14.918-6.305 22.547-9.008z"/><path d="M400.995 1039.365c6.593-6.102 23.14-3.016 31.988-4.668 5.475-.478 12.298-1.104 19.74-1.566l3.846.105-.363-.012c3.629.11 7.261.2 10.89.281 8.865.198 17.74.402 26.61.374 9.853 1.422 18.547 4.103 24.363 8.783-14.344-8.64-36.574-4.504-52.832-3.567 7.61 1.77 15.488 3.957 21.5 9.14-.73-.25-1.578-.702-2.336-.983-9.8-3.024-20.113-2.852-30.328-2.676-2.883.047-5.762.093-8.617.074-13.36-.375-26.38 2.324-39.524 3.629-4.199-.164-7.265-5.27-4.937-8.914z"/><path d="M556.722 1044.191a330.633 330.633 0 0 0-49.774-1.873c-15.89.876-31.916-.496-47.734-.276 35.985-11.556 75.184-6.347 111 3.376-4.422-.356-9.01-.847-13.492-1.227zM578.967 1058.704c-26.64-2.591-53.065-9.818-79.855-9.758 26.114-9.652 54.363 3.423 79.855 9.758z"/><path d="M545.919 1055.742c-14.135-2.891-28.353-7.399-42.684-8.197 11.137-3.559 23.17-1.82 34.352.664 16.815 4.386 32.935 11.105 49.078 17.47-13.573-2.93-27.247-6.403-40.746-9.937z"/><path d="M503.235 1056.486c25.39-10.713 54.887-4.86 81.703-4.12-27.011 3.107-54.665 2.906-81.703 4.12z"/><path d="M464.852 1037.113c-23.484-2.504-47.734-5.032-70.668 2.14-3.496 1.067-6.703 2.938-9.832 4.785 4.129-3.715 9.129-6.742 14.484-8.523a93.677 93.677 0 0 1 8.435-2.914c.916-.047 1.832-.096 2.75-.149 4.679-.265 9.35-.238 14.034-.226.055 0 .11 0 .164.004h-.011.039c.035.002.072.004.109.004h-.006.016-.01.042c2.526.07 5.053.134 7.575.199 8.195.308 16.395.59 24.598.805l-.363-.012c3.628.11 7.261.2 10.89.281 9.949.222 19.911.451 29.864.352 11.02 3.216 21.275 8.635 27.706 18.355-16.843-13.39-39.656-11.687-59.816-15.101z"/><path d="M391.58 1067.6c-1.617-.055-3.16-.825-4.246-2.012-6.078.039-12.207.637-18.254-.215-2.133-.3-2.512-3.336-.664-4.293 2.058-1.082 4.402-.914 6.656-1.227-1.21-1.097-2.027-2.488-2.203-4.18-5.313-.359-6.793-8.03-2.39-10.765 11.183-5.453 23.663-7.75 35.53-11.34 1.437-.38 2.875-.758 4.314-1.133 4.581-.248 9.148-.222 13.734-.21l.163.003h-.015a1.936 1.936 0 0 0 .075.002c2.563.074 5.128.136 7.694.205 3.129.117 6.257.23 9.385.337.241 1.688-.178 3.457-1.51 4.886 5.407-.273 8.641 6.613 5.086 10.652 13.75 14.332-27.492 13.676-34.57 15.907 1.867.156 3.883.226 5.672.422-4.445-.38-8.707.53-12.961 1.437-3.583.767-7.166 1.532-10.847 1.532-.216 0-.432-.003-.65-.008z"/><path d="M426.655 1079.256c-7.48-1.53-24.566-1.396-29.047-7.43-1.305-1.68-.272-4.091 1.608-4.736-7.649-.624-15.324-.979-22.968-1.732-3.984-.927-12.377.706-12.37-5.193.924-4.753 13.237-2.323 17.18-2.901 16.883-1.258 33.825.65 49.94 5.87 2.774.75 5.452 1.74 7.922 3.219 4.213 2.532 1.325 8.618-2.93 8.993-6.419.063-12.716-1.338-19.135-1.694 10.578 2.867 21.377 5.186 31.94 7.795-7.386-.64-14.773-1.348-22.14-2.19z"/><path d="M429.95 1091.419c-11.41-.308-22.697-2.265-33.966-3.946-7.097-1.703-23.633-1.222-19.82-12.52.023-14.054 28.521-6.253 36.958-4.703 6.671 2.402 17.872 3.28 22.523 8.524 24.944 3.412 49.523 9.93 74.683 11.497-23.586 1.21-47.33-2.676-70.908-4.182-.992 4.082-5.737 5.362-9.47 5.33z"/><path d="M455.257 1098.466c7.043-2.684 14.126-5.25 21.272-7.617a5.619 5.619 0 0 1-.97-.312c-2.444.12-8.42 1.905-9.866-.348a37.31 37.31 0 0 1-4.752-.406c-3.529-.47-4.699-5.603-1.684-7.52 4.446-2.527 10.095-1.515 15.04-2.241 4.131-2.421 9.573-.789 14.187-1.216 6.219.07 12.424.233 18.636.305 7.644.646 6.485 11.86-1.11 11.216-3.999 3.903-10.497 2.526-15.597 3.694-11.719 1.313-23.531 2.962-35.156 4.445zM497.314 1041.593c-25.422-.735-50.957-.14-76.246 2.297-2.367.387-4.7.937-6.797 2.117 1.734-1.766 3.922-3.113 6.262-4.102 11.327-4.261 23.15-7.14 35.156-8.691l.879.023-.363-.011c3.629.11 7.261.199 10.89.281 10.32.23 20.657.469 30.98.34 1.558-.018 3.115-.045 4.672-.078 25.125 3.774 49.421 13.05 70.204 27.332-23.758-11.368-49.32-18.211-75.637-19.508z"/><path d="M490.034 1034.701c-18.192-1.359-36.36.051-54.102 3.84-3.734 1.117-7.476 2.746-10.375 5.293 3.644-5.325 8.733-8.807 14.484-11.108 5.507.192 11.016.366 16.528.51l-.363-.011c3.629.11 7.261.2 10.89.281 10.32.23 20.657.469 30.98.34 1.427-.017 2.854-.04 4.281-.07 8.12 3.466 15.846 8.259 23.657 13.84-11.652-4.856-23.273-11.614-35.98-12.915z"/><path d="M495.765 1042.648c-10.558-1.242-21.23-.812-31.832-.433-13.8.484-27.77.687-41.226 4.086-3.563 1.004-7.34 2.605-8.969 6.164.305-2.016 1.336-4.031 2.84-5.492 12.104-9.447 27.767-12.537 43.133-13.65 2.462.066 4.925.125 7.386.18 8.395.188 16.798.38 25.199.377 26.998 3.784 52.473 16.078 76.977 27.499-24.262-7.117-48.324-15.516-73.508-18.73z"/><path d="M584.69 1065.99c-27.562-12.79-58.009-18.33-88.247-18.945-2.446.034-4.99.3-7.375.554 30.852-13.385 69.13 1.05 95.621 18.392z"/><path d="M586.722 1070.168c-7.918-6.407-14.78-14.676-24.125-19.012-17.764-5.813-37.12-4.145-55.54-4.886-4.025.143-8.248-.163-12.058 1.352 1.861-1.731 4.497-2.69 6.93-3.482 19.761-5.714 49.625-5.796 67.035 6.177 6.69 5.792 12.152 13.12 17.758 19.851zM332.957 1048.966c.023.035.05.07.074.105-.126-.167-.25-.335-.374-.504l.398-.62c8.917-10.15 18.03-20.141 27.359-29.856 11.812-12.543 24.02-25.367 38.621-34.567-18.431 25.236-41.32 46.579-64.924 66.874a60.338 60.338 0 0 1-1.154-1.432z"/><path d="M332.957 1048.967c.023.035.05.07.074.106a61.477 61.477 0 0 1-.376-.507c.529-.83 1.056-1.661 1.583-2.493 19.137-16.184 38.906-31.54 57.445-48.422-12.704 23.595-35.145 38.576-57.395 52.96a60.427 60.427 0 0 1-1.331-1.644zM324.008 1064.762l.08.056-.512.445.432-.5z"/><path d="m336.031 1052.614.012.012a79.86 79.86 0 0 1-.615-.69c20.975-22.953 43.377-44.671 63.115-68.65-8.902 27.587-36.779 50.118-61.39 70.512-.378-.39-.752-.785-1.122-1.184zM408.728 1086.89c-22.074-.017-50.433-10.281-54.191-34.883a20.722 20.722 0 0 1 .04-4.129c.18.668.389 1.369.571 2.018 2.967 9.168 10.632 15.713 18.15 21.252 14.65 11.259 33.412 12.707 50.88 16.39-5.06-.077-10.327-.386-15.45-.648z"/><path d="M401.952 1076.754c-8.761-1.608-40.395-6.365-34.04-19.972-12.076-7.037-9.611-5.36 1.6-2.053a7.529 7.529 0 0 1 1.592-1.136 8.675 8.675 0 0 1 1.867-.715c-1.95-4.029-3.968-8.205-5.652-12.273 2.407 4.067 4.914 8 7.453 11.968 6.845-.507 29.767 5.966 30.897 13.588 7.217 2.744 2.875 11.506-3.717 10.593z"/><path d="M378.615 1077.928c-7.994-1.579-13.25-8.286-18.945-13.508-2.906-2.063-2.427-7.681 1.854-7.06a4.713 4.713 0 0 1 1.737-1.117c-4.729-5.356-1.746-2.458 1.789-.312 5.918.111 10.193 5.342 15.02 8.229 6.478 2.656 13.108 5.325 19.487 8.037a1371.717 1371.717 0 0 1-13.909-3.551c4.622 5.536-.746 11.038-7.033 9.282z"/><path d="M381.534 1070.583c-7.745-2.651-14.081-8.459-20.476-13.41-2.686-2.442-7.044-4.687-6.356-8.934.842-6.33 8.695-3.652 12.426-1.582 11.563 5.125 21.766 13.55 34.559 15.035-2.776-.078-5.737-.303-8.575-.432 2.764 4.016-2.92 6.282-6.213 5.151.51 3.017-2.742 4.693-5.365 4.172zM409.81 1057.592c18.519-23.177 71.532-28.14 97.157-15.452 3.408 1.56 6.957 3.202 10.074 5.152-2.592-1.036-5.25-1.862-7.91-2.695-18.359-6.71-38.009-3.916-56.754-.567-14.411 3.202-30.033 5.428-42.567 13.562z"/><path d="M541.213 1041.746c-6.019-3.535-20.593-2.586-33.019-1.636-5.996.46-11.488.918-15.285.875-19.742 1.843-39.918.738-59.364 4.906-1.804.465-3.414 1.304-5.011 2.05 10.664-9.745 26.168-11.343 39.875-13.6 1.59-.239 3.925-.465 6.796-.661 7.623.154 15.25.259 22.872.164 5-.059 10.004-.203 15.004-.383.627-.023 1.253-.042 1.88-.06 26.935 1.344 47.664 6.403 8.006 19.9 6.16-3.559 13.23-6.621 18.246-11.555z"/><path d="M567.064 1052.933c-20.938-8.622-43.422-10.335-65.765-8.807-11.654 1.328-23.995-1.341-34.818 2.283 1.004.642 2.434.593 3.486.988-2.395.479-7.198.443-4.086-2.985 3.667-2.746 8.47-3.484 12.824-4.628 29.768-5.232 62.227-3.015 88.36 13.15z"/><path d="M482.439 1050.21c16.029-11.678 67.888-9.832 85.48-.822-15.744-4.353-32.14-2.493-48.242-1.708-12.577 1.538-25.17-.819-37.238 2.53z"/><path d="M541.063 1056.126c-9.387-.852-19.438-.137-28.293-3.665-1.219.332-2.52.805-3.664 1.157.906-.57 1.84-1.102 2.785-1.598-5.945-3.527-2.824-11.445 3.145-12.805 1.164-3.93 6.144-5.386 11.976-5.914h.785c2.03.063 4.065.16 6.09.352 2.576.772 5.133 1.614 7.711 2.383h.004c.008 0 0-.02-.004-.02a334.263 334.263 0 0 0-3.168-1.74l.316.06c1.645.32 3.297.606 4.938.942 3.54.723 7.082 1.422 10.633 2.101.008 0 0-.02-.004-.02a607.735 607.735 0 0 0-11.313-4.331c1.461-.031 2.758-.106 3.809-.262 8.973-.176 17.945-.312 26.918-.207 4.652-.644 9.8 2.168 9.937 7.246 8.086.059 16.938 7.723 6.422 12.828-4.613 1.176-9.43 1.157-14.215 1.137-1.84-.008-3.68-.016-5.496.047-6.714 2.023-13.765 2.43-20.789 2.43-2.855 0-5.703-.067-8.523-.121z"/><path d="M497.196 1062.127c2.332-.628 4.647-1.31 6.97-1.957 4.246-1.306 8.5-2.583 12.757-3.848-14.751.114-28.734 1.047-43.355.078-7.351-.32-8.068-10.737-1.785-13.413-.22-2.386 1.69-4.695 4.109-4.833 11.633-.652 23.286.07 34.93-.113 13.23.014 26.476.084 39.707.445 4.642.486 10.888-1.392 13.857 3.279 5.09.678 10.354 1.301 15.353 2.073-4.878-.147-9.76-.288-14.64-.417 1.758 11.002-12.526 7.514-19.224 8.261 1.797 8.08-12.135 5.916-17.034 7.308-10.516 1.12-21.143 2.613-31.645 3.137z"/><path d="M456.903 1055.886c20.086-24.301 80.388-18.165 109.79-17.17.015 0 .015.023 0 .023-23.605 2.266-47.26 4.11-70.747 7.409-13.03 2.584-27.782 1.95-39.043 9.738zM554.286 1066.04c14.395-4.521 28.739-9.19 43.262-13.283-11.187-.717-22.48 1.367-33.64-.014-2.149-.282-2.934-2.985-1.665-4.568 3.355-3.965 19.502-2.84 25.239-3.55 9.271.306 19.318-1.24 28.12 2.016 2.979 1.82 4.92 6.337 1.5 8.754-5.39 4.028-12.526 4.428-18.882 6.074-14.43 2.86-29.276 4.454-43.934 4.57z"/><path d="M557.702 1057.248c2.226-1.76 4.673-3.057 7.214-4.197-2.86-.578-3.272-4.877-.433-5.804 8.937-2.343 18.218-3.37 27.324-4.937 9.255-1.443 18.622-2.077 27.863-3.593 5.784-1.201 7.834 7.234 2.493 9.3-21.005 5.376-43.686 3.294-64.461 9.23zM552.331 1076.786c25.445-15.386 55.17-21.226 83.93-27.195-27.584 9.835-55.102 21.445-83.93 27.195z"/><path d="M575.802 1071.155c4.13-1.832 8.336-3.508 12.574-5.102-3.308-1.37-2.671-5.883.313-7.3 2.914-1.657 6.41-1.895 9.59-2.887 9.312-1.688 27.273-8.285 35.687-5.02 4.309-.82 8.067-1.59 11.063-2.207.129.09.258.176.387.266.335.234.68.46 1.023.684-2.48.847-5.742 1.949-9.883 3.343 1.42 2.485 1.134 4.475-.19 6.1-.359.127-.718.259-1.075.396-3.137 1.207-6.243 2.512-9.344 3.817-1.57.66-3.106 1.41-4.629 2.183-2.907.702-5.502 1.29-7.043 1.903-17.344 4.336-35.129 7.28-52.66 10.433a422.952 422.952 0 0 1 14.187-6.61zM639.628 1044.848l.935.664c-22.63 4.29-45.154 10.215-67.72 14.664 20.03-12.188 43.775-14.38 66.785-15.328z"/><path d="M644.016 1047.936c.465.323.93.646 1.396.967.5.345 1.01.678 1.527 1.004-19.473 3.424-39 7.286-58.464 10.27 16.904-9.418 36.329-11.547 55.541-12.24zM650.43 1055.223c-.412.07-.824.143-1.235.216-.988.171-1.965.484-2.934.738-1.77.465-3.535.941-5.293 1.437-.74.21-1.476.421-2.206.641-16.756 3.528-33.668 6.488-50.286 10.227 18.243-11.788 40.957-11.66 61.953-13.26z"/><path d="M631.18 1061.062c-1.75.716-3.493 1.448-5.235 2.181-1.961.824-3.867 1.79-5.762 2.762-.344.177-.688.356-1.03.536-10.064 1.687-20.212 2.946-30.192 4.386 12.958-7.07 27.618-8.45 42.22-9.865z"/><path d="M633.621 1060.078c-2.571 1.02-5.125 2.092-7.676 3.165-1.961.825-3.867 1.79-5.762 2.762l-.579.3c-6.61.939-13.242 1.569-19.89 1.688 10.906-4.315 22.33-6.558 33.907-7.915z"/><path d="M644.006 1056.777a270.06 270.06 0 0 0-3.038.837c-1.9.54-3.763 1.08-5.607 1.785-11.774 2.555-23.742 4.542-35.65 5.66 13.614-6.717 29.311-7.06 44.295-8.282z"/><path d="M610.874 1061.66c11.592-3.985 26.602-5.576 40.858-6.873l.178.182c-.906.152-1.811.308-2.716.468-.988.172-1.965.485-2.933.739-1.77.465-3.536.941-5.293 1.437-1.926.547-3.813 1.094-5.68 1.813-1.121.433-2.242.879-3.36 1.332-5.05.68-10.128 1.086-15.234 1.086-1.937 0-3.875-.059-5.82-.184zM533.36 1017.56c-2.122-.317-4.176-.832-6.035-1.914-2.991-1.785-2.418-6.551 1.019-7.418.226-11.24 29.975-6.146 30.995 2.272 3.781.84 7.467 2.407 11.31 2.81-3.726.308-7.693-.855-11.492-1.084-1.931 7.898-19.467 5.933-25.798 5.334z"/><path d="M613.715 1030.313c-7.154-3.281-14.28-6.62-21.391-9.993-5.54 4.117-11.337-2.22-16.146-4.728-3.634 3.11-14.253-4.946-18.228-6.794-4.046-2.59-8.343-4.775-12.399-7.348-3.886-2.58-8.354-4.916-11.164-8.668 2.994 2.286 6.634 3.362 10.052 4.665-1.407-3.578.93-7.163 4.53-8.08 7.555-1.674 17.588 6.9 24.212 10.364 4.627 3.716 22.59 11.78 20.675 17.998 6.597 4.184 13.358 8.38 19.86 12.584z"/><path d="M643.676 1052.784c-19.205-9.795-40.565-18.469-54.344-35.68 18.602 11.085 36.736 23.192 54.344 35.68z"/><path d="M642.641 1053.8c-.71-.44-1.418-.886-2.117-1.343-2.316.547-4.668-.774-6.836-1.707-3.203-1.406-6.367-2.93-9.508-4.48-4.109-1.895-11.78-5.653-7.484-10.989-4.027-3.273-8.164-6.683-11.625-10.45 5.285 2.97 10.812 5.446 16.21 8.185 1.458-.43 2.84.015 4.188.804.211.176.422.356.633.535 1.38 1.164 2.758 2.329 4.14 3.489.548.46 1.079.96 1.657 1.386a491.037 491.037 0 0 0 13.516 9.672c.574.397 1.161.777 1.755 1.149 1.348 1.412 2.7 2.818 4.061 4.218-.309.408-.694.75-1.129 1.012-.305.051-.605.106-.906.156a19.57 19.57 0 0 0-1.688.399c-1.832-.164-3.3-1.07-4.867-2.035z"/><path d="M607.647 1024.262c5.956 2.987 11.825 6.15 17.644 9.409l.809.685c1.379 1.164 2.758 2.328 4.14 3.488.547.461 1.079.961 1.657 1.387a497.383 497.383 0 0 0 12.186 8.751c-13.501-5.845-26.495-12.91-36.436-23.72zM608.5 1031.7c13.822 5.454 26.702 13.09 39.983 19.722.858.894 1.718 1.787 2.581 2.676-15.469-4.736-30.54-11.525-42.563-22.399z"/><path d="M612.796 1033.703c12.048 8.214 24.869 15.538 38.507 20.643l.607.623a197 197 0 0 0-.63.105c-14.66-2.996-29.715-8.824-38.484-21.371zM628.16 1054.606c-1.89-.953-11.652-7.961-5.055-4.532 7.23 2.512 14.624 4.58 22.077 6.387a286.01 286.01 0 0 0-4.214 1.152c-1.925.547-3.812 1.094-5.68 1.813l-.265.103c-4.21-.947-9.01-2.296-6.863-4.923zM590.192 1065.362c-36.063-18.41-70.134-40.404-103.808-62.786 39.73 10.433 70.772 39.94 103.808 62.786z"/><path d="M581.799 1056.96c-28.86-19.15-65.714-39.435-81.28-71.504 25.85 25.103 54.453 47.54 81.28 71.504z"/><path d="M574.297 1045.134c-19.568-9.56-40.264-18.84-55.32-34.977 19.548 9.735 37.354 22.768 55.32 34.977zM577.216 1043.841c-15.242-9.217-31.083-18.329-43.05-31.762 15.814 8.218 29.416 20.47 43.05 31.762z"/><path d="M571.487 1043.55c-14.53-9.087-31.187-17.47-40.562-32.305 13.847 10.303 27.49 21.107 40.562 32.305z"/><path d="M569.4 1041.483c-11.55-7.82-24.959-15.637-31.14-28.606 10.294 9.696 20.885 19.035 31.14 28.606z"/><path d="M572.426 1047.96c-9.656-7.712-21.207-15.275-25.75-27.21 8.409 9.19 17.357 18.081 25.75 27.21zM573.881 1076.714c-14.293-14.058-27.39-29.485-41.959-43.197-15.787-13.355-32.38-25.533-48.405-38.545-.083-.092-.307-.165-.324-.261 44.887 16.224 64.43 45.037 90.688 82.003z"/><path d="M555.957 1055.013c-24.37-20.043-47.51-41.88-65.207-68.183 13.676 9.446 24.895 22.036 35.692 34.625 9.851 11.146 19.882 22.31 29.515 33.558zM364.752 1045.684c21.156-13.618 60.144-8.103 84.278-5.09.012 0 .012.024-.004.025-21.443.418-42.85 1.07-64.227 2.874-6.696.562-13.788-.15-20.047 2.19z"/><path d="M419.836 1040.803c-16.108-.957-32.396-.425-48.484.043-.21.009-.407.119-.559.067 3.59-1.961 7.559-2.777 11.54-3.496 17.337-2.9 35.112-.156 51.87 4.613-4.694-.406-9.593-.975-14.367-1.227z"/><path d="M409.836 1039.806c-11.895-.845-23.826-1.432-35.743-1.635-.99 0-2.057.145-2.98.201 4.508-2.184 9.58-2.756 14.52-3.125 12.195-.126 24.259 2.589 36.109 5.223-3.876-.125-7.963-.435-11.906-.664z"/><path d="M341.692 1047.612c20.97-9.27 44.177-8.503 66.62-9.352 4.594-.389 9.222-1.06 13.832-.715 3.83.172 4.697 5.712 1.063 7.012-1.332.552-2.734.604-4.138.624-25.77 1.01-52.129-3.976-77.377 2.431z"/><path d="M348.689 1049.012c5.72-3.345 11.372-6.856 17.508-9.4 14.657-4.843 32.184-3.706 45.293 4.798-3.622-.803-7.389-1.616-11.14-2.051-23.127-2.458-30.163-2.573-51.661 6.653z"/><path d="M350.047 1051.814c8.028-5.532 15.748-12.363 25.586-14.255 12.764-1.93 28.598-1.475 38.082 8.442a25.793 25.793 0 0 0-6.608-2.64c-10.398-1.892-21.163-3.046-31.707-2.019-9.216 1.258-17.103 6.8-25.353 10.472z"/><path d="M357.114 1048.179c5.106-4.022 9.976-8.667 16.184-10.922 12.033-4.047 25.475-2.588 37.234 1.75-2.477-.023-5.134-.095-7.672-.07-20.6-.237-27.428-2.565-45.746 9.242z"/><path d="M351.876 1048.382c4.808-4.542 9.324-9.688 15.38-12.587 12.351-5.402 27.747-5.064 39.51 1.692 2.387 1.445 4.408 3.459 5.981 5.672-1.72-1.183-3.507-2.23-5.459-2.99-12.02-3.637-25.033-5.313-37.272-2.297-6.828 1.874-12.398 6.721-18.14 10.51z"/><path d="M354.743 1048.506c7.165-4.864 13.891-11.146 22.55-13.094 12.02-1.8 25.473-1.554 36.419 4.232-.993-.12-2.117-.38-3.172-.482-11.109-.325-22.35-1.2-33.434-.325-8.093 1.436-15.004 6.476-22.363 9.67zM556.295 1042.39c-24.886-14.196-48.522-31.438-75.642-41.185 24.532-2.715 54.777 24.179 75.642 41.185z"/><path d="M548.303 1043.302c-14.31-7.839-28.37-16.008-42.816-23.563-9.604-4.763-19.041-10.476-29.699-12.454 25.057-3.471 53.379 21.76 72.515 36.017z"/><path d="M513.173 1026.225a10.338 10.338 0 0 0-2.025-1.527 6.061 6.061 0 0 0-.957-.433c-9.554-6.309-19.004-12.778-28.406-19.313 24.5 6.313 43.265 25.278 62.507 40.656-10.547-6.187-20.897-12.687-31.12-19.383z"/><path d="M550.737 1042.089c-26.39-16.58-52.225-34.432-80.949-46.798 32.539 2.156 57.358 26.795 80.95 46.798z"/><path d="M552.827 1039.428c-18.256-9.192-35.344-19.315-53.395-28.473-11.146-5.134-22.179-11.743-34.636-12.332 29.052-7.693 65.026 25.27 88.03 40.805z"/><path d="M568.286 1048.766c-31.294-16.451-61.886-39.35-98.756-39.102-1.26.032-2.497.098-3.732.29 2.167-1.173 4.73-1.81 7.172-2.38 37.263-8.696 67.584 21.124 95.316 41.192z"/><path d="M568.517 1047.225c-27.694-14.034-54.418-30.095-83.402-41.27 32.196.841 58.27 23.65 83.402 41.27z"/><path d="M556.992 1046.935c-17.734-12.031-36.571-22.353-53.887-34.985 20.954 5.896 38.164 20.54 53.887 34.985zM466.45 1052.009c-6.709-4.718 15.587-9.866 18.64-10.574 16.191-3.468 32.82-4.216 49.336-3.969.016 0 .02.023.004.024-21.327 3.08-42.432 7.322-63.352 12.433 1.776.22 3.671.397 5.384.68-3.294.494-6.691 1.69-10.013 1.406z"/><path d="M423.471 1054.576c30.086-20.625 68.264-19.697 103.262-18.848.016.004.016.024 0 .028-34.81 3.94-69.49 9.633-103.262 18.82z"/><path d="M432.468 1041.585c19.099-15.792 75.562-10.77 99.652-6.725-3.259.06-6.7.027-9.992.075-17.358.155-34.686 1.163-51.973 2.694-12.454 1.535-25.856-.589-37.687 3.957z"/><path d="M418.808 1042.584c25.957-17.394 75.717-11.458 105.723-7.636.016 0 .012.023 0 .023-24.206.459-48.345 1.246-72.445 3.57-11.023 1.34-22.74.518-33.278 4.043z"/><path d="M413.812 1038.917c28.13-14.014 64.071-8.386 94.05-3.746.016.004.012.024-.003.024-20.22.017-40.46-.573-60.621 1.335-11.066 1.187-22.584.232-33.426 2.387zM567.827 1046.767c-21.677-9.53-42.808-20.197-63.734-31.262-12.196-5.888-23.785-13.372-36.738-17.512 18.227.026 35.442 8.478 50.863 17.59 16.714 10.06 33.401 20.442 49.61 31.184z"/><path d="M572.787 1041.69c-35.467-12.148-71.573-24.181-104.57-42.013 37.543 6.095 71.067 25.164 104.57 42.012z"/><path d="M560.475 1040.682c-32.466-10.34-65.717-22.569-92.254-44.422 32.167 11.713 61.517 29.727 92.254 44.422z"/><path d="M521.523 1028.74c-3.282-1.253-6.571-2.487-9.862-3.724a9.918 9.918 0 0 0-.513-.315c-.73-.418-1.558-.64-2.363-.844a5.998 5.998 0 0 0-.459-.097c-12.139-4.579-24.235-9.279-35.85-15.09 35.446 3.414 67.043 21.648 97.32 39.039-16.245-6.07-32.152-12.637-48.273-18.969z"/><path d="M577.96 1049.777c-36.948-11.388-73.508-26.265-105.91-47.516 10.305 3.442 21.123 5.974 31.183 10.35 25.338 11.408 49.576 25.47 74.726 37.166z"/><path d="M574.584 1045.124c-22.94-8.734-45.951-19.613-63.663-36.907 22.434 9.988 42.32 25.063 63.663 36.907z"/><path d="M580.416 1058.846c-25.523-10.496-52.579-25.112-66.078-50.2 20.64 18.401 42.318 36.055 66.078 50.2z"/><path d="M596.105 1060.517c-25.597-8.509-56.392-17.413-69.808-42.902 20.255 18.512 45.615 30.569 69.808 42.902zM513.909 1006.59c-7.692-2.077-13.72-16.29-17.621-23.016 3.363 4.352 6.818 8.906 10 13.48 2.412 3.22 4.38 7.147 7.62 9.536z"/><path d="m534.554 1041.869-.317-.497c-.602-.859-1.226-1.706-1.85-2.554-1.254 0-2.17-1.17-2.775-1.966-1.66-2.043-3.189-4.194-4.718-6.335-1.994-3.246-4.91-6.428-5.191-10.367-.047-2.582 2.707-4.066 4.81-2.504 5.928 6.343 10.82 14.003 15.139 21.54 1.25 3.029-3.303 5.432-5.098 2.683zM403.11 1051.415c-4.025.276-9.304-.358-10.508-4.96-3.53-.082-7.566-1.372-8.44-5.237-3.353.138-6.841.374-10.13.459 3.317-.516 6.634-1.033 9.953-1.537.138-3.427 1.757-8.215 5.79-8.45l-.001-.03c16.456-.339 31.57-.644 47.773-.496 4.368.345 8.939-.233 13.215.575 1.648.624 3.053 1.368 4.027 2.899 1.537.85 2.541 2.472 2.889 4.197 4.999.5 15.368-1.788 18.517 2.372 3.093 4.653-1.51 9.657-6.513 9.079-22.153 1.495-44.38 1.153-66.572 1.129zM336.475 1053.088a73.717 73.717 0 0 1-.432-.463 67.294 67.294 0 0 1-3.086-3.66l.074.106a68.473 68.473 0 0 1-.233-.313c17.052 8.98 31.34 22.427 45.386 35.336-14.362-9.747-29.312-18.943-41.71-31.006zM374.942 1075.992c-12.674-8.662-24.995-18.207-36.066-28.738 14.37 5.896 24.949 18.425 36.066 28.738z"/><path d="M379.277 1076.156c-2.27-1.222-4.539-2.445-6.738-3.648-1.175-.638-2.35-1.277-3.523-1.917-4.116 2.86-19.013-6.565-20.619-10.611-1.541-.826-3.092-1.642-4.588-2.55-2.931-1.726-2.872-6.375.078-8.04a30.746 30.746 0 0 0-2.11-1.144c.966.1 2.101.434 3.097.69 4.873-1.058 26.177 10.283 29.548 14.494 2.584 2.66-.177 7.32-3.733 6.305 2.835 2.131 5.85 4.284 8.588 6.421zM606.665 1025.309c3.988 3.64 8.832 6.105 13.37 8.972 10.558 6.864 20.834 14.344 31.752 20.56l.616.632.115.118c-14.547-5.463-38.827-17.432-45.853-30.282z"/><path d="M650.58 1054.525c-12.37-7.916-25.067-15.875-35.828-25.847 13.851 5.588 24.817 16.18 35.828 25.847z"/><path d="M647.17 1052.262c-16.688-6.54-33.61-15.95-44.028-30.942-.488-.742-1.11-1.527-1.492-2.254 1.785 1.91 3.644 3.743 5.5 5.59 10.156 9.024 22.703 14.375 34.21 21.242 1.692.997 3.313 2.131 4.945 3.249a744.515 744.515 0 0 0 3.88 4.046 28.167 28.167 0 0 1-3.016-.931z"/><path d="M613.167 1027.129c11.504 1.754 20.508 9.707 28.457 17.726a751.61 751.61 0 0 0 4.361 3.954 679.103 679.103 0 0 0 7.31 7.582c-13.993-8.91-25.88-20.745-40.128-29.262zM563.632 1081.51c-.934-2.562-.012-5.484 2.195-7.074.127-.091.254-.18.382-.27 1.19-3.762 10.081-5.467 13.537-7.588 1.588-4.698 7.006-5.424 11.038-7.056 4.348-1.574 7.198-2.396 11.21-3.525-.53-8.225 10.37-9.955 16.58-10.885 2.591-.39 11.852-2.205 8.536 3.002 2.394-.1 4.929-.302 7.252-.358-7.938 1.986-20.147 1.152-26.125 6.703.004 0 .007-.002.011-.003l.122-.13-.09.12c3.877-1.407 9.024-.888 10.547 3.537.953 2.613.086 5.977-2.332 7.524-4.677 2.54-9.773 4.97-14.582 7.183-6.802 2.89-13.394 6.19-20.313 8.734-5.469 2.11-14.516 7.916-17.968.087z"/><path d="m648.097 1051.022.507.528c-13.347 4.086-27.284 6.853-40.71 10.47 11.575-8.463 26.387-9.034 40.203-10.998z"/><path d="m649.153 1052.121.985 1.022c-8.193 1.997-16.612 3.55-24.893 4.54 7.341-3.953 15.66-4.828 23.908-5.562z"/><path d="M636.07 1055.723c-.974-3.993 5.347-3.368 7.776-4.317 1.32-.244 2.644-.469 3.97-.678a623.788 623.788 0 0 0 5.356 5.536c-7.14 1.241-14.63.694-21.767 1.193a41.264 41.264 0 0 1 4.664-1.735zM954.608 1706.243c29.035-31.336 61.527-60.71 94.085-88.11 47.555-39.152 96.45-77.058 150.254-107.304 32.865-17.932 67.298-33.276 102.7-45.822.679.706 1.515 1.246 2.449 1.38 2.215.325 4.441.56 6.672.731 1.187.313 2.375.629 3.558.95 3.29.894 6.543 1.925 9.793 2.944 3.578 1.122 7.11 2.337 10.657 3.547 1.699.582 3.414 1.106 5.12 1.657l.533.17c-95.991 57.513-194.076 111.747-284.595 177.779-65.808 43.945-124.133 97.336-179.953 153.07 25.285-34.37 50.5-68.965 78.727-100.992zM1372.962 1455.497a103.957 103.957 0 0 0-3.375-3.055 57.377 57.377 0 0 0-3.434-2.742c-.105-.13-.21-.254-.316-.383a96.393 96.393 0 0 0-2.631-3.043 701.33 701.33 0 0 1 20.45-4.898c1.876-.329 3.759-.614 5.645-.864a220.666 220.666 0 0 0 1.708 3.477c.316.914.644 1.824.984 2.73-6.19 2.928-12.222 6.178-18.166 9.595-.288-.273-.576-.546-.865-.817zM1362.747 1447.36c-.355-.263-.723-.522-1.142-.675l1.055-.271c.406.56.813 1.12 1.22 1.684-.376-.25-.75-.496-1.133-.738zM1359.678 1447.185l.335-.088a.904.904 0 0 0-.075.267l-.26-.18z"/><path d="M1030.257 1648.476c89.559-69.137 192.414-118.336 293.207-168.703 3.672-1.766 7.353-3.537 11.037-5.305.092.03.184.062.275.094 1.7.582 3.415 1.105 5.122 1.656.427.137.853.273 1.279.406-76.861 55.476-155.73 108.077-232.885 163.106-69.086 50.566-135.894 104.484-206.922 152.34 37.48-52.715 78.739-103.56 128.887-143.594z"/><path d="M1189.917 1546.763c40.38-28.728 81.44-57.15 126.406-78.136 2.612.753 5.206 1.573 7.797 2.386 3.578 1.12 7.11 2.335 10.656 3.546 1.7.582 3.414 1.106 5.121 1.657 1.024.328 2.04.652 3.07.941.919.254 1.848.524 2.79.676.401.063.798.104 1.195.129-8.864 7.164-17.77 14.26-27.121 20.656-91.008 64.68-189.973 117.918-289.961 167.133a4827.032 4827.032 0 0 1 160.047-118.988zM1350.034 1474.2a8.091 8.091 0 0 0-.762-1.66l.947.082c.468.168.937.335 1.405.504.297.11.594.222.894.332l-2.27 1.837a5.234 5.234 0 0 0-.214-1.095zM1372.963 1455.497a103.957 103.957 0 0 0-3.375-3.055 58.648 58.648 0 0 0-3.434-2.742c-.105-.13-.21-.254-.316-.383a92.283 92.283 0 0 0-.656-.783c8.174-2.782 16.499-5.018 25.03-6.147.263.535.528 1.07.794 1.602.152.437.308.875.465 1.308-5.962 3.473-11.697 7.303-17.293 11.35-.404-.385-.809-.768-1.215-1.15z"/><path d="M1171.436 1561.574c49.757-41.085 108.047-73.15 171.716-84.367.858.238 1.726.483 2.605.625.816.132 1.613.164 2.43.164.144 0 .288 0 .437-.004 1.154-.014 1.572-.942 1.636-1.947 2.39-.36 4.783-.69 7.188-.99a8.58 8.58 0 0 0 1.84.214c.242 0 .488-.011.734-.039.543-.062.93-.293 1.192-.62 1.77-.196 3.546-.376 5.328-.54.457.145.918.29 1.379.43-137.504 76.57-257.676 180.37-389.813 265.36 62.063-61.919 125.09-123.145 193.328-178.286z"/></g><clipPath id="b"><path transform="translate(-591.212 -338.143)" d="M649.08 165.785h2289.5V2690.92H649.08z"/></clipPath><g clip-path="url(#b)"><path d="M646.097 631.089c7.132-13.983 13.963-28.47 23.958-40.676 14.13-15.26 31.5-30.16 52.766-33.16 31.215-2.54 67.262-4.001 92.332 17.887 13.103 10.689 19.762 26.542 27.511 41.121-9.94-13.061-18.64-28.132-33.199-36.734-13.194-8.659-29.156-11.568-44.63-11.125-15.449.646-31.213.292-46.246 4.338-15.08 5.506-27.888 15.882-40.667 25.36-11.465 10.076-21.1 22.225-31.825 32.989zM292.995 660.025c4.376-12.398 8.865-25.086 17.3-35.387 11.134-12.809 26.409-23.152 42.938-27.386 22.971-3.145 47.88-.917 68.038 11.309 12.205 6.7 21.896 18.702 23.195 32.793-6.296-14.461-20.29-22.269-34.741-26.626-19.735-5.807-48.154-11.666-67.543-3.22-25.101 10.087-37.21 25.038-49.188 48.517zM528.302 379.923c-1.269-5.919 2.33-10.88 6.254-14.91-3.286 4.347-5.84 9.416-6.254 14.91z"/><path d="M390.145 747.842c-.092-.159-.189-.319-.288-.478 2.981-5.466 6.51-11.464 10.546-18.291 27.007-46.723 68.355-93.2 65.972-150.18-.617-10.336-3.77-19.851-8.375-28.992 7.793 10.02 12.133 22.266 13.63 34.871 1.687 52.805-37.805 99.781-63.614 143.09-5.101 8.48-11.041 17.022-16.07 25.94-.25-2.09-.738-4.125-1.801-5.96zM596.243 862.985c-2.508-23.295-1.779-49.035-17.945-67.82 21.697 15.21 18.212 44.58 17.945 67.82zM557.291 873.442c-3.33-13.247-25.218-29.356-38.051-32.752-11.038-2.141-27.632-5.383-36.715 2.647-.858 3.55.206 7.402.836 10.934-1.145-3.379-2.443-7.31-2.121-10.962 4.82-8.53 20.551-8.396 29.281-7.944 13.334.281 25.724 6.59 34.918 16 6.288 5.724 11.456 13.417 11.852 22.077zM448.812 871.987c-9.535-5.17-19.128-10.29-28.215-16.231-4.704-2.733-9.175-7.068-14.726-7.707l.002.028c-2.279-.612-.361 20.48-.424 23-5.104-17.207-9.454-37.974 14.636-19.473 9.38 7.025 19.293 13.545 28.727 20.383zM747.76 561.768c3.633-8.025 3.091-17.33 4.023-25.844.24 8.534 2.025 18.93-4.024 25.844zM760.52 566.12c8.09-9.682 8.863-23.538 8.867-35.535 1.68 11.867 2.245 28.113-8.867 35.535zM774.217 565.519c7.977-.588 9.244-10.666 11.254-16.833.682-2.258 1.33-4.687 2.047-6.859-1.837 7.808-1.643 25.285-13.3 23.692zM786.662 568.005c8.468.348 11.996-7.978 14.747-14.64.873-1.84 1.726-3.853 2.597-5.613a163.58 163.58 0 0 1-1.762 5.581c-2 7.289-6.181 17.537-15.582 14.672zM808.979 574.818c-2.388-.343-4.727-1.316-6.754-2.482 6.697 1.942 13.177 1.822 17.734-4.08 1.428-1.512 2.816-3.25 4.09-4.794-3.214 5.447-7.782 12.54-15.07 11.356zM823.317 585.38c-1.651-.12-3.437-.606-4.914-1.22 5.927.785 11.641-.268 17.308-1.913-3.842 1.578-8.106 3.326-12.394 3.133zM803.774 567.672c3.866-1.334 7.16-4.143 10.641-6.082-3.177 2.43-6.441 5.994-10.64 6.082zM819.954 577.317a59.917 59.917 0 0 0 2.054-.848l-.022.008c2.62-1.158 5.367-2.373 7.984-3.363-3.146 1.69-6.421 3.965-10.016 4.203zM832.163 592.173c-3.361.01-6.939-.243-10.024-1.477 6.23.251 12.593.672 18.738 1.262-2.936.163-5.797.244-8.714.215zM722.615 568.09c5.236-7.546 7.677-16.506 10.485-25.054-1.72 8.858-3.043 19.089-10.485 25.055zM738.968 565.43c4.405-5.78 5.12-13.586 7.485-20.215-1.454 6.822-1.287 15.855-7.485 20.214zM716.145 568.855c2.646-11.51 2.649-23.303 2.387-34.937 1.666 11.526 3.58 24.366-2.387 34.937zM705.503 573.05c-4.683-7.415-7.354-15.865-10.527-23.988 4.088 7.593 8.257 15.612 10.527 23.989zM691.058 576.857c-9.681-2.673-13.964-12.17-17.136-20.84 4.146 8.06 9.237 16.016 17.136 20.84z"/><path d="M702.676 569.778c-9.442-2.811-11.99-13.645-14.801-21.906 3.825 7.706 7.055 16.946 15.017 21.408.588.32 1.318.485 1.858.733-.68-.02-1.414-.047-2.074-.235zM680.158 586.336c-8.113-1.806-9.607-12.11-12.422-18.7 3.692 6.095 5.672 14.854 12.536 18.242.54.17 1.106.333 1.664.461-.505.09-1.204.022-1.778-.003zM668.99 601.097c-8.653-2.397-14.51-9.806-20.011-16.434 3.89 3.556 7.798 7.415 12.1 10.58 4.112 2.806 8.562 5.103 13.255 6.69-1.738-.032-3.612-.388-5.344-.836zM669.377 592.067c-6.189-4.022-7.3-12.177-8.921-18.742 2.451 6.44 4.515 13.414 8.921 18.742zM279.51 649.918c-4.165-.523-8.171-2.569-11.62-4.743 4.196 1.726 8.649 3.586 13.226 3.407 5.887-.458 12.017-.697 17.75-1.793-5.85 3.09-12.856 3.476-19.355 3.129zM286.462 638.27c-3.74-.785-7.046-3.392-9.824-5.798 6.408 4.437 10.878 5.569 18.486 3.796 1.896-.263 3.82-.58 5.627-.795-4.47 1.908-9.384 3.41-14.289 2.797zM285.006 641.107c-7.809-.305-14.955-3.604-20.934-8.519.338.106.75.423 1.11.594 3.547 1.877 7.164 3.943 11.058 4.937 3.629.862 21.698 4.146 8.766 2.988zM288.483 627.536c-3.769-.948-7.52-2.635-10.863-4.478 8.15 3.626 16.852 3.705 25.55 4.31-4.746.89-9.867 1.214-14.687.168zM301.723 620.256c-12.551-.841-19.927-12.92-24.898-23.05 4.308 6.044 8.497 12.502 14.52 16.865 4.26 3.014 9.049 5.329 14.253 6.025-1.205.172-2.603.178-3.875.16zM308.944 611.586c-7.46-2.333-13.541-7.589-19.082-12.91 3.804 2.66 7.847 5.641 11.918 7.917 4.852 2.57 10.014 4.557 15.133 6.497-2.62-.145-5.394-.725-7.97-1.504zM324.717 608.803c-12.951-3.068-16.804-13.99-19.214-25.742 4.316 12.122 7.635 19.15 19.214 25.742zM327.41 602.065c-6.263-4.28-10.026-11.252-13.183-17.863 4.004 6.222 8.633 12.136 13.183 17.863zM339.263 601.26c-9.05-4.614-11.272-15.494-13.53-24.438 3.382 8.701 6.685 17.922 13.53 24.438zM355.699 599.913c-8.483-3.698-11.658-12.968-14.824-20.953 4.09 7.516 8.212 15.38 14.824 20.953zM366.746 602.591c-6.113-3.866-14.451-9.725-11.996-18.05-.112 7.852 6.582 13.385 11.996 18.05zM386.172 600.065c-4.98-4.858-12.967-12.287-7.714-19.566-2.852 7.479 3.593 14.054 7.714 19.566zM377.115 596.734c-3.696-6.052-7.93-12.947-6.445-20.273.695 7.18 3.568 13.855 6.445 20.273zM371.479 599.118c-2.979-6.28-8.177-13.826-4.336-20.773-1.561 7.114 2.198 14.187 4.336 20.773zM400.74 608c-5.358-7.424-12.899-18.966-5.288-27.219-4.638 9.152 1.155 19.112 5.289 27.219zM385.86 596.963c-1.388-5.165-4.507-11.544-1.184-16.453-1.602 5.394.562 11.117 1.183 16.453zM329.074 669.578c-13.892-1.282-29.885-5.214-38.5-16.957 22.21 14.089 57.843 8.155 83.102 6.913 14.553-.86 29.271-.686 43.77-.414-13.52 2.012-27.166 3.586-40.664 5.686-15.805 2.226-31.663 5.923-47.708 4.772zM678.66 637.413c-11.719-1.34-24.045-1.973-34.867-6.879 14.312 1.644 28.722-1.108 43.043-1.691 13.345-1.158 26.728-1.307 40.112-1.328 16.536.3 32.72-2.76 48.818-6.204 9.34-1.784 18.96-2.5 28.328-3.846 9.041-1.269 17.436-4.989 25.914-8.181 3.794-1.406 7.656-2.971 11.395-4.324-9.077 4.973-18.006 10.241-27.426 14.547-8.377 3.595-17.477 4.937-26.297 7.035-14.797 3.277-29.043 8.87-44.168 10.613-21.508 2.265-43.31 2.068-64.852.258zM387.437 981.356c10.164-18.12 30.758-18.988 49.121-15.726 7.266.742 14.63 3.968 21.825 1.336 11.433-3.426 22.359-10.188 34.636-9.66 20.676 2.886 39.438 14.788 57.754 23.984a1270.215 1270.215 0 0 1 32.978 19.026c1.056.94 2.113 1.878 3.17 2.814.61.539 1.208 1.105 1.84 1.62 2.606 2.118 5.215 4.223 7.836 6.321 1.47 1.176 2.918 2.367 4.457 3.45 2.836 1.995 5.68 3.984 8.536 5.952 1.43.989 2.843 1.989 4.332 2.883 1.066.641 2.134 1.277 3.206 1.906 3.62 2.859 7.22 5.764 11.012 8.383 1.95 1.348 3.907 2.692 5.864 4.028-25.051-14.036-50.621-27.141-76.29-40.012-20.808-9.746-41.402-21.52-63.976-26.48-11.227-.52-21.063 6.695-31.723 9.285-8.644 2.671-17.367 1.054-26.136-.563-6.086-1.125-12.2-2.246-18.32-1.934-12.282-1.457-19.848 8.395-26.653 17.075-12.719 16.558-23.832 33.898-38.137 49.105 12.313-20.394 21.028-43.133 34.668-62.793zM469.133 1103.936c-21.657-.774-42.934-5.453-63.551-11.926-9.73-3.492-20.024-6.035-29.64-9.973-1.91-1.597-3.829-3.195-5.747-4.785-.156-.129-.308-.254-.46-.383 20.359 5.258 41.991 6.356 62.726 10.012 33.722 4.274 68 5.977 101.574-.375 39.41-6.282 77.122-19.31 112.786-36.732l.48.423.475.42c-49.788 31.715-107.787 53.592-167.151 53.592-3.828 0-7.652-.09-11.492-.273z"/><path d="M243.846 728.816c5.253-128.398-26.506-155.624 39.38-279.328 55.658-107.948 61.993-178.535 173.526-249.529 29.962-18.272 63.35-30.84 97.27-39.331-35.28 17.414-69.698 36.702-102 59.207-35.13 24.837-67.104 55.48-88.713 92.98-24.592 46.298-42.747 95.763-67.204 142.192-65.802 123.596-33.882 148.742-52.259 273.809zM490.704 1351.916c-47.022-.293-79.169-11.457-116.391-40.323 9.283 5.478 19.093 10.37 28.874 15.046 49.442 25.213 114.135 12.408 167.813 9.319 42.887-5.816 85.894-13.187 127.223-26.273 56.722-19.82 112.276-43.911 165.17-72.418 69.404-40.207 81.119-39.391 132.492-105.604 53.152-60.54 55.757-141.998 56.436-218.413.85-86.435 3.464-172.913 12.269-258.954 1.623 14.531 2.909 29.275 4.02 43.918 5.246 60.845-2.673 121.74-1.66 182.68-2.136 56.47 1.471 114.245-13.506 169.261-10.44 40.349-32.573 76.187-60.397 106.853-12.454 14.573-24.27 29.993-39.219 42.136-14.823 12.106-31.998 20.87-48.617 30.21-23.012 12.976-45.505 26.929-69.469 38.146-43.678 20.08-87.064 40.09-132.539 55.281-68.617 21.1-140.675 31.847-212.5 29.135z"/><path d="M403.658 1337.741c-32.88-17.973-51.297-52.437-72.188-82.082-45.094-58.7-58.316-120.137-73.687-190.469-12.176-42.648-36.282-81.05-45.817-124.593-5.71-21.72-5.719-44.274-4.414-66.551 1.281-25.082 3.172-50.39 9.852-74.696 7.87-26.386 19.87-51.21 26.531-77.953 4.027-17.144 4.082-34.84 6.336-52.129 12.11 75.625-11.883 92.196-24.395 157.84-5.312 36.563-6.324 63.137-4.136 85.5-.082.785-.11 1.555-.118 2.344-.015 1.656.106 3.32.329 4.961.488 3.566 1.273 7.055 2.296 10.508.04.136.079.27.122.406a204.016 204.016 0 0 0 4.051 17.027c.517 3.46 1.29 6.889 2.245 10.25.942 3.325 2.032 6.621 3.375 9.809 1.306 3.105 2.765 6.17 4.414 9.127 8.668 22.197 19.847 46.833 32.032 81.842 19.496 84.996 26.793 125.297 77.586 199.793 17.191 27.41 32.453 58.965 61.066 76.074 14.883 6.898 31.434 10.027 47.192 14.152-17.645-2.629-36.223-3.847-52.672-11.16zM765.872 624.35c-28.754-1.018-38.074-33.063-20.895-53.62 2.708-3.517 6.283-7.356 10.692-8.363-2.741 1.723-4.413 4.574-5.976 7.288-7.989 14.307-12.309 35.683 2.701 46.986 7.535 5.463 16.987 6.378 25.911 7.6-4.052.185-8.31.248-12.433.11zM787.636 625.856c7.069-7.525 16.112-14.4 18.705-24.86 1.498-8.264.205-17.554-4.45-24.637-1.395-2.156-2.939-4.383-4.029-6.64 3.246 3.004 6.86 5.625 9.509 9.219 4.578 7.241 5.253 16.954 2.269 24.922-3.872 10.017-13.74 16.007-22.004 21.996zM405.45 659.87c-19.37-.017-40.35-13.961-38.857-35.108 1.042-8.376 2.613-19.65 11.101-23.617-6.535 5.682-5.446 20.185-3.915 28.05 3.44 12.038 14.346 20.328 26.275 22.875 15.358 3.965 31.535-.404 35.69-17.334 1.061-4.705 1.564-9.69 2.33-14.38-.085 8.089 1.057 16.68-2.723 24.156-5.218 11.074-18.115 16.564-29.902 15.359z"/><path d="M763.353 597.419a13.105 13.105 0 0 1-3.473-9.508 13.108 13.108 0 0 1 4.125-8.871c2.64-2.46 5.96-3.473 9.508-3.473 3.289 0 6.668 1.762 8.87 4.125a13.105 13.105 0 0 1 3.473 9.508 13.107 13.107 0 0 1-4.125 8.871c-2.64 2.461-5.96 3.473-9.507 3.473-3.29 0-6.668-1.762-8.871-4.125zM399.089 634.733a13.105 13.105 0 0 1-3.473-9.508 13.108 13.108 0 0 1 4.125-8.871c2.64-2.461 5.961-3.473 9.508-3.473 3.289 0 6.668 1.762 8.871 4.125a13.105 13.105 0 0 1 3.473 9.508 13.107 13.107 0 0 1-4.125 8.871c-2.64 2.461-5.961 3.473-9.508 3.473-3.29 0-6.668-1.762-8.871-4.125zM378.997 863.889c-6.473-6.489-8.965-16.317-7.09-25.211 1.43-7.504 5.414-14.293 4.637-22.172-.024-4.74.233-9.59 1.074-14.3.778 1.465 1.596 2.91 2.416 4.354-.01 1.134.002 2.267.033 3.395.027 4.902.637 9.871-.32 14.719-.891 4.215-2.957 8.441-4.149 12.484-2.62 8.473-1.515 18.082 4.059 25.051 3.797 4.527 8.496 8.363 12.574 12.523-4.445-3.566-9.125-6.886-13.234-10.843zM391.061 749.831c2.215-3.932 4.83-7.688 8.024-10.757-3.07 4.527-5.306 9.53-7.149 14.663-.163-1.338-.425-2.653-.875-3.906z"/><path d="M401.854 822.337c-6.663-8.054-13.217-16.396-17.965-25.746-6.884-13.963-4.227-30.917 4.07-43.692 2.477-4.078 5.309-7.96 9.114-10.894-1.15 2.025-2.234 4.203-3.12 6.41-12.936 35.07-9.879 42.277 7.9 73.922zM887.384 1003.918c20.84-9.906 39.352-24.113 56.338-39.538 15.38-14.734 30.009-30.162 42.877-47.16 27.74-36.878 33.238-63.756 37.347-108.513 2.84-34.96 5.864-69.907 9.582-104.785-.057 4.843-.275 9.87-.406 14.707-.992 30.059-2.172 60.132-4.664 90.11-4.975 57.177-14.129 83.203-51.394 127.53-25.126 27.783-52.625 57.054-89.68 67.65zM498.34 2229.922c7.902-57.616 26.364-112.605 44.521-167.598 18.265-60.432 38.884-120.213 53.835-181.591 16.48-59.737 15.04-121.628 13.953-183.002.94-90.905-14.906-180.76-36.527-268.765-8.613-36.764-25.386-80.28-67.98-85.76 45.285-5.004 74.07 36.82 87.598 74.731 38.694 110.778 43.969 229.785 42.758 346.145 1.096 44.035-5.944 87.804-16.98 130.332-15.776 63.659-40.342 124.72-64.316 185.633-21.419 49-42.478 98.33-56.863 149.875zM785.235 1924.358c74.777-80.91 152.793-158.797 238.402-228.325 92.785-80.39 195.933-148.539 307.34-200.265 18.468-8.832 37-17.54 55.636-26.004-26.164 16.348-52.488 32.879-78.773 49.183a2472.216 2472.216 0 0 0-58.355 38.284 1.49 1.49 0 0 0-.157.1l-.125.09c-120.63 81.616-234.122 173.81-339.508 274.292-150.738 146.582-277.406 316.004-429.285 461.184 84.29-136.032 198.836-249.645 304.825-368.54zM1040.132 552.148a926.865 926.865 0 0 0 6.565 4.922c.008 0 .004-.012.004-.016a1562.108 1562.108 0 0 0-13.436-16.716c-6.794-12.296-13.182-25.757-19.193-40.538-29.227-70.008-48.774-144.48-88.149-209.941-77.05-134.028-224.707-119.676-327.312-218.965-2.36-2.285-4.629-4.785-6.75-7.207 10.91 7.281 22.504 13.52 34.332 19.16 49.684 23.574 102.902 38.29 153.344 60.055 129.535 48.172 179.187 132.07 224.12 256.57 31.157 87.754 62.391 188.563 151.122 234.063 41.383 21.414 87.176 33.097 130.902 48.52-112.688-19.053-191.23-41.17-245.55-129.907zM1375.638 609.903c-37.53-34.145-77.174-66.72-109.883-105.672-36.827-47.547-61.212-103.197-89.675-155.85-81.031-157.819-164.072-225.266-332.101-278.627a1756.94 1756.94 0 0 0-119.004-35.625c32.49-.02 65.09 2.903 97.192 8.218 66.644 11.984 130.768 37.51 188.61 72.559 87.13 52.935 146.945 139.94 191.807 229.602 23.806 46.25 43.148 95.248 69.831 139.907 29.33 45.625 68.573 84.072 103.223 125.488z"/><path d="M1390.02 924.059c2.98-81.94 30.102-175.909-21.074-248.323-18.316-22.038-45.621-33.143-69.928-47.104-67.262-35.506-125.102-86.488-172.333-145.839-38.26-47.516-74-99.596-88.933-159.516-.997-4.29-1.706-8.74-2.137-13.058 5.46 14.927 14.35 28 22.314 41.623 18.286 28.073 39.506 53.956 60.508 80.005 25.757 32.19 51.378 64.48 80.856 93.397 26.12 24.368 54.034 46.64 84.522 65.326 26.39 16.101 54.791 28.926 79.888 47.093 86.29 70.167 43.362 194.123 26.317 286.396zM1419.82 1458.7c-69.65-18.114-151.237-21.7-205.337-74.164-63.003-60.323-71.95-152.304-65.178-234.784 3.143-71.533 13.33-142.905 8.12-214.597-3.781-94.648-23.566-148.327-70.045-229.798-19.033-31.456-36.328-65.024-61.645-91.894 10.208 5.935 19.45 13.701 28.069 21.817 152.986 146.69 135.358 314.605 121.395 507.765-1.169 35.15-4.309 70.641.774 105.608 8.748 54.82 32.52 110.578 78.866 143.675 27.134 19.83 59.89 29.213 91.185 40.303 24.548 8.77 49.272 17.426 73.796 26.068z"/><path d="M1422.835 1320.556c-66.485-47.135-135.24-86.055-167.737-165.062-47.351-102.749-39.507-259.343-.06-364.023 6.259-16.273 11.899-33.074 22.152-47.367-1.515 4.5-3.202 9.138-4.322 13.66-10.03 49.235-15.976 99.247-20.2 149.293-9.31 97.57-5.927 202.162 46.489 288.114 31.286 50.41 81.637 84.724 123.678 125.385zM201.338 611.046c15.18-26.29 22.922-56.414 16.863-86.578-16.972-106.727-6.996-225.364 67.094-309.7 36.832-45.89 78.18-89.152 129.871-118.28 26.145-14.723 62.895-32.895 87.906-35.63-37.68 18.086-69.324 45.43-101.847 71.145-49.578 43.719-97.45 91.5-130.531 149.262-34.727 65.707-39.102 143.441-30.067 216.027 4.563 33.633 9.856 68.875-5.105 100.809-13.743 33.312-36.778 61.601-53.688 93.234a278.528 278.528 0 0 0-7.836 15.19 239.424 239.424 0 0 0-5.68 10.17c-3.984 7.534-7.953 15.081-11 23.058-5.851 15.332-8.14 31.722-7.789 48.09.087 4.103.223 8.205.402 12.305-2.595 36.482-4.927 73.086-7.382 109.5-7.832-141.72-18.406-173.258 58.789-298.602z"/><path d="M186.561 1532.784c-47.43-76.976 7.203-160.765 46.39-228.324 36.79-63.918 15.513-80.91-41.276-113.933-53.461-30.528-112.293-71.118-118.453-137.86-5.098-82.804 8.82-167.492 39.109-244.687 16.701-39.159 44.653-94.178 81.265-128.403-3.09 3.538-6.083 7.16-8.914 10.907-6.226 8.246-11.543 17.09-16.363 26.21-3.984 7.536-7.953 15.083-11 23.06-5.721 14.99-8.037 30.992-7.808 46.995-8.858 20.122-16.181 38.473-21.274 51.723-23.422 68.336-34.586 142.523-29.23 214.687 6.675 51.79 52.273 83.774 93.968 108.344 29.934 19.805 69.567 35.563 81.489 72.422 15.082 55.582-52.063 124.953-70.317 179.008-25.156 60.941-11.695 96.054 19.48 150.57 22.048 41.582 42.298 84.246 62.243 126.785-32.688-52.746-67.492-104.261-99.309-157.504zM237.073 652.182a85.28 85.28 0 0 1 2.078-.66c-.645.331-1.292.682-1.938 1.052a22.015 22.015 0 0 0-.14-.392z"/><path d="M206.902 1582.546c20.854-69.637 42.585-139.033 67.404-207.37 23.075-62.514 51.691-139.341-9.637-189.653-66.863-54.674-117.823-111.881-111.611-203.899 2.306-50.11 9.501-101.595 32.645-146.69 3.225-5.791 6.856-11.447 10.651-16.798-16.75 44.535-16.485 92.981-17.693 139.906-1.31 42.794-1.168 88.048 23.259 125.163 16.673 26.964 40.005 48.826 63.872 69.346 21.692 18.255 43.196 38.592 53.357 65.726 23.887 62.079-9.463 126.62-33.263 183.516-26.387 60.198-51.998 120.895-78.984 180.754zM360.582 1847.947c-11.631-99.085 14.437-106.42 51.007-189.668 7.478-16.707 6.798-36.32-8.268-48.5-48.713-43.5-76.953-95.373-48.855-159.813 11.357-27.474 37.347-63.537 71.176-53.995-24.788-1.658-40.122 22.581-48.288 42.859-17.263 43.612-13.383 91.565 18.43 127.439 13.8 18.103 35.072 32.027 41.006 55.011 8.843 45.211-37.534 89.04-56.402 127.58-18.95 29.585-17.334 65.462-19.806 99.087zM486.635 1846.997c-10.022-79.649.307-93.007 38.736-160.831 28.945-47.369 1.421-51.132-31.217-79.123-25.245-20.365-44.037-51.22-39.257-84.622 5.624-38.63 21.07-82.876 56.353-103.522-15.046 13.856-22.082 33.683-26.998 53.033-14.496 56.707-9.613 91.024 38.975 127.409 14.87 12.026 32.572 24.64 35.596 44.938 3.61 37.553-38.606 74.572-54.518 107.772-18.14 28.358-15.687 62.796-17.67 94.946z"/><path d="M237.61 1735.304c29.328-13.252 72.21-22.3 42.6-62.031-27.27-39.623-62.967-83.572-55.42-134.81 6.67-37.318 38.913-46.903 61.021-71.056 14.78-22.763 13.07-51.509 14.848-77.563.946-40.034 7.204-79.646 12.633-119.254-.036 36.083-1.78 72.406.262 108.527 1.142 31.982 6.173 66.57-8.89 96.176-13.98 26.878-52.38 36.705-55.869 69.732-6.697 76.29 140.908 175.935-11.184 190.28zM120.33 1681.848c-11.991.533-32.844-10.304-35.852-16.168 12.797 7.305 28.357 9.674 42.54 5.403 19.16-5.86 33.596-19.926 16.56-37.952C107.876 1593.88 58.118 1549 71 1490.227c8.945-35.574 40.68-58.053 64.44-83.742 23.625-22.439 20.748-42.2 6.008-68.915-43.938-77.955-17.029-130.557 5.27-208.78-5.5 49.003-24.515 99.343-10.522 148.344 8.65 39.39 50.882 72.25 37.425 115.038-15.218 41.61-64.131 60.939-77.688 103.298-9.718 50.496 38.216 84.84 63.465 122.186 26.615 34.287.174 66.367-39.07 64.192zM1105.731 931.635c-29.236-8.177-2.428-46.46 15.832-51.87-.563.644-1.328 1.297-1.952 1.948-7.205 7.21-11.547 16.69-14.081 26.458-3.831 11.321.826 11.938 10.863 13.512 10.045 1.167 19.366-4.278 26.927-10.35 15.184-11.385 18.448-30.862 24.924-47.565-2.488 14.044-2.845 29.248-9.782 42.093-10.217 18.067-31.514 32.783-52.731 25.774zM1089.775 1045.92c-13.112-1.755-27.697-4.567-36.945-14.828 16.678 7.29 42.826 4.933 59.499-1.97 28.103-12.463 40.687-40.022 47.872-68.222 2.364-8.102 4.414-16.305 6.676-24.434-.896 11.47-1.64 23.172-3.32 34.617-2.52 16.47-6.737 33.292-17.126 46.695-13.182 17.503-34.05 30.833-56.656 28.142zM1104.385 1362.587c-25.034-48.18-24.64-57.731-14.744-110.601 2.662-15.484 7.354-33.049-1.787-47.286-9.866-13.309-24.504-24.335-27.042-41.777-3.76-30.234 16.729-57.606 36.556-78.288 7.075-6.891 14.57-13.366 22.84-18.797-5.938 7.784-11.295 16.168-16.275 24.667-11.065 20.898-24.079 43.605-22.643 67.988 2 12.546 12.668 20.838 19.733 30.638 12.459 16.057 11.89 37.657 6.3 56.26-15.45 56.414-21.98 59.663-2.938 117.196zM1208.81 1417.662c-19.347-12.777-38.277-26.246-55.972-41.27-22.874-17.169-26.896-35.57-22.78-57.563a118.814 118.814 0 0 0 9.874 19.587c3.877 6.178 8.384 12.135 13.668 17.24 27.717 31.94 65.698 54.17 86.882 91.932-10.406-10.106-20.281-20.903-31.672-29.926zM1132.427 1308.658l.158-.573c.16.273.316.547.476.82.102.51.209 1.017.32 1.525a108.46 108.46 0 0 1-.954-1.772zM432.751 1020.07c-.394.087-.785.184-1.171.294l-.078.012c-2.418.38-4.871.664-7.258 1.211-1.707.395-3.414.79-5.121 1.192-.922.218-1.88.382-2.785.66-2.579.8-5.157 1.601-7.73 2.414-1.188.375-2.345.89-3.505 1.336-1.152.441-2.328.851-3.465 1.332-3.027 1.273-6.132 2.543-8.8 4.492-1.008.734-1.989 1.504-2.747 2.504-.71.933-1.39 1.89-2.019 2.883-.004.004.008.02.016.02a41.521 41.521 0 0 1 2.367-2.47c-.008.004-.012.012-.02.016.938-.82 1.938-1.445 3.043-2.023a.281.281 0 0 1-.047.027c4.774-2.29 9.996-3.445 15.13-4.695a68.51 68.51 0 0 0-5.157 1.992 37.51 37.51 0 0 0-.906.398c-.461.125-.918.25-1.375.387-.012.004 0 .024.008.024.214-.032.437-.06.656-.09-2.238 1.02-4.445 2.136-6.551 3.382a184.752 184.752 0 0 0-6.262 3.864c-11.918 5.367-23.636 11.355-35.617 16.035 24.295-17.927 49.455-34.18 79.394-35.196zM524.818 1028.824a35.756 35.756 0 0 0-3.847-2.889 5.915 5.915 0 0 0-.255-.864c1.012.168 2.024.34 3.04.507.011.004.003-.02-.004-.02-1.098-.366-2.196-.73-3.293-1.09a7.575 7.575 0 0 0-.223-.433 8.698 8.698 0 0 0-.36-.588c42.032-.673 58.325 1.99 101.044 30.823-53.239-26.727-52.985-21.946-96.102-25.446zM446.922 1064.474c.797-7.713 2.504-15.852 7.762-21.758-3.655 6.837-6.2 14.248-7.762 21.758zM466.14 1064.217c.772-7.28.477-15.994 5.945-21.5-3.92 6.45-4.402 14.35-5.945 21.5zM750.05 670.22c-10.086-.228-20.15-.84-30.196-1.753l.044.006c-12.996-1.389-25.785-3.364-38.27-7.219-9.18-2.83-17.62-7.496-25.714-12.593 2.354 1.009 4.887 2.11 7.289 3.187 18.007 8.026 37.702 11.287 57.105 14.007 17.492 2.186 35.228 3.275 52.72 4.731-7.66-.082-15.321-.207-22.977-.367zM749.61 650.849c-20.529-.608-42.056-1.56-60.817-10.723-1.524-.852-3.081-1.902-4.363-2.98 1.593.935 3.24 1.794 4.96 2.461 9.41 3.38 19.398 4.733 29.27 6.05 14.943 2.094 30.037 2.454 45.099 1.909 14.187-.95 28.577-1.64 42.322-5.512 7.39-2.118 14.945-4.358 22.283-6.44-11.262 3.933-22.333 8.654-34.043 11.11-14.72 2.853-29.73 4.055-44.712 4.125zM312.242 696.24c15.672-1.976 31.314-4.076 46.532-8.341 16.904-4.624 32.925-11.441 48.985-18.317a284.178 284.178 0 0 0 7.952-3.69c-2.309 1.646-4.917 3.192-7.4 4.692-29.526 17.768-62.051 24.533-96.07 25.655z"/><path d="M764.533 653.674c-5.095-10.016-7.209-19.774-20.922-17.898-.771.067-1.642.27-2.34.343 15.285-6.09 19.178 5.672 23.262 17.555zM778.817 645.826c-2.683-5.783-5.787-13.948-13.414-13.62-.724-.014-1.538.155-2.196.167 9.273-3.819 13.56 6.33 15.61 13.453zM795.393 644.389c-2.757-6.963-6.463-14.712-15.222-13.957-.64-.012-1.402.11-1.977.07 10.404-3.622 15.036 5.35 17.2 13.887zM799.981 640.479c-2.3-5.327-3.813-12.708-10.011-14.528 7.05.432 8.435 9.128 10.011 14.528zM815.785 637.913c-4.042-7.87-8.155-12.397-17.004-14.493-1.103-.31-2.337-.388-3.41-.516 1.273-.195 2.535-.261 3.82-.113 8.734.808 13.85 7.436 16.594 15.121zM833.708 637.924c-3.528-8.745-7.735-16.08-18.25-16.218-.674-.02-1.466.124-2.078.09a24.489 24.489 0 0 1 2.027-.524c10.817-1.79 15.996 7.729 18.3 16.652zM839.947 626.355c-4.408-5.147-8.51-12.06-15.758-13.125 7.738-.691 12.068 7.641 15.758 13.125zM878.95 605.996c-13.095.104-26.56-.618-38.728-5.905-7.933-3.532-15.736-8.564-20.554-15.946 1.604 1.67 3.384 3.363 5.34 4.719 11.2 7.868 24.242 12.735 37.644 14.597 9.684 1.21 19.356 1.661 29.067 2.45-4.155.122-8.538.074-12.77.085zM851.01 609.335c-8.595-.05-17.309-.302-25.664-2.504 1.57.031 3.313.197 4.946.183 16.275.063 32.548.78 48.8 1.68-9.285.452-18.736.646-28.082.64zM284.341 689.496c.958-5.961 1.365-12.122 3.383-17.847 2.282-5.735 6.96-11.108 13.23-12.344 1.018-.158 2.193-.278 3.153-.223-1.268.28-2.513.597-3.716 1.09-12.296 6.106-13.022 17.682-16.05 29.324zM299.895 696.547c.198-12.043 4.72-25.015 15.574-31.383 1.34-.791 2.895-1.476 4.34-1.832a22.39 22.39 0 0 0-3.844 2.531c-9.685 7.795-14.566 18.603-16.07 30.684zM321.368 693.403c-.477-8.479-2.236-19.51 4.66-25.825-5.041 7.477-4.204 17.275-4.66 25.825zM293.8 687.975c1.028-9.145 3.284-21.899 12.962-25.605.725-.176 1.588-.207 2.25-.02-.734.026-1.439.144-2.104.454-2.198.983-3.742 2.99-5.156 4.837-4.6 5.86-6.344 13.307-7.951 20.334zM339.005 690.915c-1.077-9.472-2.491-21.54 5.32-28.586-.403.568-.958 1.212-1.305 1.891-4.188 8.202-4.186 17.774-4.015 26.695zM357.305 690.98c-.608-4.123-1.072-8.323-.703-12.489.933-6.743 4.35-13.463 9.96-17.472-.589.765-1.41 1.591-1.987 2.426-6.56 9.311-7.967 16.461-7.27 27.535zM155.718 1619.305c2.132-28.474 4.998-56.882 7.852-85.29 1.239-11.988 2.226-24.024 2.075-36.086-.233-13.218-1.773-26.114-5.422-38.717-2.65-9.385-7.158-18.07-10.184-27.313-5.117-15.22-2.204-31.66 3.398-46.32 5.956-15.954 15.797-30.002 25.351-43.962 4.866-7.14 10.176-14.313 12.438-22.759 3.374-12.096-7.088-18.902-13.418-27.444-13.68-16.746-18.627-36.277-13.781-57.422 2.965-16.389 10.448-35.624 28.257-40.11-19.092 8.078-24.16 31.328-26.738 49.911-2.316 17.86 5.324 35.242 16.807 48.517 8.863 9.906 16.103 16.85 10.604 31.018-4.436 11.182-12.457 20.425-18.817 30.52-9.453 13.754-17.707 28.61-21.685 44.932-3.613 13.196-2.398 27.194 3.138 39.658 13.636 28.832 14.87 59.359 11.477 90.585-2.775 30.187-6.901 60.38-11.352 90.282z"/><path d="M622.75 624.655c2.051-15.002 8.895-28.876 15.912-42.12 11.082-20.52 27.42-37.928 48.182-48.793 20.194-11.748 43.644-14.932 66.667-14.599 23.032-.767 45.349 8.309 63.349 22.292 18.136 15.474 31.87 35.599 49.937 51.137-19.55-14.01-34.517-33.357-53.489-47.92-18.271-12.669-40.125-20.669-62.548-19.485-22.274-.323-44.876 3.68-64.037 15.553-20.24 10.824-34.123 29.278-45.946 48.435-6.899 11.31-14.052 22.85-18.028 35.5zM444.616 630.903c-.628-6.974-.41-14.431-4.333-20.515-8.008-11.618-21.762-17.226-33.768-23.763-18.076-9.026-38.667-13.932-58.89-12.077-12.405 1.696-23.28 8.283-32.807 16.044-11.245 8.809-20.773 19.694-29.623 30.748 8.973-13.631 19.19-26.56 31.875-36.937 27.037-24.978 68.403-16.616 97.756-.184 19.453 10.857 34.698 22.083 29.79 46.683zM912.202 253.413c-53.033-16.33-105.49-34.744-159.938-45.953-76.35-18.271-203.129-38.48-217.71-131.97-.586-6.83.423-13.78 1.848-20.379-.425 8.759-.006 17.424 2.519 25.842 32.307 94.07 156.775 104.946 240.16 126.494 45.887 10.416 89.63 28.605 133.121 45.966z"/><path d="M887.318 233.543c-53.67-13.5-104.984-34.137-156.474-53.938-52.817-20.725-127.566-36.055-160.308-85.834-2.657-4.673-4.37-9.968-5.402-15.156 2.172 5.612 4.97 10.948 8.812 15.599 35.024 38.078 86.541 53.949 133.888 70.931 60.598 20.702 119.113 47.331 179.484 68.398zM634.464 485.994c29.692-31.664 74.215-39.316 114.473-49.578-10.105 4.254-20.473 8.414-30.703 12.535-27.442 9.945-53.95 22.637-76.188 41.855-5.843 5.222-12.463 10.437-17.739 16.527-.931.514-1.862 1.028-2.792 1.544-1.178.654-2.35 1.312-3.517 1.976 3.178-9.345 10.12-17.612 16.466-24.859z"/><path d="M792.3 445.313c.012-.004.02.02.004.024-16.67 5.09-33.641 9.262-50.37 14.134-2.059.277-4.102.676-6.15 1.045-2.675.485-5.378.918-8.019 1.575a274.302 274.302 0 0 0-17.594 5.004c-9.945 3.183-19.562 7.191-29.183 11.234a366.3 366.3 0 0 0-16.102 7.203c-3.805 1.814-7.517 3.85-11.224 5.874 37.744-32.612 90.067-40.635 138.638-46.093z"/><path d="M681.652 476.634c32.555-30.987 80.312-35.753 123.25-34.144 21.66.4 42.245 7.865 62.668 14.336 3.431 1.128 6.99 2.245 10.324 3.433-8.476-1.5-16.953-2.98-25.426-4.495-32.948-7.544-66.592-4.67-99.564.427-24.277 4.623-49.188 8.878-71.252 20.443zM955.564 507.53l1.153.835c.685 1.376 1.372 2.752 2.06 4.126a893.504 893.504 0 0 0-3.213-4.962z"/><path d="M662.26 479.807c45.989-34.325 105.926-46.028 162.188-37.934 31.26 6.775 60.127 20.103 87.371 36.447 2.557 4.128 5.137 8.243 7.742 12.343-32.139-16.865-65.618-30.906-101.64-36.356-28.57-1.989-57.422.343-85.32 6.78-1.622.294-3.243.61-4.837 1.005a274.236 274.236 0 0 0-17.593 5.004 220.666 220.666 0 0 0-10.07 3.511 286.37 286.37 0 0 0-23.305 9.512c-4 1.735-7.961 3.527-11.91 5.414-4.844 2.309-9.536 4.977-14.258 7.524l-10.41 5.613c6.605-7.086 14.253-13.117 22.042-18.863z"/><path d="M706.495 454.49c49.524-29.456 108.983-25.733 163.516-16.042-18.071.141-36.878.117-54.805-.028-36.736 1.155-72.736 9.663-108.71 16.07z"/><path d="M893.815 479.396c-9.887-4.918-19.922-9.527-30.438-12.906-40.043-15.992-76.476-25.234-131.152-21.945-9.059.586-16.734 2.898-2.52-2.45 69.212-24.85 132.05 12.005 189.265 47.637l.676 1.065c-9.037-3.97-17.599-7.783-25.831-11.4zM576.429 531.132c1.83-24.007 3.821-48.28 8.38-71.871 4.36 24.21-2.951 48.484-8.38 71.87zM593.814 469.699c-.918 2.399-1.337 4.891-1.551 7.423-.772.865-1.542 1.732-2.309 2.6-.004.008.004.024.012.024v-.004l2.212-1.449c-.245 3.961-.1 7.997-.673 11.902-.773 9.422-1.84 18.66-3.348 27.867.543-13.79-3.168-37.559 5.657-48.363zM613.355 464.72c1.4-.886 2.8-1.77 4.204-2.649-4.782 17.389-9.648 34.817-14.65 52.07 2.127-16.453 3.502-34.188 10.446-49.42zM605.8 469.505l.824-.519c1.252-.787 2.501-1.579 3.75-2.371-6.852 13.471-13.346 27.24-20.379 40.527 1.601-13.915 8.05-26.194 15.805-37.637z"/><path d="M592.84 505.722c-2.075-29.156 45.114-47.978 67.134-58.437.012-.008.023.012.01.019-17.972 12.987-62.012 37.11-67.144 58.418z"/><path d="M598.053 505.722c4.78-34.076 53.956-51.967 82.31-62.53 1.979-.684 4.044-1.458 5.985-2.043-23.592 12.926-47.928 25.265-68.55 42.742-7.143 6.457-16.464 12.472-19.745 21.831z"/><path d="M608.49 495.284c24.248-29.65 62.367-41.697 97.234-54.137.016-.008.024.016.012.02-32.868 17.25-65.496 35.165-97.246 54.117z"/><path d="M606.588 508.09c15.15-35.77 69.046-54.744 102.85-68.979.015-.008.023.016.007.024-25.227 15.052-50.87 29.487-74.868 46.464-9.661 6.93-20.733 13.06-27.989 22.491z"/><path d="M603.273 514.25c19.09-34.991 62.881-50.451 97.595-65.631-3.425 2.161-7.083 4.342-10.551 6.471-29.724 18.55-60.703 36.049-87.044 59.16z"/><path d="M594.736 505.717c14.535-42.722 73.588-59.011 112.869-69.897 12.05-3.108 24.252-6.198 36.308-8.978-40.916 17.558-123.552 43.313-149.177 78.875z"/><path d="M597.581 493.388c19.74-44.398 96.113-61.454 140.47-64.054 11.337-.702 22.821-1.405 34.097-1.844a3006.815 3006.815 0 0 1-22.792 4.438c-35.17 5.71-69.496 15.67-101.969 30.376-17.603 8.312-37.3 15.506-49.806 31.084z"/><path d="M644.046 476.794c29.241-31.898 75.116-39.445 116.398-41.508 18.578-.584 25.865-1.84 1.868 2.457-40.964 7.125-81.544 19.617-118.266 39.05z"/><path d="M656.844 464.949c2.187-11.549 18.626-18.533 28.246-23.335 34.002-14.504 71.436-16.479 107.91-17.89-7.181 1.545-14.603 2.945-21.882 4.37-22.265 3.891-44.317 8.836-65.894 15.61-12.428 5.3-42.02 9.673-48.38 21.245z"/><path d="M616.258 462.888c5.807-3.653 11.67-7.21 17.792-10.32 14.101-7.02 28.933-12.555 43.933-17.336 13.19-4.202 26.573-7.683 40.088-10.638 13.942-.959 27.545-.394 39.803 1.892 11.11 2.164 22.367 4.371 33.347 6.816-7.495-.48-14.988-.996-22.488-1.48-34.851-4.16-69.566 3.617-102.367 15.004-16.535 6.23-53.008 17.68-60.723 33.293 1.227-6.904 5.446-12.448 10.615-17.231z"/><path d="M608.961 512.826c17.551-30.66 53.645-43.083 84.81-55.367 1.897-.675 3.893-1.454 5.745-2.027-31.05 17.526-63.214 34.519-90.555 57.394z"/><path d="M613.228 510.454c19.328-30.615 76.188-44.185 109.548-55.12.016-.004.024.016.012.02-25.134 12.044-50.486 23.613-75.454 35.996-11.583 6.166-24.4 10.342-34.106 19.104z"/><path d="M716.988 460.928a2557.97 2557.97 0 0 0-17.43 9.884c-6.247 2.353-12.407 4.928-18.57 7.518a366.3 366.3 0 0 0-16.102 7.203c-4.843 2.309-9.535 4.977-14.258 7.524-8.772 4.733-17.551 9.442-26.28 14.253 27.093-21.761 60.508-33.96 92.64-46.382z"/><path d="M590.001 517.089c25.392-19.723 56.32-29.887 86.317-40.375-28.054 14.572-56.004 30.917-86.317 40.375z"/><path d="M673.363 474.768c-10.977 8.153-22.064 16.368-33.478 24.082a1829.632 1829.632 0 0 0-18.37 10.027c-4.773 2.648-9.437 5.363-14.062 8.262-2.167 1.357-4.26 2.842-6.3 4.402-.87.418-1.742.83-2.618 1.238 20.988-21.363 48.758-34.039 74.828-48.011zM592.369 517.096c8.753-20.9 32.588-34.597 49.95-48.175-15.724 16.858-33.742 31.863-49.95 48.175z"/><path d="M598.53 513.78c1.123-21.039 31.105-39.858 46.274-52.514-9.067 9.799-18.443 19.58-27.723 29.175-6.392 7.498-14.885 14.045-18.551 23.34z"/><path d="M589.52 511.883c4.8-25.847 33.444-40.58 53.325-54.456.012-.008.028.012.015.02-18.14 17.53-39.851 32.955-53.34 54.436z"/><path d="M584.782 520.418c3.237-17.885 42.61-35.898 57.915-45.413-11.986 9.717-24.474 19.186-37.055 28.25-6.925 5.565-16.287 9.31-20.86 17.163zM588.576 524.675c20.975-29.933 63.36-45.897 95.7-60.843-31.505 20.835-64.488 39.807-95.7 60.843z"/><path d="M685.234 473.732a1735.814 1735.814 0 0 1-18.11 10.742c-.746.35-1.492.703-2.238 1.06-4.844 2.308-9.535 4.976-14.258 7.523-9.722 5.246-19.453 10.46-29.113 15.82-4.773 2.648-9.437 5.363-14.062 8.262-4.062 2.545-7.867 5.538-11.536 8.628a58.922 58.922 0 0 0-5.445 4.13c18.598-27.715 64.664-43.43 94.762-56.165zM581.462 534.165c2.89-18.439 14.273-34.242 22.872-50.438-6.054 17.375-13.552 34.647-22.872 50.438z"/><path d="M597.188 475.026a935.997 935.997 0 0 1 4.362-2.817c-4.966 12.943-10.08 25.97-11.554 39.68-3.415-12.908 1.172-25.209 7.192-36.863zM607.218 456.608a218.273 218.273 0 0 1-2.4 6.917 469.264 469.264 0 0 0-3.257 3.434c1.96-3.513 3.911-6.964 5.657-10.35zM897.235 484.021l.064.01.165.247-.229-.257zM892.365 478.677c-22.007-23.555-35.975-29.766-69.784-38.618-26.879-7.687-55.02-4.066-81.976 1.29-10.559 2.413-21.739 4.07-31.118 9.792 5.899-6.863 14.57-10.789 22.625-14.656 34.383-16.074 71.793-16.234 106.504-1.059 27.803 10.554 40.018 21.578 55.694 44.216-.648-.323-1.296-.645-1.945-.965zM253.642 541.94c13.541-12.319 26.337-26.525 43.63-33.54 39.068-15.581 82.843-1.414 118.253 17.392 6.723 3.419 13.581 6.845 20.188 10.355-10.371-.969-20.684-2.539-30.852-4.815-66.873-15.94-89.757-33.459-151.219 10.608z"/><path d="M433.444 539.158c-19.632-29.121-55.519-38.79-88.734-39.447-5.344-.53-10.842-.944-16.11-1.535a605.647 605.647 0 0 1 19.239-1.912c33.436-5.566 78.622 4.301 85.605 42.894z"/><path d="M402.534 527.848c-14.412-11.457-29.83-22.402-46.774-29.77-11.184-4.446-23.328-3.589-35.101-4.358-5.058-.304-10.258-.455-15.246-.782 17.39-2.098 35.461-7.251 52.777-2.35 18.994 5.441 35.774 19.54 44.344 37.26z"/><path d="M267.013 513.296c35.312-15.487 65.73-21.742 103.867-12.585-21.188 5.474-43.064 3.118-64.556 5.595-13.097 2.206-26.248 4.929-39.31 6.99z"/><path d="M243.124 522.54c43.874-22.837 75.717-33.867 125.492-23.337-21.435 5.83-43.778 5.488-65.652 8.443-20.325 3.173-39.898 10.272-59.84 14.895z"/><path d="M221.968 571.596c24.456-34.362 53.835-67.909 98.4-72.397-20.677 13.359-42.727 24.633-61.992 40.051-12.375 10.466-24.128 21.859-36.408 32.346zM431.68 535.547c-4.909-13.579-8.716-27.784-16.628-39.965 10.16 10.51 18.466 24.938 16.628 39.965zM416.958 540.948c-8.675-17.875-16.615-36.987-32.562-49.536 18.471 9.316 32.691 28.455 32.562 49.536z"/><path d="M419.42 525.247c-20.461-7.755-34.238-26.144-52.199-38.039 20.026 8.471 37.44 22.216 52.199 38.04zM412.55 528.19c-11.815-2.616-22.442-8.426-33.188-13.734-10.237-4.892-21.152-8.565-31.469-13.104 23.454 3.498 46.668 10.884 64.657 26.838z"/><path d="M401.429 518.456c-7.996-5.086-15.349-11.077-23.689-15.613-10.85-5.759-22.576-8.988-33.967-13.395 13.786 2.135 28.286 3.549 40.976 9.938 6.434 3.097 12.528 7.152 18.23 11.445 7.295 5.367 13.237 12.66 21.36 16.848-8.317-.42-15.956-4.87-22.91-9.223z"/><path d="M425.531 527.12c-22.07-.892-43.034-8.216-63.998-14.403-14.61-3.897-29.6-6.789-44.22-10.357 23.36.181 46.804 1.904 69.332 8.471 12.454 3.746 30.494 10.56 38.867 16.29h.02z"/><path d="M384.925 512.205c-24.21-1.881-48.375-4.835-72.48-7.801 11.263-.98 22.793-1.756 34.167-1.82 15.398-.296 30.976.781 45.68 5.656 3.637 1.105 7.332 2.043 10.941 3.242-5.999.768-12.21 1.042-18.308.723zM415.98 522.792c-10.568-9.058-16.605-22.337-28.464-30.098 13.237 5.357 23.056 17.11 28.464 30.098z"/><path d="M424.814 527.21c-11.654-9.416-18.789-23.981-22.015-38.407 6.046 13.385 15.927 25.013 22.015 38.407zM428.745 520.83c-7.255-3.269-8.508-12.556-10.973-19.321 3.856 6.18 6.367 13.7 10.973 19.32z"/><path d="M435.119 536.038c-6.568-8.63-9.738-19.344-13.797-29.203 5.925 8.968 11.832 18.543 13.797 29.203zM421.377 521.805c-4.773-6.76-3.917-15.519-3.824-23.379 1.467 7.639 2.662 15.676 3.824 23.38zM442.482 530.642c-8.332-10.826-12.85-23.951-16.324-36.942 5.876 12.034 13.7 23.697 16.324 36.942z"/><path d="M439.54 537.023c-10.732-7.824-12.753-21.665-14.063-33.988 3.543 11.725 8.378 23.166 14.062 33.988zM442.974 535.551c-8.3-7.698-6.748-20.456-7.257-30.797 2.608 10.1 3.512 21.075 7.257 30.797z"/><path d="M440.03 532.605c-9.396-9.43-11.453-23.318-14.395-35.761 5.289 11.622 10.278 23.66 14.394 35.761zM439.656 545.113c-56.876-11.134-105.249-34.402-164.227-15.228-7.797 2.044-15.715 4.188-23.469 6.106 6.305-3.051 12.641-6.047 19-8.988 14.762-7.001 30.096-13.287 46.426-15.306 17.642-1.72 35.78-1.757 53.235 1.626 25.182 4.911 47.732 18.163 69.035 31.79z"/><path d="M447.874 543.993c-22.633-8.126-46.579-8.702-70.328-9.576-36.066-1.63-72.093-4.423-108.154-5.713-10.088.319-20.312.639-30.33.824 33.213-8.85 67.532-10.3 101.722-11.18 36.962-1.119 78.023-.313 107.09 25.645zM509.082 1182.4c-12.94-4.353-26.026-8.973-39.572-10.86-13.1-1.465-26.236.641-39.22 2.013-3.032.396-6.05 1.223-8.88 2.047 1.477-.828 2.97-1.64 4.516-2.325 13.504-5.027 28.395-7.16 42.723-5.21 14.15 2.278 27.595 8.338 40.433 14.335zM1498.859 465.124c-112.33-87.821-240.426-165.766-315.568-290.6-29.635-46.065-48.01-100.421-88.532-138.722-92.553-80.132-228.906-68.317-340.824-44.325-45.647 10.801-92.447 23.538-131.07 51.192-4.268 3.08-8.432 6.465-12.563 9.61C625.793 30.98 646.041 13.555 668.84.47c104.96-59.66 306.162-72.769 410.422-6.59 61.89 36.269 87.16 106.137 122.349 164.717 36.27 61.266 86.699 112.247 139.457 159.422 53.294 48.242 105.912 97.441 157.79 147.104zM1462.987 1521.343c-53.073-5.293-91.96-49.998-103.747-99.979-22.404-79.043 4.13-160.912 35.313-233.742 27.97-67.918 61.33-137.047 62.104-211.919-1.394-47.611-17.568-92.99-35.379-136.644-25.885-63.244-50.85-127.013-75.09-190.828 32.054 59.892 62.977 120.398 92.476 181.59 20.75 42.9 38.678 88.147 41.592 136.207 3.244 83.592-35.016 161.06-65.985 236.574-28.21 66.888-52.362 142.106-31.359 214.418 10.569 41.128 35.948 79.771 77.31 94.612 12.657 4.914 26.2 6.554 39.674 7.279-12.028 2.381-24.602 3.961-36.91 2.432z"/><path d="M1575.304 729.433c-50.728-43.959-101.576-87.792-151.568-132.587-85.11-75.173-108.784-156.855-64.451-262.987-.865 8.496-1.747 17.18-2.627 25.741-8.92 68.347 6.815 137.968 52.166 190.872 53.715 61.193 113.48 117.133 166.48 178.96zM440.929 1750.92c22.934-28.396 39.507-62.22 46.891-98.028 22.23-77.55-92.586-90.588-82.967-195.258 4.358-36.105 29.759-65.267 46.77-96.183-15.506 37.272-43.94 73.737-36.587 116.156 9.328 80.486 109.893 97.172 84.627 181.735-8.334 35.956-30.275 68.487-58.734 91.578zM554.154 1763.193c29.958-21.818 36.96-63.786 33.964-98.407-6.83-38.118-32.598-69.347-44.211-105.902-10.182-30.035-11.019-62.339-8.615-93.69 4.553-24.797-3.252-32.078-23.08-44.97-11.962-9.1-23.856-18.298-35.516-27.782 17.772 11.768 36.404 22.588 54.296 34.255 17.843 10.782 12.794 33.093 13.253 50.614.403 22.743 2.353 45.61 8.683 67.543 10.973 40.1 38.938 73.632 47.437 114.484 5.669 38.375-8.764 86.777-46.21 103.855zM330.439 1730.459c40.54-72.334 10.257-75.373-20.945-135.84-13.573-30.52-22.566-68.42-4.964-99.118 9.767-18.957 27.117-33.164 35.232-52.995 11.469-40.519 11.675-83.597 15.748-125.349.773-10.183 1.45-20.502 2.196-30.617.778 22.31 1.504 44.64 1.37 66.961-2.513 36.824 3.504 78.223-17.066 110.805-10.205 15.252-23.268 28.925-30.154 46.162-9.27 24.804-1.342 52.367 8.152 75.942 9.679 22.668 27.306 40.863 37.124 63.384 11.055 28.88-7.898 59.647-26.693 80.665zM229.07 1191.1c-47.447-39.05-109.11-74.299-113.23-142.484-2.777-75.861 1.077-156.266 37.643-224.474 14.351-26.225 38.808-60.315 62.224-70.892-32.445 30.345-49.92 73.51-67.124 113.651-12.9 36.12-17.386 74.432-19.406 112.55-1.033 32.26-4.568 65.459 4.573 96.896 14.608 49.511 62.005 78.448 95.32 114.753z"/><path d="M151.523 1441.986c7.876-28.084 19.618-54.8 31.465-81.38 28.203-59.43-60.312-70.23-17.165-148.348 11.436-18.417 27.789-40.306 51.047-42.002-12.04 2.768-20.344 12.647-27.355 22.097-64.387 93.414 31.786 98.587 3.83 164.895-13.773 28.475-30.262 55.331-41.822 84.738z"/><path d="M232.164 1673.062c-14.017-20.277-29.87-39.751-40.344-62.176-9.413-22.476-7.872-48.586-21.118-69.673-9.776-16.953-31.054-23.408-39.657-41.265-13.415-31.717 19.227-72.965 36.935-97.857 12.098-16.668 13.094-19.47 3.386 1.427-9.776 22.171-40.464 70.963-27.111 93.562 10.793 14.921 29.544 22.756 37.276 40.259 11.309 20.966 9.883 45.415 15.654 67.928 8.248 24.21 23.007 45.447 34.979 67.795zM1340.911 1153.743c4.56-64.122 9.204-128.409 21.252-191.636 15.395-72.445 7.64-110.887-27.354-175.18-7.852-19.7-11.473-25.798 2.69-3.143 46.318 57.856 53.247 102.846 38.37 174.655-13.475 64.745-23.407 130.281-34.958 195.304z"/><path d="M1357.471 1205.713c-15.78-75.358-19.994-153.235-39.212-227.687-7.542-28.837-22.941-55.234-28.173-84.688-5.732-37.302 14.178-73.734 38.368-100.757 6.458-6.84 13.188-13.59 20.34-19.606-5.169 6.775-10.073 13.724-14.773 20.832-58.745 93.911-21.974 106.645 1.052 196.937 14.938 70.543 15.622 143.424 22.398 214.969zM1532.627 1492.334c-28.584-8.157-81.35-18.548-100.193-40.713-41.16-50.577-6.054-140.768 11.553-196.242 14.286-43.8 41.081-95.774 9.698-138.141 45.64 41.698 15.321 105.07-1.305 153.457-14.595 49.374-45.93 131.805-11.4 176.907 10.267 12.39 25.807 17.981 40.164 24.1 16.898 7.455 34.055 14.704 51.483 20.632zM1326.25 1354.95c-100.62-72.113-110.75-80.28-92.45-205.988 2.17-13.315 4.684-26.572 7.383-39.789.716 22.942.45 46.088-.098 69.09.44 31.135-7.6 64.115 5.369 93.677 9.552 20.2 28.205 33.802 43.483 49.444 11.823 11.464 23.984 22.74 36.313 33.566z"/><path d="M1483.899 1495.58c-69.84-5.559-142.471-4.381-209.005-28.728-67.061-26.99-122.856-79.342-161.062-140.079-29.957-51.804-43.808-111.34-52.183-170.078-5.334-41.914-6.95-84.261-8.034-126.48-1.523-51.823 1.076-104.398 16.932-154.11-4.742 60.702-5.016 122.014-3.063 182.926 4.08 101.82 15.337 213.298 81.52 295.316 35.55 42.756 79.208 80.557 131.533 100.786 65.137 23.847 135.653 27.666 203.362 40.447zM429.986 1452.227c-44.455-9.734-49.504-68.042-18.773-96.101 4.87-7.329 32.865-12.86 17.219-7.097-24.088 13.18-33.556 53.81-19.34 77.002 6.018 9.15 15.461 18.445 27.142 18.149 16.205-.55 21.889-13.745 14.904-27.48-3.104-9.312-6.295-18.81-10.944-27.404 8.223 13.532 19.26 28.43 19.229 44.762-2.63 12.86-17.187 19.81-29.437 18.169zM175.99 979.841c-73.812-36.375-28.09-150.16-10.655-209.672 7.914-21.39 15.16-43.05 24.23-63.992 8.64-21.078 19.488-41.41 25.113-63.598 1.582-6.246 2.13-12.789 2.309-19.136 6.41 38.183-12.578 75-24.567 110.312-12.863 33.996-24.488 68.465-33.66 103.645-7.222 31.097-14.941 64.148-6.656 95.773 6.789 26.938 36.832 47.621 63.797 35.39 5.267-1.671 10.564-5.462 14.83-10.232.927 3.247 1.998 6.466 3.31 9.58.205.486.413.97.624 1.454-10.095 9.46-24.082 14.843-37.987 14.843-7.094 0-14.16-1.398-20.687-4.367zM236.842 964.837a83.998 83.998 0 0 1-.707-2.93c.47 1.473.95 2.942 1.41 4.415.01.028.018.056.027.085l-.218.24a87.754 87.754 0 0 1-.512-1.81zM238.681 961.522l.43.702.833 1.352a48.85 48.85 0 0 1-.32.408l-.943-2.462z"/><path d="M212.238 916.772c3.21-1.13 6.361-1.724 9.383-1.849v.029c-.016 1.656.105 3.32.328 4.96.088.644.186 1.284.293 1.922-15.904-.313-31.275 8.09-46.774 11.247-5.793 1.746-11.617 3.789-17.289 5.687 17.516-8.52 35.98-14.86 54.059-21.996zM238.561 456.54c21-24.188 41.901-48.48 62.859-72.696 12.52-15.485 25.684-32.227 29.47-52.18 7.412-61.965 31.635-122.343 79.148-164.485 35.565-36.144 83.157-55.882 133.93-46.347 11.51 1.268 22.982 2.956 34.3 5.422-15.8-.055-31.739.731-47.57 1.63-68.34-.38-125.025 50.096-157.395 106.65-18.493 31.705-23.638 68.086-31.855 103.15-8.305 29.393-32.356 50.345-53.262 71.199-16.276 16.13-32.827 32.184-49.625 47.656zM987.485 585.757c-124.711-53.384-28.966-245.604-137.173-338.494-16.18-15.017-33.96-28.125-51.771-41.108-14.375-9.543-28.325-21.32-45.464-25.15 18.265.183 34.588 9.806 50.497 17.733 68.306 34.177 110.452 95.245 116.969 171.444 10.225 63.126-2.319 141.105 46.161 190.41 14.328 14.767 44.08 30.218 58.288 7.577 3.548-12.396-15.945-42.273-23.291-53.335 4.684 3.309 17.14 22.376 22.64 32.255 21.338 26.541-11.32 48.356-36.856 38.668zM1125.174 179.265c-40.272-32.167-80.123-64.85-119.343-98.29-24.95-21.12-49.77-44.15-80.536-56.405-56.245-21.66-117.041-.148-172.013 15.7-26.88 8.827-53.948 17.186-81.244 24.64 25.207-12.993 50.966-25.426 77.335-36.07C823.527 2.48 910.478-17.39 975.781 39.55c52.765 43.12 100.505 92.406 149.393 139.716zM1312.51 653.24c-55.162-35.019-110.331-70.152-163.48-108.181-35.575-26.641-72.497-53.544-96.88-91.476-36.69-58.64-51.167-127.718-77.424-191.149-5.597-13.985-11.342-28.083-19.59-40.738 15.456 15.42 25.816 35.207 35.926 54.406 26.691 53.502 37.24 114.062 68.745 165.293 25.17 41.833 66.147 69.904 104.31 98.852 49.905 37.045 99.834 74.285 148.394 112.992zM1226.458 974.59c-7.036-59.232-12.738-118.605-18.108-178.008-6.09-41.746-5.943-109.626-50.476-128.893-4.728-1.972-9.786-2.794-14.87-2.887 6.334-1.394 13.142-1.066 19.42.803 53.555 18.043 54.128 89.653 58.823 136.814 3.32 57.293 4.648 114.863 5.21 172.172z"/><path d="M980.213 201.848c-29.546-18.352-56.831-41.124-88.907-54.95-61.853-19.15-152.752 4.334-186.85-66.26-6.868-12.686-7.788-29.61-19.502-39.027 9.217 4.051 13.606 13.676 18.408 21.888 34.536 75.523 129.55 49.71 192.937 75.704 31.077 16.077 56.58 41.231 83.914 62.645zM1116.135 1362.333c13.147-17.944 27.64-34.818 41.722-52.02-41.691-11.727-40.422-63.941-27.947-97.218 8.889-32.702 29.975-61.097 37.27-94.083 2.423-22.697-24.37-18.008-38.784-15.08 29.288-14.434 54.959-7.76 46.53 29.647-10.643 38.318-34.794 72.508-39.335 112.61-3.92 22.164 4.92 51.983 30.506 55.038 5.793-6.264 13.91-13.706 22.48-7.644 2.413.972 3.202 4.195 1.854 6.304-4 9.802-15.437 11.645-24.908 11.574-16.323 17.058-33.53 33.5-49.388 50.872z"/><path d="M1227.369 1567.788c-6.2-7.074-13.02-14.125-14.993-23.668-8.824-33.543 21.86-69.246 43.762-91.809-34.976-2.277-75.277-20.296-85.312-56.644-8.266-30.223 6.761-60.27 19.382-87.07 20.38-42.637 49.493-83.188 56.504-130.766 4.512-35.078-14.535-71.668-46.797-86.723-4.062-2.195-8.21-4.234-12.351-6.265 7.422 1.789 14.941 3.984 22.12 6.773 28.548 10.488 47.767 39.195 50.458 68.996 1.559 65.73-46.805 119.649-69.555 178.543-21.308 47.14-4.07 84.27 46.324 97.035 10.872 2.723 22.122 3.57 33.297 3.883 5.977-3.418 18.11-7.043 20.04 2.797.245 9.219-12.07 7.004-17.04 11.469-19.488 15.476-35.996 34.8-47.73 56.773-11.598 17.453-7.445 39.414 6.39 54.207.811 1.228 1.626 2.457 2.443 3.685-.54.429-1.076.86-1.61 1.296-.153.11-.31.215-.461.324-.554.392-1.102.789-1.647 1.19-1.077-1.34-2.153-2.683-3.225-4.026zM762.339 616.195c1.906-7.884 9.367-21.262 8.107-3.573 1.202-2.08 2.413-4.316 3.663-6.286-1.306 2.848-1.862 6.245-3.79 8.719-2.277 1.33-1.423-6.583-1.834-7.874-1.994 3.023-4.025 6.15-6.146 9.014zM779.286 613.072c-.226-.875-.566-1.935-.351-2.782.082.414.164.82.21 1.239v-.012c.028.215.055.43.075.644v-.011c.01.29.116.683.066.922zM785.936 613.598c-2.49-3.106-3.897-7.036-6.371-10.187 1.369.808 2.63 2.01 3.748 3.165 1.037-3.951 6.651-.849 9.378-.9-.485-1.159-1.633-1.91-2.322-2.925-.666-1.096-.712-2.07-.851-3.25.37 1.003.597 2.105 1.334 2.916.948.789 2.302 1.587 2.881 2.717 1.228 3.785-6.41.724-8.213 1.665.575 2.094 2.484 3.931 2.416 6.15-.149.906-1.355 1.241-2 .65zM800.228 594.17c-2.934-.576-5.836-1.31-8.665-2.278.763-.096 1.695-.045 2.516-.074-3.027-3.293 2.972-5.142 4.767-7.01-.015-.127-.275-.283-.294-.326-1.018-.706-2.4-.854-3.172-1.88-.728-.995-.512-2.26-.309-3.343.29-1.798.531-3.762 1.133-5.418-.268 2.099-.176 4.176-.238 6.262.018.674.117 1.497.77 1.848 7.736 2.31 2.86 4.866-.89 7.995 1.38.934 7.465 1.315 5.85 3.778-.348.441-.94.573-1.468.445zM747.152 604.626c1.561-1.588 3.78-2.297 5.438-3.771-1.642-2.452-5.482-3.566-6.02-6.706-.032-2.879 4.22-2.879 6.21-3.085.464-.136 1.292.013 1.45-.557-.824-1.689-2.302-3.108-3.277-4.616 1.406 1.46 3.305 2.636 4.277 4.434.466 2.407-4.385 2.253-5.86 3.142-2.933 1.306 8.403 4.662 5.855 8.804 1.854-.553 3.764-1.246 5.696-1.426-.089.118-.39.193-.55.305-3.834 2.206-7.62 5.161-12.036 5.968-1.242.004-2.113-1.511-1.183-2.492zM757.017 576.926c-1.825-.68-7.758-2.152-6.547-4.864 2.636-3.16 8.99 1.821 12.16 2.212 1.469-.747 1.17-2.862 2.617-3.669.805-.531 1.825-.91 2.72-1.27-.868.692-2.113 1.275-2.86 2.213-.47 1.104-.457 2.57-1.395 3.452-2.506 1.823-8.197-2.435-11.48-1.985 1.418 1.485 3.243 2.654 4.785 3.91zM792.45 579.975c-.257-1.466.937-5.403-.877-5.764-2.703 1.114-5.176 2.886-8.119 3.42 2.459-1.616 5.053-3.61 7.989-4.39 3.17.122 1.315 4.932 1.007 6.734zM383.377 629.339c-1.787-.344-1.135-1.962-.372-2.997 1.136-2.082 2.593-4.036 3.397-6.272-1.546-.036-3.095.329-4.63.156-1.028-.11-1.52-1.586-.543-2.153.94-.553 2.138-.16 3.168-.21 1.195-.09 2.624-.48 3.6.442 5.993 1.029 8.465 1.022.537 1.656-.812 3.251-3.746 5.46-5.268 8.322 1.578.744 3.534.667 5.263.911-1.613.24-3.471.24-5.152.145zM399.729 646.072c-2.037-.632-1.695-2.957-2.736-4.38a15.95 15.95 0 0 1-.137-.033c-4.268 2.363-5.73 2.91-5.483-2.724.518.908.654 2.122 1.093 3.112l.199.113c1.846-.12 4.12-3.302 5.58-.877.482.854.532 1.975.74 2.924.893 1.847 3.41 2.027 5.076 2.935-1.369-.186-2.948-.63-4.332-1.07zM413.398 651.323c-2.037-1.235-.05-6.252.125-8.27.275 1.515.392 3.23.643 4.809 1.993-8.018 4.049-9.824 11.613-5.377-.5-1.754-2.134-3.526-1.362-5.409.958-1.875 3.942-1.746 5.594-1.918.615-.004.775-.612.672-1.093-.946-2.876-2.217-5.802-2.953-8.668.969 1.89 1.97 3.76 2.952 5.6 1.03 1.672 2.755 4.304.43 5.697-1.327.772-3.104.511-4.397 1.376v.001c.906 2.22 3.325 4.695 1.863 7.154-.653.957-2.125 1.035-3.102.628-2.18-.659-4.17-2.548-6.267-2.206-1.45 1.84-2.752 8.616-5.811 7.676zM383.75 1088.98c-1.563-1.49-3.11-2.994-4.76-4.382a1562.72 1562.72 0 0 0-8.8-7.348 449.272 449.272 0 0 0-2.806-2.302c-4.723-5.302-9.057-11.484-13.007-18.643-4.434-9.13-4.223-8.102 2.078-.954 13.352 13.805 29.14 25.95 47.102 33.043 9.562 3.391 19.816 5.024 29.652 6.047 23.32 2.368 46.828 4.512 70.215 3.852-19.922 3.605-40.223 4.465-60.375 4.207-1.562.04-3.11.06-4.64.06-21.225 0-39.419-3.86-54.659-13.58z"/><path d="M388.394 1077.09c-9.352-.569-17.779-5.681-25.294-10.91-6.415-5.032-10.43-12.574-14.706-19.303 11.638 14.825 20.142 20.053 37.426 27.11 3.126 1.335 6.626 1.779 9.898 2.145-2.434.547-4.823 1.005-7.324.957zM376.519 1045.605c27.788-37.284 78.996-31.557 120.199-30.426.012 0 .012.024 0 .024-39.396 4.703-81.734 5.085-115.965 27.675-1.412.872-2.873 1.895-4.234 2.727z"/><path d="M466.388 1015.249c-12.222-.445-25.032-2.257-35.746-8.493 12.564 2.458 25.626 1.785 38.383 3.172 16.576.78 33.178 1.028 49.746 2.043-17.298 1.83-34.896 3.784-52.383 3.278zM411.453 1054.95c33.002-26.308 92.512-22.496 129.723-7.03a1321.446 1321.446 0 0 1 17.371 6.446c-7.846-1.595-15.85-3.408-23.738-5.152-23.842-6.215-48.558-6.17-72.934-3.779-16.923 1.82-34.627 2.912-50.422 9.516z"/><path d="M525.179 1038.097c-20.754-1.691-41.906 1.164-61.332 8.063-3.484 1.3-6.387 3.902-5.656 7.824-2.075-3.848.246-7.71 3.433-10.094 9.298-6.884 20.25-10.916 31.647-12.752 1.572.146 3.146.276 4.72.405 3.5.289 7 .57 10.504.8 1.37.09 2.74.183 4.11.27 1.4.616 2.789 1.263 4.18 1.898.003.004.003.004.007.004s0-.015-.004-.023c-.807-.6-1.622-1.195-2.45-1.773l.732.042c1.683.09 3.375.168 5.062.168.328 0 .656-.004.984-.008.795-.018 1.793.036 2.572-.234l.487.192c.7.273 1.402.546 2.11.82h.003c.008 0 0-.016-.007-.02-.643-.419-1.287-.845-1.934-1.27l.104-.048.01.006h.007c.003 0 .001-.008-.002-.013.24-.113.474-.232.732-.37a.744.744 0 0 0 .368-.47 39.742 39.742 0 0 1 3.312 1.615l-.082-.047c.57.32 1.14.636 1.715.953l-.055-.031c.407.23.817.453 1.223.68-.008-.005-.02-.013-.031-.016.472.261.945.527 1.414.793h.004c.007 0 .004-.016-.004-.02-1.344-1.156-2.703-2.312-4.114-3.395-.105-.078-.207-.16-.312-.238 18.945 3.946 35.445 15.059 51.523 25.25-17.851-7.558-35.41-16.93-54.98-18.96z"/><path d="M562.045 1059.804c-37.305-19.144-74.69-21.144-115.723-20.49-3.08.076-6.276.21-9.28.383 41.624-16.055 89.52-5.256 125.003 20.107z"/><path d="M550.692 1053.985c-8.993-8.85-32.826-7.28-45.374-9.628-27.48-2.766-55.867-4.289-82.77 3.035a451.1 451.1 0 0 0-12.36 3.371c5.237-2.51 10.793-4.76 16.219-6.996 28.366-10.273 59.73-11.267 89.301-6.274 11.641 3.127 28.595 5.18 34.984 16.492z"/><path d="M423.749 1054.462c10.403-13.805 33.162-19.796 49.652-22.147 17.917-2.894 36.768-.88 52.391 8.832 4.797 2.612 9.71 5.278 14.348 8.031-4.285-1.633-8.578-3.25-12.868-4.874-21.431-10.414-45.492-7.341-67.73-1.846-11.964 3.322-25.609 4.631-35.793 12.004zM336.797 1052.783a326.807 326.807 0 0 0-2.877-3.253c.49-.74.972-1.484 1.445-2.234a404.958 404.958 0 0 0 2.43-3.906 214.934 214.934 0 0 0 5.289-4.683c11.64-11.004 22.918-22.485 35.711-32.184 5.332-3.977 10.684-8.254 17.148-10.2-2.554 1.665-4.832 3.856-6.941 6.106-10.187 11.528-19.785 23.606-30.992 34.2 9.902-3.915 20.027-7.692 29.984-11.254-14.629 8.195-29.797 15.445-44.047 24.304-1.945 1.285-3.875 2.602-5.804 3.914-.45-.27-.897-.541-1.346-.81zM340.625 1055.105c-.532-.326-1.064-.65-1.597-.975 15.939-8.404 33.38-13.636 50.339-19.674-15.105 7.964-30.488 16.199-46.684 21.944-.68-.439-1.364-.87-2.058-1.295z"/><path d="M340.76 1053.173c1.055-1.116 2.126-2.239 3.238-3.316-7.345-5.054 3.314-9.653 7.508-11.692 5.374-2.398 20.799-9.945 25.75-6.878 11.367-5.554 12.056-6.382 1.012 1.244 2.136 4.527-3.411 6.3-6.687 7.503-10 4.977-21.135 7.723-30.82 13.14z"/><path d="M348.12 1046.822c17.687-16.244 39.382-27.23 60.164-38.644-18.99 14.35-38.01 29.608-60.164 38.644z"/><path d="M359.823 1038.797c12.766-14.653 31.793-21.651 48.836-30.066-15.642 10.805-32.043 21.142-48.836 30.066zM377.28 1068.056c-9.834-6.666-18.791-14.945-29.824-19.543 12.542.34 21.405 11.554 29.825 19.543z"/><path d="M383.283 1075.045c-14.481-3.426-29.572-12.105-33.14-27.555 8.513 12.694 19.22 21.56 33.14 27.555z"/><path d="M389.96 1090.5c-14.192-11.273-45.608-29.252-40.816-50.359 1.62 16.791 29.649 37.518 40.816 50.36z"/><path d="M397.885 1083.766c-14.936-6.335-49.336-14.175-50.151-33.63.12-.945.754-1.656 1.387-2.312-.26.657-.647 1.525-.54 2.298 4.622 13.644 36.99 25.416 49.304 33.644zM390.115 1073.945c-14.003-8.333-29.669-15.807-39.656-29.113 13.842 8.609 27.017 18.82 39.656 29.113z"/><path d="M371.17 1072.123c-5.066-5.08-9.973-10.353-14.398-16.011-1.829-2.545-4.395-4.844-4.785-8.106-.613-2.599 1.866-5.283 4.516-4.68 3.54.593 6.092 3.314 8.691 5.575 2.606 2.36 5.124 4.81 7.633 7.269 1.928 2.416 6.832 5.07 5.094 8.603 12.162 9.09 10.997 7.851-1.268 1.286-.36.209-.76.347-1.177.39 3.47 3.105-.493 8.58-4.305 5.674z"/><path d="M360.199 1069.189a1568.42 1568.42 0 0 0-2.369-1.873c-.228-.18-.457-.358-.686-.536-6.216-5.194-11.37-11.435-14.693-19.288 17.473 18.805 41.184 30.23 62.371 44.063-14.47-6.619-31.45-12.543-44.623-22.366zM358.69 1042.286c6.253-29.39 28.169-52.142 48.68-72.797-17.346 23.37-33.38 48.062-48.68 72.797z"/><path d="M351.34 1043.262c1.512-4.752 3.43-9.329 5.503-13.853a3.796 3.796 0 0 1 .477-2.638l-.016-.01c5.199-6.875 27.367-53.75 36.915-46.848l1.35-1.632c-.256.561-.741 1.214-1.075 1.808 2.179 1.503 2.797 4.612 1.373 6.84-5.122 7.752-10.936 15.024-16.407 22.536-5.382 7.21-10.699 14.508-16.39 21.48-.88 1.078-2.309 1.485-3.596 1.18-2.775 3.638-5.59 7.414-8.135 11.137z"/><path d="M349.546 1043.404c-7.426-6.624 6.267-23.177 10.792-29.04 5.11-7.582 10.412-15.04 16.126-22.18 5.75-5.984 10.561-15.621 18.547-18.147 6.514-1.35 10.347 6.72 5.88 11.356 2.627 5.507-3.584 10.483-6.255 14.811-4.333 5.828-8.604 11.701-13.031 17.461-4.339 5.587-8.813 11.068-13.465 16.399-4.777 5.003-10.768 15.811-18.594 9.34z"/></g></svg>