<svg xmlns="http://www.w3.org/2000/svg" width="2800" height="2800" viewBox="0 0 2100 2100"><clipPath id="a"><path d="M577.496 416.848H1603.25V1843.75H577.496z"/></clipPath><g clip-path="url(#a)"><path d="M917.433 644.848c-.725-1.293-1.453-2.583-2.18-3.874-2.052-24.581-4.66-49.378.47-73.646 9.195-67.324 52.949-114.832 118.515-131.613 3.824-1.656 7.82-2.57 11.879-3.02-2.317 1.82-4.63 3.641-6.946 5.461-1.511 1.184-2.89 2.543-4.312 3.832-2.098 1.903-4.195 3.809-6.293 5.711-31.148 18.168-61.457 41.036-81.3 71.524-12.106 22.887-20.97 47.707-25.337 73.242-2.456 17.334-3.19 34.938-4.492 52.39l-.004-.007zM1001.91 1132.112c-3.476-17.155-6.314-34.394-8.58-51.686l.08-1.08c.816-11.074 1.644-22.136 2.32-33.218.44-7.207.882-14.41 1.324-21.617.238-3.926.332-7.86.476-11.79.262-7.015.52-14.035.782-21.05.156-4.2.156-8.407.222-12.606.18-11.5.375-23 .63-34.5.109-4.926.085-9.875.339-14.8.351-6.84.707-13.684 1.058-20.528.524-10.203 1.266-20.394 1.91-30.59 1.235-18.316 2.552-36.62 3.856-54.93.461-6.437.914-12.874 1.375-19.316.422-5.937 1.05-11.87 1.578-17.8.202-2.278.417-4.554.64-6.83 1.459-3.202 3.006-6.213 4.642-8.995 1.003 1.703 2.011 3.407 3.011 5.114-.047 2.03-.015 4.066-.008 6.058.832 45.938 7.446 91.653 5.996 137.645-1.245 43.187-4.937 86.277-6.464 129.449-.86 34.203 1.351 68.387-.688 102.566-1.234 19.102-2.523 38.403-2.008 57.477-6.558-25.23-8.554-51.281-12.492-76.973zM986.27 986.295c.055-.63.112-1.26.17-1.891l-.079 5.534c-.033-1.214-.063-2.428-.091-3.643zM1116.207 765.603l.585-.14c.153.089.307.175.462.258a16.153 16.153 0 0 0 3.589 1.43c-1.842.976-3.76 1.943-5.741 2.888l1.105-4.436zM1179.104 927.752c-.123-1.579-.245-3.158-.362-4.736-.414-5.543-.742-11.094-1.336-16.622-.602-5.57-1.16-11.14-1.918-16.691-.469-3.465-.942-6.926-1.414-10.387-.301-2.195-.727-4.379-1.098-6.566-.476-2.824-.867-5.68-1.437-8.485-.579-2.84-1.149-5.68-1.72-8.519-.21-1.042-.422-2.084-.637-3.125-.576-6.817-1.17-13.635-1.847-20.441-2.265-22.805-4.761-45.59-7.277-68.371-.16-1.477-.332-2.954-.5-4.43a67.581 67.581 0 0 1 7.91-16.489c5.301-7.714 10.778-15.32 16.157-23a10.97 10.97 0 0 0 1.46-1.546c1.153-1.512 2.215-3.114 3.07-4.817l.294-.586c4.476-6.535 8.824-13.16 12.886-19.984 1.36-2.09 2.727-4.184 4.094-6.285 1.781.406 3.496-.078 4.996-1.106a.12.12 0 0 1 .028-.02c.925-.574 1.867-1.156 2.64-1.925.871-.867 1.524-1.899 2.055-3 1.039-2.152 1.582-4.473 1.934-6.824.41-2.762.914-5.52 1.285-8.285 5.46-9.918 10.02-20.262 12.547-31.418 9.605-50.403-.11-106.782-32.403-147.528-17.355-20.086-35.992-42.687-62.629-49.855-1.117-.328-2.332-.469-3.37-.813 10.64-1.78 21.48-.633 31.675 2.817 83.984 26.707 131.078 113.156 114.246 198.59-5.324 26.41-18.512 50.359-34.824 71.558-13.832 20.094-29.266 38.895-45.035 57.445-13.227 20.262-6.258 46.153-4.993 68.73 1.567 29-.12 58.118 2.567 87.099 2.602 35.172 9.539 69.972 11.629 105.132-8.839-33.095-20.352-66.06-28.673-99.517z"/><path d="M1221.532 1166.446c-.27-.152-.543-.312-.809-.472-.754-.7-1.52-1.38-2.32-2.02-1.543-1.238-3.082-2.484-4.63-3.726a41.22 41.22 0 0 1-1.189-1.335c-1.567-9.485-3.007-18.991-4.529-28.482-1.715-10.715-3.379-21.437-5.062-32.152-1.621-10.324-3.473-20.61-5.235-30.907-1.71-10.015-3.523-20.015-5.16-30.046-1.758-10.79-3.488-21.582-5.117-32.395-.496-3.304-.996-6.613-1.492-9.918-.336-2.219-.735-4.437-1-6.668-.383-3.164-.762-6.328-1.145-9.492-.293-2.422-.648-4.844-.875-7.273-1-10.723-2.09-21.446-2.941-32.184-.434-5.453-.883-10.906-1.29-16.36-.378-5.071-.685-10.15-1.19-15.21-.042-22.472.117-44.893.148-67.18.64-27.371 2.71-54.676 4.375-82 4.804 31.328 8.535 63.309 13.472 94.606-.02-.153-.043-.305-.066-.458l-.07-.464c12.828 74.785 19.015 150.523 31.347 225.336 4.528 21.628 2.684 44.847 10.207 65.675 24.711 5.215 50.157 9.332 75.348 10.7-14.328 5.726-50.543 15.117-74.195 15.117-6.864 0-12.668-.79-16.582-2.692zM976.692 638.042l.595-1.213c.012.697.03 1.395.053 2.092l.04 1.105c-.234-.66-.464-1.322-.688-1.984zM969.413 582.576c.106.068.214.134.323.197l-.387.695c.02-.297.042-.596.064-.892zM1114.63 1772.73c-10.759-25.239-23.361-49.674-34.16-74.917-14.288-38.324-31.232-73.81-51.925-108.708-10.144-19.113-19.942-38.406-29.504-57.82-10.206-20.859-22.138-41.202-27.103-64.133-9.62-51.422 4.994-109.387 42.404-146.808 22.094-21.53 8.252-5.639 3.22 9.392-16.01 41.594-16.551 88.817-6.107 131.834 5.061 18.763 14.539 35.807 21.848 53.715a4804.975 4804.975 0 0 1 24.26 58.844c12.988 30.065 25.824 60.376 32.111 92.68 7.256 35.545 17.963 70.432 24.957 105.921zM1131.272 1662.259c9.89-31.914 24.492-62.156 37.59-92.836 17.683-36.922 34.94-74.355 54.992-110.129 3.644-1.156 7.289-2.304 10.937-3.437-9.137 27.912-17.814 56.017-26.84 84.004a145.895 145.895 0 0 0-3.289 5.394c-1.351 2.328-2.508 4.723-3.687 7.14-.715 1.477-1.246 3.06-1.848 4.583-.367.93-.719 1.867-1.066 2.808a334.48 334.48 0 0 0-2.938 8.336c-.887 2.621-1.644 5.278-2.43 7.934-1.511 5.101-2.77 10.289-4.136 15.43-1.375 5.191-2.84 10.34-3.93 15.597-.184.891-.37 1.782-.556 2.673-18.75 51.382-41.745 101.281-67.428 149.472a449.184 449.184 0 0 1 14.629-96.969zM644.556 1347.449c-.012-1.813-.02-3.625-.02-5.438 0-21.773.2-43.562-.262-65.335l.012.675c-.07-3.465-.148-6.93-.23-10.394-.118-5.184-.352-10.368-.649-15.543-.262-4.54-.488-9.078-.754-13.617a3.15 3.15 0 0 0-.043-.688l-.082-1.363c-.05-.809-.097-1.617-.148-2.426.203-4.3.394-8.598.543-12.898.351-10.27.593-20.586.398-30.856v-.039c0-.008 0-.012-.004-.016v-.121c-.004-.015-.004-.027-.004-.039v-.05c0-.106-.004-.208-.004-.313.016-.383-.015-.774-.023-1.117l-.047-2.094c-.086-3.656-.2-7.309-.32-10.965-.184-5.449-.344-10.902-.512-16.351-.164-5.258-.422-10.512-.64-15.766-.208-5.102-.317-10.21-.481-15.316-.066-6.508-.148-13.016-.148-19.528v-69.054c0-21.504 0-43.004-.004-64.508 0-10.57.004-21.145-.11-31.715-.062-5.7-.129-11.402-.254-17.102-.12-5.668-.175-11.347-.421-17.011-.274-6.328-.57-12.653-.864-18.98-.105-2.25-.375-4.505-.566-6.747-.32-3.777-.645-7.555-.977-11.332-.133-1.555-.332-3.086-.535-4.633a1247.59 1247.59 0 0 0-.074-7.64c-.031-2.368-.059-4.73-.086-7.098.02-4.465.02-8.941-.156-13.402-.145-3.57-.285-7.149-.489-10.723l-.234-6.715c-.207-5.715-.68-11.433-1.047-17.144-.07-1.086-.14-2.176-.219-3.266.473 2.387.954 4.77 1.434 7.148 0 .004.008.016.012.016s.004-.004.004-.004a638.12 638.12 0 0 0-.555-17.5c-.195-4.273-.273-8.547-.484-12.812a598.49 598.49 0 0 0-.188-11.852c.324-8.023.668-16.047.723-24.078.02-2.566.078-5.14.015-7.707-.086-3.188-.172-6.375-.265-9.566-.16-5.563-.371-11.125-.528-16.688v.078c-.007-2.523-.023-5.047-.02-7.574a113.867 113.867 0 0 1 4.313-4.7 81.796 81.796 0 0 1 8.977-7.808c.297.047.601.074.91.094.819.055 1.631.15 2.443.246a21.329 21.329 0 0 0 2.206 2.871 24.46 24.46 0 0 0 4.496 3.926c.125.168.257.336.386.5a71.838 71.838 0 0 0 6.456 6.98c-3.23-2.812-6.678-5.319-10.487-7.3-10.531 25.843-3.063 55.351-3.137 82.519 1.282 28.195 3.395 56.32 5.715 84.438a5018.256 5018.256 0 0 0-.172 32.554c-.027 11.13.102 22.254.207 33.383.102 11.152.664 22.297 1.063 33.441.094 2.594.219 5.176.394 7.77.547 8.066 1.164 16.145 2.243 24.156 1.062 7.91 2.378 15.797 4.097 23.594.028.133.059.266.086.398-.027 4.399-.047 8.797-.062 13.2-.028 6.96-.051 13.922-.078 20.882-.012 3.864.101 7.723.168 11.582.125 7.43.226 14.86.437 22.29.102 3.699.39 7.386.695 11.078.676 8.113 1.586 16.207 2.98 24.23a237.95 237.95 0 0 0 2.122 10.711c.262 45.035-.754 90.07-3.38 135.04-1.327 30.577-2.39 61.16-3.663 91.741.027 20.059-3.809 40.567-.598 60.395-7.906-23.38-14.304-47.074-19.511-71.004zM696.61 731.203c-1.25-.801-2.566-1.656-3.953-2.211a25.264 25.264 0 0 0-2.221-.755c-.561-.544-1.123-1.086-1.685-1.628-7.204-6.832-13.542-15.116-20.866-22.035.375.327.754.65 1.135.969 3.75 3.12 7.461 6.277 11.516 9a143.535 143.535 0 0 0 5.625 5.93c3.984 3.937 8.086 7.78 12.379 11.39a1.966 1.966 0 0 0-.555.25 39.9 39.9 0 0 0-1.375-.91z"/><path d="m643.307 1189.293.002.043v.009a2.608 2.608 0 0 1-.002-.052zM643.295 1189.07c.004-.027.004-.054.008-.082v.137c.004.074.004.149.004.223 0-.094-.004-.184-.012-.278zM1186.208 1231.234c-65.578 3.59-50.668-248.063-57.137-298.489-1.97-32.433-5.765-95.459-20.985-134.654l2.805-11.213c1.222-4.883 2.445-9.767 3.665-14.652 5.457 6.77 10.358 15.84 14.878 27.586 23.377 69.483 20.914 145.73 23.355 217.953.289 37.369.968 74.053 1.798 111.344.11 23.777 3.566 47.312 9.812 70.171 3.067 10.5 7.352 22.864 19.746 24.594 20.266 4.125 41.098 4.043 61.696 4.188-15.558 1.99-31.053 3.567-46.586 3.567-4.346 0-8.693-.123-13.047-.395z"/><path d="m1152.789 1017.765-.007-.875c.004.258.004.32.004.383.008.328.012.66.02.984l-.017-.492zM798.42 1196.217c-1.222-2.39-2.464-4.769-3.702-7.148-.04-.078-.078-.16-.117-.242-9.692-51.164-9.61-103.77-12.301-155.7-.785-42.312-8.828-83.824-16.035-125.382-3.438-21.531-7.356-43.684-12.938-65.32a78.72 78.72 0 0 0 4.524 4.746c1.058 1.02 2.152 2.078 3.37 2.902 1.188.809 2.403 1.566 3.61 2.34.61.39 1.45.73 2.227.73.613 0 1.187-.21 1.586-.777.855-1.219.382-3.152-.075-4.414-.664-1.844-1.308-3.68-2.164-5.45-.945-1.952-2.082-3.796-3.16-5.679-.664-1.16-1.32-2.324-1.98-3.484-1.418-2.485-2.899-4.942-4.262-7.457a1304.322 1304.322 0 0 0-8.54-15.508c-.706-1.407-1.413-2.817-2.124-4.223a135.266 135.266 0 0 0 3.742 4.711c1.672 2.004 3.324 4.059 5.168 5.902 1.98 1.98 4.023 3.828 6.363 5.375 1.395.922 2.875 1.485 4.407 1.977l.773 1.336c.207 1.027.422 2.055.637 3.086.273 1.316.691 2.61 1.05 3.902.497 1.8 1.004 3.594 1.5 5.395.872 3.156 1.829 6.293 2.75 9.43l.06.206a1212.06 1212.06 0 0 0 2.48 8.387c1.933 7.352 3.921 14.703 6.074 21.996.02.067.035.133.054.2.016.042.028.082.04.124v-.004c.003.008.003.012.003.02a.205.205 0 0 1 .02.059c0-.004-.004-.004-.004-.004.89 3.066 1.8 6.125 2.73 9.183 2.481 14.407 4.704 28.727 7.09 42.606.32 1.568.629 3.136.926 4.705.136 1.6.28 3.199.43 4.799.504 5.363 1.281 10.699 2.015 16.035.56 4.054 1.381 8.087 2.26 12.096 7.607 75.916-5.045 152.997 1.768 228.994-.082-.149-.168-.297-.254-.45zM696.612 731.202c-1.25-.8-2.567-1.656-3.953-2.211a24.652 24.652 0 0 0-2.08-.713 160.48 160.48 0 0 0-6.342-5.318c-9.004-7.465-18.535-14.301-26.75-22.676 4.884 3.033 10 5.69 15.162 8.275 2.55 2.097 5.142 4.14 7.889 5.987 1.82 2.02 3.683 4 5.625 5.925 3.98 3.942 8.082 7.782 12.375 11.391a2.07 2.07 0 0 0-.555.25c-.453-.312-.91-.613-1.371-.91z"/><path d="m781.399 878.053-.047-.164.082.273-.035-.11zM884.686 1231.306c-15.855-.143-48.603-.73-70.758-9.267-.645-.836-1.266-1.691-1.902-2.534-1.253-2.06-2.543-4.098-3.739-6.191a279.524 279.524 0 0 0-3.078-5.207c-.5-.832-1.035-1.652-1.539-2.488 11.684 7.058 31.7 6.789 44.48 8.277 47.454 5.45 95.005 3.356 142.567 1.852 8.09.195 16.313.605 24.312 1.238-40.472 3.36-80.03 14.535-120.734 14.535-3.195 0-6.398-.066-9.61-.215zM809.78 1220.286l-.066-.13-.327-.638.85.979c-.152-.07-.305-.14-.456-.211zM792.64 1188.932c.055-.19.112-.38.172-.572a171.69 171.69 0 0 0 1.602 3.61 163.42 163.42 0 0 1-1.773-3.038zM793.455 1186.463a47.06 47.06 0 0 1 1.63-3.886c-.442 2.044-.684 3.945-.747 5.713-.298-.608-.593-1.216-.883-1.827zM663.126 1496.238c-22.239-.101-44.559-.047-66.59-3.48 35.558-5.399 70.828-14.117 106.957-15.645 43.965-1.5 88.015.512 131.926 2.746 23.695 2.681 48.11 4.198 71.554 9.168 1.255 1.152 2.507 2.306 3.76 3.46-7.802-.469-15.66-.395-23.459-.561-38.977-.797-77.941.64-116.91 2.078-31.278 1.156-62.563 2.309-93.848 2.309-4.465 0-8.926-.024-13.39-.075z"/><path d="M1040.518 1775.435c-13.594-30.094-30.98-58.258-44.586-88.356-29.45-58.445-47.504-123.253-86.579-176.421-5.855-7.141-12.527-13.82-20.218-18.867 5.73 2.05 11.218 4.796 16.258 8.199 60.398 45.062 82.191 121.46 112.105 187.304 14.719 34.625 32.742 67.934 43.008 104.309 5.046 16.68 9.177 33.63 13.32 50.575-2.612.007-5.224.013-7.836.014-8.003-22.44-15.768-44.977-25.472-66.757zM1148.218 1843.34l-2.543-.13c.567-2.015 1.133-4 1.641-5.93 6.024-21.026 13.274-41.675 20.711-62.237 29.72-81.15 58.727-162.721 93.196-242.006 3.424-3.067 6.835-6.148 10.236-9.244-9.48 29.492-18.372 59.175-27.346 88.832a339.59 339.59 0 0 0-10.133 23.355c-3.433 8.777-6.683 17.637-9.387 26.672l-.011.035c-.274.7-.547 1.395-.813 2.098-1.566 4.117-3.136 8.238-4.703 12.355-2.078 5.45-4.18 10.89-6.226 16.348-.536 1.426-.985 2.89-1.473 4.332-1.113 3.297-2.223 6.594-3.336 9.887-2.27 6.718-4.54 13.437-6.805 20.156-1.09 3.234-1.965 6.543-2.906 9.824-2.129 7.426-4.258 14.852-6.39 22.277-.66 2.305-1.317 4.594-1.907 6.91-.402 1.012-.773 2.04-1.164 3.055l-3.973 10.305c-2.035 5.273-4.132 10.523-6.101 15.82-1.082 2.91-2.168 5.82-3.254 8.735a857.819 857.819 0 0 1-7.879 15.757c-2.754 7.036-7.266 14.746-11.555 22.723-1.562.063-3.125.14-4.687.23-1.063-.054-2.129-.105-3.192-.16zM1303.092 1494.984a86.57 86.57 0 0 0 1.907-1.875c2.676-1.546 5.347-3.097 8.012-4.66 33.567-10.754 70.43-11.86 105.289-14.004 32.3-2.21 64.601-4.098 96.972-4.918 22.637-1.055 45.485-.871 67.613-6.39-19.511 8.343-40.726 11.519-61.613 14.816-33 5.054-66.137 9.32-99.273 13.402-8.157 1.168-16.36 1.973-24.594 2.567l-14.805.867c-28.62 1.359-57.431 1.22-85.539 5.68 2.029-1.808 4.062-3.612 6.032-5.485z"/><path d="M1571.257 1475.924c-14.132-73.582-14.022-149.44-11.937-224.106 4.493-56.188 10.224-112.372 9.85-168.84 1.71-63.43-.88-126.641-8.294-189.656-3.837-47.761-6.062-95.636-10.344-143.363-2.369-27.853-3.296-55.8-5.686-83.648-3.814-19.587 1.152-69.565-31.033-41.962-33.56 30.84-66.119 63.151-94.248 99.103-36.627 43.236-70.767 89.766-87.237 144.718-9.86 32.567-13.986 66.55-21.451 99.711-8.249 35.36-9.09 71.614-10.046 107.742-6.865-51.365-4.007-102.998 4.08-154.112 4.25-66.564 31.117-129.733 73.692-180.808 34.355-44.469 71.624-86.4 112.906-124.575 14.781-15.872 40.842-30.235 59.753-12.666 17.543 24.878 13.796 74.861 17.484 105.407 5.062 65.76 8.934 131.602 14.316 197.332 5.704 47.985 8.422 96.167 7.273 144.489.848 66.235-3.522 132.29-9.819 198.18-.849 75.793-3.724 151.514-9.26 227.054zM943.287 980.08c.91-37.997 7.047-75.606 8.684-113.543-.1-45.126 2.858-90.489-1.054-135.484 1.354-5.626 2.723-11.247 4.081-16.872l.256-1.056.12-.053c25.46 77.836 19.733 162.086 8.343 242.125-6.34 74.297-13.567 148.746-31.567 221.207 7.223-65.227 10.274-130.723 11.137-196.324zM948.086 691.084l.036-.311c.253-.83.518-1.658.793-2.482l-.411 1.894-.246 1.133c-.059-.078-.113-.156-.172-.234zM1432.53 1416.733c1.921-.242 3.765-.785 5.66-1.195 2.327-.508 4.644-1.031 6.933-1.711.957-.285 1.914-.574 2.867-.875-.354.201-.708.401-1.064.6a234.492 234.492 0 0 1-15.03 3.53l.633-.349zM1125.756 1690.819c-.02.062-.035.129-.05.195-.02.086-.044.168-.063.254 5.683-26.942 15.437-52.567 26.137-77.852 9.71-26.12 21.097-50.812 31.886-76.386 11.542-23.987 19.454-49.583 29.285-74.281l.606-.192 6.318-2.004c-7.658 24.653-13.271 50.016-23.334 73.898-18.738 51.817-42.363 101.817-58.41 154.579-8.398 24.574-17.293 49.308-21.707 74.906-.992-24.688 3.434-49.238 9.332-73.117zM1046.983 627.568l.42-.848-.104 1.13-.316-.282z"/><path d="M872.515 1184.764c-15.138-.077-26.492-1.05-30.863-17.89-5.458-18.873-6.765-38.648-7.285-58.195-1.215-48.81.16-97.583-2.017-146.32-2.008-39.565-14.818-77.251-26.303-114.82-6.595-20.457-11.54-41.519-19.746-61.411-8.371-17.94-16.314-36.152-20.29-55.551 6.83 22.396 19.944 41.817 30.114 62.672 8.306 19.636 15.547 39.73 22.667 59.824 9.411 25.212 18.557 50.759 22.967 77.399 8.157 56.284 3.491 113.613 5.424 170.013.923 19.325.245 54.205 10.839 69.88 16.38 2.433 49.293 3.329 63.112-5.02 10.25-6.22 8.831-19.73 10.033-30.112.95-10.442 2.084-20.871 2.95-31.324.904-17.112 5.215-33.733 7.427-50.671 1.641-21.03 3.51-42.044 4.85-63.095 3.357 26.599 6.936 53.956 4.215 80.81-2.682 21.176-4.205 42.467-6.35 63.702.56 50.118-30.952 50.54-71.744 50.109z"/><path d="M825.376 920.137c-.882-4.556-1.856-9.107-3.217-13.542-.651-2.126-1.287-4.24-2.028-6.325 2.838 6.96 5.282 14.197 6.215 21.606-.344-.57-.667-1.15-.97-1.739zM802.664 840.197c-12.27-34.742-27.594-68.242-46.75-99.726-24.18-44.727-49.368-87.66-95.844-112.235-6.935-4.304-14.086-8.653-19.885-14.387.66.292 1.32.585 1.981.876a66.214 66.214 0 0 0 8.033 5.207c18.742 9.86 38.836 17.91 54.629 32.43 24.789 21.515 42.773 49.492 59.406 77.484 25.871 40.996 45.82 85.601 58.02 132.578l-.07-.254-.083-.27c4.133 14.587 8.246 29.196 11.637 43.973 1.59 6.586 1.312 13.695 3.668 20.024-11.649-28.477-23.98-56.797-34.742-85.7z"/><path d="M696.255 661.59c-18.069-17.787-40-31.03-63.616-39.9a585.083 585.083 0 0 0-4.032-2.519 197.273 197.273 0 0 0-11.985-6.877c7.218.928 14.39 2.07 21.375 4.522 20.368 6.457 40.641 15.91 56.66 30.273 7.547 7.407 14.422 15.457 22.165 22.668 6.097 5.961 12.699 12.246 15.359 20.512-9.438-12.371-25.16-17.61-35.926-28.68zM592.192 608.375c.285.074.57.147.857.217-.139.307-.25.625-.334.95-5.038-1.945-8.558-3.577-.523-1.167z"/><path d="M635.58 620.34c-5.646-2.657-11.336-4.91-17.046-7.024a178.015 178.015 0 0 0-3.4-1.796c-2.433-1.254-4.851-2.59-7.347-3.71-2.727-1.224-5.496-2.196-8.434-2.782a5.104 5.104 0 0 0-2.844.26 245.192 245.192 0 0 1-5.437-2.163 181.26 181.26 0 0 0-3.434-1.308l1.438-2.668c.437.07.879.129 1.332.156.453.031.906.047 1.355.055 43.723 4.625 77.473 30.328 106.281 62.453-19.457-15.805-39.988-30.25-62.464-41.473z"/><path d="M602.547 1227.685c-2.469-30.121-7.488-59.934-11.148-89.914-6.575-63.328-5.766-127.742-6.95-191.282-2.546-114.566-6.703-229.554 2.75-343.859.625-1.16 1.25-2.32 1.88-3.48.351.058.71.105 1.074.132 2.382 24.895 4.02 49.977 4.761 74.98 1.336 57.29-.976 114.583-.336 171.876 2.86 76.3 3.176 152.656 5.383 228.973-.2 32.847 2.338 65.571 4.721 98.302.16 3.087.338 6.175.541 9.264.306 4.676.672 9.349 1.084 14.019 1.2 24.47-1.152 49.173 2.295 73.399-3.68-13.844-5.125-28.156-6.055-42.41z"/><path d="M613.045 1484.259c-4.86-21.083-6.159-42.772-9.07-64.168-6.967-43.156-10.136-86.722-10.636-130.418-2.106-64.434-6.24-129.41 3.749-193.36 6.334 82.671 9.489 166.218 9.294 249.023.42 21.777 1.616 43.51 3.155 65.232 1.77 24.51.842 49.31 3.508 73.691zM649.732 691.737c3.102.863 6.097 1.996 9.008 3.325.08.104.16.206.242.308a71.503 71.503 0 0 0 5.805 6.355c-5.202-3.074-10.256-6.371-15.055-9.988zM1183.464 771.497c4.02-20.901 12.663-40.682 21.47-59.964 15.517-33.623 34.566-65.625 56.84-95.133-18.676 34.113-34.793 69.483-50.775 104.91-8.117 17.285-18.865 33.283-27.535 50.187z"/><path d="M1183.015 762.063c.238-8.8 3.526-17.14 6.45-25.332 4.976-13.355 10.86-26.777 17.515-39.297a31.696 31.696 0 0 0-.265.48c20.62-38.803 46.304-74.766 73.066-109.445-11.588 20.71-23.668 41.141-35.222 61.867.086-.168.158-.292.238-.445-13.971 24.606-26.443 50.036-40.81 74.41-6.979 12.531-16.122 24.244-20.972 37.762z"/><path d="M1196.049 740.489c.976-44.211 30.36-93.798 57.66-127.543 3.15-3.818 6.324-7.798 9.516-11.48-2.984 4.902-5.972 9.805-8.96 14.707-16.571 26.385-29.202 54.881-41.25 83.535-6.113 13.387-12.743 26.713-16.966 40.781z"/><path d="M1189.305 753.973c-.522-15.381 6.366-30.11 11.185-44.456 13.283-34.45 33.289-66.134 56.012-95.044 4.915-6.313 9.832-12.811 14.79-18.995-20.813 35.228-41.515 70.519-57.868 108.097-4.656 9.62-9.773 19.707-14.785 28.944-3.434 6.952-7.917 13.844-9.334 21.454z"/><path d="m1281.578 589.18.024.152.396 2.422c-21.77 32.974-44.047 65.64-63.36 100.148-10.032 17.711-22.188 34.39-31.13 52.633 13.408-60.434 54.506-109.192 94.07-155.356z"/><path d="M1181.666 771.95c.079-19.439 8.702-37.755 15.76-55.523 15.78-37.112 39.196-69.986 63.507-101.91.007-.012.027 0 .02.016-18.903 34.154-38.393 67.745-53.58 103.706-7.8 18.316-19.997 34.788-25.707 53.711z"/><path d="M1183.465 755.776c-4.716-29.752 37.816-98.216 55.782-123.18.008-.012.031 0 .024.012-13.984 27.638-26.548 55.946-38.97 84.308-4.798 10.66-10.728 20.845-15.282 31.578-.956 2.31-1.566 4.839-1.554 7.282zM1008.741 792.399c.134-.393.265-.784.393-1.173a133.663 133.663 0 0 1-.62 3.582l.227-2.41z"/><path d="M1126.68 843.921c-8.574-24.379-15.535-49.32-24.09-73.675-13.875 5.972-28.293 11.468-43.664 10.59-10.93-.348-22.387-.45-32.317-5.63-3.039 24.536-6.738 48.817-8.472 73.485-1.93 19.523-5.516 38.824-7.953 58.289-1.598-10.77-2.946-21.773-3.606-32.703-.708-8.308-1.44-16.614-2.076-24.925.605-8.545 1.215-17.088 1.822-25.634.461-6.437.914-12.875 1.375-19.316.422-5.938 1.051-11.871 1.578-17.8.864-9.774 1.985-19.524 2.899-29.294.332-3.58.71-7.162 1.051-10.746 4.789-2.648 11.22-2.094 15.57 2.496 5.105 5.922 11.789 9.441 19.621 9.992 7.184.805 16.488 1.457 23.316.73 15.668-.656 38.497-20.44 46.543 2.227 7.414 24.82 11.696 50.551 17.559 75.79 7.418 27.652 10.656 56.222 12.961 84.624-6.219-26.484-12.25-53.078-22.117-78.5z"/><path d="M1008.557 852.058c-.714-32.822-1.103-67.241 11.813-97.98.676 32.957-6.902 65.553-11.813 97.98z"/><path d="M1006.324 823.718c.461-6.437.914-12.875 1.375-19.316.422-5.938 1.05-11.871 1.578-17.8.197-2.23.408-4.459.626-6.687 2.605-7.769 5.949-14.345 10.218-18.798-3.941 10.922-3.953 22.754-6.184 34.058-2.844 14.177-5.87 28.37-8.612 42.582l1-14.039z"/><path d="M1005.367 837.172c.32-4.484.64-8.97.958-13.454.461-6.437.914-12.875 1.375-19.316.422-5.938 1.051-11.871 1.578-17.8.277-3.13.58-6.259.894-9.385 2.142-7.205 5.1-14.15 9.142-20.698-1.621 7.563-1.93 15.328-2.914 22.988-3.48 24.676-7.383 49.41-10.278 74.118-.242-5.394-.529-10.897-.755-16.453z"/><path d="m1005.364 837.208.962-13.49c.461-6.437.914-12.875 1.375-19.316.422-5.938 1.05-11.871 1.578-17.8.34-3.846.72-7.686 1.11-11.526 2.466-9.587 6.143-17.345 11.628-21.256-3.32 4.82-3.609 10.96-4.453 16.586-.714 7.746-1.656 15.472-2.918 23.148-2.808 18.274-5.87 36.653-9.324 54.75.046-3.083.039-6.851.042-11.096z"/><path d="M1006.325 823.718c.461-6.437.914-12.875 1.375-19.316.422-5.938 1.051-11.871 1.578-17.8.527-5.96 1.149-11.909 1.761-17.86 1.71-3.466 3.746-6.172 6.165-7.848-2.14 3.383-2.336 7.567-2.914 11.43-.926 9.32-1.687 18.664-3.207 27.91-1.986 12.684-3.908 25.452-5.803 38.162.349-4.893.698-9.784 1.045-14.678z"/><path d="M1006.325 823.718c.461-6.437.914-12.875 1.375-19.316.422-5.938 1.051-11.871 1.578-17.8.577-6.524 1.268-13.037 1.935-19.552 1.665-4.666 3.62-8.028 5.92-9.464-3.773 5.457-1.66 15.902-2.503 22.578-.25 5.41-.871 10.761-1.656 16.117-1.983 13.197-4.652 26.339-7.5 39.395l.851-11.958z"/><path d="M1007.7 804.402c.422-5.938 1.051-11.871 1.578-17.8.864-9.774 1.985-19.524 2.899-29.294.076-.827.156-1.653.236-2.48 1.092-1.588 2.303-2.79 3.65-3.438-4.195 4.887-2.5 17.574-3.577 24.156-.446 5.391-1.25 10.707-2.22 16.024-.887 4.383-1.753 8.777-2.59 13.178l.024-.346z"/><path d="M1007.7 804.402c.422-5.938 1.051-11.871 1.578-17.8.401-4.536.857-9.065 1.322-13.594-.284 11.504-1.478 22.88-3.101 34.223l.201-2.83z"/><path d="M1006.325 823.718c.461-6.437.914-12.875 1.375-19.316.422-5.938 1.051-11.871 1.578-17.8.134-1.516.274-3.031.419-4.545 1.285-1.999 2.688-3.788 4.214-5.33-3.398 11.097-3.465 22.87-5.031 34.3a2329.853 2329.853 0 0 0-3.315 23.365l.76-10.674z"/><path d="M1006.325 823.718c.461-6.437.914-12.875 1.375-19.316.422-5.938 1.051-11.871 1.578-17.8.408-4.61.872-9.216 1.345-13.82.973-2.051 2.06-4.05 3.284-5.99-2.402 12.301-.894 24.973-2.582 37.372-1.254 10.293-3.712 20.398-5.782 30.549l.782-10.995z"/><path d="M1002.696 875.313c1.168-17.203 2.408-34.397 3.63-51.595.46-6.437.913-12.875 1.374-19.316.422-5.938 1.051-11.871 1.578-17.8.051-.577.103-1.152.156-1.728a105.394 105.394 0 0 1 3.637-8.628c-1.23 37.12-5.312 74.437-9.672 111.308-.21-4.052-.455-8.137-.703-12.24z"/><path d="M1010.592 895.89c-2.555-46.187-3.67-98.444 13.053-140.164 1.466 24.285-1.218 49.48-4.675 73.219-2.727 22.303-5.123 44.782-8.378 66.945z"/><path d="M1010.21 885.26c-.103-23.268 1.225-46.508 3.444-69.667 1.406-15.426 2.625-31.245 7.012-46.098 1.07 11.173 2.905 22.276 2.642 33.543-1.528 27.7-7.937 55.085-13.099 82.223z"/><path d="M1021.013 889.017c-1.966-32.68-2.326-65.676 1.965-98.188a236.088 236.088 0 0 1 4.692-23.129c.984-3.906 1.828-8.207 4.328-11.46-1.288 6.986.274 14.313.215 21.429a260.65 260.65 0 0 1-.027 14.809c-2.168 32.288-7.184 64.496-11.173 96.539z"/><path d="M1016.449 942.144c-2.906-40.834-5.993-82.103.02-122.727 3.054-15.172 7.274-30.295 13.368-44.52-1.23 55.817-8.134 111.695-13.388 167.246z"/><path d="M1068.157 795.451c-15.357-.656-30.948-4.856-42.812-14.944 19.985 6.453 42.483 5.174 62.639-.402-17.404-.094-35.436 1.634-52.432-2.4 10.837.682 21.459-1.455 32.107-2.885 8.623-1.308 16.617-2.403 24.806-3.654 6.663-.428 20.683-5.582 25.79-2.648 2.613 1.649 3.445 5.402 1.817 8.013-13.89 11.867-33.481 19.493-51.915 18.92z"/><path d="M1055.514 790.46c-8.126-.409-16.37-1.278-23.984-4.247-6.795-2.949-6.855-13.407-.062-16.308.07-1.325.164-2.8.542-4.016-.114 1.248 0 2.485.14 3.72 9.08-1.952 18.672-.542 27.923-.774 8.535.144 17.066.496 24.57.703 2.168-.043 4.215.004 6.188 1.03 2.488 1.294 4.12 3.528 4.578 6.306 2.453 14.837-30.331 13.284-39.895 13.586zM1125.219 828.247c-7.708-14.652-25.814-41.234-18.422-57.563-.206 8.26 4.09 15.636 6.423 23.348 3.972 11.392 8.43 22.757 11.999 34.215z"/><path d="M1124.605 824.141c-8.66-14.117-25.6-39.733-23.46-56.289 1.62 6.536 5.69 12.127 8.3 18.281 5.36 12.518 10.184 25.398 15.16 38.008z"/><path d="M1129.203 828.645c-8.71-12.053-29.535-42.68-30.413-56.555 2.923 5.743 7.663 10.336 10.871 15.933 7.56 12.96 13.151 27.133 19.542 40.622z"/><path d="M1126.515 827.22c-11.714-15.756-26.752-36.74-25.76-55.982 1.97 5.896 5.649 11.374 7.94 16.838 5.336 13.294 11.723 26.272 17.82 39.144z"/><path d="M1119.78 819.8c-7.266-13.58-18.09-27.58-16.515-43.704 5.211 14.64 11.858 28.917 16.515 43.703zM1051.406 760.464c-13.841-2.04-27.044-8.005-37.921-16.708.058-.663.114-1.327.168-1.99 15.656 5.064 31.509 9.962 47.824 12.296 9.074.785 17.734 1.867 26.582 1.105a200.084 200.084 0 0 0 23.73-4.105c-9.05 4.195-18.742 7.746-28.668 9.41-5.407.653-10.88 1.015-16.348 1.015-5.143 0-10.282-.32-15.367-1.023zM1006.325 823.718c.461-6.437.914-12.875 1.375-19.316.422-5.938 1.051-11.871 1.578-17.8.864-9.774 1.985-19.524 2.899-29.294.327-3.528.7-7.057 1.036-10.588.323-.37.67-.726 1.042-1.064-.664 1.144-1.16 2.668-1.223 4.008-.3 19.187 1.082 38.054-.992 57.109-1.408 5.078.279 15.687-5.746 17.38l.031-.435z"/><path d="M1013.312 745.65c.051-.547.101-1.095.15-1.643 3.4 2.409 6.06 6.187 8.713 9.16-3.149-2.308-6.035-4.893-8.863-7.517zM1012.345 755.535c.241-2.504.498-5.008.743-7.513.593 4.786.554 9.735.816 14.438-.555-2.27-1.116-4.587-1.56-6.925z"/><path d="M1012.883 750.092c.114-1.141.226-2.284.335-3.425.986 3.533 1.931 7.085 3.459 10.313-1.497-2.047-2.884-4.403-3.794-6.888zM1013.259 746.232l.094-1.012c2.637 1.345 4.912 3.46 6.82 5.674-2.21-1.688-4.598-3.135-6.914-4.662z"/><path d="m1013.348 745.28.077-.842c2.457 1.243 4.663 3.106 6.619 4.894-2.238-1.313-4.589-2.525-6.696-4.052zM1013.167 747.206l.064-.677c.836.704 1.607 1.467 2.29 2.158a54.287 54.287 0 0 1-2.354-1.48z"/><path d="m1013.206 746.801.124-1.322c1.208 1.698 2.298 3.525 3.554 5.052a22.487 22.487 0 0 1-3.678-3.73zM1013.408 744.629l.086-.963c1.771 1.4 3.313 3.167 4.804 4.708-1.692-1.138-3.37-2.373-4.89-3.745z"/><path d="m1013.443 744.24.077-.875c1.524 1.098 2.95 2.432 4.22 3.615-1.494-.85-2.951-1.722-4.297-2.74z"/><path d="m1013.485 743.761.084-.978c1.664 1.12 3.263 2.348 4.792 3.521-1.589-.753-3.322-1.545-4.876-2.543z"/><path d="m1013.49 743.71.066-.773c1.09.783 2.08 1.706 2.969 2.617-.99-.623-2.015-1.23-3.035-1.844z"/><path d="m1013.482 743.799.06-.7a17.77 17.77 0 0 1 2.65 2.725c-.818-.725-1.781-1.36-2.71-2.025z"/><path d="m1013.457 744.082.064-.732c.885.858 1.785 1.755 2.527 2.638a37.746 37.746 0 0 1-2.591-1.906z"/><path d="m1013.488 743.732.062-.72c.729.753 1.406 1.55 2.049 2.35-.685-.53-1.4-1.071-2.111-1.63zM1013.37 745.054l.075-.843c.756.935 1.446 1.906 2.083 2.812a80.808 80.808 0 0 1-2.159-1.969z"/><path d="m1013.418 744.517.034-.384c.296.376.584.755.862 1.132-.29-.245-.591-.494-.896-.748z"/><path d="m1013.4 744.722.02-.237c.139.231.272.459.402.679a57.023 57.023 0 0 1-.423-.442zM1013.54 743.123l.053-.611c.217.172.434.34.65.503-.008-.004-.015-.012-.023-.015.574.445 1.293.894 1.773 1.355a26.116 26.116 0 0 1-2.452-1.232z"/><path d="m1013.525 743.3.09-1.05c1.267 1.158 2.462 2.4 3.636 3.519-1.23-.748-2.511-1.562-3.726-2.469z"/><path d="m1013.48 743.818.108-1.254c.477.404.94.8 1.39 1.154 1.593 1.149 3.406 2.235 4.925 3.368-2.33-.744-4.46-1.887-6.423-3.268zM1290.607 1174.435c-21.983-.64-44.619-1.353-66.471-5.234l-.08-.074c-1.863-1.735-3.664-3.582-5.652-5.176-1.295-1.04-2.585-2.083-3.879-3.123 8.377-.44 16.75-1.13 25.125-1.822 17.062-1.41 34.133-2.825 51.265-2.098 2.376-21.305 1.622-42.867 2.82-64.262 1.47-31.87 3.727-63.691 6.442-95.476 2.871 32.152 4.953 64.597 6.614 96.906.906 16.293 1.796 32.59 1.918 48.91.195 12.66.597 31.59-15.567 31.594-.805 0-1.645-.047-2.535-.145z"/><path d="M1278.213 1221.571c-18.445-.441-36.887-1.184-55.305-2.316l-1.277-7.457a2737.309 2737.309 0 0 1 25.938-3.567 6.044 6.044 0 0 0 1.125-.152c33.191-4.403 66.48-8.387 99.593-13.23 2.086-11.434-1.433-22.934-3.394-34.153-3.324-16.977-4.867-34.238-5.746-51.496-1.414-34.309-1.653-68.75-.446-103.063 2.34-34.55 11.18-68.261 21.07-101.32 8.102-30.441 20.094-59.516 32.985-88.191 5.364-12.739 11.697-24.793 18.995-36.128 1.993 2.39 5.857 3.132 8.353 1.003 2.984-2.543 5.957-5.122 8.808-7.817.559-.527 1.114-1.055 1.672-1.586.685.394 1.431.674 2.2.827a260.168 260.168 0 0 0-7.81 13.068 430.094 430.094 0 0 0-7.542 16.06 239.934 239.934 0 0 1-2.649 3.557c-2.004 2.629-4.312 5.043-5.812 8.02-.66 1.308-1.215 2.73-1.414 4.19-.227 1.677.21 3.235.68 4.817.08.272.178.537.292.793-15.438 39.605-26.197 81.174-36.492 122.22-9.965 37.526-12.168 76.163-10.957 114.823.196 24.332.38 48.825 3.043 73.028l.024 3.199.023 3.117c-.172 2.418-.23 4.844-.34 7.27-.347 7.753-.695 15.511-1.039 23.27-.152 3.433-.343 6.859-.375 10.292-.058 6.008-.11 12.012-.164 18.024l-.785 15.058c-.016.223-.027.445-.04.668-3.831 2.617-8.92 4.067-15.593 3.863-20.187 2.047-40.484 3.36-60.781 3.36-2.281 0-4.559-.016-6.84-.051zM1477.756 714.028c-.062-.059-.121-.117-.184-.172.452-.434.9-.869 1.348-1.303l.572-.385c-.49.717-.978 1.434-1.462 2.157-.086-.102-.18-.2-.274-.297zM1189.267 1216.715c6.82-1.11 13.651-2.169 20.489-3.188.28 1.635.56 3.27.842 4.906a1175.235 1175.235 0 0 1-21.33-1.718zM945.692 1348.004c4.726-7.086 11.087-15.282 18.176-22.568.385.81.79 1.607 1.215 2.396.448 1.535.92 3.063 1.46 4.559.207.57.418 1.14.625 1.71-5.746 7.661-11.543 15.286-16.566 23.442-14.637 25.219-26.906 52.5-33.144 81 1.812-31.742 12.238-63.148 28.234-90.539zM654.92 1445.466a75.553 75.553 0 0 1-1.984-1.727c-.334-.337-.66-.678-.982-1.024 5.334-4.762 11.293-8.764 17.978-11.28 23.11-7.055 47.602-6.723 71.738-6.391 5.606.078 11.196.152 16.743.14 51.496 2.301 102.597 9.352 154.168 11.153-20.782 1.422-41.833 2.726-62.735 3.156-21.933.617-43.848-.016-65.742-1.234-11.266-.325-22.285-.11-33.3.105-8.954.176-17.907.352-26.993.238-26.915-.1-47.27-3.899-68.688 7.022a42.801 42.801 0 0 1-.203-.158zM997.315 1340.705c8.83-16.704 19.913-32.474 33.574-45.58l.859 2.699c-13.01 16.921-22.801 36.01-32.929 54.736-4.117 8.074-10.164 15.566-12.57 24.293-.688-11.074 6.246-26.156 11.066-36.149zM1040.896 1286.391l.125-.098.135.387-.139.156c-.043-.148-.082-.296-.12-.445z"/><path d="m1031.54 1297.178 1.094 3.435c-5.636 10.59-11.391 20.992-16.898 31.716-3.868 7.73-7.09 15.754-10.891 23.524-3.977 7.848-8.016 15.25-11.84 22.984 3.61-30.859 20.587-56.999 38.536-81.659zM1040.517 1284.985l.033-.045.078.226-.04.08c-.024-.085-.047-.171-.07-.261zM954.535 1332.756c2.614-3.325 5.41-6.5 8.356-9.526l.07.17a48.922 48.922 0 0 0 2.123 4.435l.104.354c-5.293 6.676-10.207 13.664-14.832 20.836-4.871 7.512-10.684 15.125-12.426 24.028-1.88-15.118 7.848-28.875 16.605-40.297z"/><path d="M964.547 1326.814c.174.34.352.678.533 1.014.21.724.427 1.446.655 2.162-2.332 2.121-4.676 4.223-6.899 6.38a78.834 78.834 0 0 1 5.711-9.556zM927.786 1526.633c-4.203-4.957-9.29-9.156-13.344-14.293a284.274 284.274 0 0 1-10.05-12.45c-3.735-2.64-7.415-5.433-11.426-7.64 2.543.46 5.164 1.344 7.66 2.215-1.9-3.548.952-7.294 4.261-7.266l1.192 1.008c2.617 2.399 5.219 4.805 7.832 7.207.157.144.31.292.464.441 2.165 2.95 4.264 5.965 6.88 8.532 1.247.995 3.54 2.674 6.054 4.71 2.28 2.412 4.543 4.84 6.825 7.25 1.24 1.415 2.477 2.831 3.713 4.248 1.19 2.73.829 5.216-2.405 6.936 7.207 11.735 12.696 24.532 18.086 37.09-8.094-12.988-16.078-26.086-25.742-37.988z"/><path d="M966.49 1612.096c-12.726-23.823-21.988-49.206-32.965-73.83-6.503-14.127-14.769-27.355-21.871-41.13 9.378 9.219 18.92 18.79 25.376 30.464 13.698 26.568 19.625 56.48 29.46 84.496z"/><path d="M948.96 1569.598c-12.769-24.12-29.015-48.021-35.625-74.713l.574.53c.746.687 1.442 1.441 2.157 2.164 1.668 1.68 3.332 3.363 5 5.043.486.49.969.983 1.451 1.477 5.16 8.276 10.634 16.394 15.209 24.984 18.3 32.812 32.469 67.8 44.883 103.125-11.465-20.738-22.247-41.836-33.649-62.61z"/><path d="M914.27 1495.754c.613.592 1.198 1.22 1.797 1.825 1.668 1.68 3.332 3.363 5 5.043.715.72 1.424 1.446 2.131 2.175 10.53 13.919 16.126 27.171 22.799 46.13 6.148 16.675 12.484 33.437 18.613 50.046-19.808-33.559-34.305-69.846-50.34-105.22z"/><path d="M938.716 1532.235c-3.02-6.61-5.82-13.316-8.515-20.066 1.308 1.394 2.617 2.789 3.933 4.18 1.334 1.52 2.665 3.043 3.996 4.569.932 1.247 1.863 2.495 2.793 3.743 2.742 4.16 5.563 8.277 8.047 12.601 1.76 3.061 3.513 6.123 5.247 9.195 2.497 6.368 4.97 12.746 7.624 19.047 6.715 16.543 14.555 32.73 21.711 49.008-17.633-25.902-32.695-53.387-44.836-82.277z"/><path d="M947.892 1545.668c-3.71-8.629-7.64-17.234-10.91-26.066l1.149 1.317c.931 1.247 1.863 2.494 2.792 3.741 2.742 4.16 5.563 8.278 8.047 12.602 2.93 5.098 5.844 10.195 8.68 15.348a709.291 709.291 0 0 1 7.851 14.617c2.414 4.633 4.829 9.262 7.266 13.879 2.52 4.772 5.06 9.533 7.613 14.289a561.735 561.735 0 0 1 14.399 39.976c-15.055-30.207-32.117-59.379-46.887-89.703zM1057.928 1794.418c-11.7-25.03-25.465-49.285-36.219-74.722-2.11-4.809-4.41-9.7-6.191-14.57 13.133 16.875 26.242 33.98 37.082 52.449 14.772 26.831 25.423 55.51 34.943 84.573-2.652 0-5.303.006-7.955.013-6.987-16.01-14.007-32.006-21.66-47.743z"/><path d="M1071.272 1828.646c-6.961-17.418-15.297-35.793-13.914-54.902 2.257 9.93 7.328 18.925 11.203 28.28 6.204 13.013 10.66 26.536 14.814 40.129-2.254.004-4.507.01-6.76.017-1.78-4.512-3.542-9.029-5.343-13.524z"/><path d="M1052.123 1776.618c4.344 14.426 11.152 27.977 16.07 42.211 2.78 7.787 5.586 15.575 8.462 23.34-2.754.008-5.509.017-8.262.02-10.125-23.011-17.246-46.777-16.27-65.57z"/><path d="M1066.979 1791.316c1.87 17.824 12.152 33.313 17.246 50.285.065.184.13.368.197.553-2.67.003-5.341.01-8.01.019-6.34-16.13-13.444-33.54-9.433-50.857z"/><path d="M1076.995 1820.14c-28.439-47.055-53.323-96.245-77.38-145.558 23.39 22.624 37.69 52.507 50.653 81.906 9.238 21.05 18.245 42.361 26.727 63.652zM1148.22 1843.338c-2.73-.141-5.461-.274-8.191-.415 5.277-14.699 10.882-29.289 16.605-43.812 14.676-38.516 32.434-75.742 48.004-113.871 2.91-7.207 5.984-14.352 9-21.512 2.144-5.101 4.664-13.066 11.703-11.398 3.61-8.582 7.207-17.344 10.867-25.817-1.667 5.6-3.345 11.198-5.033 16.793-2.388 6.381-4.627 12.819-6.58 19.348l-.01.036c-.276.697-.547 1.396-.814 2.097-1.567 4.117-3.137 8.238-4.703 12.355-2.079 5.45-4.18 10.89-6.227 16.348-.535 1.426-.984 2.89-1.473 4.332-1.113 3.297-2.222 6.594-3.336 9.887-2.27 6.718-4.539 13.437-6.804 20.156-1.09 3.234-1.965 6.543-2.907 9.824-2.128 7.426-4.257 14.852-6.39 22.277-.66 2.305-1.32 4.594-1.906 6.91-.407 1.012-.774 2.04-1.165 3.055l-3.972 10.305c-2.035 5.273-4.133 10.523-6.102 15.82-1.945 5.235-3.902 10.469-5.855 15.703-1.82 4.891-3.754 9.758-5.469 14.692l-1.36 3.851c-1.855 4.282-3.734 8.551-5.636 12.813-1.246.043-2.488.09-3.734.133a264.41 264.41 0 0 0-5.29.25c-1.074-.055-2.148-.106-3.222-.16z"/><path d="M1203.222 1710.956c-.86 3.66-1.91 7.465-2.843 11.18.69-2.024 5.144-10.403 7.808-14.895a22.25 22.25 0 0 0-.156.465c-2.27 6.719-4.54 13.438-6.805 20.156-1.09 3.235-1.965 6.543-2.906 9.824-2.129 7.426-4.258 14.852-6.39 22.278-.66 2.307-1.318 4.596-1.905 6.91-.405 1.012-.773 2.041-1.166 3.055l-3.973 10.304c-2.035 5.274-4.133 10.524-6.101 15.82-1.946 5.235-3.903 10.47-5.856 15.704-1.82 4.89-3.754 9.758-5.469 14.691a6377.456 6377.456 0 0 0-5.844 16.62l-4.886.173c-.48.016-.957.035-1.438.059 15.07-44.43 31.543-88.39 47.93-132.344zM1207.347 1474.227c1.429-5.071 2.41-10.34 3.579-15.543a106.55 106.55 0 0 1 2.48-1.656c6.183-3.996 12.367-7.992 18.547-11.988 9.181-5.93 18.564-11.544 27.89-17.248 31.961-2.93 72.162-1.981 86.23-3.045 17.548-.36 35.09-.031 52.637.297 15.489.289 30.98.574 46.477.394a6.024 6.024 0 0 0-.059 4.496c-1.453.22-2.91.454-4.359.704-5.777 1.003-11.55 2-17.316 3.066-2.477.457-4.961.887-7.43 1.394-1.602.332-3.203.665-4.805.98-24.511 1.138-49.062 1.5-73.57 2.891-27.899 1.598-55.941 1.036-83.734 4.247-6.04.71-12.079 1.359-18.106 2.18-5.777.34-9.562 2.796-11.015 8.59-3.145 8.214-5.88 16.577-9.243 24.714-5.46 15.387-17.023 30.285-15.07 47.203-5.902-17.14 3.55-34.851 6.867-51.676zM1210.359 1227.014c-9.457-.824-19.043-1.73-28.403-2.867 53.035-3.61 105.2-17.465 158.496-16.207 2.172-.067 4.371.003 6.582.07 4.993.153 10.015.31 14.785-1.065l-.008.161c-3.92 3.533-9.358 5.434-14.324 7.181-25.023 8.598-51.543 11.727-77.87 12.875-11.123.6-21.859 1.098-32.568 1.099-8.845 0-17.672-.34-26.69-1.247zM977.132 1235.528c-55.78-.868-110.96-9.833-166.111-17.661-.927-1.507-1.856-3.014-2.733-4.55a219.25 219.25 0 0 0-.352-.61c61.474-9.42 123.964-11.026 186.122-11.972 3.511-14.004 3.996-28.648 3.765-43.031-2.613-43.652-2.367-87.34.426-130.985.313-32.312 9.254-63.507 14.785-95.132 4.313-23.7 5.41-47.664 10.051-71.262-.457 28.86 2.207 57.867.094 86.77-1.074 20.082-3.848 40.105-3.43 60.25 2.172 43.304 3.555 86.718 8.82 129.789 2.27 28.011 6.704 59.097-6.46 85.054-7.051 11.965-20.31 13.528-33.16 13.528-4.052 0-8.055-.153-11.817-.188zM754.645 1453.13c-33.395-.027-66.6-5.004-99.834-7.758a69.227 69.227 0 0 1-1.877-1.633 47.868 47.868 0 0 1-1.37-1.445 142.447 142.447 0 0 1-1.841-2.32l-.097-.13.062.085-.094-.12c-.242-.328-.484-.656-.726-.98-.332-.488-.664-.977-.996-1.461-.399-.654-.791-1.31-1.177-1.968 76.263-18.239 157.132-11.92 234.93-9.548 3.094-.039 6.278.246 9.47.531 5.581.5 11.198.997 16.46-.226 10.344-10.867 16.414-25.09 24.164-37.8 11.403-19.891 20.63-41.364 33.383-60.45.442 1.512.91 3.016 1.442 4.484.093.262.187.52.285.778-8.551 20.707-14.301 42.562-22.73 63.324-7.36 16.355-11.84 35.906-25.985 47.898-9.27 6.266-21.235 4.438-31.836 5.508-31.754 1.531-63.527 2.617-95.305 3.106-7.86.128-15.722.257-23.582.257a554.4 554.4 0 0 1-12.746-.132z"/><path d="m649.688 1439.93.035.044.297.402a40.918 40.918 0 0 1-.332-.447zM674.787 1453.912c-2.2-.301-4.36-.645-6.5-1.227-1.891-.68-3.711-1.511-5.524-2.379a80.47 80.47 0 0 1-5.703-3.238 56.438 56.438 0 0 1-2.137-1.601 69.869 69.869 0 0 1-1.988-1.727 48 48 0 0 1-1.371-1.445 133.73 133.73 0 0 1-1.969-2.489c-.242-.324-.484-.652-.73-.98-.328-.488-.66-.973-.993-1.457a102.624 102.624 0 0 1-2.902-5.043 148.86 148.86 0 0 1-3.715-8.016c-.177-.48-.352-.96-.524-1.441-.03-4.983-.03-9.975.126-14.953.18-5.664.46-11.301.992-16.946.52-5.535 1.215-11.054 1.863-16.578.645-5.453.715-10.922.813-16.402.094-5.324.008-10.656.008-15.985 0-21.773.199-43.562-.262-65.335l.012.675c-.07-3.464-.149-6.93-.23-10.394a435.943 435.943 0 0 0-.528-13.375 1295.89 1295.89 0 0 1 10.738-78.496c14.168 82.066 19.274 165.414 15.793 248.605 20.5 3.426 41.86 3.075 62.95 2.727 9.238-.152 18.425-.305 27.472-.14 53.578.78 107.332 2.058 160.812 3.702-43.437 5.54-86.515 12.246-130.156 15.637-35.723 3.026-71.366 8.817-107.25 9.276-3.035-.307-6.069-.62-9.097-.975z"/><path d="M649.622 1439.845c.133.176.266.352.399.532l-.399-.532zM1554.099 1080.553c-7.938-51.246-10.286-103.082-12.22-154.848-.949-36.392-1.15-72.85-2.07-109.267.004-14.933.005-29.864-.019-44.8-.02-10.644-.098-21.288-.55-31.925-.051-1.182-.1-2.363-.146-3.545l.04-.615c.363-3.61.687-7.219 1.168-10.816.26-1.942-.469-3.827-1.794-5.121a241.546 241.546 0 0 0-.206-3.997c-.184-3.043-.485-6.058-.809-9.09-.277-2.609-.793-5.195-1.215-7.785-.242-1.496-.629-2.984-.945-4.464-.234-1.102-.426-2.227-.715-3.317-.672-2.523-1.281-5.074-2.062-7.566-.899-2.863-1.79-5.715-2.817-8.531-1.793-4.95-3.742-10.004-6.976-14.22-.725-.945-1.502-1.835-2.37-2.632a249.753 249.753 0 0 0-4.36-11.758c-1.5-11.629-39.294 1.203-45.34 5.746-53.141 37.153-51.051 39.64-8.262-10.332 12.27-12.57 29.488-18.754 46.207-22.918 28.797-5.75 38.52 29.934 47.984 50.235 9.777 24.734 15.672 50.879 15.98 77.523 3.434 49.363 4.09 98.871 4.43 148.344.688 68.734 7.563 137.101 12.473 205.554-.621 113.883-4.465 227.73-12.98 341.223-9.27-120.254-14.762-240.773-22.426-361.078zM1080.117 700.988c-61.332-.507-118.227-54.16-108.162-117.495 6.223-32.836 28.717-65.697 60.368-78.202 8.808-2.786 18.27-3.284 27.324-1.507 15.626-4.09 32.046-4.33 48.073-3.237 50.837 2.867 90.011 43.193 85.558 94.95.57 68.79-45.586 108.885-113.161 105.491zm14.768-67.661c12.326-.875 27.667-2.822 33.84-15.084 6.656-15.286 11.747-33.247 8.654-49.917-11.47-34.942-72.288-42.38-102.26-30.13-26.178 51.78 2.864 94.959 59.766 95.13z"/><path d="M1071.458 690.019c-8.714-6.086-16.84-13.144-24.875-20.094-12.978-11.338-26.901-22.088-36.519-36.608-27.478-42.917-17.776-98.186 38.812-105.916 22.342-2.166 48.39-2.375 65.684 14.079 4.277 3.422 8.5 6.906 12.582 10.554-8.675-3.46-17.37-7.585-26.414-10.221-19.351-2.58-47.125 3.245-62.903 14.97-27.555 21.833 1.1 62.383 13.528 85.654 8.632 14.971 14.72 31.265 20.105 47.582zM1149.945 1181.25c-13.445-44.098-8.023-91.125-1.8-136.024 1.226-8.812 2.53-17.62 4.222-26.355 2.121 16.223 4.684 32.308 7.012 48.512 6.34 39.296 10.687 80.746 32.488 114.93 57.13-5.261 116.38-4.202 170.345 17.138l-.071 1.368c-53.113 12.468-106.925 24.695-161.844 22.65a62.16 62.16 0 0 1-6.446.347c-25.824 0-36.773-17.992-43.906-42.566zM1010.697 949.019c-6.34-31.984-9.7-64.52-8.256-97.114.152-33.789.878-72.556 16.894-102.937 3.009 24.268 10.76 48.158 8.163 72.934-3.075 42.647-11.928 84.706-16.802 127.116zM1553.571 678.3a672.949 672.949 0 0 1-9.437-19.219 642.229 642.229 0 0 1-3.408-7.313c-10.205-.732-14.336-10.979-18.324-18.98-2.767-2.509-5.26-5.313-6.401-8.547-.506-.388-1.4-.739-1.914-.945-1.865-.578-3.75-.238-5.574.183 1.814-2.183 4.03-3.727 6.905-4.254.326-3.123 2.08-6.254 4.495-7.984 4.833-5.376 12.83-2.712 18.049.563 5.934 3.726 8.965 10.047 11.425 16.343 2.87 6.41 4.53 14.143-.444 19.85 1.677 10.248 3.232 20.225 4.628 30.303zM927.672 661.544a283.237 283.237 0 0 1-2.805-4.485c-2.485-4.058-5.106-8.062-7.434-12.215l-1.14-2.027c-7.964-18.681-9.424-40.453-10.09-60.414-5.7-81.266 62.363-157.586 142.738-164.133 3.133-.047 14.758-1.172 16.926-.086l-.426.332c-.32.25-.637.496-.953.746-1.27.848-2.532 1.7-3.766 2.586-2.824 2.028-5.648 4.055-8.476 6.082a58.28 58.28 0 0 0-2 1.508c-6.313 4.508-12.458 9.223-18.586 14.043-31.262 28.55-66.262 55.285-87.485 92.64-15.734 31.419-29.8 94.723-14.789 127.372a66.54 66.54 0 0 1-1.714-1.95z"/><path d="M1367.14 872.756c17.342-36.787 41.214-70.587 69.447-100.154a6.29 6.29 0 0 0 .89-.44c1.062-.633 1.921-1.48 2.933-2.176a.261.261 0 0 1 .043-.027c-.39.586-.785 1.168-1.176 1.754-1.453 2.062-2.875 4.152-4.316 6.23-.407.59-.73 1.211-.946 1.864-1.78 2.375-3.566 4.75-5.351 7.129-3.074 4.097-6.125 8.214-9.18 12.332-1.57 2.109-3.105 4.25-4.703 6.343-2.004 2.63-4.313 5.043-5.813 8.02-.66 1.308-1.214 2.73-1.414 4.191-.226 1.676.211 3.235.68 4.817.598 2.015 2.145 3.629 4.192 4.191 1.753.484 3.84.149 5.261-1.035 2.047-1.703 4.133-3.348 5.98-5.277 1.81-1.891 3.528-3.862 5.256-5.83l.053-.061-.053.06-.053.06c.924-1.056 1.837-2.127 2.747-3.19 3.41-3.996 6.887-7.946 10.184-12.04 3.253-4.042 6.507-8.081 9.761-12.12a6.13 6.13 0 0 0 1.703 1.565c-18.809 33.128-34.45 68.067-44.406 104.802a393.431 393.431 0 0 0-1.82 7.558c-.297.758-.594 1.516-.88 2.278-.167.441-.331.879-.5 1.32-.796.871-1.343 1.969-1.476 3.188-.039.343-.078.683-.113 1.027-1.809 4.789-3.617 9.574-5.422 14.363-1.633 4.32-3.36 8.617-4.894 12.973-.004.004-.004.008-.004.011l-.008.008v.008c-.102.238-.184.48-.25.723l-.012.031c-.023.07-.047.14-.074.21a5.799 5.799 0 0 0-.258.747l-.012.035c-.007.016-.011.031-.02.047l-.01.035c-.005.008-.005.016-.009.024a2.715 2.715 0 0 0-.035.097c0 .004 0 .008-.004.016 0 .004-.004.008-.004.012-.086.246-.172.492-.254.738-.007.027-.02.055-.027.082a328.8 328.8 0 0 0-.73 2.09c-.012.027-.02.058-.032.09v.004c-.097.23-.183.476-.25.726-.011.043-.023.082-.035.125a20.35 20.35 0 0 0-.215.586c-.316.734-.527 1.527-.789 2.273a.88.88 0 0 0-.03.094c-.06.16-.114.32-.169.477-.082.199-.156.406-.215.613-.207.57-.437 1.149-.625 1.73-.199.45-.355.915-.472 1.395-.16.457-.305.922-.461 1.375 0-.008.004-.012.004-.02l-.153.438c-.25.715-.5 1.434-.746 2.152a5.996 5.996 0 0 0-.219.63l-.023.074-.024.066c-.015.043-.03.09-.046.133a5.93 5.93 0 0 0-.239.668c-.168.433-.304.886-.453 1.328a129.079 129.079 0 0 0-.457 1.305.826.826 0 0 0-.031.094c0-.009.004-.012.004-.02a34.769 34.769 0 0 0-.281.828c-.204.582-.43 1.156-.61 1.742-.05.133-.094.266-.14.402-.028.079-.055.157-.079.235l-.058.168c-.05.148-.102.289-.152.433-.223.567-.403 1.157-.602 1.735l-.047.136c-.082.23-.16.461-.242.696.062-.184.125-.364.187-.543-.144.406-.285.804-.41 1.203-.16.398-.293.805-.43 1.215l-.175.5c-.09.218-.168.445-.23.68-.153.402-.286.812-.427 1.222l-.222.637a5.701 5.701 0 0 0-.219.629c-.031.086-.059.175-.09.261-.082.239-.168.477-.25.711a6.48 6.48 0 0 0-.238.688l-.246.703c-.809 2.313-1.485 4.684-2.2 7.027a611.283 611.283 0 0 0-2.48 8.278c-1.61 5.53-3.148 11.082-4.515 16.68-2.645 10.796-5.004 21.722-6.473 32.746-1.54 11.539-2.16 23.3-1.652 34.933.215 4.922.535 9.863 1.101 14.766a551.749 551.749 0 0 0-.715 15.25c-.144 4.285-.261 8.57-.367 12.851-.035 1.477-.101 2.953-.09 4.426.047 5.918.09 11.832.133 17.746l.024 3.106-.047.71c-6.856 22.27-14.606 44.266-22.785 66.024-23-110.395-17.497-228.961 25.8-333.79z"/><path d="m1381.387 972.062-.014.041.109-.31c-.037.108-.072.215-.105.322a9.588 9.588 0 0 0-.1.266l.11-.32zM1381.647 971.314l-.012.047-.064.175.06-.171c-.022.056-.041.114-.06.171v.001l-.005.012c.025-.079.053-.155.08-.235zM1391.99 941.537zM1392.043 941.384l.092-.258c-.04.11-.078.223-.117.332a.026.026 0 0 1-.006.013l.03-.087zM1393.058 938.462l.005-.016.034-.098.007-.02.014-.037-.064.182c0-.004.002-.007.004-.011zM1386.87 1483.468c51.554-20.757 107.582-22.832 162.297-25.707 12.742.051 16.027-13.425 18.734-23.503 6.625-25.352 6.176-52.512 4.86-78.2-.204-12.62-.032-25.332.991-37.918 2.512 10.215 5.426 20.535 8.36 30.7 8.884 27.939 20.89 69.2 14.011 101.928a130.187 130.187 0 0 1-6.386 8.814c-1.73 2.18-3.461 4.36-5.184 6.543-2.61 3.308-5.476 6.43-8.426 9.437.09-.093.18-.183.27-.277-.801.806-1.612 1.606-2.433 2.398-2.514.751-5.027 1.506-7.54 2.262-4.195 1.262-8.347 2.684-12.511 4.04-.48.155-.965.308-1.446.46-1.781.066-3.562.137-5.344.2-3.91.132-7.816.265-11.726.394-1.941.066-3.89.086-5.828.226-11.735.844-23.473 1.653-35.211 2.485-.941.066-1.879.203-2.816.316-3.051.367-6.102.73-9.157 1.098-7.652.918-15.304 1.832-22.953 2.754-.223.023-.441.05-.664.078-9.871.11-19.734.344-29.605.582l-1.48.035c-13.677-2.781-27.266-6.031-40.813-9.145zM1221.603 1451.73l10.35-6.69c9.35-6.04 18.909-11.75 28.404-17.563 27.997-8.826 60.9-7.171 88.447-5.281 52.446 6.668 50.633 3.484-.261 11.98-31.047 5.922-63.875 10.157-91.863 25.626-23.66 17.93-44.774 40.964-54.832 69.183-7.78-27.234 1.128-56.49 19.755-77.254zM1381.707 918.48c1.903-16.493-.789-32.998.856-49.495 2.456-33.416 22.19-64.117 36.967-92.766 13.043-20.945 49.01-99.41 79.264-65.988 11.994 18.002 4.534 57.39-1.53 77.217-5.418 27.013-10.575 54.546-12.029 82.052-3.353-9.05-4.281-18.934-5.635-28.496-4.347-26.282-5.625-52.774-4.275-79.333-15.688 34.41-33.511 67.554-58.098 96.509-13.782 18.983-20.5 42.24-35.52 60.3zM767.01 843.844c-.19-.45-.392-.898-.606-1.34-.945-1.953-2.082-3.797-3.16-5.68-.664-1.16-1.32-2.324-1.98-3.484-1.418-2.485-2.899-4.942-4.262-7.457a1305.115 1305.115 0 0 0-8.54-15.508c-.706-1.406-1.413-2.817-2.124-4.223a139.245 139.245 0 0 0 3.742 4.711c1.672 2.004 3.324 4.059 5.168 5.902 1.98 1.98 4.023 3.829 6.363 5.375 1.397.922 2.877 1.486 4.405 1.978l.775 1.335c.21 1.027.426 2.055.64 3.082.274 1.316.692 2.61 1.051 3.902.496 1.801 1.004 3.594 1.5 5.395.895 3.222 1.868 6.426 2.813 9.637.812 2.796 1.64 5.593 2.476 8.386.106.403.211.805.32 1.207a1454.145 1454.145 0 0 1-8.58-13.218zM717.523 732.451l.004.007a1.9 1.9 0 0 1-.181.175l.177-.182zM696.611 731.203c-1.25-.8-2.566-1.656-3.953-2.211-1.307-.522-2.64-.882-3.994-1.252-10.127-13.378-22.79-24.31-39.69-10.897-4.011 3.387-7.91 7.04-11.015 11.247.055-4.989 1.035-10.063 2.723-14.754 2.615-8.562 8.567-15.465 16.117-19.804.574.472 1.17.917 1.793 1.339.129.168.258.336.39.5 2.985 3.7 6.387 7.121 10.04 10.172 3.745 3.12 7.46 6.277 11.515 9a143.535 143.535 0 0 0 5.625 5.93c3.98 3.937 8.082 7.78 12.375 11.39a2.07 2.07 0 0 0-.555.25c-.453-.312-.91-.617-1.37-.91zM668.109 1460.26l-.065-.426.531.108-.056.33-.41-.012zM668.284 1452.684a43.005 43.005 0 0 1-1.394-.531c-6.914-46.418-12.844-92.809-22.317-138.73.004-12.25-.047-24.505-.304-36.75l.011.675c-.07-3.465-.148-6.93-.23-10.394-.117-5.184-.352-10.368-.649-15.543-.261-4.54-.488-9.079-.753-13.618a3.405 3.405 0 0 0-.043-.687l-.082-1.363c-.051-.82-.102-1.64-.149-2.465.2-4.285.39-8.57.54-12.86.355-10.3.597-20.632.398-30.937v-.05c-.004-.016-.004-.028-.004-.044v-.047c0-.058-.004-.109-.004-.168 0 .02.004.043.004.063 0-.031 0-.063-.004-.094v-.023c0-.043 0-.09-.004-.133.015-.383-.016-.774-.024-1.117l-.046-2.094c-.086-3.656-.2-7.309-.32-10.965-.184-5.45-.345-10.902-.512-16.351-.165-5.258-.422-10.512-.641-15.766-.207-5.106-.317-10.211-.48-15.32-.067-6.504-.15-13.016-.15-19.528v-69.047c0-21.504 0-43.004-.003-64.507 0-10.57.004-21.145-.11-31.715-.062-5.7-.128-11.403-.253-17.102-.121-5.668-.176-11.347-.422-17.012-.274-6.328-.57-12.652-.863-18.98-.106-2.25-.375-4.504-.567-6.746-.32-3.778-.644-7.555-.976-11.332-.133-1.55-.328-3.082-.532-4.63-.02-2.55-.043-5.097-.078-7.644-.03-2.204-.053-4.41-.079-6.615.02-4.627.029-9.265-.155-13.889-.149-3.683-.293-7.376-.508-11.064-.072-2.123-.147-4.246-.223-6.37-.207-5.714-.68-11.433-1.046-17.144-.07-1.109-.145-2.218-.223-3.328.476 2.406.96 4.809 1.445 7.207 0 .008.008.016.012.016 0 0 .004 0 .004-.004a665.459 665.459 0 0 0-.402-13.957c10.644 24.063 20.675 48.465 29.23 73.336 28.922 90.543 20.23 186.664 18.219 280.152-5.098 101.942 2.48 204.477-13.867 305.574-.485-.109-.965-.23-1.446-.359z"/><path d="M643.312 1189.498v-.019c0 .082.004.164.004.246 0-.078-.004-.152-.004-.226z"/><path d="m643.312 1189.451.001.047v.067l-.001-.114zM643.298 1189.072l.003-.085c0 .044 0 .086.004.13V1189.17v-.003.005c0 .055.001.111.004.165v.001l-.011-.264zM641.102 953.879c-.016-3.766-.043-7.535-.082-11.3-.063-5.7-.13-11.403-.254-17.102-.121-5.668-.176-11.348-.422-17.012-.274-6.328-.57-12.653-.863-18.98-.106-2.25-.375-4.505-.567-6.747-.32-3.777-.644-7.554-.976-11.332-.133-1.554-.328-3.082-.531-4.629-.02-2.547-.043-5.093-.079-7.64-.03-2.285-.054-4.574-.082-6.86.016-4.55.024-9.105-.156-13.652-.148-3.629-.289-7.27-.5-10.906-.074-2.172-.148-4.348-.226-6.52-.207-5.715-.68-11.433-1.047-17.144-.07-1.106-.145-2.207-.223-3.309.477 2.395.96 4.79 1.441 7.184 0 .008.008.015.012.015s.004 0 .004-.004a637.723 637.723 0 0 0-.555-17.5c-.199-4.27-.273-8.543-.484-12.812a600.036 600.036 0 0 0-.187-11.852c.324-8.023.667-16.047.722-24.078.02-2.566.078-5.14.016-7.707-.086-3.187-.172-6.375-.266-9.566-.015-.578-.035-1.153-.05-1.727 2.714-6.996 6.109-13.691 10.37-19.93 3.25-4.392 6.777-7.462 10.453-9.428a23.737 23.737 0 0 0 2.024 1.53c.125.168.258.336.387.5 2.984 3.7 6.386 7.121 10.039 10.172 3.75 3.121 7.46 6.277 11.515 9a146.332 146.332 0 0 0 5.625 5.93c3.985 3.937 8.086 7.78 12.38 11.39a2.075 2.075 0 0 0-.555.246c-.453-.308-.91-.613-1.375-.906-1.25-.8-2.567-1.656-3.953-2.21-.3-.12-.6-.231-.903-.336-6.002-5.076-12.577-9.158-19.7-11.723-14.19 42.644-1.628 94.43 4.54 138.062 12.91 59.207-1.254 119.254-16.434 176.559-9.015-25.196-14.593-51.325-19.058-77.676zM1281.89 1215.406c-19.255-.436-38.4-3.04-57.643-3.559-11.981-.1-35.695 3.321-44.665-4.679 11.367 6.159 36.951-4.426 50.196-5.399 20.06-2.246 40.224-3.297 60.297-5.429 12.091-1.654 24.383-2.233 36.334-4.649 11.685-2.253 7.438-14.907 6.56-23.277-2.075-24.397.279-49.102 4.6-73.145 2.56-9.874 3.092-23.296 12.27-29.367-5.225 8.485-1.19 19.345-.562 28.625 3.778 26.418 6.8 52.921 9.328 79.484 1.583 9.212.36 18.471-5.289 26.113-8.131 13.893-25.328 15.557-39.915 15.124-10.497.322-21.01.582-31.51.158z"/><path d="M1179.876 1228.64c-51.104-10.347-26.096-87.794-20.657-123.226 7.41 28.598 8.15 58.49 13.976 87.346 2.447 11.058 10.293 14.356 20.848 13.707 13.878-.77 27.43-4.125 41.08-6.548 30.521-6.687 61.64-3.687 92.351-.17 5.606.607 11.324 1.165 16.856 1.852-20.43 2.386-40.927 4.104-61.38 6.274-24.262 2.89-45.434 11.496-68.39 17.554-11.251 3.066-23.044 5.099-34.684 3.211zM1166.502 1592.567c4.41-21.559 5.535-43.856 12.64-64.8 29.75-88.204 119.559-105.606 202.235-104.915 26.398.621 52.78 2.645 79.125 4.957-1.188.149-2.375.3-3.56.469-5.39.765-10.808 1.426-16.171 2.355-5.777 1.004-11.55 2-17.316 3.067-2.477.457-4.961.886-7.43 1.394-2.188.453-4.371.907-6.559 1.324-1.59.235-3.195.434-4.742.829-1.035.265-1.18 1.492-1.097 2.375.003.062.011.125.019.187-.094.02-.187.043-.281.063-1.86.218-3.719.441-5.578.668a1259.1 1259.1 0 0 0-16.754-.528c-5.153-.129-10.32-.203-15.473-.02-7.598.27-15.234 1.223-22.59 3.188-5.554 1.485-10.976 3.434-16.129 5.965-2.351.293-4.703.61-7.039 1.012-1.047.18-1.175 1.562-1.101 2.375.011.137.031.27.05.406l-4.21 2.242c-.954.508-1.957.973-2.883 1.531-1.117.676-2.235 1.356-3.348 2.032-35.042 10.292-63.957 27.056-83.767 58.901-.335.347-.66.7-.963 1.067-1.715 2.086-3.434 4.157-5.07 6.305a362.943 362.943 0 0 0-5.266 7.098 152.337 152.337 0 0 0-8.582 13.144c-1.352 2.328-2.508 4.723-3.688 7.14-.715 1.478-1.246 3.06-1.847 4.583-.368.93-.72 1.867-1.067 2.809a334.735 334.735 0 0 0-2.937 8.336c-.887 2.62-1.645 5.277-2.43 7.933-1.512 5.102-2.77 10.29-4.137 15.43-1.375 5.187-2.84 10.336-3.93 15.593a1259.407 1259.407 0 0 1-3.445 16.133c-.539 2.457-1.023 4.926-1.644 7.364l-.16.622c-9.566 19.644-20.231 38.795-30.829 57.756 5.086-32.296 11.317-64.375 17.954-96.39z"/><path d="M1143.583 1650.37c12.683-37.841 29.366-74.201 40.723-112.515 6.64-21.48 12.19-43.736 23.458-63.39 12.352-24.467 37.198-38.746 62.004-21.277-25.085-4.314-36.633 8.556-44.152 30.856-4.148 11.307-7.966 20.872-12.224 31.838.168-.425.333-.851.5-1.277-15.72 48.978-42.756 92.818-70.309 135.765z"/><path d="M1170.508 1549.992c8.825-27.439 18.87-66.135 39.635-90.768 1.076-.75 2.162-1.486 3.263-2.197 6.184-3.996 12.367-7.992 18.547-11.989.735-.474 1.47-.946 2.208-1.417-12.158 13.604-16.547 32.677-21.224 50.011-5.152 21.613-11.918 42.754-19.382 63.668-19.891 52.89-44.371 104.18-70.204 154.274 14.051-54.317 30.243-108.067 47.157-161.582z"/><path d="M1144.687 1628.757c10.915-53.813 26.356-107.68 57.27-153.719 5.165-8.045 11.516-16.522 19.12-22.969a51497.18 51497.18 0 0 0 11.648-7.528c5.831-2.63 12.224-3.858 19.2-2.968-18.356 5.542-25.91 24.507-32.293 40.782-11.156 29.617-27.255 56.99-39.433 86.16-7.672 17.293-13.863 35.183-20.879 52.738-8.285 19.977-18.336 39.309-25.894 59.531 2.683-17.566 6.261-34.973 11.261-52.027z"/><path d="M1206.786 1461.616c2.177-1.573 4.366-3.13 6.62-4.587l2.84-1.835c-17.366 42.758-16.649 92.795-45.789 130.644 5.846-38.8 15.082-87.647 36.329-124.222z"/><path d="M1208.765 1460.195a126.94 126.94 0 0 1 4.641-3.167l6.464-4.177c-11.61 23.571-18.71 49.47-27.694 74.04-3.95-23.266 3.715-46.742 16.589-66.696zM1498.961 1368.028c-2.419-82.127-8.112-164.124-7.453-246.328.408-57.47-.49-114.911-1.85-172.301-1.766-24.259-2.982-48.479-2.548-72.734.084-21.012-.164-42.046 1.447-63.009 1.738-30.691 9.157-79.08-10.326-104.548-29.069 27.73-50.832 62.594-71.885 96.583-1.292 2.442-2.486 5.09-3.724 7.485.762-3.254 1.531-6.504 2.543-9.691 10.629-30.334 25.123-59.349 44.285-85.214 10.91-13.84 28.944-38.69 43.767-14.364 17.211 29.097 13.191 65.677 11.354 98.105-3.187 32.578-2.435 65.392-2.428 98.077.81 29.83 3.731 59.554 3.084 89.43 2.358 75.76 1.505 151.443.051 227.2-.963 23.135.043 44.852-1 67.707-1.013 27.89-3.872 55.806-5.317 83.602z"/><path d="M1488.725 1307.256c-4.497-70.195-3.54-140.558-3.59-210.863 2.707-107.945-8.504-217.484 12.086-324.09 5.316 176.434 2.535 353.032 2.418 529.52.478 37.704 4.239 75.49 2.97 113.17-.551.302-1.1.607-1.646.916-2.602-36.365-9.142-72.332-12.238-108.653z"/><path d="M1382.112 1427.932c10.468-2.024 20.035-7.152 30.379-9.524 7.918-1.363 15.984-1.316 23.984-1.765 21.648-1.887 68.262-.04 66.277-31.324-.203-20.985-1.199-41.942-3.074-62.844-3.113-51.8.195-104.063 7.07-155.45 3.075 42.165 7 84.61 6.668 126.985.387 28.719 4.555 57.25 3.993 86.004 2.384 15.469-3.378 26.523-13.003 34.014-3.162 1.666-6.257 3.48-9.302 5.33-.71.432-1.42.865-2.128 1.3-.818.351-1.646.687-2.485 1.008-3.735.805-7.45 1.703-11.16 2.649a346.243 346.243 0 0 0-6.286 1.672c-1.105.171-2.215.34-3.324.511-4.094.442-8.16.618-12.078.543-6.82.32-13.586.13-20.336-.062-8.476-.238-16.934-.477-25.445.297-10.403 2.543-20.621 5.976-31.348 6.937-18.98 2.094-38.848-.11-57.144 6.094 18.351-8.66 39.222-8.215 58.742-12.375z"/><path d="M1380.33 1425.63c38.969-6.837 78.469-7.067 117.89-8.138a275.109 275.109 0 0 0-3.117 1.868c-1.105.672-2.21 1.347-3.309 2.027-.05.012-.101.02-.152.031-20.797 3.078-41.738 5.48-62.547 8.371-18.798 3.032-37.5 6.618-56.222 10.095-2.44-.007-4.88.022-7.317.109-7.597.269-15.234 1.222-22.59 3.187a92.987 92.987 0 0 0-10.736 3.56c-19.748 2.837-39.459 5.38-58.69 10.647 32.298-19.047 70.192-26.258 106.79-31.758z"/><path d="M1493.046 1416.356c2.195.099 4.395.202 6.597.31-1.526.88-3.038 1.782-4.538 2.694-.613.373-1.225.746-1.837 1.121-39.154 2.776-78.29 5.894-117.113 11.75-41.312 6.77-82.777 14.758-124.48 17.867 76.668-30.418 159.523-38.73 241.371-33.742z"/><path d="M1262.604 1440.984c30.955-12.205 64.608-15.327 97.488-18.363 40.159-3.522 80.362-6.659 120.605-9.057-71.66 15.902-144.726 25.66-218.093 27.42z"/><path d="M1371.879 1413.441c43.449-1.453 86.965-2.633 130.383.117.914.056 1.847.098 2.777.141-.353.183-.706.369-1.057.555-42.397 2.906-84.597 8.023-126.951 11.46-45.523 4.36-92.469 7.333-135.414 23.958 37.145-27.934 84.883-35.196 130.262-36.23z"/><path d="M1231.952 1445.04c5.09-3.288 10.242-6.478 15.412-9.64 31.081-11.503 64.015-18.022 97.115-19.321 18.613-.469 37.23-.219 55.848.031 24.625.332 49.246.664 73.87-.664-8.66 1.504-17.55 2.82-26.081 4.117-32.281 5.23-65.035 5.871-97.59 8.39-40.499 3.96-80.758 11.306-120.788 18.518l2.214-1.431zM1550.082 772.77a11.865 11.865 0 0 1 3.727-8.02c2.387-2.223 5.39-3.137 8.594-3.137 6.402 0 11.465 6.168 11.156 12.32a11.866 11.866 0 0 1-3.726 8.02c-2.387 2.222-5.391 3.136-8.594 3.136-6.403 0-11.465-6.168-11.157-12.32zM1490.34 1176.19c-2.75-39.449-5.644-78.932-5.722-118.498-2.516-62.241-7.336-124.627-5.022-186.73.842-37.693 5.93-75.882 2.496-113.414 22.989 63.52 19.227 133.118 19.158 199.688.684 73.158-6.084 146.093-10.91 218.953z"/><path d="M1379.074 1430.65c35.31-1.741 79.895-9.593 108.774-30.823 23.031-17.707 13.922-61.153 10.43-86.367-3.196-22.024-2.375-44.375-2.793-66.563-.86-39.844-11.668-79.277-7.684-119.18 1.32 42.18 17.734 81.899 21.277 123.778 1.93 28.547 6.227 56.14 12.395 84.03 3.113 21.333 4.715 44.993-4.734 64.966-13.332 22.808-39.356 34.629-63.899 41.394l-.144.045c-1.7.102-3.403.185-5.11.236-5.238.16-10.48.083-15.715.243-5.636.176-11.25.636-16.875 1.035-5.082.36-10.14 1-15.23 1.281-5.41.297-10.805.676-16.192 1.215a387.816 387.816 0 0 0-22.019 2.843l-.348-.046c-29.043-4.434-59.293-6.961-87.468 3.004 31.941-21.371 68.699-20.094 105.335-21.09z"/><path d="M1241.155 1464.626c29.53-12.683 60.922-19.873 92.097-27.208 35.83-7.113 72.158-16.418 108.871-14.37-23.057 6.992-45.427 16.53-69.176 21.057-43.812 8.003-88.336 11.288-131.792 20.52z"/><path d="M1288.852 1456.705c37.766-20.172 81.371-36.633 124.527-25.996a56.777 56.777 0 0 1 12.454 4.773c-12.704-1.809-25.602.422-38.06 2.938-15.058 3.554-29.782 8.264-44.274 13.657l-1.51.307c-2.278.465-4.574.848-6.856 1.31-2.89.585-5.765 1.179-8.636 1.866-2.829.68-5.63 1.43-8.442 2.192-1.168.316-2.312.722-3.465 1.101-1.062.352-2.14.672-3.187 1.074-1.613.621-3.227 1.243-4.844 1.864-1.152.441-2.27 1.004-3.398 1.507-4.871 2.176-9.586 4.723-14.23 7.348-2.567 1.45-5.079 2.973-7.59 4.512-2.114 1.293-4.102 2.777-6.2 4.086-4.637 2.883-9.34 5.66-13.887 8.676-4.343 2.886-8.593 5.93-12.761 9.07-4.383 3.3-8.801 6.582-12.946 10.184-1.136.984-2.332 1.93-3.418 2.968-1.125 1.082-2.25 2.157-3.375 3.235a84.863 84.863 0 0 0-2.496 2.527c-.886.926-1.863 1.816-2.68 2.805-1.714 2.086-3.433 4.156-5.07 6.304a362.341 362.341 0 0 0-5.265 7.098 157.414 157.414 0 0 0-4.64 6.737 237.262 237.262 0 0 0-12.634 16.962c-.914 1.692-1.777 3.57-2.648 5.203 15.793-43.27 54.289-84.074 95.531-104.308z"/><path d="M1401.997 1436.596c16.855-1.922 33.683-4.242 50.664-4.73.015 0 .02.02.004.023-16.745 4.456-33.62 8.76-50.585 12.685-.77.057-1.542.108-2.314.151-5.41.297-10.805.676-16.191 1.215a387.216 387.216 0 0 0-32.965 4.738c-2.879.543-5.75 1.121-8.621 1.707-2.278.465-4.574.848-6.856 1.309-2.89.586-5.765 1.18-8.636 1.867-2.829.68-5.63 1.43-8.442 2.191-1.168.317-2.312.723-3.465 1.102-1.062.351-2.14.672-3.187 1.074-.881.34-1.762.678-2.644 1.017-11.388 1.72-22.964 2.851-34.192 5.1 37.894-24.109 84.18-24.527 127.43-29.449zM1194.907 1756.621c5.412-35.602 7.356-71.558 17.575-106.207 10.66-30.617 21.326-61.2 30.16-92.42 19.656-78.722 114.201-80.485 180.47-77.162-12.424 1.284-25.075 2.47-37.506 4.32-33.757 5.56-69.314 12.55-97.537 32.978-18.074 14.993-24.154 38.661-29.53 60.531-6.408 29.843-17.579 58.188-29.438 86.19-11.843 30.396-20.274 62.28-34.195 91.77z"/><path d="M1254.116 1590.486c-19.35-49.567 25.9-90.705 69.319-105.115 41.52-15.103 86.385-11.43 129.652-16.569 38.933-1.728 78.708 1.33 116.902-7.504-28.098 11.447-58.569 14.812-88.425 18.755-25.206 2.289-49.949 7.543-74.95 11.218-36.003 2.438-71.945 9.838-104.13 26.684-29.196 13.353-51.243 38.969-48.368 72.531zM1400.006 847.046c-9.498-40.205 33.876-98.078 60.896-125.597 3.357-3.378 6.892-6.824 10.582-9.723-2.27 2.726-4.371 5.587-6.454 8.456-16.614 24.087-31.884 49.39-43.859 76.118-7.19 16.809-19.047 32.202-21.165 50.746z"/><path d="M1390.283 838.586c-.152-5.778 1.543-11.348 3.367-16.774 5.125-15.275 12.33-29.801 20.27-43.792 13.264-24.23 31.042-46.06 54.777-60.633.012-.012.028.007.017.016-24.718 22.574-38.894 51.887-53.623 81.32-7.15 13.933-18.328 25.7-24.808 39.863z"/><path d="M1405.508 832.67c-6.764-15.572 9.192-37.801 18.021-49.915 8.342-11.69 16.583-23.09 25.765-34.097.008-.008.028.003.02.015-9.63 18.577-19.666 36.93-30.703 54.712-4.281 9.475-13.545 18.499-13.103 29.284zM1375.057 931.624c.377-25.067 24.792-64.548 38.365-85.73 17.364-27.474 35.026-54.756 53.637-81.407 1.814-2.577 3.612-5.292 5.437-7.777-5 11.11-10.09 22.18-15.39 33.149-14.26 29.46-28.936 58.767-46.07 86.683-6.506 10.714-13.79 21.019-21.179 31.141-5.263 7.696-11.95 14.973-14.8 23.941zM1498.942 899.247c-6.212-29.234-11.177-57.841-15.376-86.877-3.868-22.81-7.443-46.443-.643-68.94 1.205 14.443 4.954 28.487 7.91 42.633 6.914 37.222 7.24 75.497 8.11 113.184z"/><path d="M1497.243 944.008c-13.162-58.95-35.18-134.28-1.655-189.59-.75 5.47-1.61 11.08-2.378 16.604-2.3 17.63-.939 34.993-1.458 52.662-1.11 40.18 3.814 80.3 5.49 120.324z"/><path d="M1492.185 967.708c-4.654-23.424-9.932-46.858-11.705-70.718-3.343-39.787-1.77-79.757 2.865-119.31 10.891 36.909 9.213 75.252 7.7 112.997-.977 25.658.963 51.437 1.14 77.031zM1583.462 1463.416c-7.861-80.478-8.863-161.48-13.038-242.2-1.124-30.955-5.502-61.705-6.068-92.687.149-30.365 3.71-61.024 9.669-90.73 1.963 27.699 5.28 55.307 7.988 82.943 3.873 26.055 8.87 52.032 9.844 78.416 3.516 88.15-4.453 176.323-8.395 264.258z"/><path d="M1578.81 1467.197c-10.46-121.226-26.144-244.238-6.831-365.352 9.952 65.154 14.696 131.272 11.98 197.239-1.91 56.008-.72 112.28-5.148 168.113z"/><path d="M1580.232 1453.583c-.612-51.584-5.423-103.026-5.861-154.614.03-33.392.697-73.608 11.712-102.745-.29 23.546 4.59 46.951 4.947 70.539.685 62.316-1.215 125.228-10.798 186.82z"/><path d="M1588.065 1455.147c-3.501-43.827-5.239-87.772-8.493-131.614-1.87-29.502-4.756-60.163 3.868-88.878 1.27 23.073 7.754 45.69 9.876 68.75 4.334 50.545-.024 101.496-5.251 151.742z"/><path d="M1440.41 1493.022c-30.064-1.7-60.161-2.916-90.156-5.652 42.288-4.214 84.928-6.47 127.375-9.468 27.75-4.234 88.019-3.437 105.08-25.704 4.178-5.908 5.868-13.16 7.092-20.188 1.03 5.05 1.29 10.395.828 15.582-2.19 21.049-23.862 32.363-42.024 38.052-35.1 9.044-72.188 8.532-108.195 7.378z"/><path d="M1289.083 1508.263c32.059-15.564 67.563-20.726 102.463-25.913 30.493-4.444 61.6-10.638 92.053-4.062-34.483 6.605-68.24 16.997-103.621 18.362-30.473 2.14-61.317 3.741-90.895 11.613zM616.335 1496.855c-26.246-10.643-29.577-43.525-29.089-68.32-.613-21.457 1.517-42.727 5.036-63.868 1.794-20.762 1.88-41.636 3.03-62.442 1.417-21.63 3.942-43.18 5.187-64.832 1.543-20.275 2.403-48.137 4.996-64.37.894 31.123 4.305 62.138 4.646 93.292-.18 31.843 2.247 63.626 2.203 95.457-.75 16.769-3.504 33.416-2.943 50.257.33 13.912.031 27.902 1.813 41.726 4.5 25.27 11.649 28.708 36.305 28.99 15.862.418 31.662 2.149 47.305 4.809 5.996 1.007 12.097 1.851 17.984 3.398-10.357.554-20.88 1.8-31.285 2.7a539.71 539.71 0 0 0-31.656 3.823c-11.118 1.33-22.717 3.41-33.532-.62zM783.773 783.661c-10.047-11.807-19.471-24.11-28.963-36.363-2.343-3.488-4.877-6.885-7.748-9.957l-.053-.056a969.046 969.046 0 0 0-3.104-3.929c-25.023-32.894-53.254-63.582-87.156-87.492-10.61-7.754-23.07-12.238-34.469-18.62-8.937-4.595-16.488-11.47-25.504-15.868-4.808 18.387-3.964 38.101-9.226 56.406-.477-18.597-5.18-36.969-4.996-55.57 1.117-28.836 28.39-14.035 43.465-5.711 9.207 4.5 18.91 7.895 28.172 12.285 47.769 27.125 81.093 73.266 109.25 119.293 10.902 18.317 23.46 35.828 32.847 54.969 4.457 10.441 6.192 21.953 8.73 32.894-5.535-14.836-10.78-30.074-21.245-42.28zM1199.584 1530.774c-7.621-45.165 35.177-77.94 73.398-91.11 27.896-10.18 58.283-8.704 87.29-7.23 12.742.788 25.62 1.79 38.261 2.94a3222.986 3222.986 0 0 1-32.8 2.865c-39.687 2.793-80.758 6.928-114.562 29.86-23.214 14.736-47.198 33.903-51.587 62.675z"/><path d="M1172.103 1582.372c-.333-37.917.512-72.571 24.935-103.967 35.31-42.971 94.355-63.957 149.025-63.1 7.175.204 14.32 1.13 21.484 1.52-14.05 3.775-28.627 6.296-42.484 11.032-54.411 19.149-120.417 38.675-141.129 98.975-6.585 17.778-7.751 37.18-11.83 55.54zM655.72 1036.99c-.05-26.175-.977-54.241-4.066-79.866-2.887-20.372-9.786-39.801-14.727-59.7a403.147 403.147 0 0 1-10.64-62.992c-1.673-21.7-1.005-43.488-1.094-65.234.441-24.418.097-50.645 11.742-72.781 3.948-5.445 8.403-9.483 13.168-12.235.07.235.142.455.21.653.794 2.292 2.169 4.32 3.786 6.109a24.415 24.415 0 0 0 4.492 3.926c.129.168.258.336.39.5a72.255 72.255 0 0 0 7.365 7.829c-11.531.61-17.552 18.94-17.65 64.245.149 27.832-1.421 55.723 1.485 83.46 2.32 29.946 10.281 58.97 15.203 88.489 4.79 37.238.348 74.938-3.07 112.117-1.938 17.602-.824 35.442-.528 53.032-3.699-22.352-6.582-44.848-6.066-67.551zM717.527 732.447l.004.006c-.06.064-.12.124-.186.178l.182-.184zM761.806 864.134c-2.165-6.125-3.986-12.33-5.589-18.586.537.55 1.08 1.09 1.632 1.62 1.059 1.02 2.152 2.079 3.371 2.903 1.188.809 2.403 1.567 3.61 2.34.613.39 1.449.734 2.226.734.613 0 1.188-.214 1.586-.78.856-1.22.383-3.153-.074-4.415-.664-1.844-1.309-3.68-2.164-5.45-.946-1.952-2.082-3.796-3.16-5.679-.664-1.16-1.32-2.324-1.98-3.484-1.419-2.485-2.9-4.942-4.263-7.457-2.675-4.93-5.375-9.85-8.116-14.75l-.441-2.276c.538.674 1.083 1.342 1.636 2.006 1.671 2.004 3.324 4.059 5.168 5.903 1.98 1.98 4.023 3.828 6.363 5.375 1.398.921 2.878 1.486 4.407 1.978l.776 1.338c.207 1.027.422 2.05.637 3.078.274 1.316.692 2.61 1.05 3.902.497 1.801 1.005 3.594 1.5 5.395.895 3.227 1.868 6.43 2.81 9.64.816 2.797 1.644 5.594 2.48 8.387.133.512.27 1.02.402 1.528 2.84 19.394 6.082 38.734 8.88 58.132.988 5.618.964 11.426 1.073 17.04-6.382-23.297-17.136-45.18-23.82-68.422zM829.439 1033.86c0-.688-.012-1.372-.027-2.056.07.305.141.61.214.913-.033.465-.063.928-.09 1.393l-.097-.25z"/><path d="M767.45 904.314c-14.344-34.039-21.812-70.32-33.902-105.11-10.988-28.69-23.66-57.616-42.973-81.745-17.094-21.055-43.496-37.043-46.805 2.91-1.246 16.05-4.093 32.23-2.812 48.305-5.172-14.875-5.781-31.137-7.711-46.73-4.012-23.712 9.133-50.087 36.555-43.567 21.062 5.273 37.32 21.734 49.703 38.812 18.148 28.118 31.246 59.493 39.832 91.793 7.336 28.88 12.633 58.504 21.719 86.883 2.16 9.806 5.93 18.901 10.316 27.735.343 5.32.76 10.627 1.262 15.945.365 3.893.875 7.772 1.408 11.647-10.125-14.962-21.095-29.386-26.592-46.878z"/><path d="M754.453 840.602c-8.048-12.506-16.984-24.518-23.719-37.812-5.008-10.1-11.007-19.654-15.98-29.773-6.604-14.415-16.083-27.082-26.174-39.22-7.155-8.7-16.523-19.285-29.039-15.757-2.444.629-4.041 2.467-4.78 4.765-.067-1.698.266-3.26 1.137-4.785 20.845-19.82 47.867 11.996 58.465 29.242 5.72 9.131 9.383 19.317 13.566 29.204 4.131 9.419 8.07 18.903 11.297 28.675 4.743 11.933 10.545 23.568 15.227 35.462z"/><path d="M689.795 732.428c-4.95-5.064-9.415-10.625-14.938-15.114-4.004-4.087-10.859-5.777-12.912-11.444-3.729-.67-6.685-5.476-2.556-7.796-2.18.202-3.88.897-5.293 2.479-2.707 3.167-5.162 6.602-7.625 9.93 3.919-7.134 5.675-15.317 15.187-16.23 6.667-5.677 15.434.694 21.513 4.385 5.472 4.125 14.013 7.206 14.746 14.944 2.25 2.211 4.464 4.509 6.394 7.001 6.616 9.47-6.442 20.123-14.516 11.845z"/><path d="M656.972 749.343c-4.209-10.787 1.016-27.4 11.211-33.18 9.63-4.086 21.697-3.021 30.165 3.242 2.167 1.422 4.492 2.867 6.535 4.344-3.208-1.307-6.423-2.599-9.627-3.922-7.793-3.24-20.561-2.733-27.054 3.035-5.432 7.739-10.77 16.889-11.23 26.48z"/><path d="M710.833 740.373c-20.99-20.364-29.992-29.419-55.555-7.871-1.592 1.248-3.039 2.65-4.507 3.933 1.726-3.957 4.043-7.52 6.762-10.866 7.355-10.357 22.152-14.645 33.261-7.763 8.87 5.186 14.06 14.625 20.04 22.567zM770.915 893.09c-7.263-19.762-11.62-40.386-16.74-60.756-2.653-9.136-6.713-17.75-9.838-26.718-3.428-9.774-5.853-19.816-8.8-29.675 9.726 12.314 17.475 26.595 23.218 41.265 8.3 24.355 7.903 50.755 12.16 75.883z"/><path d="M787.934 929.348c-4.838-9.638-8.076-19.898-11.332-30.144-6.174-19.077-12.259-38.188-17.738-57.477-3.872-12.93-4.738-26.491-8.092-39.52-3.44-10.755-8.105-21.055-12.518-31.437 17.405 17.257 26.223 31.354 29.543 55.933 4.281 21.502 9.43 42.819 12.989 64.461 2.323 12.828 3.803 25.69 7.148 38.184z"/></g></svg>